<svg width="138" height="138" viewBox="0 0 138 138" fill="none" xmlns="http://www.w3.org/2000/svg">
<path d="M126.385 138H11.615C5.198 138 0 132.802 0 126.385V11.615C0 5.198 5.198 0 11.615 0H126.385C132.802 0 138 5.198 138 11.615V126.385C138 132.802 132.802 138 126.385 138ZM75.187 54.303C75.187 52.946 75.187 51.589 75.187 50.232C73.738 50.232 72.427 50.232 71.07 50.232C71.07 51.635 71.07 52.969 71.07 54.303C69.598 54.303 68.126 54.303 66.654 54.303C66.654 51.543 66.654 48.76 66.654 46C68.08 46 69.529 46 70.955 46C70.955 43.102 70.955 40.342 70.955 37.582C68.103 37.582 65.343 37.582 62.537 37.582C62.537 38.985 62.537 40.319 62.537 41.653C61.157 41.653 59.754 41.653 58.374 41.653C58.374 38.916 58.374 36.156 58.374 33.304C59.846 33.304 61.18 33.304 62.468 33.304C62.468 31.878 62.468 30.59 62.468 29.302C58.328 29.302 54.257 29.302 50.186 29.302C50.186 30.682 50.186 31.97 50.186 33.373C51.566 33.373 52.877 33.373 54.188 33.373C54.188 34.822 54.188 36.133 54.188 37.536C52.808 37.536 51.52 37.536 50.209 37.536C50.209 40.388 50.209 43.171 50.209 46C51.612 46 52.946 46 54.28 46C54.28 47.357 54.28 48.714 54.28 50.209C49.979 50.209 45.816 50.209 41.63 50.209C41.63 51.658 41.63 52.992 41.63 54.326C40.273 54.326 38.893 54.326 37.421 54.326C37.421 52.831 37.421 51.52 37.421 50.232C30.406 50.232 23.529 50.232 16.629 50.232C16.629 54.372 16.629 58.443 16.629 62.514C19.458 62.514 22.195 62.514 24.978 62.514C24.978 61.134 24.978 59.823 24.978 58.397C23.506 58.397 22.126 58.397 20.746 58.397C20.746 56.971 20.746 55.683 20.746 54.372C23.575 54.372 26.358 54.372 29.118 54.372C29.118 58.512 29.118 62.606 29.118 66.746C27.738 66.746 26.45 66.746 25.139 66.746C25.139 68.218 25.139 69.621 25.139 71.07C27.922 71.07 30.636 71.07 33.35 71.07C33.35 72.427 33.35 73.807 33.35 75.279C29.026 75.279 24.886 75.279 20.746 75.279C20.746 79.442 20.746 83.49 20.746 87.561C22.195 87.561 23.598 87.561 25.116 87.561C25.116 84.801 25.116 82.087 25.116 79.419C27.899 79.419 30.567 79.419 33.373 79.419C33.373 82.179 33.373 84.87 33.373 87.538C34.822 87.538 36.133 87.538 37.536 87.538C37.536 84.778 37.536 82.11 37.536 79.419C40.388 79.419 43.171 79.419 46.023 79.419C46.023 80.822 46.023 82.156 46.023 83.49C44.597 83.49 43.148 83.49 41.722 83.49C41.722 84.916 41.722 86.227 41.722 87.538C43.194 87.538 44.574 87.538 46 87.538C46 86.135 46 84.801 46 83.467C47.38 83.467 48.783 83.467 50.163 83.467C50.163 87.676 50.163 91.862 50.163 96.117C51.635 96.117 52.969 96.117 54.303 96.117C54.303 97.52 54.303 98.9 54.303 100.303C52.946 100.303 51.566 100.303 50.232 100.303C50.232 107.341 50.232 114.264 50.232 121.141C51.612 121.141 52.9 121.141 54.303 121.141C54.303 119.761 54.303 118.45 54.303 117.093C55.752 117.093 57.109 117.093 58.443 117.093L58.42 117.07C58.42 118.427 58.42 119.807 58.42 121.164C61.272 121.164 63.94 121.164 66.723 121.164C66.723 118.335 66.723 115.575 66.723 112.677C68.241 112.677 69.644 112.677 71.024 112.677C71.024 111.251 71.024 109.963 71.024 108.56C66.815 108.56 62.652 108.56 58.42 108.56C58.42 107.088 58.42 105.754 58.42 104.42C59.777 104.42 61.134 104.42 62.629 104.42C62.629 98.762 62.629 93.242 62.629 87.63C64.078 87.63 65.412 87.63 66.746 87.63C66.746 89.079 66.746 90.505 66.746 92.069C68.287 92.069 69.667 92.069 71.047 92.069C71.047 93.495 71.047 94.783 71.047 96.186C69.598 96.186 68.195 96.186 66.838 96.186C66.838 99.015 66.838 101.706 66.838 104.374C68.287 104.374 69.667 104.374 71.139 104.374C71.139 102.994 71.139 101.683 71.139 100.28C72.611 100.28 73.945 100.28 75.279 100.28C75.279 101.637 75.279 102.994 75.279 104.466C79.488 104.466 83.559 104.466 87.699 104.466C87.699 105.915 87.699 107.249 87.699 108.583C84.962 108.583 82.225 108.583 79.419 108.583C79.419 110.055 79.419 111.389 79.419 112.723C78.062 112.723 76.705 112.723 75.348 112.723C75.348 114.241 75.348 115.621 75.348 117.001C76.728 117.001 78.039 117.001 79.396 117.001C79.396 115.506 79.396 114.103 79.396 112.7C80.753 112.7 82.11 112.7 83.605 112.7C83.605 114.264 83.605 115.644 83.605 117.07C86.503 117.07 89.309 117.07 92.092 117.07C92.092 118.427 92.092 119.807 92.092 121.141C101.89 121.141 111.55 121.141 121.187 121.141C121.187 111.389 121.187 101.729 121.187 91.977C118.358 91.977 115.598 91.977 112.746 91.977C112.746 89.125 112.746 86.342 112.746 83.536C111.297 83.536 109.963 83.536 108.629 83.536C108.652 79.396 108.652 75.256 108.675 71.116C110.032 71.116 111.389 71.116 112.838 71.116C112.838 73.945 112.838 76.613 112.838 79.419C114.31 79.419 115.713 79.419 117.185 79.419C117.185 80.845 117.185 82.133 117.185 83.444C118.588 83.444 119.899 83.444 121.21 83.444C121.21 80.684 121.21 77.97 121.21 75.21C119.83 75.21 118.542 75.21 117.231 75.21C117.231 73.807 117.231 72.496 117.231 71.047C118.634 71.047 119.945 71.047 121.233 71.047C121.233 66.792 121.233 62.675 121.233 58.42C119.853 58.42 118.542 58.42 117.139 58.42C117.139 55.614 117.139 52.946 117.139 50.255C115.667 50.255 114.264 50.255 112.884 50.255C112.884 54.395 112.884 58.466 112.884 62.629C114.333 62.629 115.713 62.629 117.093 62.629C117.093 64.032 117.093 65.343 117.093 66.792C114.241 66.792 111.481 66.792 108.721 66.792C108.721 68.333 108.721 69.736 108.721 71.162C107.318 71.139 105.915 71.139 104.489 71.116C104.489 69.667 104.489 68.241 104.489 66.746C100.257 66.746 96.163 66.746 92.069 66.746C92.069 65.343 92.069 63.963 92.069 62.56C93.426 62.56 94.783 62.56 96.255 62.56C96.255 61.111 96.255 59.777 96.255 58.466C97.612 58.466 98.992 58.466 100.349 58.466C100.349 59.823 100.349 61.18 100.349 62.491C103.247 62.491 105.915 62.491 108.583 62.491C108.583 61.111 108.583 59.823 108.583 58.512C105.777 58.512 103.04 58.512 100.326 58.512C100.326 55.752 100.326 52.969 100.326 50.232C98.9 50.232 97.635 50.232 96.301 50.232C96.301 53.038 96.301 55.775 96.301 58.489C94.898 58.466 93.495 58.466 92.069 58.443C92.069 55.706 92.069 52.969 92.069 50.117C89.171 50.117 86.411 50.117 83.559 50.117C83.559 48.668 83.559 47.334 83.559 46C84.916 46 86.296 46 87.63 46C87.63 43.102 87.63 40.319 87.63 37.467C84.87 37.467 82.202 37.467 79.511 37.467C79.511 36.064 79.511 34.753 79.511 33.304C82.271 33.304 84.985 33.304 87.653 33.304C87.653 29.049 87.653 24.932 87.653 20.7C84.893 20.7 82.202 20.7 79.396 20.7C79.396 19.251 79.396 17.94 79.396 16.652C77.993 16.652 76.705 16.652 75.279 16.652C75.279 18.032 75.279 19.343 75.279 20.746C73.83 20.746 72.473 20.746 71.139 20.746C71.139 19.389 71.139 18.032 71.139 16.675C69.621 16.675 68.241 16.675 66.861 16.675C66.861 18.055 66.861 19.366 66.861 20.723C68.356 20.723 69.759 20.723 71.162 20.723C71.139 22.195 71.139 23.644 71.116 25.116L71.139 25.093C69.69 25.093 68.264 25.093 66.861 25.093C66.861 27.968 66.861 30.659 66.861 33.442C69.69 33.442 72.45 33.442 75.302 33.442C75.302 37.674 75.302 41.837 75.302 46.023C76.751 46.023 78.085 46.023 79.419 46.023C79.419 48.806 79.419 51.566 79.419 54.349C77.97 54.303 76.59 54.303 75.187 54.303ZM16.606 45.908C26.45 45.908 36.179 45.908 45.908 45.908C45.908 36.087 45.908 26.335 45.908 16.606C36.11 16.606 26.381 16.606 16.606 16.606C16.606 26.404 16.606 36.11 16.606 45.908ZM121.164 16.652C111.412 16.652 101.729 16.652 92.092 16.652C92.092 26.473 92.092 36.225 92.092 45.931C101.821 45.931 111.458 45.931 121.164 45.931C121.164 36.156 121.164 26.45 121.164 16.652ZM45.908 121.164C45.908 111.412 45.908 101.752 45.908 92.092C36.087 92.092 26.335 92.092 16.606 92.092C16.606 101.821 16.606 111.458 16.606 121.164C26.404 121.164 36.11 121.164 45.908 121.164ZM58.466 25.001C59.892 25.001 61.18 25.001 62.468 25.001C62.468 22.172 62.468 19.412 62.468 16.652C61.088 16.652 59.777 16.652 58.466 16.652C58.466 19.481 58.466 22.218 58.466 25.001ZM54.188 25.024C54.188 23.552 54.188 22.149 54.188 20.792C52.785 20.792 51.474 20.792 50.186 20.792C50.186 22.241 50.186 23.598 50.186 25.024C51.543 25.024 52.831 25.024 54.188 25.024ZM104.512 50.186C104.512 51.612 104.512 52.923 104.512 54.211C105.892 54.211 107.157 54.211 108.491 54.211C108.491 52.854 108.491 51.543 108.491 50.186C107.134 50.186 105.869 50.186 104.512 50.186Z" fill="white"/>
<path d="M108.538 83.513C109.872 83.513 111.206 83.513 112.655 83.513C112.655 86.342 112.655 89.1019 112.655 91.954C115.53 91.954 118.267 91.954 121.096 91.954C121.096 101.706 121.096 111.366 121.096 121.118C111.459 121.118 101.799 121.118 92.0005 121.118C92.0005 119.784 92.0005 118.404 92.0005 117.047L91.9545 117.07C93.3115 117.07 94.6685 117.07 96.0255 117.07C96.0255 114.149 96.0255 111.366 96.0255 108.537C93.1505 108.537 90.3675 108.537 87.5845 108.537L87.6305 108.56C87.6305 107.226 87.6305 105.892 87.6305 104.443C83.4905 104.443 79.4195 104.443 75.2105 104.443C75.2105 102.971 75.2105 101.614 75.2105 100.257L75.1645 100.28C76.5215 100.28 77.9015 100.28 79.3275 100.28C79.3275 98.785 79.3275 97.451 79.3275 96.117L79.3045 96.14C80.6615 96.14 82.0185 96.14 83.3755 96.14C83.3755 94.668 83.3755 93.357 83.3755 91.977C81.9725 91.977 80.6385 91.977 79.3045 91.977L79.3275 92C79.3275 90.551 79.3275 89.125 79.3275 87.561C80.7765 87.561 82.1105 87.561 83.3985 87.561C83.3985 84.778 83.3985 82.11 83.3985 79.419C82.0185 79.419 80.7075 79.419 79.2585 79.419C79.2585 80.799 79.2585 82.133 79.2585 83.421C77.8325 83.421 76.5675 83.421 75.2565 83.421C75.2565 80.661 75.2565 77.97 75.2565 75.141C78.0395 75.141 80.7305 75.141 83.3985 75.141C83.3985 73.715 83.3985 72.427 83.3985 71.024C77.8095 71.024 72.2665 71.024 66.7695 71.024C66.7695 68.126 66.7695 65.366 66.7695 62.606C68.2185 62.606 69.5985 62.606 71.0705 62.606C71.0705 63.986 71.0705 65.297 71.0705 66.7C76.6595 66.7 82.1335 66.7 87.6075 66.7L87.5845 66.677C87.5845 69.483 87.5845 72.312 87.5845 75.256C89.1255 75.256 90.5285 75.256 91.9085 75.256C91.9085 76.659 91.9085 77.947 91.9085 79.373C90.4595 79.373 89.0565 79.373 87.6765 79.373C87.6765 80.822 87.6765 82.133 87.6765 83.513C93.3115 83.513 98.8545 83.513 104.398 83.513L104.375 83.49C104.375 84.847 104.375 86.204 104.375 87.561C105.847 87.561 107.158 87.561 108.538 87.561C108.538 86.158 108.538 84.824 108.538 83.49V83.513ZM108.538 112.723C108.538 109.986 108.538 107.249 108.538 104.512C107.089 104.512 105.778 104.512 104.375 104.512C104.375 105.892 104.375 107.18 104.375 108.583C102.972 108.583 101.661 108.583 100.35 108.583C100.35 110.032 100.35 111.343 100.35 112.7C103.133 112.7 105.847 112.7 108.561 112.7C108.561 114.149 108.561 115.575 108.561 117.001C111.459 117.001 114.219 117.001 116.956 117.001C116.956 114.149 116.956 111.366 116.956 108.629C115.507 108.629 114.127 108.629 112.655 108.629C112.655 110.009 112.655 111.32 112.655 112.723C111.206 112.723 109.872 112.723 108.538 112.723ZM87.6995 87.676C87.6995 91.908 87.6995 96.071 87.6995 100.188C91.9315 100.188 96.0715 100.188 100.212 100.188C100.212 95.979 100.212 91.839 100.212 87.676C96.0485 87.676 91.9085 87.676 87.6995 87.676ZM108.607 100.211C109.987 100.211 111.321 100.211 112.609 100.211C112.609 98.808 112.609 97.4969 112.609 96.209C111.229 96.209 109.941 96.209 108.607 96.209C108.607 97.5429 108.607 98.831 108.607 100.211Z" fill="black"/>
<path d="M16.6055 45.908C16.6055 36.11 16.6055 26.381 16.6055 16.606C26.3805 16.606 36.0865 16.606 45.9075 16.606C45.9075 26.335 45.9075 36.064 45.9075 45.908C36.2015 45.908 26.4495 45.908 16.6055 45.908ZM41.5605 41.584C41.5605 34.569 41.5605 27.669 41.5605 20.792C34.5685 20.792 27.6685 20.792 20.7685 20.792C20.7685 27.761 20.7685 34.661 20.7685 41.584C27.7145 41.584 34.5915 41.584 41.5605 41.584Z" fill="black"/>
<path d="M121.165 16.6519C121.165 26.4499 121.165 36.1559 121.165 45.9309C111.482 45.9309 101.845 45.9309 92.0928 45.9309C92.0928 36.2019 92.0928 26.4729 92.0928 16.6519C101.73 16.6519 111.39 16.6519 121.165 16.6519ZM96.1868 41.5609C103.179 41.5609 110.079 41.5609 116.979 41.5609C116.979 34.5689 116.979 27.6689 116.979 20.7689C110.01 20.7689 103.133 20.7689 96.1868 20.7689C96.1868 27.6919 96.1868 34.5689 96.1868 41.5609Z" fill="black"/>
<path d="M45.9075 121.164C36.1095 121.164 26.3805 121.164 16.6055 121.164C16.6055 111.481 16.6055 101.821 16.6055 92.092C26.3345 92.092 36.0865 92.092 45.9075 92.092C45.9075 101.729 45.9075 111.412 45.9075 121.164ZM20.7455 117.001C27.7605 117.001 34.6605 117.001 41.5375 117.001C41.5375 110.009 41.5375 103.109 41.5375 96.209C34.5685 96.209 27.6685 96.209 20.7455 96.209C20.7455 103.155 20.7455 110.032 20.7455 117.001Z" fill="black"/>
<path d="M71.0465 25.0931C71.0695 23.6211 71.0695 22.1721 71.0925 20.7001L71.0695 20.7231C72.4035 20.7231 73.7375 20.7231 75.2095 20.7231C75.2095 19.3201 75.2095 18.0092 75.2095 16.6292C76.6125 16.6292 77.9005 16.6292 79.3265 16.6292C79.3265 17.9172 79.3265 19.2512 79.3265 20.6772C82.1555 20.6772 84.8465 20.6772 87.5835 20.6772C87.5835 24.9321 87.5835 29.0491 87.5835 33.2811C84.9155 33.2811 82.2015 33.2811 79.4415 33.2811C79.4415 34.7302 79.4415 36.0412 79.4415 37.4442C82.1325 37.4442 84.8005 37.4442 87.5605 37.4442C87.5605 40.2962 87.5605 43.0561 87.5605 45.9771C86.2265 45.9771 84.8695 45.9771 83.4895 45.9771L83.5125 46.0232C83.5125 44.5972 83.5125 43.1481 83.5125 41.7221C82.0405 41.7221 80.7295 41.7221 79.3495 41.7221C79.3495 43.2171 79.3495 44.6202 79.3495 46.0232L79.3725 45.9771C78.0385 45.9771 76.7045 45.9771 75.2555 45.9771C75.2555 41.7681 75.2555 37.6281 75.2555 33.3961C72.3805 33.3961 69.6435 33.3961 66.8145 33.3961C66.8145 30.6131 66.8145 27.9222 66.8145 25.0472C68.2175 25.0472 69.6665 25.0472 71.0925 25.0472C71.0925 26.4042 71.0925 27.7611 71.0925 29.1411C73.9215 29.1411 76.6125 29.1411 79.2805 29.1411C79.2805 27.7611 79.2805 26.4271 79.2805 25.0931C76.4745 25.0931 73.7605 25.0931 71.0465 25.0931Z" fill="black"/>
<path d="M33.3733 71.0467C30.6593 71.0467 27.9453 71.0467 25.1623 71.0467C25.1623 69.5977 25.1623 68.2177 25.1623 66.7227C26.4733 66.7227 27.7613 66.7227 29.1413 66.7227C29.1413 62.5597 29.1413 58.4887 29.1413 54.3487C26.3813 54.3487 23.5983 54.3487 20.7693 54.3487C20.7693 55.6597 20.7693 56.9477 20.7693 58.3737C22.1493 58.3737 23.5523 58.3737 25.0013 58.3737C25.0013 59.8227 25.0013 61.1337 25.0013 62.4907C22.2183 62.4907 19.4813 62.4907 16.6523 62.4907C16.6523 58.4197 16.6523 54.3487 16.6523 50.2087C23.5523 50.2087 30.4293 50.2087 37.4443 50.2087C37.4443 51.4967 37.4443 52.8077 37.4443 54.3027C38.9393 54.3027 40.2963 54.3027 41.6533 54.3027L41.6303 54.2567C41.6303 55.6367 41.6533 57.0397 41.6533 58.4197C38.9163 58.4197 36.1793 58.4197 33.4193 58.4197C33.4193 59.8457 33.4193 61.1567 33.4193 62.5827C34.7993 62.5827 36.1103 62.5827 37.5133 62.5827C37.5133 64.0317 37.5133 65.3657 37.5133 66.6997C36.1563 66.6997 34.7763 66.6997 33.3503 66.6997C33.3503 68.2407 33.3503 69.6667 33.3503 71.0697L33.3733 71.0467Z" fill="black"/>
<path d="M58.3974 104.397C58.3974 105.731 58.3974 107.065 58.3974 108.537C62.6294 108.537 66.7924 108.537 71.0014 108.537C71.0014 109.94 71.0014 111.228 71.0014 112.654C69.6214 112.654 68.2184 112.654 66.7004 112.654C66.7004 115.552 66.7004 118.335 66.7004 121.141C63.9174 121.141 61.2494 121.141 58.3974 121.141C58.3974 119.761 58.3974 118.404 58.3974 117.047C59.7544 117.047 61.1114 117.047 62.4914 117.047C62.4914 115.529 62.4914 114.149 62.4914 112.769C61.1114 112.769 59.8004 112.769 58.4434 112.769C58.4434 114.264 58.4434 115.667 58.4434 117.07C57.1094 117.07 55.7754 117.07 54.3034 117.07C54.3034 118.427 54.3034 119.761 54.3034 121.118C52.9004 121.118 51.6124 121.118 50.2324 121.118C50.2324 114.218 50.2324 107.318 50.2324 100.28C51.5664 100.28 52.9464 100.28 54.3034 100.28L54.2804 100.234C54.2804 101.591 54.2804 102.971 54.2804 104.397C55.7754 104.397 57.1094 104.397 58.4434 104.397H58.3974Z" fill="black"/>
<path d="M66.7228 87.6071C65.3888 87.6071 64.0548 87.6071 62.6058 87.6071C62.6058 93.2191 62.6058 98.7391 62.6058 104.397C61.1338 104.397 59.7768 104.397 58.3968 104.397L58.4428 104.42C58.4428 103.063 58.4428 101.683 58.4428 100.257C56.9478 100.257 55.6138 100.257 54.2798 100.257L54.3028 100.303C54.3028 98.9001 54.3028 97.5201 54.3028 96.1171L54.2568 96.1401C55.6138 96.1401 56.9708 96.1401 58.3278 96.1401C58.3278 91.8391 58.3278 87.6761 58.3278 83.4671C56.9248 83.4671 55.5908 83.4671 54.2568 83.4671L54.2798 83.4901C54.2798 80.7531 54.2798 78.0161 54.2798 75.2791C59.9378 75.2791 65.4808 75.2791 70.9778 75.2791C70.9778 76.6591 70.9778 77.9471 70.9778 79.3501C69.5288 79.3501 68.1258 79.3501 66.6538 79.3501C66.6538 82.1791 66.6538 84.9161 66.6538 87.6301L66.7228 87.6071Z" fill="black"/>
<path d="M46.0231 83.5128C46.0231 82.1788 46.0231 80.8448 46.0231 79.4418C43.1711 79.4418 40.3881 79.4418 37.5361 79.4418C37.5361 82.1328 37.5361 84.8008 37.5361 87.5608C36.1331 87.5608 34.8221 87.5608 33.3731 87.5608C33.3731 84.8928 33.3731 82.1788 33.3731 79.4418C30.5901 79.4418 27.9221 79.4418 25.1161 79.4418C25.1161 82.1098 25.1161 84.8008 25.1161 87.5838C23.5981 87.5838 22.2181 87.5838 20.7461 87.5838C20.7461 83.5128 20.7461 79.4648 20.7461 75.3018C24.8861 75.3018 29.0261 75.3018 33.3501 75.3018C33.3501 73.8068 33.3501 72.4498 33.3501 71.0928L33.3271 71.1388C34.7071 71.1388 36.1101 71.1158 37.4901 71.1158C37.4901 72.4728 37.4901 73.8298 37.4901 75.3248C41.7681 75.3248 45.9081 75.3248 50.1171 75.3248C50.1171 78.1538 50.1171 80.8678 50.1171 83.5818L50.1401 83.5358C48.7601 83.5358 47.3571 83.5358 45.9771 83.5358L46.0231 83.5128Z" fill="black"/>
<path d="M108.629 71.1157C108.629 69.7127 108.629 68.2867 108.629 66.7457C111.389 66.7457 114.149 66.7457 117.001 66.7457C117.001 65.2967 117.001 63.9857 117.001 62.5827C115.621 62.5827 114.241 62.5827 112.792 62.5827C112.792 58.4197 112.792 54.3487 112.792 50.2087C114.172 50.2087 115.575 50.2087 117.047 50.2087C117.047 52.9227 117.047 55.5907 117.047 58.3737C118.45 58.3737 119.761 58.3737 121.141 58.3737C121.141 62.6287 121.141 66.7457 121.141 71.0007C119.853 71.0007 118.542 71.0007 117.139 71.0007C117.139 72.4497 117.139 73.7607 117.139 75.1637C118.45 75.1637 119.738 75.1637 121.118 75.1637C121.118 77.9467 121.118 80.6377 121.118 83.3977C119.807 83.3977 118.496 83.3977 117.093 83.3977C117.093 82.0637 117.093 80.7757 117.093 79.3727C115.621 79.3727 114.218 79.3727 112.746 79.3727C112.746 76.5897 112.746 73.9217 112.746 71.0697C111.297 71.0697 109.94 71.0697 108.583 71.0697C108.583 71.0927 108.629 71.1157 108.629 71.1157Z" fill="black"/>
<path d="M66.6779 45.9772C66.6779 48.7372 66.6779 51.5202 66.6779 54.2802L66.7239 54.2572C65.3439 54.2572 63.9409 54.2802 62.5609 54.2802C62.5609 52.9232 62.5609 51.5662 62.5609 50.2092C61.1119 50.2092 59.8009 50.2092 58.4439 50.2092C58.4439 51.6122 58.4439 52.9462 58.4439 54.2802C52.8319 54.2802 47.2199 54.2572 41.6309 54.2572L41.6539 54.3032C41.6539 52.9692 41.6539 51.6352 41.6539 50.1862C45.8399 50.1862 50.0029 50.1862 54.3039 50.1862C54.3039 48.7142 54.3039 47.3572 54.3039 45.9772L54.2579 46.0002C55.6149 46.0002 56.9949 46.0002 58.4209 46.0002C58.4209 44.4132 58.4209 43.0102 58.4209 41.6072L58.3979 41.6532C59.7779 41.6532 61.1809 41.6532 62.5609 41.6532L62.5379 41.6072C62.5379 43.0562 62.5379 44.4822 62.5379 46.0002C64.0329 46.0002 65.3669 46.0002 66.7009 46.0002L66.6779 45.9772Z" fill="black"/>
<path d="M83.4676 45.9771C83.4676 47.3111 83.4676 48.6451 83.4676 50.0941C86.3196 50.0941 89.0796 50.0941 91.9776 50.0941C91.9776 52.9461 91.9776 55.6831 91.9776 58.4201L92.0236 58.3971C90.5746 58.3971 89.1486 58.3971 87.6306 58.3971C87.6306 59.8921 87.6306 61.2261 87.6306 62.5601L87.6536 62.5371C84.9166 62.5371 82.1796 62.5371 79.3736 62.5371C79.3736 61.0651 79.3736 59.7311 79.3736 58.3971L79.3506 58.4201C80.7076 58.4201 82.0646 58.4201 83.4216 58.4201C83.4216 56.9481 83.4216 55.6371 83.4216 54.2571C82.0186 54.2571 80.6846 54.2571 79.3506 54.2571L79.3966 54.2801C79.3966 51.4971 79.3966 48.7371 79.3966 45.9541L79.3736 46.0001C80.7536 46.0001 82.1566 46.0001 83.5366 46.0001L83.4676 45.9771Z" fill="black"/>
<path d="M75.2328 100.257C73.8988 100.257 72.5648 100.257 71.0928 100.257C71.0928 101.66 71.0928 102.971 71.0928 104.351C69.5978 104.351 68.2408 104.351 66.7918 104.351C66.7918 101.683 66.7918 98.9922 66.7918 96.1632C68.1718 96.1632 69.5518 96.1632 71.0008 96.1632C71.0008 94.7602 71.0008 93.4722 71.0008 92.0462C69.6208 92.0462 68.2408 92.0462 66.6998 92.0462C66.6998 90.4822 66.6998 89.0562 66.6998 87.6072L66.6768 87.6532C69.4828 87.6532 72.3118 87.6532 75.2328 87.6532C75.2328 89.1712 75.2328 90.5512 75.2328 92.0232C76.6818 92.0232 78.0158 92.0232 79.3498 92.0232L79.3268 92.0002C79.3268 93.3802 79.3268 94.7832 79.3268 96.1632L79.3498 96.1402C77.9928 96.1402 76.6128 96.1402 75.1868 96.1402C75.1868 97.6352 75.1868 98.9692 75.1868 100.303L75.2328 100.257Z" fill="black"/>
<path d="M54.303 45.9768C52.969 45.9768 51.635 45.9768 50.232 45.9768C50.232 43.1478 50.232 40.3648 50.232 37.5128C51.543 37.5128 52.831 37.5128 54.211 37.5128C54.211 36.1098 54.211 34.7988 54.211 33.3498C52.9 33.3498 51.589 33.3498 50.209 33.3498C50.209 31.9468 50.209 30.6588 50.209 29.2788C54.28 29.2788 58.351 29.2788 62.491 29.2788C62.491 30.5668 62.491 31.8548 62.491 33.2808C61.203 33.2808 59.892 33.2808 58.397 33.2808C58.397 36.1558 58.397 38.8928 58.397 41.6298L58.42 41.5838C57.063 41.5838 55.683 41.5838 54.257 41.5838C54.257 43.1708 54.257 44.5738 54.257 45.9768H54.303Z" fill="black"/>
<path d="M91.9766 66.723C96.0706 66.723 100.165 66.723 104.397 66.723C104.397 68.218 104.397 69.644 104.397 71.093L104.443 71.07C103.086 71.07 101.729 71.07 100.234 71.07C100.234 73.922 100.234 76.6129 100.234 79.3039C98.8306 79.3039 97.5426 79.3039 96.1396 79.3039C96.1396 76.5669 96.1396 73.8759 96.1396 71.0469C94.7136 71.0469 93.3796 71.0469 92.0226 71.0469C92.0226 69.5059 92.0226 68.103 92.0226 66.7L91.9766 66.723Z" fill="black"/>
<path d="M79.3732 112.723C79.3732 111.389 79.3732 110.055 79.3732 108.583C82.1792 108.583 84.9162 108.583 87.6532 108.583L87.6071 108.56C87.6071 109.917 87.6071 111.274 87.6071 112.769C89.1481 112.769 90.5511 112.769 91.9771 112.769C91.9771 114.287 91.9771 115.713 91.9771 117.116L92.0232 117.093C89.2402 117.093 86.4572 117.093 83.5362 117.093C83.5362 115.667 83.5362 114.264 83.5362 112.723C82.0642 112.723 80.6841 112.723 79.3271 112.723H79.3732Z" fill="black"/>
<path d="M62.583 41.6528C62.583 40.3188 62.583 38.9848 62.583 37.5818C65.389 37.5818 68.149 37.5818 71.001 37.5818C71.001 40.3418 71.001 43.1018 71.001 45.9998C69.552 45.9998 68.126 45.9998 66.7 45.9998L66.746 46.0228C66.746 44.5738 66.746 43.1478 66.746 41.6298C65.251 41.6298 63.917 41.6298 62.583 41.6298V41.6528Z" fill="black"/>
<path d="M54.3026 96.117C52.9686 96.117 51.6346 96.117 50.1626 96.117C50.1626 91.862 50.1626 87.653 50.1626 83.467L50.1396 83.513C51.5196 83.513 52.9226 83.513 54.3026 83.513L54.2796 83.49C54.2796 87.722 54.2796 91.954 54.2796 96.163L54.3026 96.117Z" fill="black"/>
<path d="M104.396 71.0928C105.799 71.1158 107.202 71.1158 108.628 71.1388L108.582 71.1158C108.559 75.2558 108.559 79.3958 108.536 83.5358L108.559 83.4898C107.179 83.4898 105.776 83.4898 104.396 83.4898L104.419 83.5128C104.419 79.3728 104.419 75.2098 104.419 71.0698L104.396 71.0928Z" fill="black"/>
<path d="M58.4658 25.0009C58.4658 22.2179 58.4658 19.4579 58.4658 16.6519C59.7768 16.6519 61.0878 16.6519 62.4678 16.6519C62.4678 19.4119 62.4678 22.1719 62.4678 25.0009C61.1798 25.0009 59.8918 25.0009 58.4658 25.0009Z" fill="black"/>
<path d="M100.233 58.4889C102.97 58.4889 105.707 58.4889 108.513 58.4889C108.513 59.7999 108.513 61.0879 108.513 62.4679C105.845 62.4679 103.154 62.4679 100.279 62.4679C100.279 61.1569 100.279 59.7999 100.279 58.4429C100.256 58.4429 100.233 58.4889 100.233 58.4889Z" fill="black"/>
<path d="M96.2091 58.466C96.2091 55.729 96.2091 52.992 96.2091 50.186C97.5431 50.186 98.8081 50.186 100.234 50.186C100.234 52.923 100.234 55.706 100.234 58.466L100.257 58.42C98.9001 58.42 97.5201 58.42 96.1631 58.42C96.1631 58.443 96.2091 58.466 96.2091 58.466Z" fill="black"/>
<path d="M79.3263 112.677C79.3263 114.08 79.3263 115.483 79.3263 116.978C77.9693 116.978 76.6583 116.978 75.2783 116.978C75.2783 115.598 75.2783 114.218 75.2783 112.7C76.6353 112.7 77.9923 112.7 79.3493 112.7C79.3723 112.723 79.3263 112.677 79.3263 112.677Z" fill="black"/>
<path d="M71.093 20.6772C69.69 20.6772 68.287 20.6772 66.792 20.6772C66.792 19.3202 66.792 18.0092 66.792 16.6292C68.172 16.6292 69.552 16.6292 71.07 16.6292C71.07 17.9862 71.07 19.3431 71.07 20.7001C71.047 20.7231 71.093 20.6772 71.093 20.6772Z" fill="black"/>
<path d="M54.1875 25.024C52.8305 25.024 51.5425 25.024 50.1855 25.024C50.1855 23.621 50.1855 22.264 50.1855 20.792C51.4735 20.792 52.7845 20.792 54.1875 20.792C54.1875 22.149 54.1875 23.529 54.1875 25.024Z" fill="black"/>
<path d="M91.9774 62.5371C91.9774 63.9401 91.9774 65.3201 91.9774 66.7231L92.0004 66.6771C90.5284 66.6771 89.0564 66.6771 87.6074 66.6771L87.6304 66.7001C87.6304 65.3201 87.6304 63.9171 87.6304 62.5371L87.6074 62.5601C89.0794 62.5601 90.5514 62.5601 92.0004 62.5601L91.9774 62.5371Z" fill="black"/>
<path d="M45.9772 83.467C45.9772 84.801 45.9772 86.135 45.9772 87.538C44.5512 87.538 43.1712 87.538 41.6992 87.538C41.6992 86.25 41.6992 84.939 41.6992 83.49C43.1482 83.49 44.5742 83.49 46.0002 83.49C46.0232 83.513 45.9772 83.467 45.9772 83.467Z" fill="black"/>
<path d="M66.6768 54.3031C68.1488 54.3031 69.6208 54.3031 71.0928 54.3031L71.0698 54.2571C71.0698 55.6141 71.0698 56.9711 71.0698 58.3281C69.5518 58.3281 68.1718 58.3281 66.7228 58.3281C66.7228 56.9251 66.7228 55.5911 66.7228 54.2571L66.6768 54.3031Z" fill="black"/>
<path d="M91.9766 58.4432C93.3796 58.4662 94.7826 58.4662 96.2086 58.4892L96.1626 58.4662C96.1626 59.8002 96.1626 61.1112 96.1626 62.5602C94.6906 62.5602 93.3336 62.5602 91.9766 62.5602L92.0226 62.5832C92.0226 61.2032 92.0226 59.8002 92.0226 58.4202L91.9766 58.4432Z" fill="black"/>
<path d="M75.1875 54.303C76.5905 54.303 77.9705 54.303 79.3735 54.303L79.3275 54.28C79.3275 55.66 79.3275 57.063 79.3275 58.443L79.3505 58.42C77.9935 58.42 76.6365 58.42 75.2105 58.42C75.2105 56.948 75.2105 55.614 75.2105 54.28L75.1875 54.303Z" fill="black"/>
<path d="M71.0933 54.3032C71.0933 52.9692 71.0933 51.6352 71.0933 50.2322C72.4503 50.2322 73.7613 50.2322 75.2103 50.2322C75.2103 51.5892 75.2103 52.9462 75.2103 54.3032L75.2333 54.2572C73.8533 54.2572 72.4503 54.2572 71.0703 54.2572L71.0933 54.3032Z" fill="black"/>
<path d="M104.513 50.186C105.87 50.186 107.158 50.186 108.492 50.186C108.492 51.543 108.492 52.854 108.492 54.211C107.158 54.211 105.87 54.211 104.513 54.211C104.513 52.923 104.513 51.612 104.513 50.186Z" fill="black"/>
<path d="M71.0472 54.2571C72.4272 54.2571 73.8302 54.2571 75.2102 54.2571C75.2102 55.5911 75.2102 56.9251 75.2102 58.3971C76.6362 58.3971 77.9932 58.3971 79.3502 58.3971C79.3502 59.7311 79.3502 61.0651 79.3502 62.5371C82.1562 62.5371 84.8932 62.5371 87.6302 62.5371C87.6302 63.9171 87.6302 65.3201 87.6302 66.7001C82.1562 66.7001 76.6822 66.7001 71.0932 66.7001C71.0932 65.2971 71.0932 63.9861 71.0932 62.6061C69.5982 62.6061 68.2412 62.6061 66.7922 62.6061C66.7922 65.3431 66.7922 68.1261 66.7922 71.0241C72.3122 71.0241 77.8322 71.0241 83.4212 71.0241C83.4212 72.4271 83.4212 73.7151 83.4212 75.1411C80.7532 75.1411 78.0622 75.1411 75.2792 75.1411C75.2792 77.9701 75.2792 80.6611 75.2792 83.4211C76.5902 83.4211 77.8782 83.4211 79.2812 83.4211C79.2812 82.1331 79.2812 80.8221 79.2812 79.4191C80.7302 79.4191 82.0412 79.4191 83.4212 79.4191C83.4212 82.1101 83.4212 84.7781 83.4212 87.5611C82.1332 87.5611 80.8222 87.5611 79.3502 87.5611C79.3502 89.1251 79.3502 90.5741 79.3502 92.0001C78.0162 92.0001 76.6822 92.0001 75.2332 92.0001C75.2332 90.5281 75.2332 89.1481 75.2332 87.6301C72.2892 87.6301 69.4832 87.6301 66.6772 87.6301C66.6772 84.9161 66.6772 82.2021 66.6772 79.3501C68.1492 79.3501 69.5522 79.3501 71.0012 79.3501C71.0012 77.9471 71.0012 76.6591 71.0012 75.2791C65.4812 75.2791 59.9612 75.2791 54.3032 75.2791C54.3032 77.9931 54.3032 80.7531 54.3032 83.4901C52.9232 83.4901 51.5202 83.4901 50.1402 83.4901C50.1402 80.7761 50.1402 78.0621 50.1402 75.2331C45.9542 75.2331 41.7912 75.2331 37.5132 75.2331C37.5132 73.7611 37.5132 72.4041 37.5132 71.0241L37.4902 71.0471C41.6762 71.0471 45.8852 71.0471 50.1632 71.0471C50.1632 69.4601 50.1632 68.0571 50.1632 66.6541L50.1402 66.6771C51.5202 66.6771 52.9002 66.6771 54.2802 66.7001C54.2802 68.1261 54.2802 69.5521 54.2802 70.9551C57.1782 70.9551 59.8462 70.9551 62.5142 70.9551C62.5142 69.5061 62.5142 68.1491 62.5142 66.7461C59.7082 66.7461 56.9712 66.7461 54.2572 66.7461C54.2572 65.3661 54.2572 63.9631 54.2572 62.5371C52.8082 62.5371 51.4742 62.5371 50.1632 62.5371L50.1862 62.5601C50.1862 61.2031 50.1862 59.8461 50.1862 58.3971C47.2192 58.3971 44.4362 58.3971 41.6532 58.3971L41.6762 58.4201C41.6762 57.0401 41.6532 55.6371 41.6532 54.2571C47.2652 54.2571 52.8772 54.2801 58.4662 54.2801L58.4432 54.2571C58.4432 56.9941 58.4432 59.7311 58.4432 62.4681C59.9152 62.4681 61.2262 62.4681 62.6062 62.4681C62.6062 59.6851 62.6062 56.9711 62.6062 54.2571L62.5832 54.2801C63.9632 54.2801 65.3662 54.2571 66.7462 54.2571C66.7462 55.5911 66.7462 56.9251 66.7462 58.3281C68.1722 58.3281 69.5752 58.3281 71.0932 58.3281C71.0472 56.9711 71.0472 55.6141 71.0472 54.2571Z" fill="white"/>
<path d="M87.6074 66.677C89.0794 66.677 90.5514 66.677 92.0004 66.677C92.0004 68.08 92.0004 69.506 92.0004 71.024C93.3574 71.024 94.6914 71.024 96.1174 71.024C96.1174 73.83 96.1174 76.521 96.1174 79.281C97.5204 79.281 98.8084 79.281 100.211 79.281C100.211 76.59 100.211 73.899 100.211 71.047C101.683 71.047 103.063 71.047 104.42 71.047C104.42 75.187 104.42 79.35 104.42 83.49C98.8774 83.49 93.3344 83.49 87.6994 83.49C87.6994 82.11 87.6994 80.799 87.6994 79.35C89.0794 79.35 90.4824 79.35 91.9314 79.35C91.9314 77.947 91.9314 76.659 91.9314 75.233C90.5514 75.233 89.1484 75.233 87.6074 75.233C87.6074 72.312 87.6074 69.506 87.6074 66.677Z" fill="white"/>
<path d="M87.6992 87.6758C91.9082 87.6758 96.0252 87.6758 100.211 87.6758C100.211 91.8388 100.211 95.9788 100.211 100.188C96.0712 100.188 91.9312 100.188 87.6992 100.188C87.6992 96.0708 87.6992 91.9308 87.6992 87.6758ZM96.0712 96.0938C96.0712 94.6908 96.0712 93.3798 96.0712 92.0918C94.6912 92.0918 93.3802 92.0918 92.0692 92.0918C92.0692 93.4718 92.0692 94.7368 92.0692 96.0938C93.4032 96.0938 94.6912 96.0938 96.0712 96.0938Z" fill="white"/>
<path d="M108.537 112.723C109.871 112.723 111.205 112.723 112.654 112.723C112.654 111.32 112.654 110.009 112.654 108.629C114.149 108.629 115.506 108.629 116.955 108.629C116.955 111.366 116.955 114.149 116.955 117.001C114.218 117.001 111.458 117.001 108.56 117.001C108.56 115.575 108.56 114.149 108.56 112.7L108.537 112.723Z" fill="white"/>
<path d="M91.9774 117.093C91.9774 115.69 91.9774 114.287 91.9774 112.746C90.5514 112.746 89.1484 112.746 87.6074 112.746C87.6074 111.274 87.6074 109.917 87.6074 108.537C90.3904 108.537 93.1734 108.537 96.0484 108.537C96.0484 111.389 96.0484 114.149 96.0484 117.07C94.7144 117.093 93.3344 117.093 91.9774 117.093Z" fill="white"/>
<path d="M108.583 112.677C105.869 112.677 103.155 112.677 100.372 112.677C100.372 111.32 100.372 110.009 100.372 108.56C101.683 108.56 103.017 108.56 104.397 108.56C104.397 107.157 104.397 105.869 104.397 104.489C105.8 104.489 107.111 104.489 108.56 104.489C108.56 107.226 108.56 109.963 108.56 112.7C108.537 112.723 108.583 112.677 108.583 112.677Z" fill="white"/>
<path d="M108.605 100.211C108.605 98.8307 108.605 97.5427 108.605 96.2087C109.939 96.2087 111.227 96.2087 112.607 96.2087C112.607 97.5197 112.607 98.8307 112.607 100.211C111.319 100.211 110.008 100.211 108.605 100.211Z" fill="white"/>
<path d="M75.1875 100.303C75.1875 98.9691 75.1875 97.6351 75.1875 96.1401C76.6365 96.1401 77.9935 96.1401 79.3505 96.1401C79.3505 97.4741 79.3505 98.8081 79.3505 100.303C77.9245 100.303 76.5675 100.303 75.1875 100.303Z" fill="white"/>
<path d="M79.3271 96.163C79.3271 94.783 79.3271 93.38 79.3271 92C80.6611 92 81.9952 92 83.3982 92C83.3982 93.38 83.3982 94.691 83.3982 96.163C82.0642 96.163 80.6841 96.163 79.3271 96.163Z" fill="white"/>
<path d="M104.396 83.467C105.776 83.467 107.179 83.467 108.559 83.467C108.559 84.801 108.559 86.135 108.559 87.538C107.179 87.538 105.868 87.538 104.396 87.538C104.396 86.204 104.396 84.824 104.396 83.467Z" fill="white"/>
<path d="M41.5615 41.584C34.5925 41.584 27.7155 41.584 20.7695 41.584C20.7695 34.661 20.7695 27.761 20.7695 20.792C27.6465 20.792 34.5695 20.792 41.5615 20.792C41.5615 27.669 41.5615 34.569 41.5615 41.584ZM25.1165 37.398C29.2795 37.398 33.3505 37.398 37.3985 37.398C37.3985 33.258 37.3985 29.187 37.3985 25.116C33.2585 25.116 29.2335 25.116 25.1165 25.116C25.1165 29.233 25.1165 33.281 25.1165 37.398Z" fill="white"/>
<path d="M96.1855 41.561C96.1855 34.592 96.1855 27.715 96.1855 20.769C103.132 20.769 110.009 20.769 116.978 20.769C116.978 27.669 116.978 34.569 116.978 41.561C110.101 41.561 103.178 41.561 96.1855 41.561ZM112.608 37.444C112.608 33.281 112.608 29.21 112.608 25.162C108.445 25.162 104.374 25.162 100.326 25.162C100.326 29.302 100.326 33.35 100.326 37.444C104.443 37.444 108.491 37.444 112.608 37.444Z" fill="white"/>
<path d="M20.7461 117.001C20.7461 110.032 20.7461 103.155 20.7461 96.2087C27.6691 96.2087 34.5691 96.2087 41.5381 96.2087C41.5381 103.086 41.5381 110.009 41.5381 117.001C34.6611 117.001 27.7611 117.001 20.7461 117.001ZM37.4441 100.372C33.2811 100.372 29.2101 100.372 25.1621 100.372C25.1621 104.535 25.1621 108.606 25.1621 112.654C29.3021 112.654 33.3501 112.654 37.4441 112.654C37.4441 108.537 37.4441 104.489 37.4441 100.372Z" fill="white"/>
<path d="M71.0469 25.0929C73.7609 25.0929 76.4749 25.0929 79.2579 25.0929C79.2579 26.4499 79.2579 27.7609 79.2579 29.1409C76.5899 29.1409 73.8989 29.1409 71.0699 29.1409C71.0699 27.7839 71.0699 26.4269 71.0699 25.0469C71.0929 25.0469 71.0469 25.0929 71.0469 25.0929Z" fill="white"/>
<path d="M83.5136 46.0229C82.1336 46.0229 80.7306 46.0229 79.3506 46.0229C79.3506 44.6199 79.3506 43.1939 79.3506 41.7219C80.7306 41.7219 82.0416 41.7219 83.5136 41.7219C83.5136 43.1479 83.5136 44.5739 83.5136 46.0229Z" fill="white"/>
<path d="M37.5129 66.7232C37.5129 65.3892 37.5129 64.0552 37.5129 62.6062C36.1099 62.6062 34.7989 62.6062 33.4189 62.6062C33.4189 61.1802 33.4189 59.8692 33.4189 58.4432C36.1789 58.4432 38.9159 58.4432 41.6529 58.4432L41.6299 58.4202C41.6299 59.7772 41.6299 61.1342 41.6299 62.5832C44.5969 62.5832 47.3799 62.5832 50.1629 62.5832L50.1399 62.5602C50.1399 63.9402 50.1399 65.3432 50.1399 66.7232L50.1629 66.7002C45.9309 66.7002 41.6989 66.7002 37.4899 66.7002L37.5129 66.7232Z" fill="white"/>
<path d="M37.5136 71.047C36.1336 71.047 34.7306 71.07 33.3506 71.07C33.3506 69.667 33.3506 68.241 33.3506 66.7C34.7996 66.7 36.1566 66.7 37.5136 66.7L37.4906 66.677C37.4906 68.149 37.4906 69.621 37.4906 71.07L37.5136 71.047Z" fill="white"/>
<path d="M58.4425 117.093C58.4425 115.69 58.4425 114.287 58.4425 112.792C59.7995 112.792 61.1105 112.792 62.4905 112.792C62.4905 114.172 62.4905 115.552 62.4905 117.07C61.1335 117.07 59.7765 117.07 58.3965 117.07C58.3965 117.047 58.4425 117.093 58.4425 117.093Z" fill="white"/>
<path d="M54.2568 100.257C55.5908 100.257 56.9248 100.257 58.4198 100.257C58.4198 101.706 58.4198 103.063 58.4198 104.42C57.0858 104.42 55.7518 104.42 54.2568 104.42C54.2568 102.994 54.2568 101.637 54.2568 100.257Z" fill="white"/>
<path d="M54.2568 96.163C54.2568 91.931 54.2568 87.699 54.2568 83.49C55.5908 83.49 56.9248 83.49 58.3278 83.49C58.3278 87.722 58.3278 91.862 58.3278 96.163C56.9938 96.163 55.6138 96.163 54.2568 96.163Z" fill="white"/>
<path d="M54.2568 46.0229C54.2568 44.6199 54.2568 43.1939 54.2568 41.6299C55.7058 41.6299 57.0628 41.6299 58.4198 41.6299C58.4198 43.0329 58.4198 44.4589 58.4198 46.0229C56.9938 46.0229 55.6368 46.0229 54.2568 46.0229Z" fill="white"/>
<path d="M62.5371 41.6072C63.8711 41.6072 65.2051 41.6072 66.7001 41.6072C66.7001 43.1252 66.7001 44.5742 66.7001 46.0002C65.3661 46.0002 64.0321 46.0002 62.5371 46.0002C62.5371 44.5052 62.5371 43.0562 62.5371 41.6072Z" fill="white"/>
<path d="M58.4429 54.3032C58.4429 52.9692 58.4429 51.6352 58.4429 50.2322C59.7999 50.2322 61.1109 50.2322 62.5599 50.2322C62.5599 51.5892 62.5599 52.9462 62.5599 54.3032L62.5829 54.2802C61.2029 54.2802 59.7999 54.2802 58.4199 54.2802L58.4429 54.3032Z" fill="white"/>
<path d="M92.0239 58.397C92.0239 59.777 92.0239 61.18 92.0239 62.56C90.5519 62.56 89.0799 62.56 87.6309 62.56C87.6309 61.226 87.6309 59.892 87.6309 58.397C89.1259 58.397 90.5749 58.397 92.0239 58.397Z" fill="white"/>
<path d="M79.3271 58.443C79.3271 57.063 79.3271 55.66 79.3271 54.28C80.6611 54.28 81.9952 54.28 83.3982 54.28C83.3982 55.66 83.3982 56.971 83.3982 58.443C82.0642 58.443 80.6841 58.443 79.3271 58.443Z" fill="white"/>
<path d="M37.4678 71.093C37.4678 69.621 37.4678 68.149 37.4678 66.7C41.6998 66.7 45.9318 66.7 50.1408 66.7C50.1408 68.103 50.1408 69.529 50.1408 71.093C45.8628 71.093 41.6768 71.093 37.4678 71.093Z" fill="black"/>
<path d="M54.2334 66.7691C56.9704 66.7691 59.7074 66.7691 62.5134 66.7691C62.5134 68.1721 62.5134 69.5291 62.5134 70.9781C59.8454 70.9781 57.1544 70.9781 54.2794 70.9781C54.2794 69.5981 54.2794 68.1721 54.2794 66.7231C54.2564 66.7231 54.2334 66.7691 54.2334 66.7691Z" fill="black"/>
<path d="M50.1639 62.5832C47.3809 62.5832 44.5749 62.5832 41.6309 62.5832C41.6309 61.1342 41.6309 59.7772 41.6309 58.4202C44.4139 58.4202 47.2199 58.4202 50.1639 58.4202C50.1639 59.8462 50.1639 61.2032 50.1639 62.5832Z" fill="black"/>
<path d="M58.3965 54.2571C59.7765 54.2571 61.1795 54.2571 62.5595 54.2571C62.5595 56.9711 62.5595 59.6851 62.5595 62.4681C61.1795 62.4681 59.8685 62.4681 58.3965 62.4681C58.3965 59.7311 58.3965 56.9941 58.3965 54.2571Z" fill="black"/>
<path d="M50.1172 66.7231C50.1172 65.3431 50.1172 63.9401 50.1172 62.5601C51.4512 62.5601 52.7622 62.5601 54.2112 62.5601C54.2112 64.0091 54.2112 65.3891 54.2112 66.7691L54.2342 66.7231C52.8772 66.7231 51.4972 66.7231 50.1172 66.7231Z" fill="black"/>
<path d="M96.0713 96.094C94.6913 96.094 93.4033 96.094 92.0693 96.094C92.0693 94.76 92.0693 93.472 92.0693 92.092C93.3573 92.092 94.6683 92.092 96.0713 92.092C96.0713 93.38 96.0713 94.691 96.0713 96.094Z" fill="black"/>
<path d="M25.1162 37.398C25.1162 33.258 25.1162 29.233 25.1162 25.116C29.2102 25.116 33.2582 25.116 37.3982 25.116C37.3982 29.164 37.3982 33.235 37.3982 37.398C33.3502 37.398 29.2792 37.398 25.1162 37.398Z" fill="black"/>
<path d="M112.608 37.4441C108.491 37.4441 104.443 37.4441 100.326 37.4441C100.326 33.3501 100.326 29.3021 100.326 25.1621C104.374 25.1621 108.445 25.1621 112.608 25.1621C112.608 29.2101 112.608 33.2811 112.608 37.4441Z" fill="black"/>
<path d="M37.4441 100.372C37.4441 104.489 37.4441 108.537 37.4441 112.654C33.3501 112.654 29.3021 112.654 25.1621 112.654C25.1621 108.606 25.1621 104.535 25.1621 100.372C29.2101 100.372 33.2811 100.372 37.4441 100.372Z" fill="black"/>
</svg>
