<svg width="139" height="138" viewBox="0 0 139 138" fill="none" xmlns="http://www.w3.org/2000/svg">
<path d="M127.224 138H12.4539C6.03687 138 0.838867 132.802 0.838867 126.385V11.615C0.838867 5.198 6.03687 0 12.4539 0H127.224C133.641 0 138.839 5.198 138.839 11.615V126.385C138.839 132.802 133.641 138 127.224 138ZM76.0259 54.303C76.0259 52.946 76.0259 51.589 76.0259 50.232C74.5769 50.232 73.2659 50.232 71.9089 50.232C71.9089 51.635 71.9089 52.969 71.9089 54.303C70.4369 54.303 68.9649 54.303 67.4929 54.303C67.4929 51.543 67.4929 48.76 67.4929 46C68.9189 46 70.3679 46 71.7939 46C71.7939 43.102 71.7939 40.342 71.7939 37.582C68.9419 37.582 66.1819 37.582 63.3759 37.582C63.3759 38.985 63.3759 40.319 63.3759 41.653C61.9959 41.653 60.5929 41.653 59.2129 41.653C59.2129 38.916 59.2129 36.156 59.2129 33.304C60.6849 33.304 62.0189 33.304 63.3069 33.304C63.3069 31.878 63.3069 30.59 63.3069 29.302C59.1669 29.302 55.0959 29.302 51.0249 29.302C51.0249 30.682 51.0249 31.97 51.0249 33.373C52.4049 33.373 53.7159 33.373 55.0269 33.373C55.0269 34.822 55.0269 36.133 55.0269 37.536C53.6469 37.536 52.3589 37.536 51.0479 37.536C51.0479 40.388 51.0479 43.171 51.0479 46C52.4509 46 53.7849 46 55.1189 46C55.1189 47.357 55.1189 48.714 55.1189 50.209C50.8179 50.209 46.6549 50.209 42.4689 50.209C42.4689 51.658 42.4689 52.992 42.4689 54.326C41.1119 54.326 39.7319 54.326 38.2599 54.326C38.2599 52.831 38.2599 51.52 38.2599 50.232C31.2449 50.232 24.3679 50.232 17.4679 50.232C17.4679 54.372 17.4679 58.443 17.4679 62.514C20.2969 62.514 23.0339 62.514 25.8169 62.514C25.8169 61.134 25.8169 59.823 25.8169 58.397C24.3449 58.397 22.9649 58.397 21.5849 58.397C21.5849 56.971 21.5849 55.683 21.5849 54.372C24.4139 54.372 27.1969 54.372 29.9569 54.372C29.9569 58.512 29.9569 62.606 29.9569 66.746C28.5769 66.746 27.2889 66.746 25.9779 66.746C25.9779 68.218 25.9779 69.621 25.9779 71.07C28.7609 71.07 31.4749 71.07 34.1889 71.07C34.1889 72.427 34.1889 73.807 34.1889 75.279C29.8649 75.279 25.7249 75.279 21.5849 75.279C21.5849 79.442 21.5849 83.49 21.5849 87.561C23.0339 87.561 24.4369 87.561 25.9549 87.561C25.9549 84.801 25.9549 82.087 25.9549 79.419C28.7379 79.419 31.4059 79.419 34.2119 79.419C34.2119 82.179 34.2119 84.87 34.2119 87.538C35.6609 87.538 36.9719 87.538 38.3749 87.538C38.3749 84.778 38.3749 82.11 38.3749 79.419C41.2269 79.419 44.0099 79.419 46.8619 79.419C46.8619 80.822 46.8619 82.156 46.8619 83.49C45.4359 83.49 43.9869 83.49 42.5609 83.49C42.5609 84.916 42.5609 86.227 42.5609 87.538C44.0329 87.538 45.4129 87.538 46.8389 87.538C46.8389 86.135 46.8389 84.801 46.8389 83.467C48.2189 83.467 49.6219 83.467 51.0019 83.467C51.0019 87.676 51.0019 91.862 51.0019 96.117C52.4739 96.117 53.8079 96.117 55.1419 96.117C55.1419 97.52 55.1419 98.9 55.1419 100.303C53.7849 100.303 52.4049 100.303 51.0709 100.303C51.0709 107.341 51.0709 114.264 51.0709 121.141C52.4509 121.141 53.7389 121.141 55.1419 121.141C55.1419 119.761 55.1419 118.45 55.1419 117.093C56.5909 117.093 57.9479 117.093 59.2819 117.093L59.2589 117.07C59.2589 118.427 59.2589 119.807 59.2589 121.164C62.1109 121.164 64.7789 121.164 67.5619 121.164C67.5619 118.335 67.5619 115.575 67.5619 112.677C69.0799 112.677 70.4829 112.677 71.8629 112.677C71.8629 111.251 71.8629 109.963 71.8629 108.56C67.6539 108.56 63.4909 108.56 59.2589 108.56C59.2589 107.088 59.2589 105.754 59.2589 104.42C60.6159 104.42 61.9729 104.42 63.4679 104.42C63.4679 98.762 63.4679 93.242 63.4679 87.63C64.9169 87.63 66.2509 87.63 67.5849 87.63C67.5849 89.079 67.5849 90.505 67.5849 92.069C69.1259 92.069 70.5059 92.069 71.8859 92.069C71.8859 93.495 71.8859 94.783 71.8859 96.186C70.4369 96.186 69.0339 96.186 67.6769 96.186C67.6769 99.015 67.6769 101.706 67.6769 104.374C69.1259 104.374 70.5059 104.374 71.9779 104.374C71.9779 102.994 71.9779 101.683 71.9779 100.28C73.4499 100.28 74.7839 100.28 76.1179 100.28C76.1179 101.637 76.1179 102.994 76.1179 104.466C80.3269 104.466 84.3979 104.466 88.5379 104.466C88.5379 105.915 88.5379 107.249 88.5379 108.583C85.8009 108.583 83.0639 108.583 80.2579 108.583C80.2579 110.055 80.2579 111.389 80.2579 112.723C78.9009 112.723 77.5439 112.723 76.1869 112.723C76.1869 114.241 76.1869 115.621 76.1869 117.001C77.5669 117.001 78.8779 117.001 80.2349 117.001C80.2349 115.506 80.2349 114.103 80.2349 112.7C81.5919 112.7 82.9489 112.7 84.4439 112.7C84.4439 114.264 84.4439 115.644 84.4439 117.07C87.3419 117.07 90.1479 117.07 92.9309 117.07C92.9309 118.427 92.9309 119.807 92.9309 121.141C102.729 121.141 112.389 121.141 122.026 121.141C122.026 111.389 122.026 101.729 122.026 91.977C119.197 91.977 116.437 91.977 113.585 91.977C113.585 89.125 113.585 86.342 113.585 83.536C112.136 83.536 110.802 83.536 109.468 83.536C109.491 79.396 109.491 75.256 109.514 71.116C110.871 71.116 112.228 71.116 113.677 71.116C113.677 73.945 113.677 76.613 113.677 79.419C115.149 79.419 116.552 79.419 118.024 79.419C118.024 80.845 118.024 82.133 118.024 83.444C119.427 83.444 120.738 83.444 122.049 83.444C122.049 80.684 122.049 77.97 122.049 75.21C120.669 75.21 119.381 75.21 118.07 75.21C118.07 73.807 118.07 72.496 118.07 71.047C119.473 71.047 120.784 71.047 122.072 71.047C122.072 66.792 122.072 62.675 122.072 58.42C120.692 58.42 119.381 58.42 117.978 58.42C117.978 55.614 117.978 52.946 117.978 50.255C116.506 50.255 115.103 50.255 113.723 50.255C113.723 54.395 113.723 58.466 113.723 62.629C115.172 62.629 116.552 62.629 117.932 62.629C117.932 64.032 117.932 65.343 117.932 66.792C115.08 66.792 112.32 66.792 109.56 66.792C109.56 68.333 109.56 69.736 109.56 71.162C108.157 71.139 106.754 71.139 105.328 71.116C105.328 69.667 105.328 68.241 105.328 66.746C101.096 66.746 97.0019 66.746 92.9079 66.746C92.9079 65.343 92.9079 63.963 92.9079 62.56C94.2649 62.56 95.6219 62.56 97.0939 62.56C97.0939 61.111 97.0939 59.777 97.0939 58.466C98.4509 58.466 99.8309 58.466 101.188 58.466C101.188 59.823 101.188 61.18 101.188 62.491C104.086 62.491 106.754 62.491 109.422 62.491C109.422 61.111 109.422 59.823 109.422 58.512C106.616 58.512 103.879 58.512 101.165 58.512C101.165 55.752 101.165 52.969 101.165 50.232C99.7389 50.232 98.4739 50.232 97.1399 50.232C97.1399 53.038 97.1399 55.775 97.1399 58.489C95.7369 58.466 94.3339 58.466 92.9079 58.443C92.9079 55.706 92.9079 52.969 92.9079 50.117C90.0099 50.117 87.2499 50.117 84.3979 50.117C84.3979 48.668 84.3979 47.334 84.3979 46C85.7549 46 87.1349 46 88.4689 46C88.4689 43.102 88.4689 40.319 88.4689 37.467C85.7089 37.467 83.0409 37.467 80.3499 37.467C80.3499 36.064 80.3499 34.753 80.3499 33.304C83.1099 33.304 85.8239 33.304 88.4919 33.304C88.4919 29.049 88.4919 24.932 88.4919 20.7C85.7319 20.7 83.0409 20.7 80.2349 20.7C80.2349 19.251 80.2349 17.94 80.2349 16.652C78.8319 16.652 77.5439 16.652 76.1179 16.652C76.1179 18.032 76.1179 19.343 76.1179 20.746C74.6689 20.746 73.3119 20.746 71.9779 20.746C71.9779 19.389 71.9779 18.032 71.9779 16.675C70.4599 16.675 69.0799 16.675 67.6999 16.675C67.6999 18.055 67.6999 19.366 67.6999 20.723C69.1949 20.723 70.5979 20.723 72.0009 20.723C71.9779 22.195 71.9779 23.644 71.9549 25.116L71.9779 25.093C70.5289 25.093 69.1029 25.093 67.6999 25.093C67.6999 27.968 67.6999 30.659 67.6999 33.442C70.5289 33.442 73.2889 33.442 76.1409 33.442C76.1409 37.674 76.1409 41.837 76.1409 46.023C77.5899 46.023 78.9239 46.023 80.2579 46.023C80.2579 48.806 80.2579 51.566 80.2579 54.349C78.8089 54.303 77.4289 54.303 76.0259 54.303ZM17.4449 45.908C27.2889 45.908 37.0179 45.908 46.7469 45.908C46.7469 36.087 46.7469 26.335 46.7469 16.606C36.9489 16.606 27.2199 16.606 17.4449 16.606C17.4449 26.404 17.4449 36.11 17.4449 45.908ZM122.003 16.652C112.251 16.652 102.568 16.652 92.9309 16.652C92.9309 26.473 92.9309 36.225 92.9309 45.931C102.66 45.931 112.297 45.931 122.003 45.931C122.003 36.156 122.003 26.45 122.003 16.652ZM46.7469 121.164C46.7469 111.412 46.7469 101.752 46.7469 92.092C36.9259 92.092 27.1739 92.092 17.4449 92.092C17.4449 101.821 17.4449 111.458 17.4449 121.164C27.2429 121.164 36.9489 121.164 46.7469 121.164ZM59.3049 25.001C60.7309 25.001 62.0189 25.001 63.3069 25.001C63.3069 22.172 63.3069 19.412 63.3069 16.652C61.9269 16.652 60.6159 16.652 59.3049 16.652C59.3049 19.481 59.3049 22.218 59.3049 25.001ZM55.0269 25.024C55.0269 23.552 55.0269 22.149 55.0269 20.792C53.6239 20.792 52.3129 20.792 51.0249 20.792C51.0249 22.241 51.0249 23.598 51.0249 25.024C52.3819 25.024 53.6699 25.024 55.0269 25.024ZM105.351 50.186C105.351 51.612 105.351 52.923 105.351 54.211C106.731 54.211 107.996 54.211 109.33 54.211C109.33 52.854 109.33 51.543 109.33 50.186C107.973 50.186 106.708 50.186 105.351 50.186Z" fill="white"/>
<path d="M109.375 83.513C110.709 83.513 112.043 83.513 113.492 83.513C113.492 86.342 113.492 89.1019 113.492 91.954C116.367 91.954 119.104 91.954 121.933 91.954C121.933 101.706 121.933 111.366 121.933 121.118C112.296 121.118 102.636 121.118 92.8384 121.118C92.8384 119.784 92.8384 118.404 92.8384 117.047L92.7924 117.07C94.1494 117.07 95.5064 117.07 96.8634 117.07C96.8634 114.149 96.8634 111.366 96.8634 108.537C93.9884 108.537 91.2054 108.537 88.4224 108.537L88.4684 108.56C88.4684 107.226 88.4684 105.892 88.4684 104.443C84.3284 104.443 80.2574 104.443 76.0484 104.443C76.0484 102.971 76.0484 101.614 76.0484 100.257L76.0024 100.28C77.3594 100.28 78.7394 100.28 80.1654 100.28C80.1654 98.785 80.1654 97.451 80.1654 96.117L80.1424 96.14C81.4994 96.14 82.8564 96.14 84.2134 96.14C84.2134 94.668 84.2134 93.357 84.2134 91.977C82.8104 91.977 81.4764 91.977 80.1424 91.977L80.1654 92C80.1654 90.551 80.1654 89.125 80.1654 87.561C81.6144 87.561 82.9484 87.561 84.2364 87.561C84.2364 84.778 84.2364 82.11 84.2364 79.419C82.8564 79.419 81.5454 79.419 80.0964 79.419C80.0964 80.799 80.0964 82.133 80.0964 83.421C78.6704 83.421 77.4054 83.421 76.0944 83.421C76.0944 80.661 76.0944 77.97 76.0944 75.141C78.8774 75.141 81.5684 75.141 84.2364 75.141C84.2364 73.715 84.2364 72.427 84.2364 71.024C78.6474 71.024 73.1044 71.024 67.6074 71.024C67.6074 68.126 67.6074 65.366 67.6074 62.606C69.0564 62.606 70.4364 62.606 71.9084 62.606C71.9084 63.986 71.9084 65.297 71.9084 66.7C77.4974 66.7 82.9714 66.7 88.4454 66.7L88.4224 66.677C88.4224 69.483 88.4224 72.312 88.4224 75.256C89.9634 75.256 91.3664 75.256 92.7464 75.256C92.7464 76.659 92.7464 77.947 92.7464 79.373C91.2974 79.373 89.8944 79.373 88.5144 79.373C88.5144 80.822 88.5144 82.133 88.5144 83.513C94.1494 83.513 99.6924 83.513 105.235 83.513L105.212 83.49C105.212 84.847 105.212 86.204 105.212 87.561C106.684 87.561 107.995 87.561 109.375 87.561C109.375 86.158 109.375 84.824 109.375 83.49V83.513ZM109.375 112.723C109.375 109.986 109.375 107.249 109.375 104.512C107.926 104.512 106.615 104.512 105.212 104.512C105.212 105.892 105.212 107.18 105.212 108.583C103.809 108.583 102.498 108.583 101.187 108.583C101.187 110.032 101.187 111.343 101.187 112.7C103.97 112.7 106.684 112.7 109.398 112.7C109.398 114.149 109.398 115.575 109.398 117.001C112.296 117.001 115.056 117.001 117.793 117.001C117.793 114.149 117.793 111.366 117.793 108.629C116.344 108.629 114.964 108.629 113.492 108.629C113.492 110.009 113.492 111.32 113.492 112.723C112.043 112.723 110.709 112.723 109.375 112.723ZM88.5374 87.676C88.5374 91.908 88.5374 96.071 88.5374 100.188C92.7694 100.188 96.9094 100.188 101.049 100.188C101.049 95.979 101.049 91.839 101.049 87.676C96.8864 87.676 92.7464 87.676 88.5374 87.676ZM109.444 100.211C110.824 100.211 112.158 100.211 113.446 100.211C113.446 98.808 113.446 97.4969 113.446 96.209C112.066 96.209 110.778 96.209 109.444 96.209C109.444 97.5429 109.444 98.831 109.444 100.211Z" fill="black"/>
<path d="M17.4443 45.908C17.4443 36.11 17.4443 26.381 17.4443 16.606C27.2193 16.606 36.9253 16.606 46.7463 16.606C46.7463 26.335 46.7463 36.064 46.7463 45.908C37.0403 45.908 27.2883 45.908 17.4443 45.908ZM42.3993 41.584C42.3993 34.569 42.3993 27.669 42.3993 20.792C35.4073 20.792 28.5073 20.792 21.6073 20.792C21.6073 27.761 21.6073 34.661 21.6073 41.584C28.5533 41.584 35.4303 41.584 42.3993 41.584Z" fill="black"/>
<path d="M122.003 16.6519C122.003 26.4499 122.003 36.1559 122.003 45.9309C112.32 45.9309 102.683 45.9309 92.9307 45.9309C92.9307 36.2019 92.9307 26.4729 92.9307 16.6519C102.568 16.6519 112.228 16.6519 122.003 16.6519ZM97.0247 41.5609C104.017 41.5609 110.917 41.5609 117.817 41.5609C117.817 34.5689 117.817 27.6689 117.817 20.7689C110.848 20.7689 103.971 20.7689 97.0247 20.7689C97.0247 27.6919 97.0247 34.5689 97.0247 41.5609Z" fill="black"/>
<path d="M46.7463 121.164C36.9483 121.164 27.2193 121.164 17.4443 121.164C17.4443 111.481 17.4443 101.821 17.4443 92.092C27.1733 92.092 36.9253 92.092 46.7463 92.092C46.7463 101.729 46.7463 111.412 46.7463 121.164ZM21.5843 117.001C28.5993 117.001 35.4993 117.001 42.3763 117.001C42.3763 110.009 42.3763 103.109 42.3763 96.209C35.4073 96.209 28.5073 96.209 21.5843 96.209C21.5843 103.155 21.5843 110.032 21.5843 117.001Z" fill="black"/>
<path d="M71.8853 25.0931C71.9083 23.6211 71.9083 22.1721 71.9313 20.7001L71.9083 20.7231C73.2423 20.7231 74.5763 20.7231 76.0483 20.7231C76.0483 19.3201 76.0483 18.0092 76.0483 16.6292C77.4513 16.6292 78.7393 16.6292 80.1653 16.6292C80.1653 17.9172 80.1653 19.2512 80.1653 20.6772C82.9943 20.6772 85.6853 20.6772 88.4223 20.6772C88.4223 24.9321 88.4223 29.0491 88.4223 33.2811C85.7543 33.2811 83.0403 33.2811 80.2803 33.2811C80.2803 34.7302 80.2803 36.0412 80.2803 37.4442C82.9713 37.4442 85.6393 37.4442 88.3993 37.4442C88.3993 40.2962 88.3993 43.0561 88.3993 45.9771C87.0653 45.9771 85.7083 45.9771 84.3283 45.9771L84.3513 46.0232C84.3513 44.5972 84.3513 43.1481 84.3513 41.7221C82.8793 41.7221 81.5683 41.7221 80.1883 41.7221C80.1883 43.2171 80.1883 44.6202 80.1883 46.0232L80.2113 45.9771C78.8773 45.9771 77.5433 45.9771 76.0943 45.9771C76.0943 41.7681 76.0943 37.6281 76.0943 33.3961C73.2193 33.3961 70.4823 33.3961 67.6533 33.3961C67.6533 30.6131 67.6533 27.9222 67.6533 25.0472C69.0563 25.0472 70.5053 25.0472 71.9313 25.0472C71.9313 26.4042 71.9313 27.7611 71.9313 29.1411C74.7603 29.1411 77.4513 29.1411 80.1193 29.1411C80.1193 27.7611 80.1193 26.4271 80.1193 25.0931C77.3133 25.0931 74.5993 25.0931 71.8853 25.0931Z" fill="black"/>
<path d="M34.2122 71.0467C31.4982 71.0467 28.7842 71.0467 26.0012 71.0467C26.0012 69.5977 26.0012 68.2177 26.0012 66.7227C27.3122 66.7227 28.6002 66.7227 29.9802 66.7227C29.9802 62.5597 29.9802 58.4887 29.9802 54.3487C27.2202 54.3487 24.4372 54.3487 21.6082 54.3487C21.6082 55.6597 21.6082 56.9477 21.6082 58.3737C22.9882 58.3737 24.3912 58.3737 25.8402 58.3737C25.8402 59.8227 25.8402 61.1337 25.8402 62.4907C23.0572 62.4907 20.3202 62.4907 17.4912 62.4907C17.4912 58.4197 17.4912 54.3487 17.4912 50.2087C24.3912 50.2087 31.2682 50.2087 38.2832 50.2087C38.2832 51.4967 38.2832 52.8077 38.2832 54.3027C39.7782 54.3027 41.1352 54.3027 42.4922 54.3027L42.4692 54.2567C42.4692 55.6367 42.4922 57.0397 42.4922 58.4197C39.7552 58.4197 37.0182 58.4197 34.2582 58.4197C34.2582 59.8457 34.2582 61.1567 34.2582 62.5827C35.6382 62.5827 36.9492 62.5827 38.3522 62.5827C38.3522 64.0317 38.3522 65.3657 38.3522 66.6997C36.9952 66.6997 35.6152 66.6997 34.1892 66.6997C34.1892 68.2407 34.1892 69.6667 34.1892 71.0697L34.2122 71.0467Z" fill="black"/>
<path d="M59.2363 104.397C59.2363 105.731 59.2363 107.065 59.2363 108.537C63.4683 108.537 67.6313 108.537 71.8403 108.537C71.8403 109.94 71.8403 111.228 71.8403 112.654C70.4603 112.654 69.0573 112.654 67.5393 112.654C67.5393 115.552 67.5393 118.335 67.5393 121.141C64.7563 121.141 62.0883 121.141 59.2363 121.141C59.2363 119.761 59.2363 118.404 59.2363 117.047C60.5933 117.047 61.9503 117.047 63.3303 117.047C63.3303 115.529 63.3303 114.149 63.3303 112.769C61.9503 112.769 60.6393 112.769 59.2823 112.769C59.2823 114.264 59.2823 115.667 59.2823 117.07C57.9483 117.07 56.6143 117.07 55.1423 117.07C55.1423 118.427 55.1423 119.761 55.1423 121.118C53.7393 121.118 52.4513 121.118 51.0713 121.118C51.0713 114.218 51.0713 107.318 51.0713 100.28C52.4053 100.28 53.7853 100.28 55.1423 100.28L55.1193 100.234C55.1193 101.591 55.1193 102.971 55.1193 104.397C56.6143 104.397 57.9483 104.397 59.2823 104.397H59.2363Z" fill="black"/>
<path d="M67.5617 87.6071C66.2277 87.6071 64.8937 87.6071 63.4447 87.6071C63.4447 93.2191 63.4447 98.7391 63.4447 104.397C61.9727 104.397 60.6157 104.397 59.2357 104.397L59.2817 104.42C59.2817 103.063 59.2817 101.683 59.2817 100.257C57.7867 100.257 56.4527 100.257 55.1187 100.257L55.1417 100.303C55.1417 98.9001 55.1417 97.5201 55.1417 96.1171L55.0957 96.1401C56.4527 96.1401 57.8097 96.1401 59.1667 96.1401C59.1667 91.8391 59.1667 87.6761 59.1667 83.4671C57.7637 83.4671 56.4297 83.4671 55.0957 83.4671L55.1187 83.4901C55.1187 80.7531 55.1187 78.0161 55.1187 75.2791C60.7767 75.2791 66.3197 75.2791 71.8167 75.2791C71.8167 76.6591 71.8167 77.9471 71.8167 79.3501C70.3677 79.3501 68.9647 79.3501 67.4927 79.3501C67.4927 82.1791 67.4927 84.9161 67.4927 87.6301L67.5617 87.6071Z" fill="black"/>
<path d="M46.862 83.5128C46.862 82.1788 46.862 80.8448 46.862 79.4418C44.01 79.4418 41.227 79.4418 38.375 79.4418C38.375 82.1328 38.375 84.8008 38.375 87.5608C36.972 87.5608 35.661 87.5608 34.212 87.5608C34.212 84.8928 34.212 82.1788 34.212 79.4418C31.429 79.4418 28.761 79.4418 25.955 79.4418C25.955 82.1098 25.955 84.8008 25.955 87.5838C24.437 87.5838 23.057 87.5838 21.585 87.5838C21.585 83.5128 21.585 79.4648 21.585 75.3018C25.725 75.3018 29.865 75.3018 34.189 75.3018C34.189 73.8068 34.189 72.4498 34.189 71.0928L34.166 71.1388C35.546 71.1388 36.949 71.1158 38.329 71.1158C38.329 72.4728 38.329 73.8298 38.329 75.3248C42.607 75.3248 46.747 75.3248 50.956 75.3248C50.956 78.1538 50.956 80.8678 50.956 83.5818L50.979 83.5358C49.599 83.5358 48.196 83.5358 46.816 83.5358L46.862 83.5128Z" fill="black"/>
<path d="M109.467 71.1157C109.467 69.7127 109.467 68.2867 109.467 66.7457C112.227 66.7457 114.987 66.7457 117.839 66.7457C117.839 65.2967 117.839 63.9857 117.839 62.5827C116.459 62.5827 115.079 62.5827 113.63 62.5827C113.63 58.4197 113.63 54.3487 113.63 50.2087C115.01 50.2087 116.413 50.2087 117.885 50.2087C117.885 52.9227 117.885 55.5907 117.885 58.3737C119.288 58.3737 120.599 58.3737 121.979 58.3737C121.979 62.6287 121.979 66.7457 121.979 71.0007C120.691 71.0007 119.38 71.0007 117.977 71.0007C117.977 72.4497 117.977 73.7607 117.977 75.1637C119.288 75.1637 120.576 75.1637 121.956 75.1637C121.956 77.9467 121.956 80.6377 121.956 83.3977C120.645 83.3977 119.334 83.3977 117.931 83.3977C117.931 82.0637 117.931 80.7757 117.931 79.3727C116.459 79.3727 115.056 79.3727 113.584 79.3727C113.584 76.5897 113.584 73.9217 113.584 71.0697C112.135 71.0697 110.778 71.0697 109.421 71.0697C109.421 71.0927 109.467 71.1157 109.467 71.1157Z" fill="black"/>
<path d="M67.5167 45.9772C67.5167 48.7372 67.5167 51.5202 67.5167 54.2802L67.5627 54.2572C66.1827 54.2572 64.7797 54.2802 63.3997 54.2802C63.3997 52.9232 63.3997 51.5662 63.3997 50.2092C61.9507 50.2092 60.6397 50.2092 59.2827 50.2092C59.2827 51.6122 59.2827 52.9462 59.2827 54.2802C53.6707 54.2802 48.0587 54.2572 42.4697 54.2572L42.4927 54.3032C42.4927 52.9692 42.4927 51.6352 42.4927 50.1862C46.6787 50.1862 50.8417 50.1862 55.1427 50.1862C55.1427 48.7142 55.1427 47.3572 55.1427 45.9772L55.0967 46.0002C56.4537 46.0002 57.8337 46.0002 59.2597 46.0002C59.2597 44.4132 59.2597 43.0102 59.2597 41.6072L59.2367 41.6532C60.6167 41.6532 62.0197 41.6532 63.3997 41.6532L63.3767 41.6072C63.3767 43.0562 63.3767 44.4822 63.3767 46.0002C64.8717 46.0002 66.2057 46.0002 67.5397 46.0002L67.5167 45.9772Z" fill="black"/>
<path d="M84.3065 45.9771C84.3065 47.3111 84.3065 48.6451 84.3065 50.0941C87.1585 50.0941 89.9185 50.0941 92.8165 50.0941C92.8165 52.9461 92.8165 55.6831 92.8165 58.4201L92.8625 58.3971C91.4135 58.3971 89.9875 58.3971 88.4695 58.3971C88.4695 59.8921 88.4695 61.2261 88.4695 62.5601L88.4925 62.5371C85.7555 62.5371 83.0185 62.5371 80.2125 62.5371C80.2125 61.0651 80.2125 59.7311 80.2125 58.3971L80.1895 58.4201C81.5465 58.4201 82.9035 58.4201 84.2605 58.4201C84.2605 56.9481 84.2605 55.6371 84.2605 54.2571C82.8575 54.2571 81.5235 54.2571 80.1895 54.2571L80.2355 54.2801C80.2355 51.4971 80.2355 48.7371 80.2355 45.9541L80.2125 46.0001C81.5925 46.0001 82.9955 46.0001 84.3755 46.0001L84.3065 45.9771Z" fill="black"/>
<path d="M76.0716 100.257C74.7376 100.257 73.4036 100.257 71.9316 100.257C71.9316 101.66 71.9316 102.971 71.9316 104.351C70.4366 104.351 69.0796 104.351 67.6306 104.351C67.6306 101.683 67.6306 98.9922 67.6306 96.1632C69.0106 96.1632 70.3906 96.1632 71.8396 96.1632C71.8396 94.7602 71.8396 93.4722 71.8396 92.0462C70.4596 92.0462 69.0796 92.0462 67.5386 92.0462C67.5386 90.4822 67.5386 89.0562 67.5386 87.6072L67.5156 87.6532C70.3216 87.6532 73.1506 87.6532 76.0716 87.6532C76.0716 89.1712 76.0716 90.5512 76.0716 92.0232C77.5206 92.0232 78.8546 92.0232 80.1886 92.0232L80.1656 92.0002C80.1656 93.3802 80.1656 94.7832 80.1656 96.1632L80.1886 96.1402C78.8316 96.1402 77.4516 96.1402 76.0256 96.1402C76.0256 97.6352 76.0256 98.9692 76.0256 100.303L76.0716 100.257Z" fill="black"/>
<path d="M55.1419 45.9768C53.8079 45.9768 52.4738 45.9768 51.0708 45.9768C51.0708 43.1478 51.0708 40.3648 51.0708 37.5128C52.3818 37.5128 53.6699 37.5128 55.0499 37.5128C55.0499 36.1098 55.0499 34.7988 55.0499 33.3498C53.7389 33.3498 52.4279 33.3498 51.0479 33.3498C51.0479 31.9468 51.0479 30.6588 51.0479 29.2788C55.1189 29.2788 59.1899 29.2788 63.3299 29.2788C63.3299 30.5668 63.3299 31.8548 63.3299 33.2808C62.0419 33.2808 60.7308 33.2808 59.2358 33.2808C59.2358 36.1558 59.2358 38.8928 59.2358 41.6298L59.2589 41.5838C57.9019 41.5838 56.5218 41.5838 55.0958 41.5838C55.0958 43.1708 55.0958 44.5738 55.0958 45.9768H55.1419Z" fill="black"/>
<path d="M92.8154 66.723C96.9094 66.723 101.003 66.723 105.235 66.723C105.235 68.218 105.235 69.644 105.235 71.093L105.281 71.07C103.924 71.07 102.567 71.07 101.072 71.07C101.072 73.922 101.072 76.6129 101.072 79.3039C99.6694 79.3039 98.3814 79.3039 96.9784 79.3039C96.9784 76.5669 96.9784 73.8759 96.9784 71.0469C95.5524 71.0469 94.2184 71.0469 92.8614 71.0469C92.8614 69.5059 92.8614 68.103 92.8614 66.7L92.8154 66.723Z" fill="black"/>
<path d="M80.212 112.723C80.212 111.389 80.212 110.055 80.212 108.583C83.018 108.583 85.755 108.583 88.492 108.583L88.446 108.56C88.446 109.917 88.446 111.274 88.446 112.769C89.987 112.769 91.39 112.769 92.816 112.769C92.816 114.287 92.816 115.713 92.816 117.116L92.862 117.093C90.079 117.093 87.296 117.093 84.375 117.093C84.375 115.667 84.375 114.264 84.375 112.723C82.903 112.723 81.523 112.723 80.166 112.723H80.212Z" fill="black"/>
<path d="M63.4209 41.6528C63.4209 40.3188 63.4209 38.9848 63.4209 37.5818C66.2269 37.5818 68.9869 37.5818 71.8389 37.5818C71.8389 40.3418 71.8389 43.1018 71.8389 45.9998C70.3899 45.9998 68.9639 45.9998 67.5379 45.9998L67.5839 46.0228C67.5839 44.5738 67.5839 43.1478 67.5839 41.6298C66.0889 41.6298 64.7549 41.6298 63.4209 41.6298V41.6528Z" fill="black"/>
<path d="M55.1415 96.117C53.8075 96.117 52.4735 96.117 51.0015 96.117C51.0015 91.862 51.0015 87.653 51.0015 83.467L50.9785 83.513C52.3585 83.513 53.7615 83.513 55.1415 83.513L55.1185 83.49C55.1185 87.722 55.1185 91.954 55.1185 96.163L55.1415 96.117Z" fill="black"/>
<path d="M105.235 71.0928C106.638 71.1158 108.041 71.1158 109.467 71.1388L109.421 71.1158C109.398 75.2558 109.398 79.3958 109.375 83.5358L109.398 83.4898C108.018 83.4898 106.615 83.4898 105.235 83.4898L105.258 83.5128C105.258 79.3728 105.258 75.2098 105.258 71.0698L105.235 71.0928Z" fill="black"/>
<path d="M59.3047 25.0009C59.3047 22.2179 59.3047 19.4579 59.3047 16.6519C60.6157 16.6519 61.9267 16.6519 63.3067 16.6519C63.3067 19.4119 63.3067 22.1719 63.3067 25.0009C62.0187 25.0009 60.7307 25.0009 59.3047 25.0009Z" fill="black"/>
<path d="M101.072 58.4889C103.809 58.4889 106.546 58.4889 109.352 58.4889C109.352 59.7999 109.352 61.0879 109.352 62.4679C106.684 62.4679 103.993 62.4679 101.118 62.4679C101.118 61.1569 101.118 59.7999 101.118 58.4429C101.095 58.4429 101.072 58.4889 101.072 58.4889Z" fill="black"/>
<path d="M97.0479 58.466C97.0479 55.729 97.0479 52.992 97.0479 50.186C98.3819 50.186 99.6469 50.186 101.073 50.186C101.073 52.923 101.073 55.706 101.073 58.466L101.096 58.42C99.739 58.42 98.359 58.42 97.002 58.42C97.002 58.443 97.0479 58.466 97.0479 58.466Z" fill="black"/>
<path d="M80.1652 112.677C80.1652 114.08 80.1652 115.483 80.1652 116.978C78.8082 116.978 77.4972 116.978 76.1172 116.978C76.1172 115.598 76.1172 114.218 76.1172 112.7C77.4742 112.7 78.8312 112.7 80.1882 112.7C80.2112 112.723 80.1652 112.677 80.1652 112.677Z" fill="black"/>
<path d="M71.9319 20.6772C70.5289 20.6772 69.1259 20.6772 67.6309 20.6772C67.6309 19.3202 67.6309 18.0092 67.6309 16.6292C69.0109 16.6292 70.3909 16.6292 71.9089 16.6292C71.9089 17.9862 71.9089 19.3431 71.9089 20.7001C71.8859 20.7231 71.9319 20.6772 71.9319 20.6772Z" fill="black"/>
<path d="M55.0264 25.024C53.6694 25.024 52.3814 25.024 51.0244 25.024C51.0244 23.621 51.0244 22.264 51.0244 20.792C52.3124 20.792 53.6234 20.792 55.0264 20.792C55.0264 22.149 55.0264 23.529 55.0264 25.024Z" fill="black"/>
<path d="M92.8163 62.5371C92.8163 63.9401 92.8163 65.3201 92.8163 66.7231L92.8393 66.6771C91.3673 66.6771 89.8953 66.6771 88.4463 66.6771L88.4693 66.7001C88.4693 65.3201 88.4693 63.9171 88.4693 62.5371L88.4463 62.5601C89.9183 62.5601 91.3903 62.5601 92.8393 62.5601L92.8163 62.5371Z" fill="black"/>
<path d="M46.8161 83.467C46.8161 84.801 46.8161 86.135 46.8161 87.538C45.3901 87.538 44.0101 87.538 42.5381 87.538C42.5381 86.25 42.5381 84.939 42.5381 83.49C43.9871 83.49 45.4131 83.49 46.8391 83.49C46.8621 83.513 46.8161 83.467 46.8161 83.467Z" fill="black"/>
<path d="M67.5156 54.3031C68.9876 54.3031 70.4596 54.3031 71.9316 54.3031L71.9086 54.2571C71.9086 55.6141 71.9086 56.9711 71.9086 58.3281C70.3906 58.3281 69.0106 58.3281 67.5616 58.3281C67.5616 56.9251 67.5616 55.5911 67.5616 54.2571L67.5156 54.3031Z" fill="black"/>
<path d="M92.8154 58.4432C94.2184 58.4662 95.6214 58.4662 97.0474 58.4892L97.0014 58.4662C97.0014 59.8002 97.0014 61.1112 97.0014 62.5602C95.5294 62.5602 94.1724 62.5602 92.8154 62.5602L92.8614 62.5832C92.8614 61.2032 92.8614 59.8002 92.8614 58.4202L92.8154 58.4432Z" fill="black"/>
<path d="M76.0264 54.303C77.4294 54.303 78.8094 54.303 80.2124 54.303L80.1664 54.28C80.1664 55.66 80.1664 57.063 80.1664 58.443L80.1894 58.42C78.8324 58.42 77.4754 58.42 76.0494 58.42C76.0494 56.948 76.0494 55.614 76.0494 54.28L76.0264 54.303Z" fill="black"/>
<path d="M71.9322 54.3032C71.9322 52.9692 71.9322 51.6352 71.9322 50.2322C73.2892 50.2322 74.6002 50.2322 76.0492 50.2322C76.0492 51.5892 76.0492 52.9462 76.0492 54.3032L76.0722 54.2572C74.6922 54.2572 73.2892 54.2572 71.9092 54.2572L71.9322 54.3032Z" fill="black"/>
<path d="M105.351 50.186C106.708 50.186 107.996 50.186 109.33 50.186C109.33 51.543 109.33 52.854 109.33 54.211C107.996 54.211 106.708 54.211 105.351 54.211C105.351 52.923 105.351 51.612 105.351 50.186Z" fill="black"/>
<path d="M71.8861 54.2571C73.2661 54.2571 74.6691 54.2571 76.0491 54.2571C76.0491 55.5911 76.0491 56.9251 76.0491 58.3971C77.4751 58.3971 78.8321 58.3971 80.1891 58.3971C80.1891 59.7311 80.1891 61.0651 80.1891 62.5371C82.9951 62.5371 85.7321 62.5371 88.4691 62.5371C88.4691 63.9171 88.4691 65.3201 88.4691 66.7001C82.9951 66.7001 77.5211 66.7001 71.9321 66.7001C71.9321 65.2971 71.9321 63.9861 71.9321 62.6061C70.4371 62.6061 69.0801 62.6061 67.6311 62.6061C67.6311 65.3431 67.6311 68.1261 67.6311 71.0241C73.1511 71.0241 78.6711 71.0241 84.2601 71.0241C84.2601 72.4271 84.2601 73.7151 84.2601 75.1411C81.5921 75.1411 78.9011 75.1411 76.1181 75.1411C76.1181 77.9701 76.1181 80.6611 76.1181 83.4211C77.4291 83.4211 78.7171 83.4211 80.1201 83.4211C80.1201 82.1331 80.1201 80.8221 80.1201 79.4191C81.5691 79.4191 82.8801 79.4191 84.2601 79.4191C84.2601 82.1101 84.2601 84.7781 84.2601 87.5611C82.9721 87.5611 81.6611 87.5611 80.1891 87.5611C80.1891 89.1251 80.1891 90.5741 80.1891 92.0001C78.8551 92.0001 77.5211 92.0001 76.0721 92.0001C76.0721 90.5281 76.0721 89.1481 76.0721 87.6301C73.1281 87.6301 70.3221 87.6301 67.5161 87.6301C67.5161 84.9161 67.5161 82.2021 67.5161 79.3501C68.9881 79.3501 70.3911 79.3501 71.8401 79.3501C71.8401 77.9471 71.8401 76.6591 71.8401 75.2791C66.3201 75.2791 60.8001 75.2791 55.1421 75.2791C55.1421 77.9931 55.1421 80.7531 55.1421 83.4901C53.7621 83.4901 52.3591 83.4901 50.9791 83.4901C50.9791 80.7761 50.9791 78.0621 50.9791 75.2331C46.7931 75.2331 42.6301 75.2331 38.3521 75.2331C38.3521 73.7611 38.3521 72.4041 38.3521 71.0241L38.3291 71.0471C42.5151 71.0471 46.7241 71.0471 51.0021 71.0471C51.0021 69.4601 51.0021 68.0571 51.0021 66.6541L50.9791 66.6771C52.3591 66.6771 53.7391 66.6771 55.1191 66.7001C55.1191 68.1261 55.1191 69.5521 55.1191 70.9551C58.0171 70.9551 60.6851 70.9551 63.3531 70.9551C63.3531 69.5061 63.3531 68.1491 63.3531 66.7461C60.5471 66.7461 57.8101 66.7461 55.0961 66.7461C55.0961 65.3661 55.0961 63.9631 55.0961 62.5371C53.6471 62.5371 52.3131 62.5371 51.0021 62.5371L51.0251 62.5601C51.0251 61.2031 51.0251 59.8461 51.0251 58.3971C48.0581 58.3971 45.2751 58.3971 42.4921 58.3971L42.5151 58.4201C42.5151 57.0401 42.4921 55.6371 42.4921 54.2571C48.1041 54.2571 53.7161 54.2801 59.3051 54.2801L59.2821 54.2571C59.2821 56.9941 59.2821 59.7311 59.2821 62.4681C60.7541 62.4681 62.0651 62.4681 63.4451 62.4681C63.4451 59.6851 63.4451 56.9711 63.4451 54.2571L63.4221 54.2801C64.8021 54.2801 66.2051 54.2571 67.5851 54.2571C67.5851 55.5911 67.5851 56.9251 67.5851 58.3281C69.0111 58.3281 70.4141 58.3281 71.9321 58.3281C71.8861 56.9711 71.8861 55.6141 71.8861 54.2571Z" fill="white"/>
<path d="M88.4463 66.677C89.9183 66.677 91.3903 66.677 92.8393 66.677C92.8393 68.08 92.8393 69.506 92.8393 71.024C94.1963 71.024 95.5303 71.024 96.9563 71.024C96.9563 73.83 96.9563 76.521 96.9563 79.281C98.3593 79.281 99.6473 79.281 101.05 79.281C101.05 76.59 101.05 73.899 101.05 71.047C102.522 71.047 103.902 71.047 105.259 71.047C105.259 75.187 105.259 79.35 105.259 83.49C99.7163 83.49 94.1733 83.49 88.5383 83.49C88.5383 82.11 88.5383 80.799 88.5383 79.35C89.9183 79.35 91.3213 79.35 92.7703 79.35C92.7703 77.947 92.7703 76.659 92.7703 75.233C91.3903 75.233 89.9873 75.233 88.4463 75.233C88.4463 72.312 88.4463 69.506 88.4463 66.677Z" fill="white"/>
<path d="M88.5381 87.6758C92.7471 87.6758 96.8641 87.6758 101.05 87.6758C101.05 91.8388 101.05 95.9788 101.05 100.188C96.9101 100.188 92.7701 100.188 88.5381 100.188C88.5381 96.0708 88.5381 91.9308 88.5381 87.6758ZM96.9101 96.0938C96.9101 94.6908 96.9101 93.3798 96.9101 92.0918C95.5301 92.0918 94.2191 92.0918 92.9081 92.0918C92.9081 93.4718 92.9081 94.7368 92.9081 96.0938C94.2421 96.0938 95.5301 96.0938 96.9101 96.0938Z" fill="white"/>
<path d="M109.375 112.723C110.709 112.723 112.043 112.723 113.492 112.723C113.492 111.32 113.492 110.009 113.492 108.629C114.987 108.629 116.344 108.629 117.793 108.629C117.793 111.366 117.793 114.149 117.793 117.001C115.056 117.001 112.296 117.001 109.398 117.001C109.398 115.575 109.398 114.149 109.398 112.7L109.375 112.723Z" fill="white"/>
<path d="M92.8163 117.093C92.8163 115.69 92.8163 114.287 92.8163 112.746C91.3903 112.746 89.9873 112.746 88.4463 112.746C88.4463 111.274 88.4463 109.917 88.4463 108.537C91.2293 108.537 94.0123 108.537 96.8873 108.537C96.8873 111.389 96.8873 114.149 96.8873 117.07C95.5533 117.093 94.1733 117.093 92.8163 117.093Z" fill="white"/>
<path d="M109.422 112.677C106.708 112.677 103.994 112.677 101.211 112.677C101.211 111.32 101.211 110.009 101.211 108.56C102.522 108.56 103.856 108.56 105.236 108.56C105.236 107.157 105.236 105.869 105.236 104.489C106.639 104.489 107.95 104.489 109.399 104.489C109.399 107.226 109.399 109.963 109.399 112.7C109.376 112.723 109.422 112.677 109.422 112.677Z" fill="white"/>
<path d="M109.444 100.211C109.444 98.8307 109.444 97.5427 109.444 96.2087C110.778 96.2087 112.066 96.2087 113.446 96.2087C113.446 97.5197 113.446 98.8307 113.446 100.211C112.158 100.211 110.847 100.211 109.444 100.211Z" fill="white"/>
<path d="M76.0264 100.303C76.0264 98.9691 76.0264 97.6351 76.0264 96.1401C77.4754 96.1401 78.8324 96.1401 80.1894 96.1401C80.1894 97.4741 80.1894 98.8081 80.1894 100.303C78.7634 100.303 77.4064 100.303 76.0264 100.303Z" fill="white"/>
<path d="M80.166 96.163C80.166 94.783 80.166 93.38 80.166 92C81.5 92 82.834 92 84.237 92C84.237 93.38 84.237 94.691 84.237 96.163C82.903 96.163 81.523 96.163 80.166 96.163Z" fill="white"/>
<path d="M105.235 83.467C106.615 83.467 108.018 83.467 109.398 83.467C109.398 84.801 109.398 86.135 109.398 87.538C108.018 87.538 106.707 87.538 105.235 87.538C105.235 86.204 105.235 84.824 105.235 83.467Z" fill="white"/>
<path d="M42.3994 41.584C35.4304 41.584 28.5534 41.584 21.6074 41.584C21.6074 34.661 21.6074 27.761 21.6074 20.792C28.4844 20.792 35.4074 20.792 42.3994 20.792C42.3994 27.669 42.3994 34.569 42.3994 41.584ZM25.9544 37.398C30.1174 37.398 34.1884 37.398 38.2364 37.398C38.2364 33.258 38.2364 29.187 38.2364 25.116C34.0964 25.116 30.0714 25.116 25.9544 25.116C25.9544 29.233 25.9544 33.281 25.9544 37.398Z" fill="white"/>
<path d="M97.0244 41.561C97.0244 34.592 97.0244 27.715 97.0244 20.769C103.97 20.769 110.847 20.769 117.816 20.769C117.816 27.669 117.816 34.569 117.816 41.561C110.939 41.561 104.016 41.561 97.0244 41.561ZM113.446 37.444C113.446 33.281 113.446 29.21 113.446 25.162C109.283 25.162 105.212 25.162 101.164 25.162C101.164 29.302 101.164 33.35 101.164 37.444C105.281 37.444 109.329 37.444 113.446 37.444Z" fill="white"/>
<path d="M21.585 117.001C21.585 110.032 21.585 103.155 21.585 96.2087C28.508 96.2087 35.408 96.2087 42.377 96.2087C42.377 103.086 42.377 110.009 42.377 117.001C35.5 117.001 28.6 117.001 21.585 117.001ZM38.283 100.372C34.12 100.372 30.049 100.372 26.001 100.372C26.001 104.535 26.001 108.606 26.001 112.654C30.141 112.654 34.189 112.654 38.283 112.654C38.283 108.537 38.283 104.489 38.283 100.372Z" fill="white"/>
<path d="M71.8857 25.0929C74.5997 25.0929 77.3137 25.0929 80.0967 25.0929C80.0967 26.4499 80.0967 27.7609 80.0967 29.1409C77.4287 29.1409 74.7377 29.1409 71.9087 29.1409C71.9087 27.7839 71.9087 26.4269 71.9087 25.0469C71.9317 25.0469 71.8857 25.0929 71.8857 25.0929Z" fill="white"/>
<path d="M84.3525 46.0229C82.9725 46.0229 81.5695 46.0229 80.1895 46.0229C80.1895 44.6199 80.1895 43.1939 80.1895 41.7219C81.5695 41.7219 82.8805 41.7219 84.3525 41.7219C84.3525 43.1479 84.3525 44.5739 84.3525 46.0229Z" fill="white"/>
<path d="M38.3518 66.7232C38.3518 65.3892 38.3518 64.0552 38.3518 62.6062C36.9488 62.6062 35.6378 62.6062 34.2578 62.6062C34.2578 61.1802 34.2578 59.8692 34.2578 58.4432C37.0178 58.4432 39.7548 58.4432 42.4918 58.4432L42.4688 58.4202C42.4688 59.7772 42.4688 61.1342 42.4688 62.5832C45.4358 62.5832 48.2188 62.5832 51.0018 62.5832L50.9788 62.5602C50.9788 63.9402 50.9788 65.3432 50.9788 66.7232L51.0018 66.7002C46.7698 66.7002 42.5378 66.7002 38.3288 66.7002L38.3518 66.7232Z" fill="white"/>
<path d="M38.3525 71.047C36.9725 71.047 35.5695 71.07 34.1895 71.07C34.1895 69.667 34.1895 68.241 34.1895 66.7C35.6385 66.7 36.9955 66.7 38.3525 66.7L38.3295 66.677C38.3295 68.149 38.3295 69.621 38.3295 71.07L38.3525 71.047Z" fill="white"/>
<path d="M59.2814 117.093C59.2814 115.69 59.2814 114.287 59.2814 112.792C60.6384 112.792 61.9494 112.792 63.3294 112.792C63.3294 114.172 63.3294 115.552 63.3294 117.07C61.9724 117.07 60.6154 117.07 59.2354 117.07C59.2354 117.047 59.2814 117.093 59.2814 117.093Z" fill="white"/>
<path d="M55.0957 100.257C56.4297 100.257 57.7637 100.257 59.2587 100.257C59.2587 101.706 59.2587 103.063 59.2587 104.42C57.9247 104.42 56.5907 104.42 55.0957 104.42C55.0957 102.994 55.0957 101.637 55.0957 100.257Z" fill="white"/>
<path d="M55.0957 96.163C55.0957 91.931 55.0957 87.699 55.0957 83.49C56.4297 83.49 57.7637 83.49 59.1667 83.49C59.1667 87.722 59.1667 91.862 59.1667 96.163C57.8327 96.163 56.4527 96.163 55.0957 96.163Z" fill="white"/>
<path d="M55.0957 46.0229C55.0957 44.6199 55.0957 43.1939 55.0957 41.6299C56.5447 41.6299 57.9017 41.6299 59.2587 41.6299C59.2587 43.0329 59.2587 44.4589 59.2587 46.0229C57.8327 46.0229 56.4757 46.0229 55.0957 46.0229Z" fill="white"/>
<path d="M63.375 41.6072C64.709 41.6072 66.043 41.6072 67.538 41.6072C67.538 43.1252 67.538 44.5742 67.538 46.0002C66.204 46.0002 64.87 46.0002 63.375 46.0002C63.375 44.5052 63.375 43.0562 63.375 41.6072Z" fill="white"/>
<path d="M59.2818 54.3032C59.2818 52.9692 59.2818 51.6352 59.2818 50.2322C60.6388 50.2322 61.9498 50.2322 63.3988 50.2322C63.3988 51.5892 63.3988 52.9462 63.3988 54.3032L63.4218 54.2802C62.0418 54.2802 60.6388 54.2802 59.2588 54.2802L59.2818 54.3032Z" fill="white"/>
<path d="M92.8627 58.397C92.8627 59.777 92.8627 61.18 92.8627 62.56C91.3907 62.56 89.9187 62.56 88.4697 62.56C88.4697 61.226 88.4697 59.892 88.4697 58.397C89.9647 58.397 91.4137 58.397 92.8627 58.397Z" fill="white"/>
<path d="M80.166 58.443C80.166 57.063 80.166 55.66 80.166 54.28C81.5 54.28 82.834 54.28 84.237 54.28C84.237 55.66 84.237 56.971 84.237 58.443C82.903 58.443 81.523 58.443 80.166 58.443Z" fill="white"/>
<path d="M38.3057 71.093C38.3057 69.621 38.3057 68.149 38.3057 66.7C42.5377 66.7 46.7697 66.7 50.9787 66.7C50.9787 68.103 50.9787 69.529 50.9787 71.093C46.7007 71.093 42.5147 71.093 38.3057 71.093Z" fill="black"/>
<path d="M55.0723 66.7691C57.8093 66.7691 60.5463 66.7691 63.3523 66.7691C63.3523 68.1721 63.3523 69.5291 63.3523 70.9781C60.6843 70.9781 57.9933 70.9781 55.1183 70.9781C55.1183 69.5981 55.1183 68.1721 55.1183 66.7231C55.0953 66.7231 55.0723 66.7691 55.0723 66.7691Z" fill="black"/>
<path d="M51.0027 62.5832C48.2197 62.5832 45.4137 62.5832 42.4697 62.5832C42.4697 61.1342 42.4697 59.7772 42.4697 58.4202C45.2527 58.4202 48.0587 58.4202 51.0027 58.4202C51.0027 59.8462 51.0027 61.2032 51.0027 62.5832Z" fill="black"/>
<path d="M59.2354 54.2571C60.6154 54.2571 62.0184 54.2571 63.3984 54.2571C63.3984 56.9711 63.3984 59.6851 63.3984 62.4681C62.0184 62.4681 60.7074 62.4681 59.2354 62.4681C59.2354 59.7311 59.2354 56.9941 59.2354 54.2571Z" fill="black"/>
<path d="M50.9551 66.7231C50.9551 65.3431 50.9551 63.9401 50.9551 62.5601C52.2891 62.5601 53.6001 62.5601 55.0491 62.5601C55.0491 64.0091 55.0491 65.3891 55.0491 66.7691L55.0721 66.7231C53.7151 66.7231 52.3351 66.7231 50.9551 66.7231Z" fill="black"/>
<path d="M96.9092 96.094C95.5292 96.094 94.2412 96.094 92.9072 96.094C92.9072 94.76 92.9072 93.472 92.9072 92.092C94.1952 92.092 95.5062 92.092 96.9092 92.092C96.9092 93.38 96.9092 94.691 96.9092 96.094Z" fill="black"/>
<path d="M25.9551 37.398C25.9551 33.258 25.9551 29.233 25.9551 25.116C30.0491 25.116 34.0971 25.116 38.2371 25.116C38.2371 29.164 38.2371 33.235 38.2371 37.398C34.1891 37.398 30.1181 37.398 25.9551 37.398Z" fill="black"/>
<path d="M113.446 37.4441C109.329 37.4441 105.281 37.4441 101.164 37.4441C101.164 33.3501 101.164 29.3021 101.164 25.1621C105.212 25.1621 109.283 25.1621 113.446 25.1621C113.446 29.2101 113.446 33.2811 113.446 37.4441Z" fill="black"/>
<path d="M38.282 100.372C38.282 104.489 38.282 108.537 38.282 112.654C34.188 112.654 30.14 112.654 26 112.654C26 108.606 26 104.535 26 100.372C30.048 100.372 34.119 100.372 38.282 100.372Z" fill="black"/>
</svg>
