<svg width="110" height="138" viewBox="0 0 110 138" fill="none" xmlns="http://www.w3.org/2000/svg">
<path d="M109.743 0H0V138H81.6829L82.5371 137.146L82.6686 137.211L108.954 110.926V110.86L109.743 110.071V0ZM5.25714 5.25714H104.486V106.457H80.8286L78.2 109.086V132.743H5.25714V5.25714ZM83.4571 128.8V111.714H100.674L83.4571 128.8Z" fill="#030303"/>
<path d="M78.8582 90.6857H76.821L58.5524 66.5028L77.0839 42.0571H78.8582V32.2H30.8867V42.0571H33.5153L52.0467 66.5028L33.7124 90.6857H30.8867V100.543H78.8582V90.6857ZM40.1524 42.0571H70.381L55.2667 62.0342L40.1524 42.0571ZM55.2667 70.7085L69.0667 88.9114L62.4953 83.7857C58.0267 80.3028 51.7839 80.3685 47.381 83.9171L42.1896 88.1228L55.2667 70.7085Z" fill="#030303"/>
</svg>
