<svg width="108" height="1197" viewBox="0 0 108 1197" fill="none" xmlns="http://www.w3.org/2000/svg">
<path fill-rule="evenodd" clip-rule="evenodd" d="M55 14L55 1102L51 1102L51 14L55 14Z" fill="black"/>
<path d="M107.212 52.1061C107.212 80.8835 83.8835 104.212 55.1061 104.212C26.3287 104.212 3 80.8835 3 52.1061C3 23.3287 26.3287 0 55.1061 0C83.8835 0 107.212 23.3287 107.212 52.1061Z" fill="black"/>
<path d="M53.1599 67.5583H58.2133V35.5535H54.5075C54.0864 39.8489 52.5704 41.028 47.0116 41.028H45.6641V44.9865H53.1599V67.5583Z" fill="white"/>
<path d="M105.212 234.106C105.212 262.884 81.8835 286.212 53.1061 286.212C24.3287 286.212 1 262.884 1 234.106C1 205.329 24.3287 182 53.1061 182C81.8835 182 105.212 205.329 105.212 234.106Z" fill="black"/>
<path d="M48.7259 245.01L54.6215 239.873C60.7698 234.482 63.5492 230.861 63.5492 226.397C63.5492 220.922 59.338 217.132 53.1055 217.132C46.5361 217.132 41.988 221.091 41.4827 227.576L46.1992 228.502C46.4518 223.87 48.9785 221.428 52.8528 221.428C56.1375 221.428 58.4115 223.618 58.4115 226.818C58.4115 229.682 56.8113 232.461 52.5159 236.335L41.3984 246.274V249.558H64.3072V245.01H48.7259Z" fill="white"/>
<path d="M107.212 416.106C107.212 444.884 83.8835 468.212 55.1061 468.212C26.3287 468.212 3 444.884 3 416.106C3 387.329 26.3287 364 55.1061 364C83.8835 364 107.212 387.329 107.212 416.106Z" fill="black"/>
<path d="M56.2645 411.934L64.771 403.259V399.553H43.631V404.102H58.3701L49.0213 413.703L51.548 416.398C52.4745 415.809 53.6536 415.472 55.0012 415.472C58.4543 415.472 60.8126 417.83 60.8126 421.367C60.8126 425.242 58.1174 427.684 53.7378 427.684C50.2004 427.684 47.5895 426 46.0735 422.715L42.1992 424.989C44.1364 429.453 48.4317 431.979 53.9905 431.979C60.8126 431.979 65.7817 427.431 65.7817 421.367C65.7817 415.809 61.8232 411.934 56.2645 411.934Z" fill="white"/>
<path d="M104.212 598.106C104.212 626.884 80.8835 650.212 52.1061 650.212C23.3287 650.212 0 626.884 0 598.106C0 569.329 23.3287 546 52.1061 546C80.8835 546 104.212 569.329 104.212 598.106Z" fill="black"/>
<path d="M65.8114 601.346H60.6738V581.554H54.6097L40.0391 601.599V605.642H55.7888V613.559H60.6738V605.642H65.8114V601.346ZM45.2609 601.346L55.7888 586.86V601.346H45.2609Z" fill="white"/>
<path d="M104.212 780.106C104.212 808.884 80.8835 832.212 52.1061 832.212C23.3287 832.212 0 808.884 0 780.106C0 751.329 23.3287 728 52.1061 728C80.8835 728 104.212 751.329 104.212 780.106Z" fill="black"/>
<path d="M52.3262 773.676C49.6895 773.676 47.5801 774.379 45.9102 775.785L46.6133 767.436H61.2031V762.602H42.4824L40.9883 780.004L44.9434 781.322C46.3496 779.037 48.6348 777.895 51.3594 777.895C55.5781 777.895 58.3906 780.707 58.3906 784.926C58.3906 789.145 55.4023 791.957 50.9199 791.957C47.4922 791.957 44.5039 790.111 43.0098 787.475L39.4941 790.287C41.5156 794.066 45.7344 796.439 51.0078 796.439C58.4785 796.439 63.6641 791.693 63.6641 784.926C63.6641 778.422 58.8301 773.676 52.3262 773.676Z" fill="white"/>
<path d="M104.212 962.106C104.212 990.884 80.8835 1014.21 52.1061 1014.21C23.3287 1014.21 0 990.884 0 962.106C0 933.329 23.3287 910 52.1061 910C80.8835 910 104.212 933.329 104.212 962.106Z" fill="black"/>
<path d="M51.6992 956.643C47.6562 956.643 44.4043 958.312 42.4707 961.213C42.3828 954.973 44.668 948.645 51.6113 948.645C54.4238 948.645 56.8848 949.787 58.4668 952.072L61.9824 948.82C59.6094 945.656 55.6543 944.162 51.5234 944.162C41.8555 944.162 37.6367 952.424 37.6367 961.74C37.6367 970.617 41.5918 978.439 50.8203 978.439C57.4121 978.439 62.9492 973.869 62.9492 967.189C62.9492 960.598 58.1152 956.643 51.6992 956.643ZM50.8203 974.045C46.6895 974.045 43.877 971.408 43.877 967.277C43.877 963.322 47.041 960.773 50.9961 960.773C54.9512 960.773 57.8516 963.322 57.8516 967.453C57.8516 971.408 54.6875 974.045 50.8203 974.045Z" fill="white"/>
<path d="M104.212 1144.11C104.212 1172.88 80.8835 1196.21 52.1061 1196.21C23.3287 1196.21 0 1172.88 0 1144.11C0 1115.33 23.3287 1092 52.1061 1092C80.8835 1092 104.212 1115.33 104.212 1144.11Z" fill="black"/>
<path d="M38.7031 1127.6V1132.44H56.9844C50.6562 1138.85 45.6465 1149.84 45.6465 1161H51.0957C51.0957 1149.22 55.666 1138.24 62.873 1131.56V1127.6H38.7031Z" fill="white"/>
</svg>
