<?xml version="1.0" encoding="UTF-8" standalone="no"?>
<svg
   xmlns:dc="http://purl.org/dc/elements/1.1/"
   xmlns:cc="http://creativecommons.org/ns#"
   xmlns:rdf="http://www.w3.org/1999/02/22-rdf-syntax-ns#"
   xmlns:svg="http://www.w3.org/2000/svg"
   xmlns="http://www.w3.org/2000/svg"
   id="svg863"
   version="1.1"
   fill="none"
   viewBox="0 0 107.212 650.21198"
   height="650.21198"
   width="107.212">
  <metadata
     id="metadata869">
    <rdf:RDF>
      <cc:Work
         rdf:about="">
        <dc:format>image/svg+xml</dc:format>
        <dc:type
           rdf:resource="http://purl.org/dc/dcmitype/StillImage" />
        <dc:title></dc:title>
      </cc:Work>
    </rdf:RDF>
  </metadata>
  <defs
     id="defs867" />
  <path
     style="stroke-width:0.756121"
     id="path833"
     fill="#000000"
     d="M 55,14 V 636.0308 H 51 V 14 Z"
     clip-rule="evenodd"
     fill-rule="evenodd" />
  <path
     id="path835"
     fill="#000000"
     d="m 107.212,52.1061 c 0,28.7774 -23.3285,52.1059 -52.1059,52.1059 C 26.3287,104.212 3,80.8835 3,52.1061 3,23.3287 26.3287,0 55.1061,0 83.8835,0 107.212,23.3287 107.212,52.1061 Z" />
  <path
     id="path837"
     fill="#ffffff"
     d="m 53.1599,67.5583 h 5.0534 V 35.5535 h -3.7058 c -0.4211,4.2954 -1.9371,5.4745 -7.4959,5.4745 h -1.3475 v 3.9585 h 7.4958 z" />
  <path
     id="path839"
     fill="#000000"
     d="m 105.212,234.106 c 0,28.778 -23.3285,52.106 -52.1059,52.106 C 24.3287,286.212 1,262.884 1,234.106 1,205.329 24.3287,182 53.1061,182 c 28.7774,0 52.1059,23.329 52.1059,52.106 z" />
  <path
     id="path841"
     fill="#ffffff"
     d="m 48.7259,245.01 5.8956,-5.137 c 6.1483,-5.391 8.9277,-9.012 8.9277,-13.476 0,-5.475 -4.2112,-9.265 -10.4437,-9.265 -6.5694,0 -11.1175,3.959 -11.6228,10.444 l 4.7165,0.926 c 0.2526,-4.632 2.7793,-7.074 6.6536,-7.074 3.2847,0 5.5587,2.19 5.5587,5.39 0,2.864 -1.6002,5.643 -5.8956,9.517 l -11.1175,9.939 v 3.284 h 22.9088 v -4.548 z" />
  <path
     id="path843"
     fill="#000000"
     d="m 107.212,416.106 c 0,28.778 -23.3285,52.106 -52.1059,52.106 C 26.3287,468.212 3,444.884 3,416.106 3,387.329 26.3287,364 55.1061,364 c 28.7774,0 52.1059,23.329 52.1059,52.106 z" />
  <path
     id="path845"
     fill="#ffffff"
     d="m 56.2645,411.934 8.5065,-8.675 v -3.706 h -21.14 v 4.549 h 14.7391 l -9.3488,9.601 2.5267,2.695 c 0.9265,-0.589 2.1056,-0.926 3.4532,-0.926 3.4531,0 5.8114,2.358 5.8114,5.895 0,3.875 -2.6952,6.317 -7.0748,6.317 -3.5374,0 -6.1483,-1.684 -7.6643,-4.969 l -3.8743,2.274 c 1.9372,4.464 6.2325,6.99 11.7913,6.99 6.8221,0 11.7912,-4.548 11.7912,-10.612 0,-5.558 -3.9585,-9.433 -9.5172,-9.433 z" />
  <path
     id="path847"
     fill="#000000"
     d="m 104.212,598.106 c 0,28.778 -23.3285,52.106 -52.1059,52.106 C 23.3287,650.212 0,626.884 0,598.106 0,569.329 23.3287,546 52.1061,546 c 28.7774,0 52.1059,23.329 52.1059,52.106 z" />
  <path
     id="path849"
     fill="#ffffff"
     d="m 65.8114,601.346 h -5.1376 v -19.792 h -6.0641 l -14.5706,20.045 v 4.043 h 15.7497 v 7.917 h 4.885 v -7.917 h 5.1376 z m -20.5505,0 10.5279,-14.486 v 14.486 z" />
</svg>
