<svg width="228" height="49" viewBox="0 0 228 49" fill="none" xmlns="http://www.w3.org/2000/svg">
<path d="M148.445 6.15369H154.075V12.4452H152.644V7.39361H149.876V12.4452H148.445V6.15369Z" fill="black"/>
<path d="M155.277 12.4452L155.37 11.2512C155.462 11.2971 155.693 11.2971 155.785 11.2971C156.523 11.2971 157.031 10.9297 157.031 6.15369H161.83V12.4452H160.399V7.39361H158.415C158.415 11.94 157.538 12.537 156.154 12.537C155.923 12.4911 155.508 12.4452 155.277 12.4452Z" fill="black"/>
<path d="M167.827 12.4452V11.6645C167.411 12.1696 166.719 12.583 165.796 12.583C164.596 12.583 163.535 11.8941 163.535 10.6083C163.535 9.23056 164.643 8.54172 166.119 8.54172C166.904 8.54172 167.365 8.63356 167.873 8.81725V8.67948C167.873 7.80694 167.319 7.34771 166.304 7.34771C165.612 7.34771 165.058 7.48548 164.504 7.76102L164.089 6.61294C164.781 6.29148 165.473 6.10779 166.488 6.10779C168.38 6.10779 169.257 7.07217 169.257 8.77133V12.4911H167.827V12.4452ZM167.873 9.82756C167.504 9.68979 166.996 9.59795 166.442 9.59795C165.519 9.59795 165.012 9.96533 165.012 10.6083C165.012 11.2053 165.566 11.5267 166.258 11.5267C167.227 11.5267 167.919 10.9756 167.919 10.1949V9.82756H167.873Z" fill="black"/>
<path d="M172.624 7.39361H170.594V6.15369H176.131V7.39361H174.101V12.4452H172.624V7.39361Z" fill="black"/>
<path d="M181.022 11.9859C180.699 12.2615 180.192 12.537 179.592 12.537C178.115 12.537 177.008 11.343 177.008 9.27648C177.008 7.25586 178.069 6.01593 179.592 6.01593C180.238 6.01593 180.699 6.33739 181.022 6.65886V4.08716H182.453V6.65886C182.776 6.33739 183.237 6.01593 183.883 6.01593C185.406 6.01593 186.467 7.20993 186.467 9.27648C186.467 11.343 185.406 12.4911 183.883 12.4911C183.237 12.4911 182.73 12.2615 182.453 11.94V14.2821H181.022V11.9859ZM181.022 10.9297V7.71509C180.746 7.43955 180.423 7.25586 180.007 7.25586C178.992 7.25586 178.484 8.08247 178.484 9.27648C178.484 10.5164 178.992 11.2971 180.007 11.2971C180.423 11.343 180.746 11.1593 181.022 10.9297ZM185.037 9.3224C185.037 8.1284 184.529 7.30178 183.514 7.30178C183.099 7.30178 182.776 7.48547 182.499 7.76101V10.9756C182.822 11.2512 183.099 11.3889 183.514 11.3889C184.576 11.343 185.037 10.5623 185.037 9.3224Z" fill="black"/>
<path d="M187.945 9.32246C187.945 7.53145 189.376 6.01599 191.314 6.01599C193.252 6.01599 194.682 7.48553 194.682 9.32246C194.682 11.1135 193.252 12.583 191.268 12.583C189.376 12.583 187.945 11.1135 187.945 9.32246ZM193.252 9.32246C193.252 8.2203 192.467 7.30184 191.314 7.30184C190.16 7.30184 189.422 8.2203 189.422 9.32246C189.422 10.4246 190.206 11.3431 191.36 11.3431C192.514 11.3431 193.252 10.4246 193.252 9.32246Z" fill="black"/>
<path d="M196.48 6.15376H197.911V7.20999C198.372 6.56707 199.018 6.01599 200.08 6.01599C201.556 6.01599 203.033 7.20999 203.033 9.32246C203.033 11.389 201.603 12.583 200.08 12.583C199.018 12.583 198.372 12.0778 197.911 11.4808V14.374H196.48V6.15376ZM201.556 9.27654C201.556 8.03661 200.726 7.25592 199.757 7.25592C198.788 7.25592 197.911 8.08253 197.911 9.27654C197.911 10.5165 198.788 11.2972 199.757 11.2972C200.726 11.3431 201.556 10.5624 201.556 9.27654Z" fill="black"/>
<path d="M204.788 6.15369H206.219L208.203 9.09277L210.187 6.15369H211.618V12.4452H210.141V8.26615L208.157 11.1134L206.173 8.31208V12.4911H204.742V6.15369H204.788Z" fill="black"/>
<path d="M217.663 12.4452V11.6645C217.247 12.1696 216.555 12.583 215.632 12.583C214.432 12.583 213.371 11.8941 213.371 10.6083C213.371 9.23056 214.479 8.54172 215.955 8.54172C216.74 8.54172 217.201 8.63356 217.709 8.81725V8.67948C217.709 7.80694 217.155 7.34771 216.14 7.34771C215.448 7.34771 214.894 7.48548 214.34 7.76102L213.925 6.61294C214.617 6.29148 215.309 6.10779 216.324 6.10779C218.216 6.10779 219.093 7.07217 219.093 8.77133V12.4911H217.663V12.4452ZM217.663 9.82756C217.293 9.68979 216.786 9.59795 216.232 9.59795C215.309 9.59795 214.802 9.96533 214.802 10.6083C214.802 11.2053 215.355 11.5267 216.001 11.5267C216.97 11.5267 217.663 10.9756 217.663 10.1949V9.82756Z" fill="black"/>
<path d="M148.074 24.7985C148.074 23.0075 149.366 21.538 151.166 21.538C153.196 21.538 154.211 23.0993 154.211 24.9363C154.211 25.0281 154.211 25.2577 154.165 25.3496H149.505C149.643 26.3599 150.381 26.9569 151.304 26.9569C151.996 26.9569 152.504 26.6814 153.012 26.2221L153.842 26.9569C153.242 27.6917 152.412 28.1509 151.258 28.1509C149.505 28.105 148.074 26.7732 148.074 24.7985ZM152.781 24.3852C152.689 23.4667 152.135 22.732 151.166 22.732C150.289 22.732 149.643 23.4208 149.505 24.3852H152.781Z" fill="black"/>
<path d="M155.043 27.9671L155.135 26.7731C155.228 26.8191 155.458 26.8191 155.551 26.8191C156.289 26.8191 156.796 26.4517 156.796 21.6757H161.595V27.9671H160.165V22.9156H158.181C158.181 27.462 157.304 28.059 155.92 28.059C155.689 28.0131 155.274 27.9671 155.043 27.9671Z" fill="black"/>
<path d="M163.395 24.7985C163.395 23.0075 164.687 21.538 166.486 21.538C168.517 21.538 169.532 23.0993 169.532 24.9363C169.532 25.0281 169.532 25.2577 169.486 25.3496H164.825C164.963 26.3599 165.702 26.9569 166.625 26.9569C167.317 26.9569 167.824 26.6814 168.332 26.2221L169.163 26.9569C168.563 27.6917 167.732 28.1509 166.578 28.1509C164.779 28.105 163.395 26.7732 163.395 24.7985ZM168.055 24.3852C167.963 23.4667 167.409 22.732 166.44 22.732C165.563 22.732 164.917 23.4208 164.779 24.3852H168.055Z" fill="black"/>
<path d="M171.285 21.6757H172.716V24.7066L175.484 21.6757H177.192L174.746 24.3392L177.422 27.9671H175.715L173.777 25.3495L172.762 26.4517V27.9671H171.331V21.6757H171.285Z" fill="black"/>
<path d="M180.007 22.9156H177.977V21.6757H183.514V22.9156H181.484V27.9671H180.007V22.9156Z" fill="black"/>
<path d="M184.992 21.6757H186.423V22.732C186.884 22.089 187.53 21.538 188.591 21.538C190.068 21.538 191.545 22.732 191.545 24.8444C191.545 26.911 190.114 28.105 188.591 28.105C187.53 28.105 186.884 27.5998 186.423 27.0028V29.8501H184.992V21.6757ZM190.022 24.7985C190.022 23.5586 189.191 22.7779 188.222 22.7779C187.253 22.7779 186.377 23.6045 186.377 24.7985C186.377 26.0384 187.253 26.8191 188.222 26.8191C189.237 26.8191 190.022 26.0384 190.022 24.7985Z" fill="black"/>
<path d="M192.973 24.7985C192.973 23.0075 194.403 21.4921 196.341 21.4921C198.279 21.4921 199.71 22.9616 199.71 24.7985C199.71 26.5895 198.279 28.0591 196.295 28.0591C194.357 28.105 192.973 26.6355 192.973 24.7985ZM198.233 24.7985C198.233 23.6964 197.449 22.7779 196.295 22.7779C195.141 22.7779 194.403 23.6964 194.403 24.7985C194.403 25.9007 195.188 26.8192 196.341 26.8192C197.495 26.8651 198.233 25.9466 198.233 24.7985Z" fill="black"/>
<path d="M201.465 21.6757H202.895V24.2474H205.71V21.6757H207.141V27.9671H205.71V25.4414H202.895V27.9671H201.465V21.6757Z" fill="black"/>
<path d="M209.266 21.6757H210.696V24.2474H213.511V21.6757H214.941V27.9671H213.511V25.4414H210.696V27.9671H209.266V21.6757Z" fill="black"/>
<path d="M216.738 24.7985C216.738 23.0075 218.169 21.4921 220.107 21.4921C222.045 21.4921 223.475 22.9616 223.475 24.7985C223.475 26.5895 222.045 28.0591 220.061 28.0591C218.169 28.105 216.738 26.6355 216.738 24.7985ZM222.045 24.7985C222.045 23.6964 221.26 22.7779 220.107 22.7779C218.953 22.7779 218.215 23.6964 218.215 24.7985C218.215 25.9007 218.999 26.8192 220.153 26.8192C221.307 26.8651 222.045 25.9466 222.045 24.7985Z" fill="black"/>
<path d="M224.168 19.4714H225.645V20.8951H224.168V19.4714ZM225.368 21.6757H226.798V27.9672H225.368V21.6757ZM226.521 19.4714H227.998V20.8951H226.521V19.4714Z" fill="black"/>
<path d="M147.707 42.2493H148.399C148.907 41.1931 149.091 39.7235 149.091 37.9784V37.1978H153.983V42.2493H154.859L154.675 45.0047H153.475V43.4892H149.045L148.907 45.0047H147.707V42.2493ZM152.552 42.2493V38.4377H150.476V39.2643C150.476 40.4124 150.245 41.4686 149.876 42.2493H152.552Z" fill="black"/>
<path d="M156.059 40.3205C156.059 38.5295 157.351 37.0599 159.15 37.0599C161.181 37.0599 162.196 38.6213 162.196 40.4583C162.196 40.5501 162.196 40.7797 162.15 40.8716H157.489C157.627 41.8819 158.366 42.4789 159.289 42.4789C159.981 42.4789 160.488 42.2033 160.996 41.7441L161.827 42.4789C161.227 43.2136 160.396 43.6729 159.243 43.6729C157.443 43.6269 156.059 42.2952 156.059 40.3205ZM160.719 39.8613C160.627 38.9428 160.073 38.208 159.104 38.208C158.227 38.208 157.581 38.8969 157.443 39.8613H160.719Z" fill="black"/>
<path d="M163.948 37.1519H165.379L167.363 40.0909L169.347 37.1519H170.778V43.4433H169.301V39.2643L167.317 42.1116L165.333 39.3102V43.4893H163.902V37.1519H163.948Z" fill="black"/>
<path d="M172.531 40.3205C172.531 38.5295 173.962 37.014 175.9 37.014C177.838 37.014 179.268 38.4836 179.268 40.3205C179.268 42.1115 177.838 43.581 175.854 43.581C173.962 43.627 172.531 42.1574 172.531 40.3205ZM177.838 40.3205C177.838 39.2184 177.053 38.2999 175.9 38.2999C174.746 38.2999 174.008 39.2184 174.008 40.3205C174.008 41.4227 174.792 42.3411 175.946 42.3411C177.1 42.3411 177.838 41.4227 177.838 40.3205Z" fill="black"/>
<path d="M181.07 37.1519H182.501V40.1828L185.269 37.1519H186.977L184.531 39.8154L187.208 43.4433H185.5L183.562 40.8257L182.547 41.9279V43.4433H181.116V37.1519H181.07Z" fill="black"/>
<path d="M188.453 37.1518H189.884V38.208C190.345 37.5651 190.991 37.014 192.052 37.014C193.529 37.014 195.006 38.208 195.006 40.3205C195.006 42.387 193.575 43.581 192.052 43.581C190.991 43.581 190.345 43.0759 189.884 42.4789V45.3721H188.453V37.1518ZM193.529 40.3205C193.529 39.0806 192.698 38.2999 191.729 38.2999C190.76 38.2999 189.884 39.1265 189.884 40.3205C189.884 41.5604 190.76 42.3411 191.729 42.3411C192.745 42.3411 193.529 41.5604 193.529 40.3205Z" fill="black"/>
<path d="M200.682 43.4893V42.7086C200.267 43.2137 199.575 43.627 198.652 43.627C197.452 43.627 196.391 42.9382 196.391 41.6523C196.391 40.2746 197.498 39.5858 198.975 39.5858C199.759 39.5858 200.221 39.6776 200.728 39.8613V39.7236C200.728 38.851 200.174 38.3918 199.159 38.3918C198.467 38.3918 197.913 38.5295 197.36 38.8051L196.944 37.657C197.637 37.3355 198.329 37.1519 199.344 37.1519C201.236 37.1519 202.113 38.1162 202.113 39.8154V43.5352H200.682V43.4893ZM200.728 40.8257C200.359 40.6879 199.851 40.5961 199.298 40.5961C198.375 40.5961 197.867 40.9635 197.867 41.6064C197.867 42.2034 198.421 42.5249 199.067 42.5249C200.036 42.5249 200.728 41.9738 200.728 41.1931V40.8257Z" fill="black"/>
<path d="M205.48 38.3918H203.449V37.1519H208.987V38.3918H206.956V43.4433H205.48V38.3918Z" fill="black"/>
<path d="M210.465 34.8557H212.034V36.2334H210.465V34.8557ZM210.511 37.1519H211.941V43.4433H210.511V37.1519Z" fill="black"/>
<path d="M213.047 34.9475H214.523V36.3711H213.047V34.9475ZM214.247 37.1518H215.677V43.4433H214.247V37.1518ZM215.446 34.9475H216.923V36.3711H215.446V34.9475Z" fill="black"/>
<path d="M47.7135 17.5885H44.668V31.3654H47.7135C52.1895 31.3654 55.1889 28.8856 55.1889 24.477C55.1889 20.1602 52.2357 17.5885 47.7135 17.5885Z" fill="black"/>
<path d="M26.2101 0V11.0216H0V18.9203H19.8421V29.9419H0V37.9325H26.2101V48.9541H136.265V0H26.2101ZM47.4827 37.9784H37.1925V11.0675H47.6211C57.2653 11.0675 62.895 16.6242 62.895 24.4311C62.895 32.1921 57.2192 37.9784 47.4827 37.9784ZM89.7972 37.9784H67.8324V11.0675H89.5665V17.4049H75.2155V21.492H88.1822V27.3702H75.2155V31.6411H89.7511V37.9784H89.7972ZM124.682 37.9784H117.207V22.5023L110.285 33.0187H110.147L103.271 22.5483V37.9325H95.9344V11.0675H103.871L110.332 21.492L116.792 11.0675H124.729V37.9784H124.682Z" fill="black"/>
</svg>
