<svg width="23" height="31" viewBox="0 0 23 31" fill="none"
  xmlns="http://www.w3.org/2000/svg">
  <path d="M11.0007 0.0115902C5.13904 0.250997 0.466927 4.74842 0.0359206 10.5455C0.0186803 10.7678 0.00144003 10.9901 0.00144003 11.2124C-0.0330405 13.2644 0.553129 15.2823 1.60479 17.0436L10.2939 30.6043C10.6214 31.1173 11.3628 31.1344 11.7076 30.6385L21.2415 17.1804C22.3103 15.5559 22.9482 13.692 23 11.7596C23 11.6399 23 11.5373 23 11.4176C23.0172 4.93652 17.5865 -0.279118 11.0007 0.0115902ZM11.5007 16.6674C8.56985 16.6674 6.20794 14.3076 6.20794 11.4176C6.20794 8.51052 8.58709 6.15065 11.5007 6.15065C14.4143 6.15065 16.7935 8.51052 16.7935 11.4005C16.8107 14.3076 14.4315 16.6674 11.5007 16.6674Z" fill="#030303"/>
</svg>