<svg width="574" height="519" viewBox="0 0 574 519" fill="none" xmlns="http://www.w3.org/2000/svg">
<path d="M286.913 359.655C342.188 359.655 386.998 314.814 386.998 259.5C386.998 204.186 342.188 159.345 286.913 159.345C231.638 159.345 186.828 204.186 186.828 259.5C186.828 314.814 231.638 359.655 286.913 359.655Z" fill="white"/>
<path d="M286.912 361.459C230.828 361.459 185.023 315.803 185.023 259.5C185.023 203.197 230.648 157.541 286.912 157.541C342.995 157.541 388.8 203.197 388.8 259.5C388.8 315.803 343.176 361.459 286.912 361.459ZM286.912 161.15C232.812 161.15 188.63 205.182 188.63 259.5C188.63 313.818 232.631 357.85 286.912 357.85C341.192 357.85 385.193 313.818 385.193 259.5C385.193 205.182 341.192 161.15 286.912 161.15Z" fill="black"/>
<path d="M391.143 440.139H182.678L78.4453 259.5L182.678 78.8606H391.143L495.375 259.5L391.143 440.139ZM184.842 436.53H389.159L491.228 259.5L389.159 82.4698H184.842L82.7733 259.5L184.842 436.53Z" fill="black"/>
<path d="M222.531 242.898V231.168H223.794V236.04H230.827V231.168H232.089V242.898H230.827V237.123H223.794V242.898H222.531Z" fill="black"/>
<path d="M238.942 234.597C240.204 234.597 241.286 234.958 242.188 235.86C243.09 236.762 243.45 237.664 243.45 238.928C243.45 240.191 243.09 241.093 242.188 241.996C241.286 242.898 240.385 243.259 238.942 243.259C237.68 243.259 236.598 242.898 235.696 241.996C234.794 241.093 234.434 240.191 234.434 238.928C234.434 237.664 234.794 236.762 235.696 235.86C236.598 235.138 237.68 234.597 238.942 234.597ZM241.286 236.582C240.745 236.04 240.024 235.679 238.942 235.679C238.04 235.679 237.319 236.04 236.598 236.582C236.057 237.123 235.696 238.025 235.696 238.928C235.696 239.83 236.057 240.552 236.598 241.274C237.139 241.815 237.86 242.176 238.942 242.176C239.844 242.176 240.565 241.815 241.286 241.274C241.827 240.732 242.188 239.83 242.188 238.928C242.188 238.025 241.827 237.304 241.286 236.582Z" fill="black"/>
<path d="M245.613 242.898V234.777H249.941C251.564 234.777 252.466 235.679 252.466 236.762C252.466 237.664 252.105 238.206 251.384 238.567C252.466 238.928 253.007 239.649 253.007 240.732C253.007 241.995 252.105 242.898 250.302 242.898H245.613ZM246.876 238.206H249.581C250.663 238.206 251.204 237.845 251.204 236.943C251.204 236.221 250.663 235.679 249.581 235.679H246.876V238.206ZM246.876 241.995H249.941C251.023 241.995 251.745 241.454 251.745 240.732C251.745 239.83 251.023 239.469 249.941 239.469H246.876V241.995Z" fill="black"/>
<path d="M259.137 234.597C260.4 234.597 261.482 234.958 262.383 235.86C263.285 236.762 263.646 237.664 263.646 238.928C263.646 240.191 263.285 241.093 262.383 241.996C261.482 242.898 260.58 243.259 259.137 243.259C257.875 243.259 256.793 242.898 255.891 241.996C254.99 241.093 254.629 240.191 254.629 238.928C254.629 237.664 254.99 236.762 255.891 235.86C256.793 235.138 257.875 234.597 259.137 234.597ZM261.482 236.582C260.941 236.04 260.219 235.679 259.137 235.679C258.236 235.679 257.514 236.04 256.793 236.582C256.252 237.123 255.891 238.025 255.891 238.928C255.891 239.83 256.252 240.552 256.793 241.274C257.334 241.815 258.055 242.176 259.137 242.176C260.039 242.176 260.76 241.815 261.482 241.274C262.023 240.732 262.383 239.83 262.383 238.928C262.383 238.025 262.023 237.304 261.482 236.582Z" fill="black"/>
<path d="M265.812 242.898V234.777H273.206V242.898H271.944V235.86H267.075V242.898H265.812Z" fill="black"/>
<path d="M276.63 241.996C275.728 241.093 275.367 240.191 275.367 238.928C275.367 237.664 275.728 236.762 276.63 235.86C277.531 234.958 278.433 234.597 279.695 234.597C280.597 234.597 281.499 234.777 282.22 235.138V236.221C281.499 235.86 280.777 235.679 279.876 235.679C278.974 235.679 278.072 236.04 277.531 236.582C276.99 237.123 276.63 237.845 276.63 238.928C276.63 239.83 276.99 240.552 277.531 241.274C278.072 241.815 278.974 242.176 279.876 242.176C280.777 242.176 281.679 241.996 282.4 241.454V242.537C281.679 243.078 280.777 243.259 279.695 243.259C278.433 243.259 277.531 242.717 276.63 241.996Z" fill="black"/>
<path d="M286.009 234.777V238.206L289.796 234.777H291.419L287.091 238.386L291.96 242.898H290.157L285.829 238.928V242.898H284.566V234.777H286.009Z" fill="black"/>
<path d="M297.188 234.597C298.45 234.597 299.532 234.958 300.434 235.86C301.336 236.762 301.696 237.664 301.696 238.928C301.696 240.191 301.336 241.093 300.434 241.996C299.532 242.898 298.631 243.259 297.188 243.259C295.926 243.259 294.844 242.898 293.942 241.996C293.04 241.093 292.68 240.191 292.68 238.928C292.68 237.664 293.04 236.762 293.942 235.86C294.844 235.138 295.926 234.597 297.188 234.597ZM299.532 236.582C298.991 236.04 298.27 235.679 297.188 235.679C296.286 235.679 295.565 236.04 294.844 236.582C294.303 237.123 293.942 238.025 293.942 238.928C293.942 239.83 294.303 240.552 294.844 241.274C295.385 241.815 296.106 242.176 297.188 242.176C298.09 242.176 298.811 241.815 299.532 241.274C300.073 240.732 300.434 239.83 300.434 238.928C300.434 238.025 300.073 237.304 299.532 236.582Z" fill="black"/>
<path d="M303.859 242.898V234.777H308.187C309.81 234.777 310.712 235.679 310.712 236.762C310.712 237.664 310.351 238.206 309.63 238.567C310.712 238.928 311.253 239.649 311.253 240.732C311.253 241.995 310.351 242.898 308.548 242.898H303.859ZM305.122 238.206H307.827C308.909 238.206 309.45 237.845 309.45 236.943C309.45 236.221 308.909 235.679 307.827 235.679H305.122V238.206ZM305.122 241.995H308.187C309.269 241.995 309.991 241.454 309.991 240.732C309.991 239.83 309.269 239.469 308.187 239.469H305.122V241.995Z" fill="black"/>
<path d="M314.141 241.996C313.24 241.093 312.879 240.191 312.879 238.928C312.879 237.664 313.24 236.762 314.141 235.86C315.043 234.958 315.945 234.597 317.207 234.597C318.109 234.597 319.01 234.777 319.732 235.138V236.221C319.01 235.86 318.289 235.679 317.387 235.679C316.486 235.679 315.584 236.04 315.043 236.582C314.502 237.123 314.141 237.845 314.141 238.928C314.141 239.83 314.502 240.552 315.043 241.274C315.584 241.815 316.486 242.176 317.387 242.176C318.289 242.176 319.191 241.996 319.912 241.454V242.537C319.191 243.078 318.289 243.259 317.207 243.259C316.125 243.259 315.043 242.717 314.141 241.996Z" fill="black"/>
<path d="M322.438 242.898V234.777H323.7V237.484H326.585C328.569 237.484 329.651 238.567 329.651 240.191C329.651 241.815 328.569 242.898 326.585 242.898H322.438ZM323.7 241.995H326.405C327.667 241.995 328.388 241.454 328.388 240.371C328.388 239.289 327.667 238.747 326.405 238.747H323.7V241.995Z" fill="black"/>
<path d="M333.075 234.777V238.206L336.862 234.777H338.485L334.157 238.386L339.026 242.898H337.222L332.895 238.928V242.898H331.812V234.777H333.075Z" fill="black"/>
<path d="M341.011 242.537C340.47 241.995 340.109 241.454 340.109 240.552C340.109 239.649 340.47 239.108 341.011 238.567C341.732 238.025 342.454 237.845 343.355 237.845C344.437 237.845 345.339 238.025 346.241 238.567V237.845C346.241 236.401 345.339 235.86 343.536 235.86C342.634 235.86 341.732 236.04 340.831 236.762V235.499C341.552 234.958 342.634 234.777 343.716 234.777C345.88 234.777 347.323 235.86 347.323 237.845V241.274C347.323 241.815 347.683 242.356 348.044 242.356C348.224 242.356 348.405 242.356 348.585 242.176V243.078C348.405 243.259 348.224 243.259 347.864 243.259C347.142 243.259 346.421 242.898 346.241 241.995C345.339 242.898 344.257 243.439 342.995 243.439C342.273 243.259 341.552 242.898 341.011 242.537ZM346.421 240.732V239.649C345.519 239.108 344.618 238.928 343.716 238.928C342.273 238.928 341.372 239.469 341.372 240.552C341.372 241.635 342.273 242.176 343.536 242.176C344.618 241.995 345.7 241.454 346.421 240.732Z" fill="black"/>
<path d="M227.943 253.003C229.566 253.003 231.009 253.545 232.091 254.808C233.173 255.891 233.714 257.334 233.714 259.139C233.714 260.944 233.173 262.387 232.091 263.47C231.009 264.553 229.566 265.275 227.943 265.275C226.32 265.275 224.878 264.733 223.615 263.47C222.533 262.387 221.992 260.763 221.992 259.139C221.992 257.334 222.533 255.891 223.615 254.808C224.878 253.545 226.32 253.003 227.943 253.003ZM227.943 264.011C229.206 264.011 230.288 263.47 231.189 262.568C232.091 261.665 232.452 260.402 232.452 258.959C232.452 257.515 231.911 256.432 231.189 255.349C230.288 254.447 229.206 253.906 227.943 253.906C226.681 253.906 225.599 254.447 224.697 255.349C223.796 256.252 223.435 257.515 223.435 258.959C223.435 260.402 223.976 261.485 224.697 262.568C225.599 263.651 226.681 264.011 227.943 264.011Z" fill="black"/>
<path d="M238.941 265.094V254.447H234.793V253.364H244.17V254.447H240.023V265.094H238.941Z" fill="black"/>
<path d="M246.516 265.094V253.364H254.45V254.447H247.778V265.094H246.516Z" fill="black"/>
<path d="M224.154 287.11V276.644L221.449 278.087V276.824L224.154 275.2H225.236V286.93H224.154V287.11Z" fill="black"/>
<path d="M227.941 287.11V286.208L231.909 282.418C232.81 281.516 233.351 280.975 233.712 280.433C234.073 279.892 234.253 279.35 234.253 278.629C234.253 277.185 233.171 276.283 231.548 276.283C230.286 276.283 229.204 276.824 228.122 277.907V276.463C229.204 275.561 230.286 275.2 231.728 275.2C232.81 275.2 233.712 275.561 234.433 276.102C235.155 276.644 235.515 277.546 235.515 278.448C235.515 279.17 235.335 279.892 234.974 280.614C234.614 281.155 233.892 282.057 232.991 282.96L229.745 286.027H235.876V287.11H227.941Z" fill="black"/>
<path d="M237.137 289.637L238.399 285.306H239.842L238.038 289.637H237.137Z" fill="black"/>
<path d="M247.776 287.11V283.862H241.465V282.779L247.776 275.2H249.039V282.599H251.022V283.681H249.039V286.93H247.776V287.11ZM242.908 282.779H247.776V277.004L242.908 282.779Z" fill="black"/>
<path d="M258.776 287.11V280.072H255.891V278.99H262.924V280.072H260.038V287.11H258.776Z" fill="black"/>
<path d="M264.727 287.11V278.99H265.989V285.306L271.219 278.99H272.301V287.11H271.038V280.794L265.809 287.11H264.727Z" fill="black"/>
<path d="M275.727 286.027C274.826 285.125 274.465 284.223 274.465 282.96C274.465 281.696 274.826 280.794 275.727 279.892C276.629 278.99 277.531 278.629 278.793 278.629C279.695 278.629 280.596 278.809 281.317 279.17V280.253C280.596 279.892 279.875 279.711 278.973 279.711C278.071 279.711 277.17 280.072 276.629 280.614C276.088 281.155 275.727 281.877 275.727 282.96C275.727 283.862 276.088 284.584 276.629 285.306C277.17 285.847 278.071 286.208 278.973 286.208C279.875 286.208 280.777 286.027 281.498 285.486V286.569C280.777 287.11 279.875 287.291 278.793 287.291C277.711 287.291 276.629 286.93 275.727 286.027Z" fill="black"/>
<path d="M283.845 285.667C284.205 285.306 284.746 285.306 285.107 285.667C285.468 286.027 285.468 286.569 285.107 286.93C284.746 287.291 284.205 287.291 283.845 286.93C283.484 286.569 283.484 286.027 283.845 285.667Z" fill="black"/>
<path d="M296.286 278.809C297.548 278.809 298.63 279.17 299.532 280.072C300.433 280.975 300.794 281.877 300.794 283.14C300.794 284.403 300.433 285.306 299.532 286.208C298.63 287.11 297.728 287.471 296.286 287.471C295.023 287.471 293.941 287.11 293.04 286.208C292.138 285.306 291.777 284.403 291.777 283.14C291.777 281.877 292.138 280.975 293.04 280.072C293.941 279.17 294.843 278.809 296.286 278.809ZM298.45 280.794C297.909 280.253 297.187 279.892 296.105 279.892C295.204 279.892 294.482 280.253 293.761 280.794C293.22 281.336 292.859 282.238 292.859 283.14C292.859 284.042 293.22 284.764 293.761 285.486C294.302 286.027 295.023 286.388 296.105 286.388C297.007 286.388 297.728 286.027 298.45 285.486C298.991 284.945 299.351 284.042 299.351 283.14C299.351 282.057 298.991 281.336 298.45 280.794Z" fill="black"/>
<path d="M303.501 286.027C302.599 285.125 302.238 284.223 302.238 282.96C302.238 281.696 302.599 280.794 303.501 279.892C304.402 278.99 305.304 278.629 306.566 278.629C307.468 278.629 308.37 278.809 309.091 279.17V280.253C308.37 279.892 307.648 279.711 306.747 279.711C305.845 279.711 304.943 280.072 304.402 280.614C303.861 281.155 303.501 281.877 303.501 282.96C303.501 283.862 303.861 284.584 304.402 285.306C304.943 285.847 305.845 286.208 306.747 286.208C307.648 286.208 308.55 286.027 309.271 285.486V286.569C308.55 287.11 307.648 287.291 306.566 287.291C305.304 287.291 304.402 286.93 303.501 286.027Z" fill="black"/>
<path d="M311.795 275.561C312.156 275.2 312.697 275.2 313.058 275.561C313.418 275.922 313.418 276.463 313.058 276.824C312.697 277.185 312.156 277.185 311.795 276.824C311.615 276.463 311.615 275.922 311.795 275.561ZM311.795 287.11V278.99H313.058V287.11H311.795Z" fill="black"/>
<path d="M316.848 285.847C316.126 284.945 315.766 283.501 315.766 281.877C315.766 279.531 316.307 278.087 317.389 277.185C317.93 276.644 318.651 276.283 319.372 276.102C319.733 275.922 320.094 275.922 320.635 275.741C321.176 275.561 321.536 275.561 321.897 275.38C322.258 275.2 322.799 275.2 323.34 275.019V276.102C322.258 276.283 321.356 276.463 320.635 276.644C319.372 277.005 318.471 277.365 317.93 278.087C317.389 278.809 317.028 279.711 316.848 281.155C317.569 280.072 318.831 279.351 320.454 279.351C321.536 279.351 322.438 279.711 323.159 280.433C323.881 281.155 324.241 282.057 324.241 283.14C324.241 284.403 323.881 285.306 322.979 286.208C322.258 286.93 321.176 287.291 320.094 287.291C318.651 287.291 317.569 286.749 316.848 285.847ZM322.077 285.306C322.618 284.764 322.979 284.042 322.979 283.14C322.979 282.238 322.799 281.696 322.258 281.155C321.717 280.614 320.995 280.433 320.274 280.433C319.553 280.433 318.831 280.614 318.29 281.155C317.749 281.516 317.208 282.057 317.028 282.599C317.208 284.945 318.29 286.208 320.274 286.208C320.995 286.208 321.536 285.847 322.077 285.306Z" fill="black"/>
<path d="M187.005 159.526C230.528 159.526 265.81 124.219 265.81 80.6651C265.81 37.1116 230.528 1.80457 187.005 1.80457C143.482 1.80457 108.199 37.1116 108.199 80.6651C108.199 124.219 143.482 159.526 187.005 159.526Z" fill="white"/>
<path d="M187.003 161.33C142.461 161.33 106.395 125.058 106.395 80.6652C106.395 36.2723 142.461 0 187.003 0C231.365 0 267.612 36.0918 267.612 80.6652C267.612 125.239 231.365 161.33 187.003 161.33ZM187.003 3.60918C144.445 3.60918 110.001 38.2573 110.001 80.6652C110.001 123.073 144.625 157.721 187.003 157.721C229.382 157.721 264.006 123.073 264.006 80.6652C264.006 38.2573 229.382 3.60918 187.003 3.60918Z" fill="black"/>
<path d="M137.415 72.1836C136.513 71.2813 136.152 70.379 136.152 69.1158C136.152 67.8526 136.513 66.9503 137.415 66.048C138.316 65.1457 139.218 64.7848 140.48 64.7848C141.382 64.7848 142.284 64.9652 143.005 65.3262V66.4089C142.284 66.048 141.562 65.8675 140.661 65.8675C139.759 65.8675 138.857 66.2285 138.316 66.7698C137.775 67.3112 137.415 68.033 137.415 69.1158C137.415 70.0181 137.775 70.7399 138.316 71.4618C138.857 72.0031 139.759 72.3641 140.661 72.3641C141.562 72.3641 142.464 72.1836 143.185 71.6422V72.725C142.464 73.2663 141.562 73.4468 140.48 73.4468C139.218 73.4468 138.136 72.9054 137.415 72.1836Z" fill="black"/>
<path d="M145.528 71.8227C145.889 71.4618 146.43 71.4618 146.791 71.8227C147.151 72.1836 147.151 72.725 146.791 73.0859C146.43 73.4468 145.889 73.4468 145.528 73.0859C145.168 72.725 145.168 72.1836 145.528 71.8227Z" fill="black"/>
<path d="M159.596 61.1756C161.219 61.1756 162.661 61.717 163.743 62.9802C164.825 64.0629 165.366 65.5066 165.366 67.3112C165.366 69.1158 164.825 70.5595 163.743 71.6422C162.661 72.725 161.219 73.4468 159.596 73.4468C157.973 73.4468 156.53 72.9054 155.268 71.6422C154.186 70.5595 153.645 68.9353 153.645 67.3112C153.645 65.5066 154.186 64.0629 155.268 62.9802C156.53 61.717 157.973 61.1756 159.596 61.1756ZM159.596 72.1836C160.858 72.1836 161.94 71.6422 162.842 70.7399C163.743 69.8376 164.104 68.5744 164.104 67.1307C164.104 65.6871 163.563 64.6043 162.842 63.5216C161.94 62.6193 160.858 62.0779 159.596 62.0779C158.333 62.0779 157.251 62.6193 156.35 63.5216C155.448 64.4239 155.087 65.6871 155.087 67.1307C155.087 68.5744 155.628 69.6572 156.35 70.7399C157.251 71.8227 158.333 72.1836 159.596 72.1836Z" fill="black"/>
<path d="M168.794 72.1836C167.892 71.2813 167.531 70.379 167.531 69.1158C167.531 67.8526 167.892 66.9503 168.794 66.048C169.695 65.1457 170.597 64.7848 171.859 64.7848C172.761 64.7848 173.663 64.9652 174.384 65.3262V66.4089C173.663 66.048 172.941 65.8675 172.04 65.8675C171.138 65.8675 170.236 66.2285 169.695 66.7698C169.154 67.3112 168.794 68.033 168.794 69.1158C168.794 70.0181 169.154 70.7399 169.695 71.4618C170.236 72.0031 171.138 72.3641 172.04 72.3641C172.941 72.3641 173.843 72.1836 174.564 71.6422V72.725C173.843 73.2663 172.941 73.4468 171.859 73.4468C170.777 73.4468 169.695 72.9054 168.794 72.1836Z" fill="black"/>
<path d="M177.09 73.2663V64.9652H178.352V71.2813L183.582 64.9652H184.664V73.0859H183.402V66.7698L178.172 73.0859H177.09V73.2663Z" fill="black"/>
<path d="M187.547 73.2663V64.9652H188.809V68.3939H193.859V64.9652H195.121V73.0859H193.859V69.4767H188.809V73.0859H187.547V73.2663Z" fill="black"/>
<path d="M201.614 64.7848C202.876 64.7848 203.958 65.1457 204.86 66.048C205.761 66.9503 206.122 67.8526 206.122 69.1158C206.122 70.379 205.761 71.2813 204.86 72.1836C203.958 73.0859 203.056 73.4468 201.614 73.4468C200.351 73.4468 199.269 73.0859 198.368 72.1836C197.466 71.2813 197.105 70.379 197.105 69.1158C197.105 67.8526 197.466 66.9503 198.368 66.048C199.269 65.3262 200.351 64.7848 201.614 64.7848ZM203.778 66.7698C203.237 66.2285 202.515 65.8675 201.433 65.8675C200.532 65.8675 199.81 66.2285 199.089 66.7698C198.548 67.3112 198.187 68.2135 198.187 69.1158C198.187 70.0181 198.548 70.7399 199.089 71.4618C199.63 72.0031 200.351 72.3641 201.433 72.3641C202.335 72.3641 203.056 72.0031 203.778 71.4618C204.319 70.9204 204.679 70.0181 204.679 69.1158C204.679 68.2135 204.499 67.4917 203.778 66.7698Z" fill="black"/>
<path d="M208.285 73.2663V64.9652H212.613C214.236 64.9652 215.138 65.8675 215.138 66.9503C215.138 67.8525 214.777 68.3939 214.056 68.7548C215.138 69.1158 215.679 69.8376 215.679 70.9203C215.679 72.1836 214.777 73.0859 212.974 73.0859H208.285V73.2663ZM209.367 68.5744H212.072C213.154 68.5744 213.695 68.2135 213.695 67.3112C213.695 66.5893 213.154 66.048 212.072 66.048H209.367V68.5744ZM209.367 72.1836H212.433C213.515 72.1836 214.236 71.6422 214.236 70.9203C214.236 70.0181 213.515 69.6571 212.433 69.6571H209.367V72.1836Z" fill="black"/>
<path d="M218.567 72.1836C217.665 71.4618 217.305 70.379 217.305 69.1158C217.305 67.8526 217.665 66.9503 218.387 66.048C219.108 65.1457 220.19 64.7848 221.452 64.7848C224.157 64.7848 225.239 67.1308 225.239 68.9353V69.2963H218.567C218.747 71.1008 220.01 72.1836 221.993 72.1836C222.895 72.1836 223.797 72.0031 224.518 71.4618V72.5445C223.797 73.0859 222.895 73.2663 221.633 73.2663C220.551 73.4468 219.469 72.9054 218.567 72.1836ZM223.977 68.394C223.977 67.8526 223.797 67.1308 223.256 66.7698C222.895 66.2285 222.174 66.048 221.272 66.048C220.37 66.048 219.829 66.2285 219.288 66.7698C218.747 67.3112 218.567 67.8526 218.387 68.5744H223.977V68.394Z" fill="black"/>
<path d="M135.973 95.2824V94.3801L139.94 90.5904C140.842 89.6881 141.383 89.1468 141.743 88.6054C142.104 88.064 142.284 87.5226 142.284 86.8008C142.284 85.3571 141.202 84.4548 139.579 84.4548C138.317 84.4548 137.235 84.9962 136.153 86.079V84.6353C137.235 83.733 138.317 83.3721 139.76 83.3721C140.842 83.3721 141.743 83.733 142.465 84.2744C143.186 84.8157 143.547 85.718 143.547 86.6203C143.547 87.3422 143.366 88.064 143.006 88.7858C142.645 89.3272 141.924 90.2295 141.022 91.1318L137.776 94.1996H143.907V95.2824H135.973Z" fill="black"/>
<path d="M152.202 95.2823V88.2444H149.316V87.1617H156.349V88.2444H153.284V95.2823H152.202Z" fill="black"/>
<path d="M158.152 95.2823V87.1617H159.415V93.4777L164.644 87.1617H165.726V95.2823H164.464V88.9663L159.234 95.2823H158.152Z" fill="black"/>
<path d="M169.153 94.1996C168.251 93.2973 167.891 92.395 167.891 91.1318C167.891 89.8686 168.251 88.9663 169.153 88.064C170.055 87.1617 170.956 86.8008 172.219 86.8008C173.12 86.8008 174.022 86.9812 174.743 87.3422V88.4249C174.022 88.064 173.301 87.8835 172.399 87.8835C171.497 87.8835 170.596 88.2445 170.055 88.7858C169.514 89.3272 169.153 90.0491 169.153 91.1318C169.153 92.0341 169.514 92.7559 170.055 93.4778C170.596 94.0192 171.497 94.3801 172.399 94.3801C173.301 94.3801 174.202 94.1996 174.924 93.6582V94.741C174.202 95.2824 173.301 95.4628 172.219 95.4628C171.137 95.4628 170.055 95.1019 169.153 94.1996Z" fill="black"/>
<path d="M177.268 93.8387C177.629 93.4778 178.17 93.4778 178.53 93.8387C178.891 94.1996 178.891 94.741 178.53 95.1019C178.17 95.4628 177.629 95.4628 177.268 95.1019C177.088 94.741 177.088 94.1996 177.268 93.8387Z" fill="black"/>
<path d="M189.711 86.9812C190.974 86.9812 192.056 87.3421 192.957 88.2444C193.859 89.1467 194.22 90.049 194.22 91.3122C194.22 92.5754 193.859 93.4777 192.957 94.38C192.056 95.2823 191.154 95.6432 189.711 95.6432C188.449 95.6432 187.367 95.2823 186.465 94.38C185.564 93.4777 185.203 92.5754 185.203 91.3122C185.203 90.049 185.564 89.1467 186.465 88.2444C187.367 87.3421 188.269 86.9812 189.711 86.9812ZM191.875 88.9662C191.334 88.4249 190.613 88.064 189.531 88.064C188.629 88.064 187.908 88.4249 187.187 88.9662C186.646 89.5076 186.285 90.4099 186.285 91.3122C186.285 92.2145 186.646 92.9363 187.187 93.6582C187.728 94.1996 188.449 94.5605 189.531 94.5605C190.433 94.5605 191.154 94.1996 191.875 93.6582C192.416 93.1168 192.777 92.2145 192.777 91.3122C192.777 90.2295 192.416 89.5076 191.875 88.9662Z" fill="black"/>
<path d="M196.926 94.1996C196.025 93.2973 195.664 92.395 195.664 91.1318C195.664 89.8686 196.025 88.9663 196.926 88.064C197.828 87.1617 198.73 86.8008 199.992 86.8008C200.894 86.8008 201.795 86.9812 202.517 87.3422V88.4249C201.795 88.064 201.074 87.8835 200.172 87.8835C199.271 87.8835 198.369 88.2445 197.828 88.7858C197.287 89.3272 196.926 90.0491 196.926 91.1318C196.926 92.0341 197.287 92.7559 197.828 93.4778C198.369 94.0192 199.271 94.3801 200.172 94.3801C201.074 94.3801 201.976 94.1996 202.697 93.6582V94.741C201.976 95.2824 201.074 95.4628 199.992 95.4628C198.73 95.4628 197.828 95.1019 196.926 94.1996Z" fill="black"/>
<path d="M205.403 83.733C205.764 83.3721 206.305 83.3721 206.666 83.733C207.026 84.0939 207.026 84.6353 206.666 84.9962C206.305 85.3571 205.764 85.3571 205.403 84.9962C205.043 84.6353 205.043 84.0939 205.403 83.733ZM205.403 95.2823V87.1617H206.666V95.2823H205.403Z" fill="black"/>
<path d="M210.269 94.0191C209.548 93.1168 209.188 91.6732 209.188 90.049C209.188 87.7031 209.728 86.2594 210.81 85.3571C211.351 84.8157 212.073 84.4548 212.794 84.2743C213.155 84.0939 213.515 84.0939 214.056 83.9134C214.597 83.733 214.958 83.733 215.319 83.5525C215.679 83.5525 216.22 83.372 216.761 83.1916V84.2743C215.679 84.4548 214.778 84.6353 214.056 84.8157C212.794 85.1766 211.892 85.5376 211.351 86.2594C210.81 86.9812 210.45 87.8835 210.269 89.3272C210.991 88.2444 212.253 87.5226 213.876 87.5226C214.958 87.5226 215.86 87.8835 216.581 88.6054C217.302 89.3272 217.663 90.2295 217.663 91.3122C217.663 92.5755 217.302 93.4777 216.401 94.38C215.679 95.1019 214.597 95.4628 213.515 95.4628C212.073 95.4628 211.171 94.9214 210.269 94.0191ZM215.499 93.4777C216.04 92.9364 216.401 92.2145 216.401 91.3122C216.401 90.4099 216.22 89.8686 215.679 89.3272C215.138 88.7858 214.417 88.6054 213.696 88.6054C212.974 88.6054 212.253 88.7858 211.712 89.3272C211.171 89.6881 210.63 90.2295 210.45 90.7709C210.63 93.1168 211.712 94.38 213.696 94.38C214.417 94.38 214.958 94.0191 215.499 93.4777Z" fill="black"/>
<path d="M80.6102 338.361C124.133 338.361 159.416 303.053 159.416 259.5C159.416 215.946 124.133 180.639 80.6102 180.639C37.0871 180.639 1.80469 215.946 1.80469 259.5C1.80469 303.053 37.0871 338.361 80.6102 338.361Z" fill="white"/>
<path d="M80.6089 340.165C36.0666 340.165 0 304.073 0 259.5C0 214.927 36.0666 178.835 80.6089 178.835C124.971 178.835 161.218 214.927 161.218 259.5C161.218 304.073 124.971 340.165 80.6089 340.165ZM80.6089 182.444C38.2306 182.444 3.60666 217.092 3.60666 259.5C3.60666 301.908 38.2306 336.556 80.6089 336.556C122.987 336.556 157.611 301.908 157.611 259.5C157.611 217.092 122.987 182.444 80.6089 182.444Z" fill="black"/>
<path d="M31.0162 251.018C30.1146 250.116 29.7539 249.214 29.7539 247.951C29.7539 246.687 30.1146 245.785 31.0162 244.883C31.9179 243.98 32.8196 243.62 34.0819 243.62C34.9836 243.62 35.8852 243.8 36.6066 244.161V245.244C35.8852 244.883 35.1639 244.702 34.2622 244.702C33.3606 244.702 32.4589 245.063 31.9179 245.605C31.3769 246.146 31.0162 246.868 31.0162 247.951C31.0162 248.853 31.3769 249.575 31.9179 250.297C32.4589 250.838 33.3606 251.199 34.2622 251.199C35.1639 251.199 36.0656 251.018 36.7869 250.477V251.56C36.0656 252.101 35.1639 252.282 34.0819 252.282C32.8196 252.282 31.7376 251.921 31.0162 251.018Z" fill="black"/>
<path d="M39.1299 250.658C39.4905 250.297 40.0315 250.297 40.3922 250.658C40.7529 251.018 40.7529 251.56 40.3922 251.921C40.0315 252.282 39.4905 252.282 39.1299 251.921C38.7692 251.56 38.7692 251.018 39.1299 250.658Z" fill="black"/>
<path d="M53.1971 240.01C54.8201 240.01 56.2627 240.552 57.3447 241.815C58.4267 242.898 58.9677 244.341 58.9677 246.146C58.9677 247.951 58.4267 249.394 57.3447 250.477C56.2627 251.56 54.8201 252.282 53.1971 252.282C51.5741 252.282 50.1314 251.74 48.8691 250.477C47.7871 249.394 47.2461 247.77 47.2461 246.146C47.2461 244.341 47.7871 242.898 48.8691 241.815C50.1314 240.732 51.5741 240.01 53.1971 240.01ZM53.1971 251.018C54.4594 251.018 55.5414 250.477 56.4431 249.575C57.3447 248.672 57.7054 247.409 57.7054 245.966C57.7054 244.522 57.1644 243.439 56.4431 242.356C55.5414 241.454 54.4594 240.913 53.1971 240.913C51.9347 240.913 50.8528 241.454 49.9511 242.356C49.0494 243.259 48.6888 244.522 48.6888 245.966C48.6888 247.409 49.2298 248.492 49.9511 249.575C50.8528 250.657 51.9347 251.018 53.1971 251.018Z" fill="black"/>
<path d="M62.3951 251.018C61.4935 250.116 61.1328 249.214 61.1328 247.951C61.1328 246.687 61.4935 245.785 62.3951 244.883C63.2968 243.98 64.1985 243.62 65.4608 243.62C66.3625 243.62 67.2641 243.8 67.9855 244.161V245.244C67.2641 244.883 66.5428 244.702 65.6411 244.702C64.7395 244.702 63.8378 245.063 63.2968 245.605C62.7558 246.146 62.3951 246.868 62.3951 247.951C62.3951 248.853 62.7558 249.575 63.2968 250.297C63.8378 250.838 64.7395 251.199 65.6411 251.199C66.5428 251.199 67.4445 251.018 68.1658 250.477V251.56C67.4445 252.101 66.5428 252.282 65.4608 252.282C64.3788 252.282 63.2968 251.921 62.3951 251.018Z" fill="black"/>
<path d="M70.6914 252.101V243.981H71.9537V250.297L77.1834 243.981H78.2654V252.101H77.0031V245.785L71.7734 252.101H70.6914Z" fill="black"/>
<path d="M81.1484 252.101V243.981H82.4108V247.409H87.4601V243.981H88.7224V252.101H87.4601V248.492H82.4108V252.101H81.1484Z" fill="black"/>
<path d="M95.2154 243.8C96.4777 243.8 97.5597 244.161 98.4613 245.063C99.363 245.966 99.7237 246.868 99.7237 248.131C99.7237 249.394 99.363 250.297 98.4613 251.199C97.5597 252.101 96.658 252.462 95.2154 252.462C93.953 252.462 92.871 252.101 91.9694 251.199C91.0677 250.297 90.707 249.394 90.707 248.131C90.707 246.868 91.0677 245.966 91.9694 245.063C92.871 244.161 93.953 243.8 95.2154 243.8ZM97.3794 245.785C96.8384 245.244 96.117 244.883 95.035 244.883C94.1334 244.883 93.412 245.244 92.6907 245.785C92.1497 246.326 91.789 247.229 91.789 248.131C91.789 249.033 92.1497 249.755 92.6907 250.477C93.2317 251.018 93.953 251.379 95.035 251.379C95.9367 251.379 96.658 251.018 97.3794 250.477C97.9204 249.936 98.281 249.033 98.281 248.131C98.281 247.048 98.1007 246.326 97.3794 245.785Z" fill="black"/>
<path d="M101.887 252.101V243.981H106.215C107.838 243.981 108.739 244.883 108.739 245.966C108.739 246.868 108.379 247.409 107.657 247.77C108.739 248.131 109.28 248.853 109.28 249.936C109.28 251.199 108.379 252.101 106.575 252.101H101.887ZM102.969 247.409H105.674C106.756 247.409 107.297 247.048 107.297 246.146C107.297 245.424 106.756 244.883 105.674 244.883H102.969V247.409ZM102.969 251.018H106.034C107.116 251.018 107.838 250.477 107.838 249.755C107.838 248.853 107.116 248.492 106.034 248.492H102.969V251.018Z" fill="black"/>
<path d="M112.169 251.018C111.267 250.297 110.906 249.214 110.906 247.951C110.906 246.687 111.267 245.785 111.988 244.883C112.71 243.98 113.792 243.62 115.054 243.62C117.759 243.62 118.841 245.966 118.841 247.77V248.131H112.169C112.349 249.936 113.611 251.018 115.595 251.018C116.497 251.018 117.398 250.838 118.12 250.297V251.379C117.398 251.921 116.497 252.101 115.234 252.101C114.152 252.282 113.07 251.921 112.169 251.018ZM117.759 247.229C117.759 246.687 117.579 245.966 117.038 245.605C116.677 245.063 115.956 244.883 115.054 244.883C114.152 244.883 113.611 245.063 113.07 245.605C112.529 246.146 112.349 246.687 112.169 247.409H117.759V247.229Z" fill="black"/>
<path d="M29.5742 274.117V273.215L33.5415 269.425C34.4432 268.523 34.9842 267.982 35.3449 267.44C35.7055 266.899 35.8859 266.357 35.8859 265.636C35.8859 264.192 34.8039 263.29 33.1809 263.29C31.9185 263.29 30.8366 263.831 29.7546 264.914V263.47C30.8366 262.568 31.9185 262.207 33.3612 262.207C34.4432 262.207 35.3449 262.568 36.0662 263.109C36.7875 263.651 37.1482 264.553 37.1482 265.455C37.1482 266.177 36.9679 266.899 36.6072 267.621C36.2465 268.162 35.5252 269.064 34.6235 269.967L31.3775 273.034H37.5089V274.117H29.5742Z" fill="black"/>
<path d="M45.8033 274.117V267.079H42.918V265.997H49.951V267.079H46.8853V274.117H45.8033Z" fill="black"/>
<path d="M51.7539 274.117V265.997H53.0162V272.313L58.2459 265.997H59.3279V274.117H58.0656V267.801L52.8359 274.117H51.7539Z" fill="black"/>
<path d="M62.9342 273.034C62.0325 272.132 61.6719 271.23 61.6719 269.967C61.6719 268.703 62.0325 267.801 62.9342 266.899C63.8359 265.996 64.7375 265.636 65.9999 265.636C66.9015 265.636 67.8032 265.816 68.5245 266.177V267.26C67.8032 266.899 67.0819 266.718 66.1802 266.718C65.2785 266.718 64.3769 267.079 63.8359 267.621C63.2949 268.162 62.9342 268.884 62.9342 269.967C62.9342 270.869 63.2949 271.591 63.8359 272.313C64.3769 272.854 65.2785 273.215 66.1802 273.215C67.0819 273.215 67.9835 273.034 68.7049 272.493V273.576C67.9835 274.117 67.0819 274.298 65.9999 274.298C64.7375 274.298 63.6555 273.937 62.9342 273.034Z" fill="black"/>
<path d="M71.0517 272.674C71.4124 272.313 71.9534 272.313 72.3141 272.674C72.6747 273.034 72.6747 273.576 72.3141 273.937C71.9534 274.298 71.4124 274.298 71.0517 273.937C70.6911 273.576 70.6911 273.034 71.0517 272.674Z" fill="black"/>
<path d="M83.313 265.816C84.5754 265.816 85.6574 266.177 86.559 267.079C87.4607 267.982 87.8214 268.884 87.8214 270.147C87.8214 271.41 87.4607 272.313 86.559 273.215C85.6574 274.117 84.7557 274.478 83.313 274.478C82.0507 274.478 80.9687 274.117 80.067 273.215C79.1654 272.313 78.8047 271.41 78.8047 270.147C78.8047 268.884 79.1654 267.982 80.067 267.079C80.9687 266.177 82.0507 265.816 83.313 265.816ZM85.477 267.801C84.936 267.26 84.2147 266.899 83.1327 266.899C82.231 266.899 81.5097 267.26 80.7884 267.801C80.2474 268.343 79.8867 269.245 79.8867 270.147C79.8867 271.049 80.2474 271.771 80.7884 272.493C81.3294 273.034 82.0507 273.395 83.1327 273.395C84.0343 273.395 84.7557 273.034 85.477 272.493C86.018 271.952 86.3787 271.049 86.3787 270.147C86.3787 269.064 86.1984 268.343 85.477 267.801Z" fill="black"/>
<path d="M90.528 273.034C89.6263 272.132 89.2656 271.23 89.2656 269.967C89.2656 268.703 89.6263 267.801 90.528 266.899C91.4296 265.996 92.3313 265.636 93.5936 265.636C94.4953 265.636 95.3969 265.816 96.1183 266.177V267.26C95.3969 266.899 94.6756 266.718 93.7739 266.718C92.8723 266.718 91.9706 267.079 91.4296 267.621C90.8886 268.162 90.528 268.884 90.528 269.967C90.528 270.869 90.8886 271.591 91.4296 272.313C91.9706 272.854 92.8723 273.215 93.7739 273.215C94.6756 273.215 95.5773 273.034 96.2986 272.493V273.576C95.5773 274.117 94.6756 274.298 93.5936 274.298C92.5116 274.298 91.4296 273.937 90.528 273.034Z" fill="black"/>
<path d="M99.0049 262.568C99.3655 262.207 99.9065 262.207 100.267 262.568C100.628 262.929 100.628 263.47 100.267 263.831C99.9065 264.192 99.3655 264.192 99.0049 263.831C98.6442 263.47 98.6442 262.929 99.0049 262.568ZM99.0049 274.117V265.997H100.267V274.117H99.0049Z" fill="black"/>
<path d="M103.871 272.854C103.15 271.952 102.789 270.508 102.789 268.884C102.789 266.538 103.33 265.094 104.412 264.192C104.953 263.651 105.674 263.29 106.396 263.109C106.756 262.929 107.117 262.929 107.658 262.748C108.199 262.568 108.56 262.568 108.92 262.387C109.281 262.387 109.822 262.207 110.363 262.026V263.109C109.281 263.29 108.379 263.47 107.658 263.651C106.396 264.011 105.494 264.372 104.953 265.094C104.412 265.816 104.051 266.718 103.871 268.162C104.592 267.079 105.855 266.357 107.478 266.357C108.56 266.357 109.461 266.718 110.183 267.44C110.904 268.162 111.265 269.064 111.265 270.147C111.265 271.41 110.904 272.313 110.002 273.215C109.281 273.937 108.199 274.298 107.117 274.298C105.855 274.298 104.773 273.756 103.871 272.854ZM109.281 272.313C109.822 271.771 110.183 271.049 110.183 270.147C110.183 269.245 110.002 268.703 109.461 268.162C108.92 267.621 108.199 267.44 107.478 267.44C106.756 267.44 106.035 267.621 105.494 268.162C104.953 268.523 104.412 269.064 104.232 269.606C104.412 271.952 105.494 273.215 107.478 273.215C108.019 273.215 108.56 272.854 109.281 272.313Z" fill="black"/>
<path d="M181.056 517.195C224.579 517.195 259.861 481.888 259.861 438.335C259.861 394.781 224.579 359.474 181.056 359.474C137.532 359.474 102.25 394.781 102.25 438.335C102.25 481.888 137.532 517.195 181.056 517.195Z" fill="white"/>
<path d="M181.054 519C136.692 519 100.445 482.908 100.445 438.335C100.445 393.761 136.512 357.67 181.054 357.67C225.596 357.67 261.663 393.761 261.663 438.335C261.663 482.908 225.416 519 181.054 519ZM181.054 361.279C138.676 361.279 104.052 395.927 104.052 438.335C104.052 480.743 138.676 515.391 181.054 515.391C223.432 515.391 258.056 480.743 258.056 438.335C258.056 395.927 223.432 361.279 181.054 361.279Z" fill="black"/>
<path d="M131.462 429.853C130.56 428.951 130.199 428.049 130.199 426.785C130.199 425.522 130.56 424.62 131.462 423.718C132.363 422.815 133.265 422.454 134.527 422.454C135.429 422.454 136.331 422.635 137.052 422.996V424.079C136.331 423.718 135.609 423.537 134.708 423.537C133.806 423.537 132.904 423.898 132.363 424.439C131.822 424.981 131.462 425.703 131.462 426.785C131.462 427.688 131.822 428.41 132.363 429.131C132.904 429.673 133.806 430.034 134.708 430.034C135.609 430.034 136.511 429.853 137.232 429.312V430.395C136.511 430.936 135.609 431.116 134.527 431.116C133.265 431.116 132.183 430.756 131.462 429.853Z" fill="black"/>
<path d="M139.575 429.492C139.936 429.131 140.477 429.131 140.838 429.492C141.198 429.853 141.198 430.395 140.838 430.755C140.477 431.116 139.936 431.116 139.575 430.755C139.215 430.395 139.215 429.853 139.575 429.492Z" fill="black"/>
<path d="M153.642 418.845C155.265 418.845 156.708 419.387 157.79 420.65C158.872 421.733 159.413 423.176 159.413 424.981C159.413 426.785 158.872 428.229 157.79 429.312C156.708 430.395 155.265 431.116 153.642 431.116C152.019 431.116 150.577 430.575 149.314 429.312C148.232 428.229 147.691 426.605 147.691 424.981C147.691 423.176 148.232 421.733 149.314 420.65C150.577 419.567 152.019 418.845 153.642 418.845ZM153.642 430.034C154.905 430.034 155.987 429.492 156.888 428.59C157.79 427.688 158.151 426.425 158.151 424.981C158.151 423.537 157.61 422.454 156.888 421.372C155.987 420.469 154.905 419.928 153.642 419.928C152.38 419.928 151.298 420.469 150.396 421.372C149.495 422.274 149.134 423.537 149.134 424.981C149.134 426.425 149.675 427.507 150.396 428.59C151.298 429.492 152.38 430.034 153.642 430.034Z" fill="black"/>
<path d="M162.84 429.853C161.939 428.951 161.578 428.049 161.578 426.785C161.578 425.522 161.939 424.62 162.84 423.718C163.742 422.815 164.644 422.454 165.906 422.454C166.808 422.454 167.709 422.635 168.431 422.996V424.079C167.709 423.718 166.988 423.537 166.086 423.537C165.185 423.537 164.283 423.898 163.742 424.439C163.201 424.981 162.84 425.703 162.84 426.785C162.84 427.688 163.201 428.41 163.742 429.131C164.283 429.673 165.185 430.034 166.086 430.034C166.988 430.034 167.89 429.853 168.611 429.312V430.395C167.89 430.936 166.988 431.116 165.906 431.116C164.824 431.116 163.742 430.756 162.84 429.853Z" fill="black"/>
<path d="M171.137 430.936V422.815H172.399V429.131L177.629 422.815H178.711V430.936H177.448V424.62L172.219 430.936H171.137Z" fill="black"/>
<path d="M181.414 430.936V422.815H182.676V426.244H187.726V422.815H188.988V430.936H187.726V427.327H182.676V430.936H181.414Z" fill="black"/>
<path d="M195.661 422.635C196.923 422.635 198.005 422.996 198.907 423.898C199.808 424.8 200.169 425.703 200.169 426.966C200.169 428.229 199.808 429.131 198.907 430.034C198.005 430.936 197.103 431.297 195.661 431.297C194.398 431.297 193.316 430.936 192.415 430.034C191.513 429.131 191.152 428.229 191.152 426.966C191.152 425.703 191.513 424.8 192.415 423.898C193.316 422.996 194.218 422.635 195.661 422.635ZM197.825 424.62C197.284 424.079 196.562 423.718 195.48 423.718C194.579 423.718 193.857 424.079 193.136 424.62C192.595 425.161 192.234 426.064 192.234 426.966C192.234 427.868 192.595 428.59 193.136 429.312C193.677 429.853 194.398 430.214 195.48 430.214C196.382 430.214 197.103 429.853 197.825 429.312C198.366 428.771 198.726 427.868 198.726 426.966C198.726 425.883 198.366 425.161 197.825 424.62Z" fill="black"/>
<path d="M202.332 430.936V422.815H206.66C208.283 422.815 209.185 423.718 209.185 424.8C209.185 425.703 208.824 426.244 208.103 426.605C209.185 426.966 209.726 427.688 209.726 428.77C209.726 430.034 208.824 430.936 207.021 430.936H202.332ZM203.414 426.244H206.119C207.201 426.244 207.742 425.883 207.742 424.981C207.742 424.259 207.201 423.718 206.119 423.718H203.414V426.244ZM203.414 429.853H206.48C207.562 429.853 208.283 429.312 208.283 428.59C208.283 427.688 207.562 427.327 206.48 427.327H203.414V429.853Z" fill="black"/>
<path d="M212.614 429.853C211.712 429.131 211.352 428.049 211.352 426.785C211.352 425.522 211.712 424.62 212.434 423.718C213.155 422.815 214.237 422.454 215.499 422.454C218.204 422.454 219.286 424.8 219.286 426.605V426.966H212.614C212.794 428.771 214.057 429.853 216.04 429.853C216.942 429.853 217.844 429.673 218.565 429.131V430.214C217.844 430.756 216.942 430.936 215.68 430.936C214.598 431.116 213.516 430.756 212.614 429.853ZM218.024 426.064C218.024 425.522 217.844 424.8 217.303 424.439C216.942 423.898 216.221 423.718 215.319 423.718C214.417 423.718 213.876 423.898 213.335 424.439C212.794 424.981 212.614 425.522 212.434 426.244H218.024V426.064Z" fill="black"/>
<path d="M130.02 452.952V452.05L133.987 448.26C134.889 447.358 135.43 446.816 135.79 446.275C136.151 445.734 136.331 445.192 136.331 444.47C136.331 443.027 135.249 442.124 133.626 442.124C132.364 442.124 131.282 442.666 130.2 443.749V442.305C131.282 441.403 132.364 441.042 133.807 441.042C134.889 441.042 135.79 441.403 136.512 441.944C137.233 442.485 137.594 443.388 137.594 444.29C137.594 445.012 137.413 445.734 137.053 446.455C136.692 446.997 135.971 447.899 135.069 448.801L131.823 451.869H137.954V452.952H130.02Z" fill="black"/>
<path d="M146.249 452.952V445.914H143.363V444.831H150.396V445.914H147.511V452.952H146.249Z" fill="black"/>
<path d="M152.199 452.952V444.831H153.462V451.147L158.691 444.831H159.773V452.952H158.511V446.636L153.281 452.952H152.199Z" fill="black"/>
<path d="M163.2 452.05C162.298 451.147 161.938 450.245 161.938 448.982C161.938 447.719 162.298 446.816 163.2 445.914C164.101 445.012 165.003 444.651 166.265 444.651C167.167 444.651 168.069 444.831 168.79 445.192V446.275C168.069 445.914 167.348 445.734 166.446 445.734C165.544 445.734 164.642 446.095 164.101 446.636C163.56 447.177 163.2 447.899 163.2 448.982C163.2 449.884 163.56 450.606 164.101 451.328C164.642 451.869 165.544 452.23 166.446 452.23C167.348 452.23 168.249 452.05 168.97 451.508V452.591C168.249 453.133 167.347 453.313 166.265 453.313C165.183 453.132 164.101 452.772 163.2 452.05Z" fill="black"/>
<path d="M171.315 451.508C171.676 451.147 172.217 451.147 172.577 451.508C172.938 451.869 172.938 452.411 172.577 452.771C172.217 453.132 171.676 453.132 171.315 452.771C171.135 452.411 171.135 451.869 171.315 451.508Z" fill="black"/>
<path d="M183.758 444.651C185.021 444.651 186.103 445.012 187.004 445.914C187.906 446.816 188.267 447.719 188.267 448.982C188.267 450.245 187.906 451.147 187.004 452.05C186.103 452.952 185.201 453.313 183.758 453.313C182.496 453.313 181.414 452.952 180.512 452.05C179.611 451.147 179.25 450.245 179.25 448.982C179.25 447.719 179.611 446.816 180.512 445.914C181.414 445.012 182.316 444.651 183.758 444.651ZM185.922 446.636C185.381 446.095 184.66 445.734 183.578 445.734C182.676 445.734 181.955 446.095 181.234 446.636C180.693 447.177 180.332 448.08 180.332 448.982C180.332 449.884 180.693 450.606 181.234 451.328C181.775 451.869 182.496 452.23 183.578 452.23C184.48 452.23 185.201 451.869 185.922 451.328C186.463 450.787 186.824 449.884 186.824 448.982C186.824 448.08 186.463 447.177 185.922 446.636Z" fill="black"/>
<path d="M190.973 452.05C190.072 451.147 189.711 450.245 189.711 448.982C189.711 447.719 190.072 446.816 190.973 445.914C191.875 445.012 192.777 444.651 194.039 444.651C194.941 444.651 195.842 444.831 196.564 445.192V446.275C195.842 445.914 195.121 445.734 194.219 445.734C193.318 445.734 192.416 446.095 191.875 446.636C191.334 447.177 190.973 447.899 190.973 448.982C190.973 449.884 191.334 450.606 191.875 451.328C192.416 451.869 193.318 452.23 194.219 452.23C195.121 452.23 196.023 452.05 196.744 451.508V452.591C196.023 453.133 195.121 453.313 194.039 453.313C192.777 453.132 191.875 452.772 190.973 452.05Z" fill="black"/>
<path d="M199.45 441.403C199.811 441.042 200.352 441.042 200.713 441.403C201.073 441.764 201.073 442.305 200.713 442.666C200.352 443.027 199.811 443.027 199.45 442.666C199.09 442.305 199.09 441.764 199.45 441.403ZM199.45 452.952V444.831H200.713V452.952H199.45Z" fill="black"/>
<path d="M204.316 451.689C203.595 450.786 203.234 449.343 203.234 447.719C203.234 445.373 203.775 443.929 204.857 443.027C205.398 442.485 206.12 442.124 206.841 441.944C207.202 441.763 207.562 441.763 208.103 441.583C208.644 441.403 209.005 441.403 209.366 441.222C209.726 441.222 210.267 441.042 210.808 440.861V441.944C209.726 442.124 208.825 442.305 208.103 442.485C206.841 442.846 205.939 443.207 205.398 443.929C204.857 444.651 204.497 445.553 204.316 446.997C205.038 445.914 206.3 445.192 207.923 445.192C209.005 445.192 209.907 445.553 210.628 446.275C211.349 446.997 211.71 447.899 211.71 448.982C211.71 450.245 211.349 451.147 210.448 452.05C209.726 452.772 208.644 453.132 207.562 453.132C206.12 453.132 205.038 452.772 204.316 451.689ZM209.546 451.328C210.087 450.786 210.448 450.065 210.448 449.162C210.448 448.26 210.267 447.719 209.726 447.177C209.185 446.636 208.464 446.455 207.743 446.455C207.021 446.455 206.3 446.636 205.759 447.177C205.218 447.538 204.677 448.08 204.497 448.621C204.677 450.967 205.759 452.23 207.743 452.23C208.464 452.05 209.005 451.869 209.546 451.328Z" fill="black"/>
<path d="M386.997 517.195C430.52 517.195 465.802 481.888 465.802 438.335C465.802 394.781 430.52 359.474 386.997 359.474C343.474 359.474 308.191 394.781 308.191 438.335C308.191 481.888 343.474 517.195 386.997 517.195Z" fill="white"/>
<path d="M386.996 519C342.634 519 306.387 482.908 306.387 438.335C306.387 393.761 342.453 357.67 386.996 357.67C431.538 357.67 467.604 393.761 467.604 438.335C467.604 482.908 431.358 519 386.996 519ZM386.996 361.279C344.617 361.279 309.993 395.927 309.993 438.335C309.993 480.743 344.617 515.391 386.996 515.391C429.374 515.391 463.998 480.743 463.998 438.335C463.998 395.927 429.374 361.279 386.996 361.279Z" fill="black"/>
<path d="M337.403 429.853C336.501 428.951 336.141 428.049 336.141 426.785C336.141 425.522 336.501 424.62 337.403 423.718C338.305 422.815 339.206 422.454 340.469 422.454C341.37 422.454 342.272 422.635 342.993 422.996V424.079C342.272 423.718 341.551 423.537 340.649 423.537C339.747 423.537 338.846 423.898 338.305 424.439C337.764 424.981 337.403 425.703 337.403 426.785C337.403 427.688 337.764 428.41 338.305 429.131C338.846 429.673 339.747 430.034 340.649 430.034C341.551 430.034 342.452 429.853 343.174 429.312V430.395C342.452 430.936 341.551 431.116 340.469 431.116C339.206 431.116 338.305 430.756 337.403 429.853Z" fill="black"/>
<path d="M345.517 429.492C345.877 429.131 346.418 429.131 346.779 429.492C347.14 429.853 347.14 430.395 346.779 430.755C346.418 431.116 345.877 431.116 345.517 430.755C345.156 430.395 345.156 429.853 345.517 429.492Z" fill="black"/>
<path d="M359.764 418.845C361.387 418.845 362.829 419.387 363.911 420.65C364.993 421.733 365.534 423.176 365.534 424.981C365.534 426.785 364.993 428.229 363.911 429.312C362.829 430.395 361.387 431.116 359.764 431.116C358.141 431.116 356.698 430.575 355.436 429.312C354.354 428.229 353.812 426.605 353.812 424.981C353.812 423.176 354.354 421.733 355.436 420.65C356.518 419.567 357.96 418.845 359.764 418.845ZM359.764 430.034C361.026 430.034 362.108 429.492 363.01 428.59C363.911 427.688 364.272 426.425 364.272 424.981C364.272 423.537 363.731 422.454 363.01 421.372C362.108 420.469 361.026 419.928 359.764 419.928C358.501 419.928 357.419 420.469 356.518 421.372C355.616 422.274 355.255 423.537 355.255 424.981C355.255 426.425 355.796 427.507 356.518 428.59C357.239 429.492 358.321 430.034 359.764 430.034Z" fill="black"/>
<path d="M368.962 429.853C368.06 428.951 367.699 428.049 367.699 426.785C367.699 425.522 368.06 424.62 368.962 423.718C369.863 422.815 370.765 422.454 372.027 422.454C372.929 422.454 373.831 422.635 374.552 422.996V424.079C373.831 423.718 373.109 423.537 372.208 423.537C371.306 423.537 370.404 423.898 369.863 424.439C369.322 424.981 368.962 425.703 368.962 426.785C368.962 427.688 369.322 428.41 369.863 429.131C370.404 429.673 371.306 430.034 372.208 430.034C373.109 430.034 374.011 429.853 374.732 429.312V430.395C374.011 430.936 373.109 431.116 372.027 431.116C370.765 431.116 369.683 430.756 368.962 429.853Z" fill="black"/>
<path d="M377.074 430.936V422.815H378.337V429.131L383.566 422.815H384.648V430.936H383.386V424.62L378.156 430.936H377.074Z" fill="black"/>
<path d="M387.535 430.936V422.815H388.798V426.244H393.847V422.815H395.109V430.936H393.847V427.327H388.798V430.936H387.535Z" fill="black"/>
<path d="M401.602 422.635C402.864 422.635 403.946 422.996 404.848 423.898C405.75 424.8 406.11 425.703 406.11 426.966C406.11 428.229 405.75 429.131 404.848 430.034C403.946 430.936 403.045 431.297 401.602 431.297C400.34 431.297 399.258 430.936 398.356 430.034C397.454 429.131 397.094 428.229 397.094 426.966C397.094 425.703 397.454 424.8 398.356 423.898C399.258 422.996 400.34 422.635 401.602 422.635ZM403.946 424.62C403.405 424.079 402.684 423.718 401.602 423.718C400.7 423.718 399.979 424.079 399.258 424.62C398.717 425.161 398.356 426.064 398.356 426.966C398.356 427.868 398.717 428.59 399.258 429.312C399.799 429.853 400.52 430.214 401.602 430.214C402.504 430.214 403.225 429.853 403.946 429.312C404.487 428.771 404.848 427.868 404.848 426.966C404.668 425.883 404.487 425.161 403.946 424.62Z" fill="black"/>
<path d="M408.273 430.936V422.815H412.601C414.224 422.815 415.126 423.718 415.126 424.8C415.126 425.703 414.765 426.244 414.044 426.605C415.126 426.966 415.667 427.688 415.667 428.77C415.667 430.034 414.765 430.936 412.962 430.936H408.273ZM409.536 426.244H412.241C413.323 426.244 413.864 425.883 413.864 424.981C413.864 424.259 413.323 423.718 412.241 423.718H409.536V426.244ZM409.536 429.853H412.601C413.683 429.853 414.405 429.312 414.405 428.59C414.405 427.688 413.683 427.327 412.601 427.327H409.536V429.853Z" fill="black"/>
<path d="M418.735 429.853C417.833 429.131 417.473 428.049 417.473 426.785C417.473 425.522 417.833 424.62 418.555 423.718C419.276 422.815 420.358 422.454 421.62 422.454C424.325 422.454 425.407 424.8 425.407 426.605V426.966H418.735C418.915 428.771 420.178 429.853 422.161 429.853C423.063 429.853 423.965 429.673 424.686 429.131V430.214C423.965 430.756 423.063 430.936 421.801 430.936C420.538 431.116 419.456 430.756 418.735 429.853ZM424.145 426.064C424.145 425.522 423.965 424.8 423.424 424.439C423.063 423.898 422.342 423.718 421.44 423.718C420.538 423.718 419.997 423.898 419.456 424.439C418.915 424.981 418.735 425.522 418.555 426.244H424.145V426.064Z" fill="black"/>
<path d="M336.141 452.952V452.05L340.108 448.26C341.01 447.358 341.551 446.816 341.911 446.275C342.272 445.734 342.452 445.192 342.452 444.47C342.452 443.027 341.37 442.124 339.747 442.124C338.485 442.124 337.403 442.666 336.321 443.749V442.305C337.403 441.403 338.485 441.042 339.928 441.042C341.01 441.042 341.911 441.403 342.633 441.944C343.354 442.485 343.715 443.388 343.715 444.29C343.715 445.012 343.534 445.734 343.174 446.455C342.813 446.997 342.092 447.899 341.19 448.801L337.944 451.869H344.075V452.952H336.141Z" fill="black"/>
<path d="M352.19 452.952V445.914H349.305V444.831H356.338V445.914H353.452V452.952H352.19Z" fill="black"/>
<path d="M358.141 452.952V444.831H359.403V451.147L364.633 444.831H365.715V452.952H364.452V446.636L359.223 452.952H358.141Z" fill="black"/>
<path d="M369.325 452.05C368.423 451.147 368.062 450.245 368.062 448.982C368.062 447.719 368.423 446.816 369.325 445.914C370.226 445.012 371.128 444.651 372.39 444.651C373.292 444.651 374.194 444.831 374.915 445.192V446.275C374.194 445.914 373.472 445.734 372.571 445.734C371.669 445.734 370.767 446.095 370.226 446.636C369.685 447.177 369.325 447.899 369.325 448.982C369.325 449.884 369.685 450.606 370.226 451.328C370.767 451.869 371.669 452.23 372.571 452.23C373.472 452.23 374.374 452.05 375.095 451.508V452.591C374.374 453.133 373.472 453.313 372.39 453.313C371.128 453.132 370.046 452.772 369.325 452.05Z" fill="black"/>
<path d="M377.438 451.508C377.799 451.147 378.34 451.147 378.701 451.508C379.061 451.869 379.061 452.411 378.701 452.771C378.34 453.132 377.799 453.132 377.438 452.771C377.078 452.411 377.078 451.869 377.438 451.508Z" fill="black"/>
<path d="M389.7 444.651C390.962 444.651 392.044 445.012 392.946 445.914C393.847 446.816 394.208 447.719 394.208 448.982C394.208 450.245 393.847 451.147 392.946 452.05C392.044 452.952 391.142 453.313 389.7 453.313C388.437 453.313 387.355 452.952 386.454 452.05C385.552 451.147 385.191 450.245 385.191 448.982C385.191 447.719 385.552 446.816 386.454 445.914C387.355 445.012 388.437 444.651 389.7 444.651ZM391.864 446.636C391.323 446.095 390.601 445.734 389.519 445.734C388.618 445.734 387.896 446.095 387.175 446.636C386.634 447.177 386.273 448.08 386.273 448.982C386.273 449.884 386.634 450.606 387.175 451.328C387.716 451.869 388.437 452.23 389.519 452.23C390.421 452.23 391.142 451.869 391.864 451.328C392.405 450.787 392.765 449.884 392.765 448.982C392.765 448.08 392.585 447.177 391.864 446.636Z" fill="black"/>
<path d="M396.911 452.05C396.009 451.147 395.648 450.245 395.648 448.982C395.648 447.719 396.009 446.816 396.911 445.914C397.812 445.012 398.714 444.651 399.976 444.651C400.878 444.651 401.78 444.831 402.501 445.192V446.275C401.78 445.914 401.058 445.734 400.157 445.734C399.255 445.734 398.353 446.095 397.812 446.636C397.271 447.177 396.911 447.899 396.911 448.982C396.911 449.884 397.271 450.606 397.812 451.328C398.353 451.869 399.255 452.23 400.157 452.23C401.058 452.23 401.96 452.05 402.681 451.508V452.591C401.96 453.133 401.058 453.313 399.976 453.313C398.894 453.132 397.812 452.772 396.911 452.05Z" fill="black"/>
<path d="M405.388 441.403C405.748 441.042 406.289 441.042 406.65 441.403C407.011 441.764 407.011 442.305 406.65 442.666C406.289 443.027 405.748 443.027 405.388 442.666C405.027 442.305 405.027 441.764 405.388 441.403ZM405.388 452.952V444.831H406.65V452.952H405.388Z" fill="black"/>
<path d="M410.258 451.689C409.536 450.786 409.176 449.343 409.176 447.719C409.176 445.373 409.717 443.929 410.799 443.027C411.34 442.485 412.061 442.124 412.782 441.944C413.143 441.763 413.504 441.763 414.045 441.583C414.586 441.403 414.946 441.403 415.307 441.222C415.668 441.042 416.209 441.042 416.75 440.861V441.944C415.668 442.124 414.766 442.305 414.045 442.485C412.782 442.846 411.881 443.207 411.34 443.929C410.799 444.651 410.438 445.553 410.258 446.997C410.979 445.914 412.241 445.192 413.864 445.192C414.946 445.192 415.848 445.553 416.57 446.275C417.291 446.997 417.652 447.899 417.652 448.982C417.652 450.245 417.291 451.147 416.389 452.05C415.668 452.772 414.586 453.132 413.504 453.132C412.241 453.132 411.159 452.772 410.258 451.689ZM415.668 451.328C416.209 450.786 416.57 450.065 416.57 449.162C416.57 448.26 416.389 447.719 415.848 447.177C415.307 446.636 414.586 446.455 413.864 446.455C413.143 446.455 412.422 446.636 411.881 447.177C411.34 447.538 410.799 448.08 410.618 448.621C410.799 450.967 411.881 452.23 413.864 452.23C414.405 452.05 415.127 451.869 415.668 451.328Z" fill="black"/>
<path d="M493.391 338.361C536.915 338.361 572.197 303.053 572.197 259.5C572.197 215.946 536.915 180.639 493.391 180.639C449.868 180.639 414.586 215.946 414.586 259.5C414.586 303.053 449.868 338.361 493.391 338.361Z" fill="white"/>
<path d="M493.39 340.165C449.028 340.165 412.781 304.073 412.781 259.5C412.781 214.927 448.848 178.835 493.39 178.835C537.752 178.835 573.999 214.927 573.999 259.5C573.999 304.073 537.752 340.165 493.39 340.165ZM493.39 182.444C451.012 182.444 416.388 217.092 416.388 259.5C416.388 301.908 451.012 336.556 493.39 336.556C535.768 336.556 570.392 301.908 570.392 259.5C570.392 217.092 535.768 182.444 493.39 182.444Z" fill="black"/>
<path d="M443.798 251.018C442.896 250.116 442.535 249.214 442.535 247.951C442.535 246.687 442.896 245.785 443.798 244.883C444.699 243.98 445.601 243.62 446.863 243.62C447.765 243.62 448.666 243.8 449.388 244.161V245.244C448.666 244.883 447.945 244.702 447.043 244.702C446.142 244.702 445.24 245.063 444.699 245.605C444.158 246.146 443.798 246.868 443.798 247.951C443.798 248.853 444.158 249.575 444.699 250.297C445.24 250.838 446.142 251.199 447.043 251.199C447.945 251.199 448.847 251.018 449.568 250.477V251.56C448.847 252.101 447.945 252.282 446.863 252.282C445.601 252.282 444.519 251.921 443.798 251.018Z" fill="black"/>
<path d="M451.911 250.658C452.272 250.297 452.813 250.297 453.174 250.658C453.534 251.018 453.534 251.56 453.174 251.921C452.813 252.282 452.272 252.282 451.911 251.921C451.55 251.56 451.55 251.018 451.911 250.658Z" fill="black"/>
<path d="M465.978 240.01C467.601 240.01 469.044 240.552 470.126 241.815C471.208 242.898 471.749 244.341 471.749 246.146C471.749 247.951 471.208 249.394 470.126 250.477C469.044 251.56 467.601 252.282 465.978 252.282C464.355 252.282 462.913 251.74 461.65 250.477C460.568 249.394 460.027 247.77 460.027 246.146C460.027 244.341 460.568 242.898 461.65 241.815C462.913 240.732 464.355 240.01 465.978 240.01ZM465.978 251.018C467.241 251.018 468.323 250.477 469.224 249.575C470.126 248.672 470.487 247.409 470.487 245.966C470.487 244.522 469.946 243.439 469.224 242.356C468.323 241.454 467.241 240.913 465.978 240.913C464.716 240.913 463.634 241.454 462.732 242.356C461.831 243.259 461.47 244.522 461.47 245.966C461.47 247.409 462.011 248.492 462.732 249.575C463.634 250.657 464.716 251.018 465.978 251.018Z" fill="black"/>
<path d="M475.356 251.018C474.454 250.116 474.094 249.214 474.094 247.951C474.094 246.687 474.454 245.785 475.356 244.883C476.258 243.98 477.159 243.62 478.422 243.62C479.323 243.62 480.225 243.8 480.946 244.161V245.244C480.225 244.883 479.504 244.702 478.602 244.702C477.7 244.702 476.799 245.063 476.258 245.605C475.717 246.146 475.356 246.868 475.356 247.951C475.356 248.853 475.717 249.575 476.258 250.297C476.799 250.838 477.7 251.199 478.602 251.199C479.504 251.199 480.405 251.018 481.127 250.477V251.56C480.405 252.101 479.504 252.282 478.422 252.282C477.159 252.282 476.077 251.921 475.356 251.018Z" fill="black"/>
<path d="M483.473 252.101V243.981H484.735V250.297L489.965 243.981H491.047V252.101H489.784V245.785L484.555 252.101H483.473Z" fill="black"/>
<path d="M493.93 252.101V243.981H495.192V247.409H500.241V243.981H501.504V252.101H500.241V248.492H495.192V252.101H493.93Z" fill="black"/>
<path d="M507.997 243.8C509.259 243.8 510.341 244.161 511.243 245.063C512.144 245.966 512.505 246.868 512.505 248.131C512.505 249.394 512.144 250.297 511.243 251.199C510.341 252.101 509.439 252.462 507.997 252.462C506.734 252.462 505.652 252.101 504.751 251.199C503.849 250.297 503.488 249.394 503.488 248.131C503.488 246.868 503.849 245.966 504.751 245.063C505.652 244.161 506.734 243.8 507.997 243.8ZM510.161 245.785C509.62 245.244 508.898 244.883 507.816 244.883C506.915 244.883 506.193 245.244 505.472 245.785C504.931 246.326 504.57 247.229 504.57 248.131C504.57 249.033 504.931 249.755 505.472 250.477C506.013 251.018 506.734 251.379 507.816 251.379C508.718 251.379 509.439 251.018 510.161 250.477C510.702 249.936 511.062 249.033 511.062 248.131C511.062 247.048 510.882 246.326 510.161 245.785Z" fill="black"/>
<path d="M514.668 252.101V243.981H518.996C520.619 243.981 521.521 244.883 521.521 245.966C521.521 246.868 521.16 247.409 520.439 247.77C521.521 248.131 522.062 248.853 522.062 249.936C522.062 251.199 521.16 252.101 519.357 252.101H514.668ZM515.93 247.409H518.635C519.717 247.409 520.258 247.048 520.258 246.146C520.258 245.424 519.717 244.883 518.635 244.883H515.93V247.409ZM515.93 251.018H518.996C520.078 251.018 520.799 250.477 520.799 249.755C520.799 248.853 520.078 248.492 518.996 248.492H515.93V251.018Z" fill="black"/>
<path d="M525.126 251.018C524.224 250.297 523.863 249.214 523.863 247.951C523.863 246.687 524.224 245.785 524.945 244.883C525.667 243.98 526.749 243.62 528.011 243.62C530.716 243.62 531.798 245.966 531.798 247.77V248.131H525.126C525.306 249.936 526.568 251.018 528.552 251.018C529.454 251.018 530.355 250.838 531.077 250.297V251.379C530.355 251.921 529.454 252.101 528.191 252.101C526.929 252.282 525.847 251.921 525.126 251.018ZM530.536 247.229C530.536 246.687 530.355 245.966 529.814 245.605C529.454 245.063 528.732 244.883 527.831 244.883C526.929 244.883 526.388 245.063 525.847 245.605C525.306 246.146 525.126 246.687 524.945 247.409H530.536V247.229Z" fill="black"/>
<path d="M442.355 274.117V273.215L446.323 269.425C447.224 268.523 447.765 267.982 448.126 267.44C448.487 266.899 448.667 266.357 448.667 265.636C448.667 264.192 447.585 263.29 445.962 263.29C444.7 263.29 443.618 263.831 442.536 264.914V263.47C443.618 262.568 444.7 262.207 446.142 262.207C447.224 262.207 448.126 262.568 448.847 263.109C449.569 263.651 449.929 264.553 449.929 265.455C449.929 266.177 449.749 266.899 449.388 267.621C449.028 268.162 448.307 269.064 447.405 269.967L444.159 273.034H450.29V274.117H442.355Z" fill="black"/>
<path d="M458.585 274.117V267.079H455.699V265.997H462.732V267.079H459.847V274.117H458.585Z" fill="black"/>
<path d="M464.535 274.117V265.997H465.797V272.313L471.027 265.997H472.109V274.117H470.847V267.801L465.617 274.117H464.535Z" fill="black"/>
<path d="M475.715 273.034C474.814 272.132 474.453 271.23 474.453 269.967C474.453 268.703 474.814 267.801 475.715 266.899C476.617 265.996 477.519 265.636 478.781 265.636C479.683 265.636 480.584 265.816 481.306 266.177V267.26C480.584 266.899 479.863 266.718 478.961 266.718C478.06 266.718 477.158 267.079 476.617 267.621C476.076 268.162 475.715 268.884 475.715 269.967C475.715 270.869 476.076 271.591 476.617 272.313C477.158 272.854 478.06 273.215 478.961 273.215C479.863 273.215 480.765 273.034 481.486 272.493V273.576C480.765 274.117 479.863 274.298 478.781 274.298C477.519 274.298 476.437 273.937 475.715 273.034Z" fill="black"/>
<path d="M483.833 272.674C484.194 272.313 484.735 272.313 485.095 272.674C485.456 273.034 485.456 273.576 485.095 273.937C484.735 274.298 484.194 274.298 483.833 273.937C483.472 273.576 483.472 273.034 483.833 272.674Z" fill="black"/>
<path d="M496.094 265.816C497.357 265.816 498.439 266.177 499.34 267.079C500.242 267.982 500.603 268.884 500.603 270.147C500.603 271.41 500.242 272.313 499.34 273.215C498.439 274.117 497.537 274.478 496.094 274.478C494.832 274.478 493.75 274.117 492.848 273.215C491.947 272.313 491.586 271.41 491.586 270.147C491.586 268.884 491.947 267.982 492.848 267.079C493.75 266.177 494.832 265.816 496.094 265.816ZM498.258 267.801C497.717 267.26 496.996 266.899 495.914 266.899C495.012 266.899 494.291 267.26 493.57 267.801C493.029 268.343 492.668 269.245 492.668 270.147C492.668 271.049 493.029 271.771 493.57 272.493C494.111 273.034 494.832 273.395 495.914 273.395C496.816 273.395 497.537 273.034 498.258 272.493C498.799 271.952 499.16 271.049 499.16 270.147C499.16 269.064 498.98 268.343 498.258 267.801Z" fill="black"/>
<path d="M503.309 273.034C502.408 272.132 502.047 271.23 502.047 269.967C502.047 268.703 502.408 267.801 503.309 266.899C504.211 265.996 505.113 265.636 506.375 265.636C507.276 265.636 508.178 265.816 508.9 266.177V267.26C508.178 266.899 507.457 266.718 506.555 266.718C505.654 266.718 504.752 267.079 504.211 267.621C503.67 268.162 503.309 268.884 503.309 269.967C503.309 270.869 503.67 271.591 504.211 272.313C504.752 272.854 505.654 273.215 506.555 273.215C507.457 273.215 508.358 273.034 509.08 272.493V273.576C508.358 274.117 507.457 274.298 506.375 274.298C505.293 274.298 504.211 273.937 503.309 273.034Z" fill="black"/>
<path d="M511.786 262.568C512.147 262.207 512.688 262.207 513.048 262.568C513.409 262.929 513.409 263.47 513.048 263.831C512.688 264.192 512.147 264.192 511.786 263.831C511.425 263.47 511.425 262.929 511.786 262.568ZM511.786 274.117V265.997H513.048V274.117H511.786Z" fill="black"/>
<path d="M516.652 272.854C515.931 271.952 515.57 270.508 515.57 268.884C515.57 266.538 516.111 265.094 517.193 264.192C517.734 263.651 518.456 263.29 519.177 263.109C519.538 262.929 519.898 262.929 520.439 262.748C520.98 262.568 521.341 262.568 521.702 262.387C522.062 262.387 522.603 262.207 523.144 262.026V263.109C522.062 263.29 521.161 263.47 520.439 263.651C519.177 264.011 518.275 264.372 517.734 265.094C517.193 265.816 516.833 266.718 516.652 268.162C517.374 267.079 518.636 266.357 520.259 266.357C521.341 266.357 522.243 266.718 522.964 267.44C523.685 268.162 524.046 269.064 524.046 270.147C524.046 271.41 523.685 272.313 522.784 273.215C522.062 273.937 520.98 274.298 519.898 274.298C518.636 274.298 517.554 273.756 516.652 272.854ZM522.062 272.313C522.603 271.771 522.964 271.049 522.964 270.147C522.964 269.245 522.784 268.703 522.243 268.162C521.702 267.621 520.98 267.44 520.259 267.44C519.538 267.44 518.816 267.621 518.275 268.162C517.734 268.523 517.193 269.064 517.013 269.606C517.193 271.952 518.275 273.215 520.259 273.215C520.8 273.215 521.521 272.854 522.062 272.313Z" fill="black"/>
<path d="M390.962 159.526C434.485 159.526 469.767 124.219 469.767 80.6651C469.767 37.1116 434.485 1.80457 390.962 1.80457C347.439 1.80457 312.156 37.1116 312.156 80.6651C312.156 124.219 347.439 159.526 390.962 159.526Z" fill="white"/>
<path d="M390.96 161.33C346.598 161.33 310.352 125.239 310.352 80.6652C310.352 36.0918 346.418 0 390.96 0C435.322 0 471.569 36.0918 471.569 80.6652C471.569 125.239 435.322 161.33 390.96 161.33ZM390.96 3.60918C348.582 3.60918 313.958 38.2573 313.958 80.6652C313.958 123.073 348.582 157.721 390.96 157.721C433.339 157.721 467.963 123.073 467.963 80.6652C467.963 38.2573 433.339 3.60918 390.96 3.60918Z" fill="black"/>
<path d="M341.372 72.1836C340.47 71.2813 340.109 70.379 340.109 69.1158C340.109 67.8526 340.47 66.9503 341.372 66.048C342.273 65.1457 343.175 64.7848 344.437 64.7848C345.339 64.7848 346.241 64.9652 346.962 65.3262V66.4089C346.241 66.048 345.519 65.8675 344.618 65.8675C343.716 65.8675 342.814 66.2285 342.273 66.7698C341.732 67.3112 341.372 68.033 341.372 69.1158C341.372 70.0181 341.732 70.7399 342.273 71.4618C342.814 72.0031 343.716 72.3641 344.618 72.3641C345.519 72.3641 346.421 72.1836 347.142 71.6422V72.725C346.421 73.2663 345.519 73.4468 344.437 73.4468C343.175 73.4468 342.093 72.9054 341.372 72.1836Z" fill="black"/>
<path d="M349.485 71.8227C349.846 71.4618 350.387 71.4618 350.748 71.8227C351.108 72.1836 351.108 72.725 350.748 73.0859C350.387 73.4468 349.846 73.4468 349.485 73.0859C349.125 72.725 349.125 72.1836 349.485 71.8227Z" fill="black"/>
<path d="M363.553 61.1756C365.176 61.1756 366.618 61.717 367.7 62.9802C368.782 64.0629 369.323 65.5066 369.323 67.3112C369.323 69.1158 368.782 70.5595 367.7 71.6422C366.618 72.725 365.176 73.4468 363.553 73.4468C361.93 73.4468 360.487 72.9054 359.225 71.6422C358.143 70.5595 357.602 68.9353 357.602 67.3112C357.602 65.5066 358.143 64.0629 359.225 62.9802C360.487 61.717 361.93 61.1756 363.553 61.1756ZM363.553 72.1836C364.815 72.1836 365.897 71.6422 366.799 70.7399C367.7 69.8376 368.061 68.5744 368.061 67.1307C368.061 65.6871 367.52 64.6043 366.799 63.5216C365.897 62.6193 364.815 62.0779 363.553 62.0779C362.29 62.0779 361.208 62.6193 360.307 63.5216C359.405 64.4239 359.044 65.6871 359.044 67.1307C359.044 68.5744 359.585 69.6572 360.307 70.7399C361.208 71.8227 362.29 72.1836 363.553 72.1836Z" fill="black"/>
<path d="M372.751 72.1836C371.849 71.2813 371.488 70.379 371.488 69.1158C371.488 67.8526 371.849 66.9503 372.751 66.048C373.652 65.1457 374.554 64.7848 375.816 64.7848C376.718 64.7848 377.62 64.9652 378.341 65.3262V66.4089C377.62 66.048 376.898 65.8675 375.997 65.8675C375.095 65.8675 374.193 66.2285 373.652 66.7698C373.111 67.3112 372.751 68.033 372.751 69.1158C372.751 70.0181 373.111 70.7399 373.652 71.4618C374.193 72.0031 375.095 72.3641 375.997 72.3641C376.898 72.3641 377.8 72.1836 378.521 71.6422V72.725C377.8 73.2663 376.898 73.4468 375.816 73.4468C374.734 73.4468 373.652 72.9054 372.751 72.1836Z" fill="black"/>
<path d="M381.047 73.2663V64.9652H382.309V71.2813L387.539 64.9652H388.621V73.0859H387.358V66.7698L382.129 73.0859H381.047V73.2663Z" fill="black"/>
<path d="M391.504 73.2663V64.9652H392.766V68.3939H397.816V64.9652H399.078V73.0859H397.816V69.4767H392.766V73.0859H391.504V73.2663Z" fill="black"/>
<path d="M405.571 64.7848C406.833 64.7848 407.915 65.1457 408.817 66.048C409.719 66.9503 410.079 67.8526 410.079 69.1158C410.079 70.379 409.719 71.2813 408.817 72.1836C407.915 73.0859 407.013 73.4468 405.571 73.4468C404.308 73.4468 403.227 73.0859 402.325 72.1836C401.423 71.2813 401.062 70.379 401.062 69.1158C401.062 67.8526 401.423 66.9503 402.325 66.048C403.227 65.3262 404.308 64.7848 405.571 64.7848ZM407.735 66.7698C407.194 66.2285 406.473 65.8675 405.391 65.8675C404.489 65.8675 403.768 66.2285 403.046 66.7698C402.505 67.3112 402.145 68.2135 402.145 69.1158C402.145 70.0181 402.505 70.7399 403.046 71.4618C403.587 72.0031 404.309 72.3641 405.391 72.3641C406.292 72.3641 407.014 72.0031 407.735 71.4618C408.276 70.9204 408.637 70.0181 408.637 69.1158C408.637 68.2135 408.456 67.4917 407.735 66.7698Z" fill="black"/>
<path d="M412.242 73.2663V64.9652H416.57C418.193 64.9652 419.095 65.8675 419.095 66.9503C419.095 67.8525 418.734 68.3939 418.013 68.7548C419.095 69.1158 419.636 69.8376 419.636 70.9203C419.636 72.1836 418.734 73.0859 416.931 73.0859H412.242V73.2663ZM413.324 68.5744H416.029C417.111 68.5744 417.652 68.2135 417.652 67.3112C417.652 66.5893 417.111 66.048 416.029 66.048H413.324V68.5744ZM413.324 72.1836H416.39C417.472 72.1836 418.193 71.6422 418.193 70.9203C418.193 70.0181 417.472 69.6571 416.39 69.6571H413.324V72.1836Z" fill="black"/>
<path d="M422.524 72.1836C421.622 71.4618 421.262 70.379 421.262 69.1158C421.262 67.8526 421.622 66.9503 422.344 66.048C423.065 65.1457 424.147 64.7848 425.409 64.7848C428.114 64.7848 429.196 67.1308 429.196 68.9353V69.2963H422.524C422.704 71.1008 423.967 72.1836 425.95 72.1836C426.852 72.1836 427.754 72.0031 428.475 71.4618V72.5445C427.754 73.0859 426.852 73.2663 425.59 73.2663C424.508 73.4468 423.426 72.9054 422.524 72.1836ZM427.934 68.394C427.934 67.8526 427.754 67.1308 427.213 66.7698C426.852 66.2285 426.131 66.048 425.229 66.048C424.327 66.048 423.786 66.2285 423.245 66.7698C422.704 67.3112 422.524 67.8526 422.344 68.5744H427.934V68.394Z" fill="black"/>
<path d="M339.93 95.2824V94.3801L343.897 90.5904C344.799 89.6881 345.34 89.1468 345.7 88.6054C346.061 88.064 346.241 87.5226 346.241 86.8008C346.241 85.3571 345.159 84.4548 343.536 84.4548C342.274 84.4548 341.192 84.9962 340.11 86.079V84.6353C341.192 83.733 342.274 83.3721 343.717 83.3721C344.799 83.3721 345.7 83.733 346.422 84.2744C347.143 84.8157 347.504 85.718 347.504 86.6203C347.504 87.3422 347.323 88.064 346.963 88.7858C346.602 89.3272 345.881 90.2295 344.979 91.1318L341.733 94.1996H347.864V95.2824H339.93Z" fill="black"/>
<path d="M356.159 95.2823V88.2444H353.273V87.1617H360.306V88.2444H357.421V95.2823H356.159Z" fill="black"/>
<path d="M362.109 95.2823V87.1617H363.372V93.4777L368.601 87.1617H369.683V95.2823H368.421V88.9663L363.191 95.2823H362.109Z" fill="black"/>
<path d="M373.114 94.1996C372.212 93.2973 371.852 92.395 371.852 91.1318C371.852 89.8686 372.212 88.9663 373.114 88.064C374.016 87.1617 374.917 86.8008 376.18 86.8008C377.081 86.8008 377.983 86.9812 378.704 87.3422V88.4249C377.983 88.064 377.262 87.8835 376.36 87.8835C375.458 87.8835 374.557 88.2445 374.016 88.7858C373.475 89.3272 373.114 90.0491 373.114 91.1318C373.114 92.0341 373.475 92.7559 374.016 93.4778C374.557 94.0192 375.458 94.3801 376.36 94.3801C377.262 94.3801 378.163 94.1996 378.885 93.6582V94.741C378.163 95.2824 377.262 95.4628 376.18 95.4628C375.098 95.4628 374.016 95.1019 373.114 94.1996Z" fill="black"/>
<path d="M381.225 93.8387C381.586 93.4778 382.127 93.4778 382.487 93.8387C382.848 94.1996 382.848 94.741 382.487 95.1019C382.127 95.4628 381.586 95.4628 381.225 95.1019C381.045 94.741 381.045 94.1996 381.225 93.8387Z" fill="black"/>
<path d="M393.668 86.9812C394.931 86.9812 396.013 87.3421 396.914 88.2444C397.816 89.1467 398.177 90.049 398.177 91.3122C398.177 92.5754 397.816 93.4777 396.914 94.38C396.013 95.2823 395.111 95.6432 393.668 95.6432C392.406 95.6432 391.324 95.2823 390.422 94.38C389.521 93.4777 389.16 92.5754 389.16 91.3122C389.16 90.049 389.521 89.1467 390.422 88.2444C391.324 87.3421 392.226 86.9812 393.668 86.9812ZM395.832 88.9662C395.291 88.4249 394.57 88.064 393.488 88.064C392.586 88.064 391.865 88.4249 391.144 88.9662C390.603 89.5076 390.242 90.4099 390.242 91.3122C390.242 92.2145 390.603 92.9363 391.144 93.6582C391.685 94.1996 392.406 94.5605 393.488 94.5605C394.39 94.5605 395.111 94.1996 395.832 93.6582C396.373 93.1168 396.734 92.2145 396.734 91.3122C396.734 90.2295 396.373 89.5076 395.832 88.9662Z" fill="black"/>
<path d="M400.883 94.1996C399.982 93.2973 399.621 92.395 399.621 91.1318C399.621 89.8686 399.982 88.9663 400.883 88.064C401.785 87.1617 402.687 86.8008 403.949 86.8008C404.851 86.8008 405.752 86.9812 406.474 87.3422V88.4249C405.752 88.064 405.031 87.8835 404.129 87.8835C403.228 87.8835 402.326 88.2445 401.785 88.7858C401.244 89.3272 400.883 90.0491 400.883 91.1318C400.883 92.0341 401.244 92.7559 401.785 93.4778C402.326 94.0192 403.228 94.3801 404.129 94.3801C405.031 94.3801 405.933 94.1996 406.654 93.6582V94.741C405.933 95.2824 405.031 95.4628 403.949 95.4628C402.867 95.4628 401.785 95.1019 400.883 94.1996Z" fill="black"/>
<path d="M409.36 83.733C409.721 83.3721 410.262 83.3721 410.623 83.733C410.983 84.0939 410.983 84.6353 410.623 84.9962C410.262 85.3571 409.721 85.3571 409.36 84.9962C409 84.6353 409 84.0939 409.36 83.733ZM409.36 95.2823V87.1617H410.623V95.2823H409.36Z" fill="black"/>
<path d="M414.227 94.0191C413.505 93.1168 413.145 91.6732 413.145 90.049C413.145 87.7031 413.686 86.2594 414.768 85.3571C415.309 84.8157 416.03 84.4548 416.751 84.2743C417.112 84.0939 417.473 84.0939 418.014 83.9134C418.555 83.733 418.915 83.733 419.276 83.5525C419.637 83.372 420.178 83.372 420.719 83.1916V84.2743C419.637 84.4548 418.735 84.6353 418.014 84.8157C416.751 85.1766 415.85 85.5376 415.309 86.2594C414.768 86.9812 414.407 87.8835 414.227 89.3272C414.948 88.2444 416.21 87.5226 417.833 87.5226C418.915 87.5226 419.817 87.8835 420.538 88.6054C421.26 89.3272 421.62 90.2295 421.62 91.3122C421.62 92.5755 421.26 93.4777 420.358 94.38C419.637 95.1019 418.555 95.4628 417.473 95.4628C416.21 95.4628 415.128 94.9214 414.227 94.0191ZM419.456 93.4777C419.997 92.9364 420.358 92.2145 420.358 91.3122C420.358 90.4099 420.178 89.8686 419.637 89.3272C419.096 88.7858 418.374 88.6054 417.653 88.6054C416.932 88.6054 416.21 88.7858 415.669 89.3272C415.128 89.6881 414.587 90.2295 414.407 90.7709C414.587 93.1168 415.669 94.38 417.653 94.38C418.374 94.38 418.915 94.0191 419.456 93.4777Z" fill="black"/>
</svg>
