<svg width="340" height="340" viewBox="0 0 340 340" fill="none" xmlns="http://www.w3.org/2000/svg">
<path d="M170 338.832C263.243 338.832 338.831 263.243 338.831 170C338.831 76.7568 263.243 1.16833 170 1.16833C76.7565 1.16833 1.16797 76.7568 1.16797 170C1.16797 263.243 76.7565 338.832 170 338.832Z" fill="white"/>
<path d="M170 340C76.2955 340 0 263.821 0 170C0 76.1787 76.2955 0 170 0C263.704 0 340 76.2955 340 170C340 263.704 263.821 340 170 340ZM170 2.33677C77.5808 2.33677 2.33677 77.5808 2.33677 170C2.33677 262.419 77.5808 337.663 170 337.663C262.419 337.663 337.663 262.419 337.663 170C337.663 77.5808 262.536 2.33677 170 2.33677Z" fill="black"/>
<path d="M236.014 325.512L170 170L334.392 208.79" fill="white"/>
<path d="M236.014 326.68C235.547 326.68 235.079 326.447 234.963 325.979L168.949 170.467C168.832 170.117 168.832 169.649 169.182 169.299C169.416 168.948 169.883 168.832 170.351 168.948L334.626 207.739C335.21 207.856 335.677 208.557 335.444 209.141C335.327 209.725 334.626 210.192 334.042 209.959L171.987 171.636L237.066 325.045C237.299 325.629 237.066 326.33 236.481 326.564C236.248 326.68 236.131 326.68 236.014 326.68Z" fill="black"/>
<path d="M169.999 171.168C169.883 171.168 169.766 171.168 169.649 171.168C169.065 170.935 168.714 170.35 168.831 169.766L217.669 7.94499C217.903 7.3608 218.487 7.01028 219.072 7.12712C219.656 7.3608 220.006 7.94499 219.889 8.52918L171.168 170.234C170.934 170.818 170.584 171.168 169.999 171.168Z" fill="black"/>
<path d="M211.711 95.5739C212.88 95.5739 213.697 95.9244 214.515 96.7422C215.333 97.5601 215.684 98.4948 215.684 99.5463C215.684 100.715 215.333 101.649 214.515 102.35C213.814 103.168 212.88 103.519 211.711 103.519C210.543 103.519 209.725 103.168 208.907 102.35C208.206 101.533 207.855 100.598 207.855 99.5463C207.855 98.378 208.206 97.4433 208.907 96.7422C209.608 96.0412 210.66 95.5739 211.711 95.5739ZM211.711 102.701C212.529 102.701 213.347 102.35 213.931 101.766C214.515 101.182 214.866 100.364 214.866 99.4295C214.866 98.4948 214.515 97.7938 213.931 97.0927C213.347 96.5086 212.646 96.158 211.711 96.158C210.893 96.158 210.075 96.5086 209.491 97.0927C208.907 97.6769 208.557 98.4948 208.557 99.4295C208.557 100.364 208.907 101.065 209.491 101.766C210.075 102.467 210.893 102.701 211.711 102.701Z" fill="black"/>
<path d="M217.669 102.701C217.085 102.117 216.852 101.533 216.852 100.715C216.852 99.8969 217.085 99.3127 217.669 98.7285C218.254 98.1443 218.838 97.9106 219.656 97.9106C220.24 97.9106 220.824 98.0275 221.291 98.2612V98.9622C220.824 98.7285 220.357 98.6117 219.773 98.6117C219.188 98.6117 218.604 98.8453 218.254 99.1959C217.903 99.5464 217.669 100.131 217.669 100.715C217.669 101.299 217.903 101.766 218.254 102.234C218.604 102.584 219.188 102.818 219.773 102.818C220.357 102.818 220.941 102.701 221.408 102.35V103.052C220.941 103.402 220.357 103.519 219.656 103.519C218.955 103.519 218.254 103.285 217.669 102.701Z" fill="black"/>
<path d="M225.495 97.9106C226.313 97.9106 227.014 98.1443 227.598 98.7285C228.183 99.3127 228.416 99.8969 228.416 100.715C228.416 101.533 228.183 102.117 227.598 102.701C227.014 103.285 226.43 103.519 225.495 103.519C224.677 103.519 223.976 103.285 223.392 102.701C222.808 102.117 222.574 101.533 222.574 100.715C222.574 99.8969 222.808 99.3127 223.392 98.7285C223.976 98.1443 224.56 97.9106 225.495 97.9106ZM226.897 99.1959C226.547 98.8453 225.963 98.6117 225.378 98.6117C224.794 98.6117 224.327 98.8453 223.859 99.1959C223.509 99.5464 223.275 100.131 223.275 100.715C223.275 101.299 223.509 101.766 223.859 102.234C224.21 102.584 224.794 102.818 225.378 102.818C225.963 102.818 226.43 102.584 226.897 102.234C227.248 101.883 227.481 101.299 227.481 100.715C227.481 100.131 227.365 99.6632 226.897 99.1959Z" fill="black"/>
<path d="M230.287 102.584C229.819 102 229.469 101.065 229.469 100.014C229.469 98.4948 229.819 97.5601 230.52 96.9759C230.871 96.6254 231.338 96.3917 231.806 96.2749C232.039 96.158 232.273 96.158 232.623 96.0412C232.974 95.9244 233.208 95.9244 233.441 95.8075C233.675 95.8075 234.025 95.6907 234.376 95.5739V96.2749C233.558 96.3917 232.974 96.5086 232.623 96.6254C231.806 96.8591 231.221 97.0927 230.754 97.5601C230.403 98.0275 230.17 98.6116 230.053 99.5463C230.52 98.7285 231.338 98.2611 232.39 98.2611C233.091 98.2611 233.675 98.4948 234.142 98.9622C234.61 99.4295 234.843 100.014 234.843 100.715C234.843 101.533 234.61 102.117 234.025 102.701C233.558 103.168 232.857 103.519 232.156 103.519C231.455 103.519 230.754 103.168 230.287 102.584ZM233.675 102.234C234.025 101.883 234.259 101.416 234.259 100.832C234.259 100.247 234.025 99.8969 233.675 99.5463C233.324 99.1958 232.857 99.079 232.39 99.079C231.922 99.079 231.455 99.1958 231.104 99.5463C230.754 99.78 230.403 100.131 230.287 100.481C230.403 102 231.104 102.818 232.39 102.818C232.974 102.818 233.324 102.584 233.675 102.234Z" fill="black"/>
<path d="M236.598 103.402V98.0275H237.416V102.234L240.804 98.0275H241.505V103.402H240.687V99.3127L237.299 103.402H236.598Z" fill="black"/>
<path d="M245.711 105.505V104.804C245.944 104.921 246.178 105.038 246.412 105.038C247.113 105.038 247.463 104.454 247.931 103.285L245.594 98.1443H246.528L248.398 102.35L250.267 98.1443H251.085L248.398 104.103C247.931 105.155 247.229 105.739 246.528 105.739C246.178 105.622 245.944 105.622 245.711 105.505Z" fill="black"/>
<path d="M255.289 103.402V98.0275H258.093C259.145 98.0275 259.729 98.6117 259.729 99.4295C259.729 100.014 259.495 100.364 259.028 100.598C259.729 100.832 260.079 101.299 260.079 102C260.079 102.935 259.495 103.402 258.327 103.402H255.289ZM256.107 100.364H257.86C258.561 100.364 258.911 100.131 258.911 99.5464C258.911 99.079 258.561 98.7285 257.86 98.7285H256.107V100.364ZM256.107 102.701H258.093C258.794 102.701 259.262 102.35 259.262 101.883C259.262 101.416 258.794 101.065 258.093 101.065H256.107V102.701Z" fill="black"/>
<path d="M261.717 95.8076C261.95 95.5739 262.301 95.5739 262.534 95.8076C262.768 96.0413 262.768 96.3918 262.534 96.6254C262.301 96.8591 261.95 96.8591 261.717 96.6254C261.6 96.3918 261.6 96.0413 261.717 95.8076ZM261.717 103.402V98.0275H262.534V103.402H261.717Z" fill="black"/>
<path d="M269.544 104.921V103.402H264.52V98.0275H265.337V102.701H268.492V98.0275H269.31V102.701H270.245V104.921H269.544Z" fill="black"/>
<path d="M271.646 95.8076C271.88 95.5739 272.23 95.5739 272.464 95.8076C272.698 96.0413 272.698 96.3918 272.464 96.6254C272.23 96.8591 271.88 96.8591 271.646 96.6254C271.529 96.3918 271.529 96.0413 271.646 95.8076ZM271.646 103.402V98.0275H272.464V103.402H271.646Z" fill="black"/>
<path d="M273.75 105.038L274.685 102.234H275.619L274.451 105.038H273.75Z" fill="black"/>
<path d="M208.439 117.072C207.855 116.488 207.621 115.904 207.621 115.086C207.621 114.268 207.855 113.684 208.439 113.1C209.023 112.515 209.607 112.282 210.425 112.282C211.009 112.282 211.594 112.399 212.061 112.632V113.333C211.594 113.1 211.126 112.983 210.542 112.983C209.958 112.983 209.374 113.216 209.023 113.567C208.673 113.917 208.439 114.502 208.439 115.086C208.439 115.67 208.673 116.137 209.023 116.605C209.374 116.955 209.958 117.189 210.542 117.189C211.126 117.189 211.71 117.072 212.178 116.722V117.423C211.71 117.773 211.126 117.89 210.425 117.89C209.607 117.89 208.906 117.656 208.439 117.072Z" fill="black"/>
<path d="M214.982 117.773V113.1H212.996V112.399H217.67V113.1H215.683V117.773H214.982Z" fill="black"/>
<path d="M219.072 117.423C218.722 117.072 218.488 116.722 218.488 116.137C218.488 115.553 218.722 115.203 219.072 114.852C219.54 114.502 220.007 114.385 220.591 114.385C221.292 114.385 221.877 114.619 222.461 114.852V114.268C222.461 113.333 221.877 112.983 220.708 112.983C220.124 112.983 219.54 113.216 218.956 113.567V112.749C219.423 112.399 220.124 112.282 220.825 112.282C222.227 112.282 223.162 112.983 223.162 114.268V116.488C223.162 116.838 223.395 117.189 223.629 117.189C223.746 117.189 223.863 117.189 223.98 117.072V117.656C223.863 117.773 223.746 117.773 223.395 117.773C222.928 117.773 222.461 117.539 222.344 116.955C221.76 117.539 221.059 117.89 220.241 117.89C219.89 117.89 219.423 117.773 219.072 117.423ZM222.578 116.254V115.553C221.993 115.203 221.409 114.969 220.825 114.969C219.89 114.969 219.306 115.32 219.306 116.021C219.306 116.722 219.89 117.072 220.708 117.072C221.526 117.189 222.227 116.722 222.578 116.254Z" fill="black"/>
<path d="M226.197 119.993H225.496V112.515H226.314V113.333C226.781 112.632 227.482 112.399 228.417 112.399C229.235 112.399 229.819 112.632 230.403 113.216C230.987 113.801 231.104 114.385 231.104 115.203C231.104 116.021 230.871 116.605 230.403 117.189C229.936 117.773 229.235 118.007 228.417 118.007C227.482 118.007 226.898 117.656 226.314 117.072V119.993H226.197ZM226.197 116.021C226.548 116.722 227.249 117.189 228.067 117.189C228.651 117.189 229.118 116.955 229.585 116.605C229.936 116.254 230.17 115.67 230.17 115.086C230.17 114.502 229.936 114.034 229.585 113.567C229.235 113.216 228.651 112.983 228.067 112.983C227.249 112.983 226.548 113.45 226.197 114.151V116.021Z" fill="black"/>
<path d="M232.508 117.773V112.399H233.326V117.072H235.779V112.399H236.597V117.072H239.051V112.399H239.869V117.773H232.508Z" fill="black"/>
<path d="M244.073 112.282C244.891 112.282 245.592 112.515 246.176 113.1C246.761 113.684 246.994 114.268 246.994 115.086C246.994 115.904 246.761 116.488 246.176 117.072C245.592 117.656 245.008 117.89 244.073 117.89C243.255 117.89 242.554 117.656 241.97 117.072C241.386 116.488 241.152 115.904 241.152 115.086C241.152 114.268 241.386 113.684 241.97 113.1C242.554 112.632 243.255 112.282 244.073 112.282ZM245.475 113.684C245.125 113.333 244.541 113.1 243.956 113.1C243.372 113.1 242.905 113.333 242.438 113.684C242.087 114.034 241.853 114.619 241.853 115.203C241.853 115.787 242.087 116.254 242.438 116.722C242.788 117.072 243.372 117.306 243.956 117.306C244.541 117.306 245.008 117.072 245.475 116.722C245.826 116.371 246.06 115.787 246.06 115.203C246.06 114.502 245.943 114.034 245.475 113.684Z" fill="black"/>
<path d="M248.398 117.773V112.399H249.216L251.319 114.852L253.422 112.399H254.24V117.773H253.422V113.567L251.436 115.904H251.203L249.216 113.567V117.773H248.398Z" fill="black"/>
<path d="M255.523 119.876V119.175C255.757 119.292 255.99 119.409 256.224 119.409C256.925 119.409 257.276 118.825 257.743 117.656L255.406 112.515H256.341L258.21 116.722L260.08 112.515H260.898L258.21 118.474C257.743 119.526 257.042 120.11 256.341 120.11C255.99 119.993 255.757 119.993 255.523 119.876Z" fill="black"/>
<path d="M207.738 131.911V131.093C208.322 131.326 208.907 131.56 209.608 131.56C210.659 131.56 211.36 131.21 211.36 130.625C211.36 130.041 210.776 129.691 209.958 129.691H209.023V128.99H209.958C210.776 128.99 211.243 128.639 211.243 128.172C211.243 127.588 210.776 127.354 209.725 127.354C209.14 127.354 208.556 127.471 207.972 127.704V127.003C208.439 126.77 209.14 126.653 209.841 126.653C210.426 126.653 211.01 126.77 211.36 127.003C211.711 127.237 211.944 127.588 211.944 128.055C211.944 128.873 211.477 129.106 211.127 129.223C211.828 129.457 212.178 129.924 212.178 130.625C212.178 131.56 211.243 132.261 209.725 132.261C208.907 132.261 208.322 132.144 207.738 131.911Z" fill="black"/>
<path d="M213.932 131.794C213.581 131.443 213.348 131.093 213.348 130.508C213.348 129.924 213.581 129.574 213.932 129.223C214.399 128.873 214.867 128.756 215.451 128.756C216.152 128.756 216.736 128.99 217.32 129.223V128.639C217.32 127.704 216.736 127.354 215.568 127.354C214.983 127.354 214.399 127.588 213.815 127.938V127.12C214.282 126.77 214.983 126.653 215.684 126.653C217.086 126.653 218.021 127.354 218.021 128.639V130.859C218.021 131.21 218.255 131.56 218.489 131.56C218.605 131.56 218.722 131.56 218.839 131.443V132.027C218.722 132.144 218.605 132.144 218.255 132.144C217.788 132.144 217.32 131.911 217.203 131.326C216.619 131.911 215.918 132.261 215.1 132.261C214.75 132.261 214.282 132.144 213.932 131.794ZM217.437 130.742V130.041C216.853 129.691 216.269 129.457 215.684 129.457C214.75 129.457 214.166 129.807 214.166 130.508C214.166 131.21 214.75 131.56 215.568 131.56C216.385 131.56 217.086 131.21 217.437 130.742Z" fill="black"/>
<path d="M223.277 132.144V126.77H228.068V132.144H227.25V127.471H224.095V132.144H223.277Z" fill="black"/>
<path d="M230.638 134.364H229.82V126.886H230.638V127.704C231.106 127.003 231.807 126.77 232.741 126.77C233.559 126.77 234.143 127.003 234.728 127.588C235.195 128.172 235.429 128.756 235.429 129.574C235.429 130.392 235.195 130.976 234.728 131.56C234.26 132.144 233.559 132.378 232.741 132.378C231.807 132.378 231.222 132.027 230.638 131.443V134.364ZM230.638 130.392C230.989 131.093 231.69 131.56 232.508 131.56C233.092 131.56 233.559 131.326 234.027 130.976C234.377 130.625 234.611 130.041 234.611 129.457C234.611 128.873 234.377 128.405 234.027 127.938C233.676 127.588 233.092 127.354 232.508 127.354C231.69 127.354 230.989 127.821 230.638 128.522V130.392Z" fill="black"/>
<path d="M237.065 131.794C236.714 131.443 236.48 131.093 236.48 130.508C236.48 129.924 236.714 129.574 237.065 129.223C237.532 128.873 237.999 128.756 238.584 128.756C239.285 128.756 239.869 128.99 240.453 129.223V128.639C240.453 127.704 239.869 127.354 238.7 127.354C238.116 127.354 237.532 127.588 236.948 127.938V127.12C237.415 126.77 238.116 126.653 238.817 126.653C240.219 126.653 241.154 127.354 241.154 128.639V130.859C241.154 131.21 241.388 131.56 241.621 131.56C241.738 131.56 241.855 131.56 241.972 131.443V132.027C241.855 132.144 241.738 132.144 241.388 132.144C240.92 132.144 240.453 131.911 240.336 131.326C239.752 131.911 239.051 132.261 238.233 132.261C237.883 132.261 237.415 132.144 237.065 131.794ZM240.57 130.742V130.041C239.986 129.691 239.401 129.457 238.817 129.457C237.883 129.457 237.298 129.807 237.298 130.508C237.298 131.21 237.883 131.56 238.7 131.56C239.401 131.56 240.102 131.21 240.57 130.742Z" fill="black"/>
<path d="M248.399 133.78V132.261H243.375V126.887H244.193V131.56H247.348V126.887H248.165V131.56H249.1V133.78H248.399Z" fill="black"/>
<path d="M250.849 131.56C250.265 131.093 250.031 130.392 250.031 129.574C250.031 128.756 250.265 128.055 250.732 127.588C251.2 127.003 251.901 126.77 252.719 126.77C254.471 126.77 255.172 128.289 255.172 129.574V129.807H250.849C250.966 130.976 251.784 131.677 253.069 131.677C253.653 131.677 254.237 131.56 254.822 131.21V131.911C254.354 132.261 253.77 132.378 252.952 132.378C252.134 132.261 251.433 132.027 250.849 131.56ZM254.471 129.106C254.471 128.756 254.237 128.289 254.004 127.938C253.77 127.588 253.303 127.471 252.719 127.471C252.134 127.471 251.784 127.588 251.433 127.938C251.083 128.289 250.966 128.639 250.849 129.106H254.471Z" fill="black"/>
<path d="M256.344 131.911V131.093C256.928 131.326 257.512 131.56 258.213 131.56C259.265 131.56 259.966 131.21 259.966 130.625C259.966 130.041 259.382 129.691 258.564 129.691H257.629V128.99H258.564C259.382 128.99 259.849 128.639 259.849 128.172C259.849 127.588 259.382 127.354 258.33 127.354C257.746 127.354 257.162 127.471 256.577 127.704V127.003C257.045 126.77 257.746 126.653 258.447 126.653C259.031 126.653 259.615 126.77 259.966 127.003C260.316 127.237 260.55 127.588 260.55 128.055C260.55 128.873 260.083 129.106 259.732 129.223C260.433 129.457 260.784 129.924 260.784 130.625C260.784 131.56 259.849 132.261 258.33 132.261C257.512 132.261 256.811 132.144 256.344 131.911Z" fill="black"/>
<path d="M261.602 133.78V131.56H262.303C262.887 130.742 263.237 129.457 263.237 127.704V127.003H267.21V131.677H268.145V133.897H267.327V132.378H262.303V133.897H261.602V133.78ZM266.392 131.443V127.471H263.938V127.821C263.938 129.457 263.705 130.625 263.12 131.443H266.392Z" fill="black"/>
<path d="M269.662 131.794C269.312 131.443 269.078 131.093 269.078 130.508C269.078 129.924 269.312 129.574 269.662 129.223C270.13 128.873 270.597 128.756 271.181 128.756C271.882 128.756 272.466 128.99 273.051 129.223V128.639C273.051 127.704 272.466 127.354 271.298 127.354C270.714 127.354 270.13 127.588 269.545 127.938V127.12C270.013 126.77 270.714 126.653 271.415 126.653C272.817 126.653 273.752 127.354 273.752 128.639V130.859C273.752 131.21 273.985 131.56 274.219 131.56C274.336 131.56 274.453 131.56 274.57 131.443V132.027C274.453 132.144 274.336 132.144 273.985 132.144C273.518 132.144 273.051 131.911 272.934 131.326C272.35 131.911 271.649 132.261 270.831 132.261C270.48 132.261 270.013 132.144 269.662 131.794ZM273.167 130.742V130.041C272.583 129.691 271.999 129.457 271.415 129.457C270.48 129.457 269.896 129.807 269.896 130.508C269.896 131.21 270.48 131.56 271.298 131.56C271.999 131.56 272.7 131.21 273.167 130.742Z" fill="black"/>
<path d="M277.139 132.144V127.471H275.152V126.77H279.826V127.471H277.84V132.144H277.139Z" fill="black"/>
<path d="M281.113 132.144V126.77H281.931V128.99H285.203V126.77H286.02V132.144H285.203V129.807H281.931V132.144H281.113Z" fill="black"/>
<path d="M287.891 132.144V126.77H288.709V130.976L292.097 126.77H292.798V132.144H291.98V128.055L288.592 132.144H287.891Z" fill="black"/>
<path d="M294.664 132.144V126.77H295.482V130.976L298.87 126.77H299.571V132.144H298.753V128.055L295.365 132.144H294.664ZM295.365 124.316H296.066C296.066 124.9 296.533 125.368 297.118 125.368C297.819 125.368 298.169 124.9 298.169 124.316H298.87C298.87 125.368 298.052 125.952 297.118 125.952C296.066 125.952 295.365 125.251 295.365 124.316Z" fill="black"/>
<path d="M300.625 133.897L301.56 131.093H302.494L301.326 133.897H300.625Z" fill="black"/>
<path d="M207.504 146.165V145.347C208.088 145.814 208.906 146.048 209.724 146.048C210.308 146.048 210.775 145.931 211.243 145.581C211.71 145.23 211.944 144.763 211.944 144.295C211.944 143.244 211.126 142.543 209.841 142.543C209.49 142.543 209.256 142.543 209.023 142.66V142.076L211.36 139.739H207.854V139.038H212.411V139.622L210.074 141.842C210.775 141.842 211.36 142.076 211.827 142.543C212.411 143.01 212.645 143.594 212.645 144.295C212.645 145.113 212.411 145.698 211.827 146.165C211.243 146.632 210.542 146.866 209.724 146.866C208.906 146.749 208.088 146.515 207.504 146.165Z" fill="black"/>
<path d="M213.348 148.268L214.282 145.464H215.217L214.049 148.268H213.348Z" fill="black"/>
<path d="M217.901 146.515V139.739L216.148 140.673V139.856L218.018 138.804H218.719V146.515H217.901Z" fill="black"/>
<path d="M224.56 146.515V141.842H222.574V141.141H227.248V141.842H225.262V146.515H224.56Z" fill="black"/>
<path d="M228.535 146.515V141.141H229.353V145.347L232.741 141.141H233.442V146.515H232.624V142.426L229.236 146.515H228.535Z" fill="black"/>
<path d="M235.779 145.931C235.195 145.347 234.961 144.763 234.961 143.945C234.961 143.127 235.195 142.543 235.779 141.959C236.363 141.375 236.947 141.141 237.765 141.141C238.349 141.141 238.933 141.258 239.401 141.491V142.192C238.933 141.959 238.466 141.842 237.882 141.842C237.298 141.842 236.714 142.076 236.363 142.426C236.012 142.777 235.779 143.361 235.779 143.945C235.779 144.529 236.012 144.997 236.363 145.464C236.714 145.814 237.298 146.048 237.882 146.048C238.466 146.048 239.05 145.931 239.518 145.581V146.282C239.05 146.632 238.466 146.749 237.765 146.749C236.947 146.749 236.246 146.399 235.779 145.931Z" fill="black"/>
<path d="M241.039 145.698C241.272 145.464 241.623 145.464 241.856 145.698C242.09 145.931 242.09 146.282 241.856 146.515C241.623 146.749 241.272 146.749 241.039 146.515C240.805 146.282 240.805 145.931 241.039 145.698Z" fill="black"/>
<path d="M207.504 161.003V160.419L210.074 157.966C210.659 157.381 211.009 157.031 211.243 156.68C211.476 156.33 211.593 155.979 211.593 155.512C211.593 154.577 210.892 153.993 209.841 153.993C209.023 153.993 208.322 154.344 207.621 155.045V154.11C208.322 153.526 209.023 153.175 209.958 153.175C210.659 153.175 211.243 153.409 211.71 153.759C212.177 154.11 212.411 154.694 212.411 155.395C212.411 155.863 212.294 156.33 212.061 156.797C211.827 157.148 211.36 157.732 210.775 158.316L208.672 160.302H212.762V161.003H207.504Z" fill="black"/>
<path d="M214.047 160.536V159.718C214.631 160.069 215.332 160.302 216.15 160.302C216.851 160.302 217.318 160.185 217.786 159.835C218.253 159.484 218.37 159.017 218.37 158.55C218.37 157.498 217.552 156.797 216.15 156.797C215.566 156.797 214.865 156.914 214.281 157.148L214.748 153.292H218.604V153.993H215.449L215.098 156.213C215.449 156.096 215.916 156.096 216.267 156.096C217.085 156.096 217.786 156.33 218.253 156.797C218.837 157.265 219.071 157.849 219.071 158.55C219.071 159.368 218.837 159.952 218.253 160.419C217.669 160.887 216.968 161.12 216.033 161.12C215.332 161.12 214.631 160.887 214.047 160.536Z" fill="black"/>
<path d="M223.628 153.643C223.978 153.993 224.212 154.46 224.212 154.928C224.212 155.395 223.978 155.862 223.628 156.213C223.277 156.564 222.81 156.797 222.342 156.797C221.758 156.797 221.408 156.564 221.057 156.213C220.707 155.862 220.59 155.395 220.59 154.928C220.59 154.46 220.824 153.993 221.057 153.643C221.408 153.292 221.875 153.058 222.342 153.058C222.927 153.175 223.277 153.292 223.628 153.643ZM222.342 153.759C221.641 153.759 221.174 154.344 221.174 155.045C221.174 155.746 221.641 156.33 222.342 156.33C223.043 156.33 223.511 155.746 223.511 155.045C223.511 154.227 223.043 153.759 222.342 153.759ZM221.875 161.003L226.432 153.292H227.133L222.576 161.003H221.875ZM228.067 157.966C228.418 158.316 228.652 158.783 228.652 159.251C228.652 159.718 228.418 160.185 228.067 160.536C227.717 160.887 227.25 161.12 226.782 161.12C226.198 161.12 225.848 160.887 225.497 160.536C225.147 160.185 225.03 159.718 225.03 159.251C225.03 158.783 225.263 158.316 225.497 157.966C225.848 157.615 226.315 157.381 226.782 157.381C227.25 157.381 227.717 157.615 228.067 157.966ZM226.665 160.536C227.016 160.536 227.25 160.419 227.483 160.186C227.717 159.952 227.834 159.601 227.834 159.251C227.834 158.9 227.717 158.55 227.483 158.316C227.25 158.082 227.016 157.966 226.665 157.966C226.315 157.966 226.081 158.082 225.848 158.316C225.614 158.55 225.497 158.9 225.497 159.251C225.497 159.601 225.614 159.952 225.848 160.186C226.081 160.419 226.315 160.536 226.665 160.536Z" fill="black"/>
<path d="M226.551 206.804C227.719 206.804 228.537 207.155 229.355 207.972C230.173 208.79 230.523 209.725 230.523 210.777C230.523 211.945 230.173 212.88 229.355 213.581C228.654 214.399 227.719 214.749 226.551 214.749C225.383 214.749 224.565 214.399 223.747 213.581C223.046 212.763 222.695 211.828 222.695 210.777C222.695 209.608 223.046 208.673 223.747 207.972C224.448 207.155 225.383 206.804 226.551 206.804ZM226.551 213.931C227.369 213.931 228.187 213.581 228.771 212.997C229.355 212.412 229.706 211.594 229.706 210.66C229.706 209.725 229.355 209.024 228.771 208.323C228.187 207.739 227.486 207.388 226.551 207.388C225.733 207.388 224.915 207.739 224.331 208.323C223.747 208.907 223.396 209.725 223.396 210.66C223.396 211.594 223.747 212.296 224.331 212.997C224.915 213.698 225.616 213.931 226.551 213.931Z" fill="black"/>
<path d="M232.509 213.931C231.925 213.347 231.691 212.763 231.691 211.945C231.691 211.127 231.925 210.543 232.509 209.959C233.093 209.375 233.678 209.141 234.496 209.141C235.08 209.141 235.664 209.258 236.131 209.491V210.192C235.664 209.959 235.197 209.842 234.612 209.842C234.028 209.842 233.444 210.076 233.093 210.426C232.743 210.777 232.509 211.361 232.509 211.945C232.509 212.529 232.743 212.997 233.093 213.464C233.444 213.814 234.028 214.048 234.612 214.048C235.197 214.048 235.781 213.931 236.248 213.581V214.282C235.781 214.632 235.197 214.749 234.496 214.749C233.794 214.749 233.093 214.515 232.509 213.931Z" fill="black"/>
<path d="M240.218 209.141C241.036 209.141 241.737 209.375 242.321 209.959C242.905 210.543 243.139 211.127 243.139 211.945C243.139 212.763 242.905 213.347 242.321 213.931C241.737 214.515 241.153 214.749 240.218 214.749C239.4 214.749 238.699 214.515 238.115 213.931C237.531 213.347 237.297 212.763 237.297 211.945C237.297 211.127 237.531 210.543 238.115 209.959C238.699 209.375 239.4 209.141 240.218 209.141ZM241.737 210.426C241.386 210.076 240.802 209.842 240.218 209.842C239.634 209.842 239.166 210.076 238.699 210.426C238.348 210.777 238.115 211.361 238.115 211.945C238.115 212.529 238.348 212.997 238.699 213.464C239.049 213.814 239.634 214.048 240.218 214.048C240.802 214.048 241.269 213.814 241.737 213.464C242.087 213.113 242.321 212.529 242.321 211.945C242.321 211.361 242.087 210.893 241.737 210.426Z" fill="black"/>
<path d="M245.126 213.814C244.659 213.23 244.309 212.296 244.309 211.244C244.309 209.725 244.659 208.79 245.36 208.206C245.711 207.856 246.178 207.622 246.645 207.505C246.879 207.388 247.113 207.388 247.463 207.271C247.814 207.155 248.047 207.155 248.281 207.038C248.515 207.038 248.865 206.921 249.216 206.804V207.505C248.398 207.622 247.814 207.739 247.463 207.856C246.645 208.089 246.061 208.323 245.594 208.79C245.243 209.258 245.01 209.842 244.893 210.777C245.36 209.959 246.178 209.491 247.23 209.491C247.931 209.491 248.515 209.725 248.982 210.192C249.449 210.66 249.683 211.244 249.683 211.945C249.683 212.763 249.449 213.347 248.865 213.931C248.398 214.399 247.697 214.749 246.996 214.749C246.295 214.749 245.594 214.399 245.126 213.814ZM248.515 213.464C248.865 213.113 249.099 212.646 249.099 212.062C249.099 211.478 248.865 211.127 248.515 210.777C248.164 210.426 247.697 210.309 247.23 210.309C246.762 210.309 246.295 210.426 245.944 210.777C245.594 211.01 245.243 211.361 245.126 211.711C245.243 213.23 245.944 214.048 247.23 214.048C247.697 214.048 248.164 213.814 248.515 213.464Z" fill="black"/>
<path d="M251.32 214.632V209.258H252.138V213.464L255.526 209.258H256.228V214.632H255.41V210.543L252.021 214.632H251.32Z" fill="black"/>
<path d="M260.55 216.735V216.034C260.784 216.151 261.018 216.268 261.251 216.268C261.953 216.268 262.303 215.684 262.77 214.515L260.434 209.375H261.368L263.238 213.581L265.107 209.375H265.925L263.238 215.333C262.77 216.385 262.069 216.969 261.368 216.969C261.018 216.852 260.667 216.735 260.55 216.735Z" fill="black"/>
<path d="M270.129 214.632V209.258H272.933C273.985 209.258 274.569 209.842 274.569 210.66C274.569 211.244 274.335 211.594 273.868 211.828C274.569 212.062 274.919 212.529 274.919 213.23C274.919 214.165 274.335 214.632 273.167 214.632H270.129ZM270.83 211.594H272.583C273.284 211.594 273.634 211.361 273.634 210.777C273.634 210.309 273.284 209.959 272.583 209.959H270.83V211.594ZM270.83 213.931H272.816C273.517 213.931 273.985 213.581 273.985 213.113C273.985 212.646 273.517 212.295 272.816 212.295H270.83V213.931Z" fill="black"/>
<path d="M276.558 207.038C276.792 206.804 277.142 206.804 277.376 207.038C277.61 207.271 277.61 207.622 277.376 207.856C277.142 208.089 276.792 208.089 276.558 207.856C276.324 207.622 276.324 207.271 276.558 207.038ZM276.558 214.632V209.258H277.376V214.632H276.558Z" fill="black"/>
<path d="M284.266 216.151V214.632H279.242V209.258H280.06V213.931H283.215V209.258H284.033V213.931H284.967V216.151H284.266Z" fill="black"/>
<path d="M286.488 207.038C286.721 206.804 287.072 206.804 287.306 207.038C287.539 207.271 287.539 207.622 287.306 207.856C287.072 208.089 286.721 208.089 286.488 207.856C286.254 207.622 286.254 207.271 286.488 207.038ZM286.488 214.632V209.258H287.306V214.632H286.488Z" fill="black"/>
<path d="M288.473 216.268L289.407 213.464H290.342L289.174 216.268H288.473Z" fill="black"/>
<path d="M222.812 229.003V223.629H223.63L225.733 226.082L227.837 223.629H228.654V229.003H227.837V224.797L225.85 227.134H225.5L223.514 224.797V229.003H222.812Z" fill="black"/>
<path d="M232.976 223.512C233.794 223.512 234.495 223.746 235.079 224.33C235.663 224.914 235.897 225.498 235.897 226.316C235.897 227.134 235.663 227.718 235.079 228.302C234.495 228.887 233.91 229.12 232.976 229.12C232.041 229.12 231.457 228.887 230.873 228.302C230.288 227.718 230.055 227.134 230.055 226.316C230.055 225.498 230.288 224.914 230.873 224.33C231.457 223.862 232.158 223.512 232.976 223.512ZM234.495 224.914C234.144 224.564 233.56 224.33 232.976 224.33C232.391 224.33 231.924 224.564 231.457 224.914C231.106 225.265 230.873 225.849 230.873 226.433C230.873 227.017 231.106 227.484 231.457 227.952C231.807 228.302 232.391 228.536 232.976 228.536C233.56 228.536 234.027 228.302 234.495 227.952C234.845 227.601 235.079 227.017 235.079 226.433C235.079 225.732 234.845 225.265 234.495 224.914Z" fill="black"/>
<path d="M236.48 228.302C236.48 228.302 236.597 228.302 236.714 228.302C237.181 228.302 237.532 227.952 237.648 227.368C237.882 226.783 237.882 226.199 237.882 225.381V223.629H241.855V229.003H241.037V224.33H238.583V225.381C238.583 225.732 238.583 225.966 238.583 226.199C238.583 226.667 238.466 227.368 238.233 227.835C237.999 228.419 237.415 229.003 236.597 229.003C236.48 229.003 236.363 229.003 236.363 229.003V228.302H236.48Z" fill="black"/>
<path d="M246.296 223.512C247.114 223.512 247.815 223.746 248.399 224.33C248.983 224.914 249.217 225.498 249.217 226.316C249.217 227.134 248.983 227.718 248.399 228.302C247.815 228.887 247.231 229.12 246.296 229.12C245.361 229.12 244.777 228.887 244.193 228.302C243.609 227.718 243.375 227.134 243.375 226.316C243.375 225.498 243.609 224.914 244.193 224.33C244.66 223.862 245.361 223.512 246.296 223.512ZM247.698 224.914C247.347 224.564 246.763 224.33 246.179 224.33C245.595 224.33 245.128 224.564 244.66 224.914C244.31 225.265 244.076 225.849 244.076 226.433C244.076 227.017 244.31 227.484 244.66 227.952C245.011 228.302 245.595 228.536 246.179 228.536C246.763 228.536 247.231 228.302 247.698 227.952C248.049 227.601 248.282 227.017 248.282 226.433C248.282 225.732 248.165 225.265 247.698 224.914Z" fill="black"/>
<path d="M249.684 230.522V228.302H250.385C250.969 227.484 251.319 226.199 251.319 224.447V223.746H255.292V228.419H256.227V230.639H255.409V229.003H250.385V230.522H249.684ZM254.474 228.302V224.33H252.02V224.68C252.02 226.316 251.787 227.484 251.203 228.302H254.474Z" fill="black"/>
<path d="M257.512 229.003V223.629H258.33V228.302H260.783V223.629H261.601V228.302H264.055V223.629H264.873V229.003H257.512Z" fill="black"/>
<path d="M269.194 223.512C270.012 223.512 270.713 223.746 271.297 224.33C271.882 224.914 272.115 225.498 272.115 226.316C272.115 227.134 271.882 227.718 271.297 228.302C270.713 228.887 270.129 229.12 269.194 229.12C268.26 229.12 267.676 228.887 267.091 228.302C266.507 227.718 266.273 227.134 266.273 226.316C266.273 225.498 266.507 224.914 267.091 224.33C267.559 223.862 268.26 223.512 269.194 223.512ZM270.596 224.914C270.246 224.564 269.662 224.33 269.078 224.33C268.493 224.33 268.026 224.564 267.559 224.914C267.208 225.265 266.974 225.849 266.974 226.433C266.974 227.017 267.208 227.484 267.559 227.952C267.909 228.302 268.493 228.536 269.078 228.536C269.662 228.536 270.129 228.302 270.596 227.952C270.947 227.601 271.181 227.017 271.181 226.433C271.181 225.732 270.947 225.265 270.596 224.914Z" fill="black"/>
<path d="M273.52 229.003V223.629H274.337L276.44 226.082L278.544 223.629H279.361V229.003H278.544V224.797L276.557 227.134H276.207L274.221 224.797V229.003H273.52Z" fill="black"/>
<path d="M280.644 231.106V230.405C280.878 230.522 281.112 230.639 281.345 230.639C282.046 230.639 282.397 230.055 282.864 228.886L280.527 223.746H281.462L283.331 227.952L285.201 223.746H286.019L283.331 229.704C282.864 230.756 282.163 231.34 281.462 231.34C281.112 231.223 280.761 231.223 280.644 231.106Z" fill="black"/>
<path d="M222.578 243.141V242.323C223.162 242.557 223.747 242.79 224.448 242.79C225.499 242.79 226.2 242.44 226.2 241.856C226.2 241.271 225.616 240.921 224.798 240.921H223.863V240.22H224.798C225.616 240.22 226.083 239.869 226.083 239.402C226.083 238.818 225.616 238.584 224.564 238.584C223.98 238.584 223.396 238.701 222.812 238.935V238.234C223.279 238 223.98 237.883 224.681 237.883C225.265 237.883 225.85 238 226.2 238.234C226.551 238.467 226.784 238.818 226.784 239.285C226.784 240.103 226.317 240.337 225.966 240.454C226.667 240.687 227.018 241.155 227.018 241.856C227.018 242.79 226.083 243.491 224.564 243.491C223.747 243.491 223.045 243.374 222.578 243.141Z" fill="black"/>
<path d="M228.655 243.024C228.304 242.673 228.07 242.323 228.07 241.739C228.07 241.155 228.304 240.804 228.655 240.454C229.122 240.103 229.589 239.986 230.173 239.986C230.874 239.986 231.459 240.22 232.043 240.454V239.869C232.043 238.935 231.459 238.584 230.29 238.584C229.706 238.584 229.122 238.818 228.538 239.168V238.35C229.005 238 229.706 237.883 230.407 237.883C231.809 237.883 232.744 238.584 232.744 239.869V242.089C232.744 242.44 232.978 242.79 233.211 242.79C233.328 242.79 233.445 242.79 233.562 242.673V243.258C233.445 243.374 233.328 243.374 232.978 243.374C232.51 243.374 232.043 243.141 231.926 242.557C231.342 243.141 230.641 243.491 229.823 243.491C229.589 243.491 229.122 243.374 228.655 243.024ZM232.277 241.972V241.271C231.692 240.921 231.108 240.687 230.524 240.687C229.589 240.687 229.005 241.038 229.005 241.739C229.005 242.44 229.589 242.79 230.407 242.79C231.108 242.79 231.809 242.44 232.277 241.972Z" fill="black"/>
<path d="M238 243.375V238H242.79V243.375H241.973V238.701H238.818V243.375H238Z" fill="black"/>
<path d="M245.478 245.595H244.66V238.117H245.478V238.935C245.945 238.234 246.646 238 247.581 238C248.399 238 248.983 238.234 249.567 238.818C250.035 239.402 250.268 239.986 250.268 240.804C250.268 241.622 250.035 242.206 249.567 242.79C249.1 243.375 248.399 243.608 247.581 243.608C246.646 243.608 246.062 243.258 245.478 242.674V245.595ZM245.478 241.622C245.829 242.323 246.53 242.79 247.347 242.79C247.932 242.79 248.399 242.557 248.866 242.206C249.217 241.856 249.451 241.271 249.451 240.687C249.451 240.103 249.217 239.636 248.866 239.168C248.516 238.818 247.932 238.584 247.347 238.584C246.53 238.584 245.829 239.052 245.478 239.753V241.622Z" fill="black"/>
<path d="M251.787 243.024C251.437 242.673 251.203 242.323 251.203 241.739C251.203 241.155 251.437 240.804 251.787 240.454C252.255 240.103 252.722 239.986 253.306 239.986C254.007 239.986 254.591 240.22 255.176 240.454V239.869C255.176 238.935 254.591 238.584 253.423 238.584C252.839 238.584 252.255 238.818 251.67 239.168V238.35C252.138 238 252.839 237.883 253.54 237.883C254.942 237.883 255.877 238.584 255.877 239.869V242.089C255.877 242.44 256.11 242.79 256.344 242.79C256.461 242.79 256.578 242.79 256.695 242.673V243.258C256.578 243.374 256.461 243.374 256.11 243.374C255.643 243.374 255.176 243.141 255.059 242.557C254.475 243.141 253.774 243.491 252.956 243.491C252.722 243.491 252.255 243.374 251.787 243.024ZM255.292 241.972V241.271C254.708 240.921 254.124 240.687 253.54 240.687C252.605 240.687 252.021 241.038 252.021 241.739C252.021 242.44 252.605 242.79 253.423 242.79C254.241 242.79 254.942 242.44 255.292 241.972Z" fill="black"/>
<path d="M263.239 245.01V243.491H258.215V238.117H259.033V242.79H262.187V238.117H263.005V242.79H263.94V245.01H263.239Z" fill="black"/>
<path d="M265.689 242.79C265.105 242.323 264.871 241.622 264.871 240.804C264.871 239.986 265.105 239.285 265.572 238.818C266.039 238.234 266.741 238 267.558 238C269.311 238 270.012 239.519 270.012 240.804V241.038H265.689C265.806 242.206 266.624 242.907 267.909 242.907C268.493 242.907 269.077 242.79 269.661 242.44V243.141C269.194 243.491 268.61 243.608 267.792 243.608C266.974 243.491 266.273 243.258 265.689 242.79ZM269.194 240.337C269.194 239.986 268.96 239.519 268.727 239.168C268.493 238.818 268.026 238.701 267.442 238.701C266.857 238.701 266.507 238.818 266.156 239.168C265.806 239.519 265.689 239.869 265.572 240.337H269.194Z" fill="black"/>
<path d="M271.066 243.141V242.323C271.651 242.557 272.235 242.79 272.936 242.79C273.987 242.79 274.688 242.44 274.688 241.856C274.688 241.271 274.104 240.921 273.286 240.921H272.352V240.22H273.286C274.104 240.22 274.572 239.869 274.572 239.402C274.572 238.818 274.104 238.584 273.053 238.584C272.468 238.584 271.884 238.701 271.3 238.935V238.234C271.767 238 272.468 237.883 273.17 237.883C273.754 237.883 274.338 238 274.688 238.234C275.039 238.467 275.273 238.818 275.273 239.285C275.273 240.103 274.805 240.337 274.455 240.454C275.156 240.687 275.506 241.155 275.506 241.856C275.506 242.79 274.572 243.491 273.053 243.491C272.352 243.491 271.651 243.374 271.066 243.141Z" fill="black"/>
<path d="M276.438 245.01V242.79H277.139C277.723 241.972 278.073 240.687 278.073 238.935V238.234H282.046V242.907H282.98V245.127H282.163V243.608H277.139V245.127H276.438V245.01ZM281.228 242.674V238.701H278.774V239.052C278.774 240.687 278.541 241.856 277.956 242.674H281.228Z" fill="black"/>
<path d="M284.385 243.024C284.034 242.673 283.801 242.323 283.801 241.739C283.801 241.155 284.034 240.804 284.385 240.454C284.852 240.103 285.32 239.986 285.904 239.986C286.605 239.986 287.189 240.22 287.773 240.454V239.869C287.773 238.935 287.189 238.584 286.021 238.584C285.437 238.584 284.852 238.818 284.268 239.168V238.35C284.736 238 285.437 237.883 286.138 237.883C287.54 237.883 288.474 238.584 288.474 239.869V242.089C288.474 242.44 288.708 242.79 288.942 242.79C289.059 242.79 289.175 242.79 289.292 242.673V243.258C289.175 243.374 289.059 243.374 288.708 243.374C288.241 243.374 287.773 243.141 287.656 242.557C287.072 243.141 286.371 243.491 285.553 243.491C285.32 243.491 284.852 243.374 284.385 243.024ZM287.89 241.972V241.271C287.306 240.921 286.722 240.687 286.138 240.687C285.203 240.687 284.619 241.038 284.619 241.739C284.619 242.44 285.203 242.79 286.021 242.79C286.839 242.79 287.54 242.44 287.89 241.972Z" fill="black"/>
<path d="M291.978 243.375V238.701H289.992V238H294.666V238.701H292.679V243.375H291.978Z" fill="black"/>
<path d="M295.953 243.375V238H296.771V240.22H300.042V238H300.86V243.375H300.042V241.038H296.771V243.375H295.953Z" fill="black"/>
<path d="M302.613 243.375V238H303.431V242.206L306.819 238H307.521V243.375H306.703V239.285L303.314 243.375H302.613Z" fill="black"/>
<path d="M309.504 243.375V238H310.322V242.206L313.71 238H314.411V243.375H313.593V239.285L310.205 243.375H309.504ZM310.088 235.546H310.789C310.789 236.131 311.256 236.598 311.841 236.598C312.542 236.598 312.892 236.131 312.892 235.546H313.593C313.593 236.598 312.775 237.182 311.841 237.182C310.906 237.182 310.088 236.481 310.088 235.546Z" fill="black"/>
<path d="M315.465 245.127L316.4 242.323H317.334L316.166 245.127H315.465Z" fill="black"/>
<path d="M222.344 257.746V257.161L224.914 254.708C225.498 254.124 225.849 253.773 226.083 253.423C226.316 253.072 226.433 252.722 226.433 252.254C226.433 251.32 225.732 250.735 224.681 250.735C223.863 250.735 223.162 251.086 222.461 251.787V250.852C223.162 250.268 223.863 249.917 224.797 249.917C225.498 249.917 226.083 250.151 226.55 250.502C227.017 250.852 227.251 251.436 227.251 252.137C227.251 252.605 227.134 253.072 226.9 253.539C226.667 253.89 226.199 254.474 225.615 255.058L223.512 257.045H227.601V257.746H222.344Z" fill="black"/>
<path d="M228.418 259.498L229.353 256.694H230.287L229.119 259.498H228.418Z" fill="black"/>
<path d="M232.858 257.746V250.969L231.105 251.904V251.203L232.975 250.151H233.676V257.862H232.858V257.746Z" fill="black"/>
<path d="M239.635 257.746V253.072H237.648V252.371H242.322V253.072H240.336V257.746H239.635Z" fill="black"/>
<path d="M243.492 257.746V252.371H244.31V256.577L247.698 252.371H248.399V257.746H247.698V253.656L244.31 257.746H243.492Z" fill="black"/>
<path d="M250.736 257.161C250.152 256.577 249.918 255.993 249.918 255.175C249.918 254.357 250.152 253.773 250.736 253.189C251.32 252.605 251.904 252.371 252.722 252.371C253.306 252.371 253.89 252.488 254.358 252.722V253.423C253.89 253.189 253.423 253.072 252.839 253.072C252.255 253.072 251.671 253.306 251.32 253.656C250.97 254.007 250.736 254.591 250.736 255.175C250.736 255.759 250.97 256.227 251.32 256.694C251.671 257.045 252.255 257.278 252.839 257.278C253.423 257.278 254.007 257.161 254.475 256.811V257.512C254.007 257.862 253.423 257.979 252.722 257.979C252.021 257.979 251.32 257.629 250.736 257.161Z" fill="black"/>
<path d="M256.109 256.928C256.343 256.694 256.693 256.694 256.927 256.928C257.16 257.162 257.16 257.512 256.927 257.746C256.693 257.979 256.343 257.979 256.109 257.746C255.875 257.512 255.875 257.045 256.109 256.928Z" fill="black"/>
<path d="M223.979 272.234V265.457L222.227 266.392V265.574L224.096 264.522H224.797V272.234H223.979Z" fill="black"/>
<path d="M227.135 272.234L230.64 265.223H226.434V264.522H231.574V265.107L227.952 272.234H227.135Z" fill="black"/>
<path d="M235.78 264.873C236.131 265.223 236.364 265.691 236.364 266.158C236.364 266.625 236.131 267.093 235.78 267.443C235.429 267.794 234.962 268.027 234.495 268.027C233.911 268.027 233.56 267.794 233.21 267.443C232.859 267.093 232.742 266.625 232.742 266.158C232.742 265.691 232.976 265.223 233.21 264.873C233.56 264.522 234.027 264.289 234.495 264.289C234.962 264.405 235.429 264.522 235.78 264.873ZM234.378 264.99C233.677 264.99 233.21 265.574 233.21 266.275C233.21 266.976 233.677 267.56 234.378 267.56C235.079 267.56 235.546 266.976 235.546 266.275C235.663 265.457 235.079 264.99 234.378 264.99ZM234.027 272.234L238.584 264.522H239.285L234.728 272.234H234.027ZM240.103 269.196C240.454 269.546 240.687 270.014 240.687 270.481C240.687 270.948 240.454 271.416 240.103 271.766C239.753 272.117 239.285 272.35 238.818 272.35C238.234 272.35 237.883 272.117 237.533 271.766C237.182 271.416 237.065 270.948 237.065 270.481C237.065 270.014 237.299 269.546 237.533 269.196C237.883 268.845 238.35 268.612 238.818 268.612C239.285 268.612 239.753 268.845 240.103 269.196ZM238.818 271.766C239.168 271.766 239.402 271.649 239.636 271.416C239.869 271.182 239.986 270.832 239.986 270.481C239.986 270.131 239.869 269.78 239.636 269.546C239.402 269.313 239.168 269.196 238.818 269.196C238.467 269.196 238.234 269.313 238 269.546C237.766 269.78 237.649 270.131 237.649 270.481C237.649 270.832 237.766 271.182 238 271.416C238.234 271.649 238.467 271.766 238.818 271.766Z" fill="black"/>
<path d="M41.4768 126.653C42.6451 126.653 43.463 127.003 44.2809 127.821C45.0988 128.639 45.4493 129.574 45.4493 130.625C45.4493 131.794 45.0988 132.729 44.2809 133.43C43.5799 134.247 42.6451 134.598 41.4768 134.598C40.3084 134.598 39.4905 134.247 38.6726 133.43C37.9716 132.612 37.6211 131.677 37.6211 130.625C37.6211 129.457 37.9716 128.522 38.6726 127.821C39.4905 127.12 40.4252 126.653 41.4768 126.653ZM41.4768 133.897C42.2946 133.897 43.1125 133.546 43.6967 132.962C44.2809 132.378 44.6314 131.56 44.6314 130.625C44.6314 129.691 44.2809 128.99 43.6967 128.289C43.1125 127.705 42.4115 127.354 41.4768 127.354C40.6589 127.354 39.841 127.705 39.2568 128.289C38.6726 128.873 38.3221 129.691 38.3221 130.625C38.3221 131.56 38.6726 132.261 39.2568 132.962C39.841 133.546 40.6589 133.897 41.4768 133.897Z" fill="black"/>
<path d="M47.4351 133.897C46.8509 133.313 46.6172 132.729 46.6172 131.911C46.6172 131.093 46.8509 130.509 47.4351 129.924C48.0192 129.34 48.6034 129.107 49.4213 129.107C50.0055 129.107 50.5897 129.223 51.057 129.457V130.158C50.5897 129.924 50.1223 129.808 49.5381 129.808C48.954 129.808 48.3698 130.041 48.0192 130.392C47.6687 130.742 47.4351 131.326 47.4351 131.911C47.4351 132.495 47.6687 132.962 48.0192 133.43C48.3698 133.78 48.954 134.014 49.5381 134.014C50.1223 134.014 50.7065 133.897 51.1739 133.546V134.247C50.7065 134.598 50.1223 134.715 49.4213 134.715C48.7203 134.715 48.0192 134.364 47.4351 133.897Z" fill="black"/>
<path d="M55.2647 129.107C56.0826 129.107 56.7836 129.34 57.3678 129.924C57.952 130.509 58.1857 131.093 58.1857 131.911C58.1857 132.729 57.952 133.313 57.3678 133.897C56.7836 134.481 56.1994 134.715 55.2647 134.715C54.4468 134.715 53.7458 134.481 53.1616 133.897C52.5774 133.313 52.3438 132.729 52.3438 131.911C52.3438 131.093 52.5774 130.509 53.1616 129.924C53.7458 129.34 54.33 129.107 55.2647 129.107ZM56.6668 130.392C56.3163 130.041 55.7321 129.808 55.1479 129.808C54.5637 129.808 54.0963 130.041 53.629 130.392C53.2785 130.742 53.0448 131.326 53.0448 131.911C53.0448 132.495 53.2785 132.962 53.629 133.43C53.9795 133.78 54.5637 134.014 55.1479 134.014C55.7321 134.014 56.1994 133.78 56.6668 133.43C57.0173 133.079 57.251 132.495 57.251 131.911C57.251 131.326 57.1341 130.742 56.6668 130.392Z" fill="black"/>
<path d="M60.0522 133.663C59.5849 133.079 59.2344 132.144 59.2344 131.093C59.2344 129.574 59.5849 128.639 60.2859 128.055C60.6364 127.704 61.1038 127.471 61.5711 127.354C61.8048 127.237 62.0385 127.237 62.389 127.12C62.7395 127.003 62.9732 127.003 63.2069 126.887C63.4405 126.887 63.7911 126.77 64.1416 126.653V127.354C63.3237 127.471 62.7395 127.588 62.389 127.705C61.5711 127.938 60.9869 128.172 60.5196 128.639C60.1691 129.107 59.9354 129.691 59.8186 130.625C60.2859 129.808 61.1038 129.34 62.1553 129.34C62.8564 129.34 63.4405 129.574 63.9079 130.041C64.3753 130.509 64.6089 131.093 64.6089 131.794C64.6089 132.612 64.3753 133.196 63.7911 133.78C63.3237 134.247 62.6227 134.598 61.9217 134.598C61.2206 134.715 60.5196 134.364 60.0522 133.663ZM63.4405 133.43C63.7911 133.079 64.0247 132.612 64.0247 132.028C64.0247 131.443 63.7911 131.093 63.4405 130.742C63.09 130.392 62.6227 130.275 62.1553 130.275C61.688 130.275 61.2206 130.392 60.8701 130.742C60.5196 130.976 60.1691 131.326 60.0522 131.677C60.1691 133.196 60.8701 134.014 62.1553 134.014C62.7395 133.897 63.09 133.78 63.4405 133.43Z" fill="black"/>
<path d="M66.3633 134.481V129.107H67.1812V133.313L70.5695 129.107H71.2705V134.481H70.4526V130.392L67.0643 134.481H66.3633Z" fill="black"/>
<path d="M37.7383 148.969V143.594H42.5287V148.969H41.7108V144.296H38.5562V148.969H37.7383Z" fill="black"/>
<path d="M45.2163 151.189H44.3984V143.711H45.2163V144.529C45.6837 143.828 46.3847 143.594 47.3194 143.594C48.1373 143.594 48.7215 143.828 49.3057 144.412C49.8898 144.997 50.0067 145.581 50.0067 146.399C50.0067 147.216 49.773 147.801 49.3057 148.385C48.8383 148.969 48.1373 149.203 47.3194 149.203C46.3847 149.203 45.8005 148.852 45.2163 148.268V151.189ZM45.2163 147.1C45.5668 147.801 46.2679 148.268 47.0857 148.268C47.6699 148.268 48.1373 148.034 48.6046 147.684C48.9551 147.333 49.1888 146.749 49.1888 146.165C49.1888 145.581 48.9551 145.113 48.6046 144.646C48.2541 144.296 47.6699 144.062 47.0857 144.062C46.2679 144.062 45.5668 144.529 45.2163 145.23V147.1Z" fill="black"/>
<path d="M51.5256 148.619C51.1751 148.268 50.9414 147.918 50.9414 147.333C50.9414 146.749 51.1751 146.399 51.5256 146.048C51.993 145.698 52.4603 145.581 53.0445 145.581C53.7455 145.581 54.3297 145.814 54.9139 146.048V145.464C54.9139 144.529 54.3297 144.179 53.1613 144.179C52.5771 144.179 51.993 144.412 51.4088 144.763V143.945C51.8761 143.594 52.5771 143.478 53.2782 143.478C54.6802 143.478 55.6149 144.179 55.6149 145.464V147.684C55.6149 148.034 55.8486 148.385 56.0823 148.385C56.1991 148.385 56.316 148.385 56.4328 148.268V148.852C56.316 148.969 56.1991 148.969 55.8486 148.969C55.3813 148.969 54.9139 148.735 54.7971 148.151C54.2129 148.735 53.5119 149.086 52.694 149.086C52.4603 149.086 51.993 148.852 51.5256 148.619ZM55.0308 147.45V146.749C54.4466 146.399 53.8624 146.165 53.2782 146.165C52.3435 146.165 51.7593 146.515 51.7593 147.216C51.7593 147.918 52.3435 148.268 53.1613 148.268C53.9792 148.385 54.6802 147.918 55.0308 147.45Z" fill="black"/>
<path d="M62.9733 150.488V148.969H57.9492V143.594H58.7671V148.268H61.9217V143.594H62.7396V148.268H63.6743V150.488H62.9733Z" fill="black"/>
<path d="M65.4272 148.268C64.8431 147.801 64.6094 147.1 64.6094 146.282C64.6094 145.464 64.8431 144.763 65.3104 144.296C65.7778 143.711 66.4788 143.478 67.2967 143.478C69.0492 143.478 69.7503 144.997 69.7503 146.282V146.515H65.4272C65.5441 147.684 66.362 148.385 67.6472 148.385C68.2314 148.385 68.8156 148.268 69.3998 147.918V148.619C68.9324 148.969 68.3482 149.086 67.5303 149.086C66.7125 149.086 66.0114 148.852 65.4272 148.268ZM68.9324 145.814C68.9324 145.464 68.6987 144.997 68.465 144.646C68.2314 144.296 67.764 144.179 67.1798 144.179C66.5956 144.179 66.2451 144.296 65.8946 144.646C65.5441 144.997 65.4272 145.347 65.3104 145.814H68.9324Z" fill="black"/>
<path d="M70.9219 148.735V147.918C71.5061 148.151 72.0903 148.385 72.7913 148.385C73.8428 148.385 74.5439 148.034 74.5439 147.45C74.5439 146.866 73.9597 146.515 73.1418 146.515H72.2071V145.814H73.1418C73.9597 145.814 74.427 145.464 74.427 144.997C74.427 144.412 73.9597 144.179 72.9081 144.179C72.3239 144.179 71.7397 144.296 71.1556 144.529V143.828C71.6229 143.594 72.3239 143.478 73.025 143.478C73.6092 143.478 74.1934 143.594 74.5439 143.828C74.8944 144.062 75.1281 144.412 75.1281 144.88C75.1281 145.698 74.6607 145.931 74.3102 146.048C75.0112 146.282 75.3617 146.749 75.3617 147.45C75.3617 148.385 74.427 149.086 72.9081 149.086C72.0903 149.086 71.3892 148.969 70.9219 148.735Z" fill="black"/>
<path d="M76.1797 150.488V148.268H76.8807C77.4649 147.45 77.8154 146.165 77.8154 144.412V143.711H81.7879V148.385H82.7227V150.605H81.9048V149.086H76.8807V150.605H76.1797V150.488ZM80.9701 148.268V144.296H78.5165V144.646C78.5165 146.282 78.2828 147.45 77.6986 148.268H80.9701Z" fill="black"/>
<path d="M84.1233 148.619C83.7727 148.268 83.5391 147.918 83.5391 147.333C83.5391 146.749 83.7727 146.399 84.1233 146.048C84.5906 145.698 85.058 145.581 85.6422 145.581C86.3432 145.581 86.9274 145.814 87.5116 146.048V145.464C87.5116 144.529 86.9274 144.179 85.759 144.179C85.1748 144.179 84.5906 144.412 84.0064 144.763V143.945C84.4738 143.594 85.1748 143.478 85.8758 143.478C87.2779 143.478 88.2126 144.179 88.2126 145.464V147.684C88.2126 148.034 88.4463 148.385 88.6799 148.385C88.7968 148.385 88.9136 148.385 89.0305 148.268V148.852C88.9136 148.969 88.7968 148.969 88.4463 148.969C87.9789 148.969 87.5116 148.735 87.3947 148.151C86.8105 148.735 86.1095 149.086 85.2916 149.086C85.058 149.086 84.5906 148.852 84.1233 148.619ZM87.6284 147.45V146.749C87.0442 146.399 86.46 146.165 85.8758 146.165C84.9411 146.165 84.3569 146.515 84.3569 147.216C84.3569 147.918 84.9411 148.268 85.759 148.268C86.5769 148.385 87.2779 147.918 87.6284 147.45Z" fill="black"/>
<path d="M91.7167 148.969V144.296H89.7305V143.594H94.404V144.296H92.4177V148.969H91.7167Z" fill="black"/>
<path d="M95.6914 148.969V143.594H96.5093V145.814H99.7808V143.594H100.482V148.969H99.6639V146.632H96.3924V148.969H95.6914Z" fill="black"/>
<path d="M104.921 143.478C105.739 143.478 106.44 143.711 107.024 144.296C107.608 144.88 107.842 145.464 107.842 146.282C107.842 147.1 107.608 147.684 107.024 148.268C106.44 148.852 105.856 149.086 104.921 149.086C103.986 149.086 103.402 148.852 102.818 148.268C102.234 147.684 102 147.1 102 146.282C102 145.464 102.234 144.88 102.818 144.296C103.402 143.711 103.986 143.478 104.921 143.478ZM106.323 144.763C105.972 144.412 105.388 144.179 104.804 144.179C104.22 144.179 103.753 144.412 103.285 144.763C102.935 145.113 102.701 145.698 102.701 146.282C102.701 146.866 102.935 147.333 103.285 147.801C103.636 148.151 104.22 148.385 104.804 148.385C105.388 148.385 105.856 148.151 106.323 147.801C106.674 147.45 106.907 146.866 106.907 146.282C106.907 145.698 106.79 145.23 106.323 144.763Z" fill="black"/>
<path d="M109.242 148.969V143.594H113.215V144.296H110.06V148.969H109.242Z" fill="black"/>
<path d="M116.835 143.478C117.653 143.478 118.354 143.711 118.938 144.296C119.522 144.88 119.756 145.464 119.756 146.282C119.756 147.1 119.522 147.684 118.938 148.268C118.354 148.852 117.77 149.086 116.835 149.086C115.9 149.086 115.316 148.852 114.732 148.268C114.148 147.684 113.914 147.1 113.914 146.282C113.914 145.464 114.148 144.88 114.732 144.296C115.316 143.711 116.017 143.478 116.835 143.478ZM118.354 144.763C118.003 144.412 117.419 144.179 116.835 144.179C116.251 144.179 115.783 144.412 115.316 144.763C114.966 145.113 114.732 145.698 114.732 146.282C114.732 146.866 114.966 147.333 115.316 147.801C115.667 148.151 116.251 148.385 116.835 148.385C117.419 148.385 117.887 148.151 118.354 147.801C118.704 147.45 118.938 146.866 118.938 146.282C118.938 145.698 118.704 145.23 118.354 144.763Z" fill="black"/>
<path d="M37.7383 163.34V157.966H40.5424C41.594 157.966 42.1781 158.55 42.1781 159.368C42.1781 159.952 41.9445 160.302 41.4771 160.536C42.1781 160.77 42.5287 161.237 42.5287 161.938C42.5287 162.873 41.9445 163.34 40.7761 163.34H37.7383ZM38.5562 160.302H40.3087C41.0098 160.302 41.3603 160.069 41.3603 159.485C41.3603 159.017 41.0098 158.667 40.3087 158.667H38.5562V160.302ZM38.5562 162.639H40.5424C41.2434 162.639 41.7108 162.289 41.7108 161.821C41.7108 161.354 41.2434 161.003 40.5424 161.003H38.5562V162.639Z" fill="black"/>
<path d="M44.2807 155.746C44.5144 155.512 44.8649 155.512 45.0986 155.746C45.3323 155.979 45.3323 156.33 45.0986 156.564C44.8649 156.797 44.5144 156.797 44.2807 156.564C44.047 156.33 44.047 155.979 44.2807 155.746ZM44.2807 163.34V157.966H45.0986V163.34H44.2807Z" fill="black"/>
<path d="M47.7863 157.966V160.186L50.3567 157.966H51.4083L48.6041 160.419L51.7588 163.34H50.5904L47.6694 160.77V163.34H46.8516V157.966H47.7863Z" fill="black"/>
<path d="M52.3434 165.443V164.742C52.5771 164.859 52.8108 164.976 53.0444 164.976C53.7455 164.976 54.096 164.392 54.5633 163.223L52.2266 158.083H53.1613L55.0307 162.289L56.9001 158.083H57.718L55.0307 164.041C54.5633 165.093 53.8623 165.677 53.1613 165.677C52.8108 165.56 52.4602 165.56 52.3434 165.443Z" fill="black"/>
<path d="M57.25 164.976L58.1847 162.172H59.1194L57.951 164.976H57.25Z" fill="black"/>
<path d="M63.674 163.34L67.1792 156.33H63.0898V155.629H68.2307V156.213L64.6087 163.34H63.674Z" fill="black"/>
<path d="M73.373 163.34V158.667H71.3867V157.966H76.0602V158.667H74.074V163.34H73.373Z" fill="black"/>
<path d="M77.2305 163.34V157.966H78.0483V162.172L81.4367 157.966H82.1377V163.34H81.3198V159.251L77.9315 163.34H77.2305Z" fill="black"/>
<path d="M84.4741 162.639C83.8899 162.055 83.6562 161.471 83.6562 160.653C83.6562 159.835 83.8899 159.251 84.4741 158.667C85.0583 158.083 85.6425 157.849 86.4604 157.849C87.0446 157.849 87.6288 157.966 88.0961 158.199V158.9C87.6288 158.667 87.1614 158.55 86.5772 158.55C85.993 158.55 85.4088 158.784 85.0583 159.134C84.7078 159.485 84.4741 160.069 84.4741 160.653C84.4741 161.237 84.7078 161.705 85.0583 162.172C85.4088 162.522 85.993 162.756 86.5772 162.756C87.1614 162.756 87.7456 162.639 88.213 162.289V162.99C87.7456 163.34 87.1614 163.457 86.4604 163.457C85.7593 163.457 85.0583 163.223 84.4741 162.639Z" fill="black"/>
<path d="M89.8471 162.405C90.0808 162.172 90.4313 162.172 90.665 162.405C90.8987 162.639 90.8987 162.99 90.665 163.223C90.4313 163.457 90.0808 163.457 89.8471 163.223C89.6135 162.99 89.6135 162.639 89.8471 162.405Z" fill="black"/>
<path d="M37.5039 177.361V176.543C38.0881 176.893 38.7891 177.127 39.607 177.127C40.308 177.127 40.7754 177.01 41.2427 176.66C41.7101 176.309 41.8269 175.842 41.8269 175.375C41.8269 174.323 41.0091 173.622 39.607 173.622C39.0228 173.622 38.3218 173.739 37.7376 173.972L38.2049 170.117H42.0606V170.818H38.906L38.5555 173.038C38.906 172.921 39.3733 172.921 39.7238 172.921C40.5417 172.921 41.2427 173.155 41.7101 173.622C42.2943 174.089 42.528 174.674 42.528 175.375C42.528 176.192 42.2943 176.777 41.7101 177.244C41.1259 177.711 40.4249 177.945 39.4902 177.945C38.7891 177.828 38.0881 177.711 37.5039 177.361Z" fill="black"/>
<path d="M49.8888 175.608C49.8888 176.309 49.6551 176.777 49.0709 177.244C48.4867 177.595 47.7857 177.828 46.9678 177.828C46.15 177.828 45.4489 177.595 44.8647 177.244C44.2806 176.893 44.0469 176.309 44.0469 175.608C44.0469 174.674 44.7479 173.856 45.6826 173.622C44.8647 173.272 44.3974 172.687 44.3974 171.869C44.3974 171.285 44.6311 170.818 45.0984 170.467C45.5658 170.117 46.15 169.883 46.9678 169.883C47.6689 169.883 48.3699 170.117 48.8372 170.467C49.3046 170.818 49.5383 171.285 49.5383 171.869C49.5383 172.687 49.0709 173.272 48.2531 173.622C49.1878 173.973 49.8888 174.674 49.8888 175.608ZM48.4867 176.66C48.8373 176.309 49.0709 175.959 49.0709 175.491C49.0709 175.024 48.8373 174.674 48.4867 174.323C48.1362 173.973 47.552 173.856 46.9678 173.856C46.3836 173.856 45.9163 173.973 45.4489 174.323C45.0984 174.557 44.8647 175.024 44.8647 175.491C44.8647 175.959 45.0984 176.309 45.4489 176.66C45.7995 177.01 46.3836 177.127 46.9678 177.127C47.552 177.127 48.0194 177.01 48.4867 176.66ZM45.6826 172.921C46.0331 173.155 46.5005 173.272 46.9678 173.272C48.0194 173.272 48.7204 172.687 48.7204 171.869C48.7204 171.519 48.4867 171.168 48.2531 170.818C47.9025 170.584 47.4352 170.467 46.9678 170.467C46.5005 170.467 46.0331 170.584 45.6826 170.818C45.3321 171.052 45.2153 171.402 45.2153 171.869C45.2153 172.337 45.3321 172.687 45.6826 172.921Z" fill="black"/>
<path d="M54.2136 170.467C54.5641 170.818 54.7978 171.285 54.7978 171.753C54.7978 172.22 54.5641 172.687 54.2136 173.038C53.8631 173.388 53.3957 173.622 52.9284 173.622C52.3442 173.622 51.9937 173.388 51.6431 173.038C51.2926 172.687 51.1758 172.22 51.1758 171.753C51.1758 171.285 51.4095 170.818 51.6431 170.467C51.9937 170.117 52.461 169.883 52.9284 169.883C53.3957 169.883 53.8631 170 54.2136 170.467ZM52.9284 170.467C52.2273 170.467 51.76 171.052 51.76 171.753C51.76 172.454 52.2273 173.038 52.9284 173.038C53.6294 173.038 54.0967 172.454 54.0967 171.753C54.0967 171.052 53.6294 170.467 52.9284 170.467ZM52.461 177.711L57.0177 170H57.7187L53.162 177.711H52.461ZM58.5366 174.674C58.8871 175.024 59.1208 175.491 59.1208 175.959C59.1208 176.426 58.8871 176.893 58.5366 177.244C58.1861 177.595 57.7187 177.828 57.2514 177.828C56.6672 177.828 56.3167 177.595 55.9662 177.244C55.6156 176.893 55.4988 176.426 55.4988 175.959C55.4988 175.491 55.7325 175.024 55.9662 174.674C56.3167 174.323 56.784 174.089 57.2514 174.089C57.7187 174.089 58.1861 174.323 58.5366 174.674ZM57.2514 177.244C57.6019 177.244 57.8356 177.127 58.0692 176.893C58.3029 176.66 58.4198 176.309 58.4198 175.959C58.4198 175.608 58.3029 175.258 58.0692 175.024C57.8356 174.79 57.6019 174.674 57.2514 174.674C56.9009 174.674 56.6672 174.79 56.4335 175.024C56.1998 175.258 56.083 175.608 56.083 175.959C56.083 176.309 56.1998 176.66 56.4335 176.893C56.6672 177.127 56.9009 177.244 57.2514 177.244Z" fill="black"/>
</svg>
