<?xml version="1.0" encoding="utf-8"?>
<!-- Generator: Adobe Illustrator 23.1.0, SVG Export Plug-In . SVG Version: 6.00 Build 0)  -->
<svg version="1.1" id="logo" xmlns="http://www.w3.org/2000/svg" xmlns:xlink="http://www.w3.org/1999/xlink" x="0px" y="0px"
	 viewBox="0 0 232.1 261.4" enable-background="new 0 0 232.1 261.4" xml:space="preserve">
<g>
	<g>
		<path fill="#fff" d="M42.4,186.1c0.9,0,1.4,0.5,1.4,1.4v8.1c0,0.9-0.5,1.4-1.4,1.4H11.7v10.3h26.9c0.9,0,1.4,0.5,1.4,1.4v8.1
			c0,0.9-0.5,1.4-1.4,1.4H11.7v11.9h31.5c0.9,0,1.4,0.5,1.4,1.4v8.2c0,0.9-0.5,1.4-1.4,1.4H1.4c-0.9,0-1.4-0.5-1.4-1.4v-52.3
			c0-0.8,0.7-1.4,1.4-1.4H42.4z"/>
		<path fill="#fff" d="M103.5,211.3c0.9,0,1.4,0.5,1.4,1.4v27.1c0,0.9-0.5,1.4-1.4,1.4h-6c-0.9,0-1.4-0.3-1.6-1l-1.1-3.3
			c-3.9,3.5-9.2,5.2-15.6,5.2c-16.2,0-27.5-11.9-27.5-28.5c0-16.3,12.3-28.2,28.5-28.2c9.5,0,19.1,4.9,24.1,12.7
			c0.4,0.7,0.3,1.2-0.2,1.6l-6.4,4.7c-0.7,0.7-1.5,0.3-1.9-0.2c-4-5.2-8.8-7.7-15.6-7.7c-10.1,0-16.8,7.1-16.8,17.1
			c0,10,6.4,17.4,16.3,17.4c6.5,0,10-1.6,13.6-4.9v-13.4c0-0.9,0.5-1.4,1.4-1.4H103.5z"/>
		<path fill="#fff" d="M157.8,230.3h-27.5l-3.8,9.7c-0.3,0.8-0.9,1.2-1.7,1.2h-10c-1,0-1.3-0.5-1-1.4l23.9-52.9
			c0.2-0.5,0.6-0.8,1.3-0.8h11.5c0.7,0,1.1,0.3,1.3,0.8l22.8,52.7c0.3,0.8-0.2,1.6-1.1,1.6h-9.6c-1,0-1.7-0.5-2.1-1.4L157.8,230.3z
			 M134.6,219.6h19.2l-8.9-22.7h-1.1L134.6,219.6z"/>
		<path fill="#fff" d="M210.7,186.1c12.2,0,21.5,8.8,21.5,20.1c0,11.7-9.2,20.3-21.5,20.3H196v13.3c0,0.9-0.5,1.4-1.4,1.4h-8.9
			c-0.9,0-1.4-0.5-1.4-1.4v-52.3c0-0.9,0.5-1.4,1.4-1.4H210.7z M210.7,215.4c6.2,0,9.7-3.8,9.7-9.2c0-5.3-3.5-9-9.7-9H196v18.2
			H210.7z"/>
	</g>
	<rect x="0.6" y="255.2" fill="#fff" width="231.5" height="6.2"/>
	<path fill="#fff" d="M141.3,64.2c2.8,6,2.9,15,1.1,20.6H96.5c0,8.9,7.3,13.8,16.3,13.8c6.8,0,13.9-1.6,19.8-4.6l8.8,9.6
		c-7.1,5.3-16.9,10.2-28.6,10.2c-20,0-33.5-14.4-33.5-33.6c0-18.6,12.6-33.7,33.1-33.7C126.5,46.5,136.3,53.2,141.3,64.2z
		 M97.2,74.4h30.1c0-1.6-0.5-3.7-1.6-5.3c-2.2-4.2-7-7.4-13.3-7.4C103.5,61.7,97.5,68,97.2,74.4z"/>
	<circle fill="#fff" cx="152.5" cy="137.8" r="10.6"/>
	<circle fill="#fff" cx="70.2" cy="137.8" r="10.6"/>
	<circle fill="#fff" cx="45.1" cy="59.4" r="10.6"/>
	<circle fill="#fff" cx="111.5" cy="10.6" r="10.6"/>
	<circle fill="#fff" cx="177.8" cy="59.4" r="10.6"/>
	<path fill="#fff" d="M131.5,27.6c-2,3.3-5.7,7.8-11.6,8.3c-2.1,0.2-7,0.2-8.4,0.2c-1.5,0-6.2,0-8.3-0.2c-5.9-0.5-9.6-5-11.6-8.3
		c-0.4-0.6-0.7-1.3-1.1-2c-1.6,0.1-7.9,0.7-14.9,5.9c-7,5.2-9.5,11.1-10,12.6c0.6,0.6,1.1,1.1,1.6,1.7c2.5,3,5.6,7.9,4.2,13.6
		c-0.5,2-2,6.5-2.5,7.9c-0.4,1.3-2,5.9-2.8,7.9c-2.3,5.4-7.8,7.5-11.6,8.3c-0.7,0.2-1.4,0.3-2.2,0.4C52,85.1,50.3,91.4,53,100
		c2.6,8.4,7.4,12.6,8.6,13.6c0.7-0.4,1.3-0.7,1.9-1c3.5-1.5,9.2-3.1,14.3-0.2c1.8,1,5.7,3.8,6.9,4.6c1.1,0.8,5.1,3.6,6.8,4.9
		c4.5,3.7,5,9.6,4.7,13.5c0,0.8-0.2,1.6-0.3,2.5c1.1,0.8,6.6,4.2,15.6,4.2c9.3,0,14.9-3.7,15.7-4.3c-0.2-0.8-0.3-1.5-0.3-2.2
		c-0.2-3.8,0.1-9.7,4.6-13.5c1.6-1.4,5.6-4.2,6.7-5c1.2-0.8,5.1-3.6,6.9-4.6c5.1-3,10.7-1.4,14.3,0.1c0.7,0.3,1.3,0.6,2.1,1
		c1.4-1.2,5.9-5.4,8.4-13.5c2.7-8.7,1-15.1,0.6-16.3c-0.7-0.1-1.4-0.2-2-0.3c-3.8-0.9-9.3-2.9-11.6-8.3c-0.8-1.9-2.4-6.6-2.8-7.9
		c-0.5-1.4-2-5.9-2.5-7.9c-1.4-5.7,1.7-10.7,4.2-13.6c0.5-0.6,1-1.1,1.6-1.7c-0.6-1.6-3-7.4-9.9-12.5c-7.2-5.4-13.7-5.9-15-5.9
		C132.2,26.3,131.8,27,131.5,27.6 M87.3,15c5.5-2.1,10.8-3.1,10.8-3.1s0.1,3.9,3.2,7.5c3.1,3.6,7.1,4.6,9.4,4.8l0.9,0l0.9,0
		c2.3-0.1,6.3-1.2,9.4-4.8c3.1-3.6,3.2-7.5,3.2-7.5s5.2,0.9,10.6,3c3.7,1.3,9.2,3.8,17.2,9.4l0.1,0.1c7.6,6,11.6,10.6,13.9,13.8
		c3.5,4.3,5.9,8.7,5.9,8.7s-3.6,1.3-6.1,5.4c-2.4,4-2.1,8.2-1.5,10.4l0.3,0.9l0.3,0.9c0.9,2.1,3.1,5.6,7.5,7.4
		c4.4,1.8,8.1,0.6,8.1,0.6s0.6,5.2,0.3,10.9l0,0c0,4-0.6,10-3.2,19.4l0,0l0,0.1c-3.1,9-6,14.3-8.2,17.5l0,0c-3.2,4.9-7,8.7-7,8.7
		s-2.3-3.1-6.9-4.3s-8.5,0.3-10.4,1.5l-0.8,0.5l-0.7,0.5c-1.8,1.4-4.5,4.6-4.9,9.3c-0.4,4.7,1.7,7.9,1.7,7.9s-4.7,2.2-10.3,3.7l0,0
		c-3.8,1.2-9.7,2.4-19.4,2.7l-0.1,0v0c-9.7-0.3-15.6-1.5-19.4-2.7c-5.5-1.4-10.1-3.8-10.1-3.8s2.1-3.2,1.7-7.9
		c-0.5-4.7-3.2-7.9-5-9.3l-0.7-0.5l-0.8-0.5c-1.9-1.2-5.9-2.6-10.4-1.5c-4.6,1.2-6.9,4.3-6.9,4.3s-3.7-3.8-7-8.7l0,0
		c-2.3-3.2-5.2-8.5-8.4-17.7l0-0.1l0,0c-2.6-9.2-3.2-15.2-3.2-19.1c-0.3-5.8,0.5-11.1,0.5-11.1s3.7,1.1,8.1-0.6
		c4.4-1.8,6.7-5.3,7.5-7.4l0.3-0.9l0.3-0.9c0.6-2.2,0.9-6.4-1.5-10.4c-2.4-4-6.1-5.4-6.1-5.4s2.5-4.6,6.2-9.1
		c2.3-3.2,6.3-7.6,13.7-13.4l0.1-0.1C78.2,18.8,83.6,16.3,87.3,15z"/>
</g>
</svg>
