<svg width="137" height="80" viewBox="0 0 137 80" fill="none" xmlns="http://www.w3.org/2000/svg">
<path d="M88.2305 16.6183C87.2758 17.4134 85.8437 17.8905 84.0139 17.97V19.0832H82.184V17.97C80.3542 17.8905 78.9221 17.4134 77.9674 16.6183C76.9332 15.8231 76.4558 14.7099 76.4558 13.2786C76.4558 11.8474 76.9332 10.7342 77.9674 9.93901C79.0017 9.14386 80.3542 8.66677 82.184 8.58725V7.39453H84.0139V8.50774C85.8437 8.58725 87.2758 9.06434 88.2305 9.85949C89.1852 10.6546 89.7421 11.7678 89.7421 13.1991C89.7421 14.6304 89.1852 15.7436 88.2305 16.6183ZM79.3199 15.4255C79.9564 15.9821 80.9111 16.3002 82.1045 16.3797V10.098C79.5586 10.2571 78.3652 11.3703 78.3652 13.2786C78.3652 14.1533 78.6835 14.8689 79.3199 15.4255ZM86.7984 15.4255C87.4349 14.8689 87.7532 14.1533 87.7532 13.1991C87.7532 12.2449 87.4349 11.5293 86.7984 10.9727C86.162 10.4161 85.2073 10.1775 84.0139 10.098V16.3797C85.2073 16.3002 86.162 15.9821 86.7984 15.4255Z" fill="white"/>
<path d="M93.004 18.2083C92.3676 17.8107 91.8107 17.3337 91.4129 16.6975C91.0151 16.0614 90.856 15.3458 90.856 14.4711C90.856 13.676 91.0151 12.9603 91.4129 12.3242C91.8107 11.6881 92.288 11.211 93.004 10.8134C93.6405 10.4159 94.4361 10.2568 95.2317 10.2568C96.1068 10.2568 96.8229 10.4159 97.5389 10.8134C98.1754 11.211 98.7323 11.6881 99.1301 12.3242C99.5279 12.9603 99.687 13.676 99.687 14.4711C99.687 15.2663 99.5279 15.9819 99.1301 16.6975C98.7323 17.3337 98.2549 17.8107 97.5389 18.2083C96.9024 18.6059 96.1068 18.7649 95.2317 18.7649C94.4361 18.7649 93.7201 18.6059 93.004 18.2083ZM97.0615 16.3795C97.5389 15.9024 97.7776 15.2663 97.7776 14.4711C97.7776 13.676 97.5389 13.0399 97.0615 12.5628C96.5842 12.0857 96.0273 11.8471 95.3112 11.8471C94.5952 11.8471 94.0383 12.0857 93.561 12.5628C93.0836 13.0399 92.8449 13.676 92.8449 14.4711C92.8449 15.2663 93.0836 15.9024 93.561 16.3795C94.0383 16.8566 94.5952 17.0951 95.3112 17.0951C96.0273 17.0951 96.5842 16.8566 97.0615 16.3795Z" fill="white"/>
<path d="M101.596 10.416H103.506V13.7556H107.643V10.416H109.552V18.6856H107.643V15.4254H103.506V18.6856H101.596V10.416Z" fill="white"/>
<path d="M120.452 10.4159V17.4132C120.452 20.3553 118.94 21.7866 115.997 21.7866C115.201 21.7866 114.485 21.707 113.769 21.4685C113.053 21.23 112.496 20.9914 112.019 20.5938L112.894 19.1626C113.292 19.4806 113.689 19.7192 114.246 19.8782C114.803 20.0372 115.36 20.1167 115.917 20.1167C116.792 20.1167 117.508 19.8782 117.906 19.4806C118.304 19.0831 118.542 18.4469 118.542 17.5723V17.1747C118.224 17.5723 117.826 17.8108 117.349 17.9698C116.872 18.1289 116.315 18.2879 115.758 18.2879C114.962 18.2879 114.246 18.1289 113.61 17.8108C112.973 17.4928 112.496 17.0157 112.098 16.3796C111.7 15.7434 111.541 15.1073 111.541 14.3122C111.541 13.517 111.7 12.8014 112.098 12.2448C112.496 11.6087 112.973 11.2111 113.61 10.8135C114.246 10.4955 114.962 10.3364 115.758 10.3364C116.394 10.3364 116.872 10.4159 117.429 10.6545C117.906 10.8135 118.304 11.1316 118.622 11.5291V10.4159H120.452ZM117.826 15.982C118.304 15.5049 118.542 14.9483 118.542 14.2327C118.542 13.517 118.304 12.9604 117.826 12.5628C117.349 12.1653 116.792 11.9267 115.997 11.9267C115.281 11.9267 114.644 12.1653 114.167 12.5628C113.689 12.9604 113.451 13.5965 113.451 14.2327C113.451 14.9483 113.689 15.5049 114.167 15.982C114.644 16.4591 115.281 16.6181 115.997 16.6181C116.713 16.6181 117.349 16.4591 117.826 15.982Z" fill="white"/>
<path d="M79.32 34.6679C78.4448 34.1908 77.7288 33.5547 77.2514 32.68C76.7741 31.8054 76.5354 30.8512 76.5354 29.8175C76.5354 28.7838 76.7741 27.8296 77.331 26.955C77.8083 26.0803 78.5244 25.4442 79.3995 24.9671C80.2747 24.49 81.3089 24.2515 82.3432 24.2515C83.2183 24.2515 84.0139 24.4105 84.8095 24.7286C85.5255 25.0466 86.162 25.5237 86.6394 26.0803L85.3664 27.273C84.5708 26.3984 83.6161 26.0008 82.5023 26.0008C81.7863 26.0008 81.0702 26.1598 80.5133 26.4779C79.9564 26.7959 79.4791 27.273 79.1608 27.8296C78.8426 28.3862 78.6835 29.1019 78.6835 29.8175C78.6835 30.5331 78.8426 31.1693 79.1608 31.8054C79.4791 32.362 79.9564 32.8391 80.5133 33.1571C81.0702 33.4752 81.7863 33.6342 82.5023 33.6342C83.6161 33.6342 84.6504 33.2366 85.3664 32.362L86.6394 33.6342C86.162 34.1908 85.5255 34.6679 84.8095 34.986C84.0935 35.304 83.2183 35.4631 82.3432 35.4631C81.2294 35.3835 80.1951 35.145 79.32 34.6679Z" fill="white"/>
<path d="M93.9587 35.3042L91.8106 32.4417L89.6625 35.3042H87.5144L90.7763 31.0899L87.6735 27.0347H89.8216L91.8901 29.7382L93.9587 27.0347H96.0272L92.9244 31.0899L96.1863 35.3042H93.9587Z" fill="white"/>
<path d="M97.6185 25.2853C97.3798 25.0468 97.3003 24.8082 97.3003 24.4902C97.3003 24.1721 97.3798 23.854 97.6185 23.695C97.8572 23.4565 98.1754 23.377 98.4937 23.377C98.8119 23.377 99.1301 23.4565 99.3688 23.695C99.6075 23.9336 99.687 24.1721 99.687 24.4902C99.687 24.8082 99.6075 25.1263 99.3688 25.3648C99.1301 25.6034 98.8119 25.6829 98.4937 25.6829C98.1754 25.6034 97.8572 25.5239 97.6185 25.2853ZM97.539 26.9551H99.4484V35.2247H97.539V26.9551Z" fill="white"/>
<path d="M110.189 26.955V33.9523C110.189 36.8944 108.677 38.3256 105.733 38.3256C104.938 38.3256 104.222 38.2461 103.506 38.0076C102.79 37.769 102.233 37.5305 101.755 37.1329L102.631 35.7016C103.028 36.0197 103.426 36.2582 103.983 36.4173C104.54 36.5763 105.097 36.6558 105.654 36.6558C106.529 36.6558 107.245 36.4173 107.643 36.0197C108.041 35.6221 108.279 34.986 108.279 34.1113V33.7138C107.961 34.1113 107.563 34.3499 107.086 34.5089C106.609 34.6679 106.052 34.827 105.495 34.827C104.699 34.827 103.983 34.6679 103.347 34.3499C102.71 34.0318 102.233 33.5547 101.835 32.9186C101.437 32.2825 101.278 31.6464 101.278 30.8512C101.278 30.0561 101.437 29.3404 101.835 28.7838C102.233 28.1477 102.71 27.7502 103.347 27.3526C103.983 27.0345 104.699 26.8755 105.495 26.8755C106.131 26.8755 106.609 26.955 107.165 27.1935C107.643 27.3526 108.041 27.6706 108.359 28.0682V26.955H110.189ZM107.563 32.6006C108.041 32.1235 108.279 31.5669 108.279 30.8512C108.279 30.1356 108.041 29.579 107.563 29.1814C107.086 28.7838 106.529 28.5453 105.733 28.5453C105.017 28.5453 104.381 28.7838 103.904 29.1814C103.426 29.579 103.187 30.2151 103.187 30.8512C103.187 31.5669 103.426 32.1235 103.904 32.6006C104.381 33.0776 105.017 33.2367 105.733 33.2367C106.529 33.2367 107.086 32.9981 107.563 32.6006Z" fill="white"/>
<path d="M112.416 26.9551H114.326V30.2947H118.463V26.9551H120.372V35.2246H118.463V31.9645H114.326V35.2246H112.416V26.9551Z" fill="white"/>
<path d="M131.113 26.9554V35.225H129.283V34.1913C128.964 34.5888 128.567 34.9069 128.089 35.0659C127.612 35.225 127.135 35.384 126.498 35.384C125.703 35.384 124.986 35.225 124.35 34.8274C123.714 34.5093 123.236 33.9527 122.838 33.3166C122.52 32.6805 122.281 31.9648 122.281 31.0902C122.281 30.2155 122.441 29.4999 122.838 28.8638C123.157 28.2277 123.714 27.7506 124.35 27.353C124.986 27.0349 125.703 26.7964 126.498 26.7964C127.055 26.7964 127.532 26.8759 128.01 27.1144C128.487 27.2735 128.885 27.5915 129.203 27.9096V26.8759H131.113V26.9554ZM128.487 32.9985C128.964 32.5215 129.203 31.8853 129.203 31.0902C129.203 30.295 128.964 29.6589 128.487 29.1818C128.01 28.7047 127.453 28.4662 126.737 28.4662C126.021 28.4662 125.464 28.7047 124.986 29.1818C124.509 29.6589 124.27 30.295 124.27 31.0902C124.27 31.8853 124.509 32.5215 124.986 32.9985C125.464 33.4756 126.021 33.7142 126.737 33.7142C127.453 33.7142 128.01 33.4756 128.487 32.9985Z" fill="white"/>
<path d="M79.2404 51.2866C78.3653 50.8095 77.7288 50.1734 77.2514 49.2987C76.7741 48.424 76.5354 47.4698 76.5354 46.4362C76.5354 45.4025 76.7741 44.4483 77.2514 43.5736C77.7288 42.699 78.3653 42.0628 79.2404 41.5857C80.1155 41.1087 80.9907 40.8701 82.1045 40.8701C83.0592 40.8701 83.8548 41.0291 84.5708 41.3472C85.2869 41.6653 85.9233 42.1424 86.4007 42.699L85.1277 43.9712C84.3321 43.0965 83.2979 42.699 82.1045 42.699C81.1498 42.699 80.3542 43.017 79.7177 43.5736C79.0813 44.1302 78.6835 44.9254 78.5244 45.8H83.3774V47.3903H78.5244C78.6835 48.265 79.0813 48.9806 79.7177 49.5372C80.3542 50.0938 81.1498 50.3324 82.0249 50.3324C83.2183 50.3324 84.2526 49.9348 85.0482 49.0601L86.3211 50.3324C85.8438 50.889 85.2073 51.3661 84.4913 51.6841C83.7752 52.0022 82.9001 52.1612 82.0249 52.1612C80.9907 52.0022 80.036 51.7636 79.2404 51.2866Z" fill="white"/>
<path d="M95.6294 49.5373C95.6294 50.253 95.3111 50.8891 94.7542 51.2867C94.1973 51.6842 93.4017 51.9228 92.2879 51.9228H88.0713V43.5737H92.1288C93.1631 43.5737 93.9586 43.7328 94.5156 44.1303C95.0725 44.5279 95.3907 45.005 95.3907 45.7206C95.3907 46.1182 95.3111 46.5158 95.0725 46.8338C94.8338 47.1519 94.5156 47.3904 94.1178 47.5495C95.152 47.8675 95.6294 48.5037 95.6294 49.5373ZM89.9807 47.0724H92.0492C93.0835 47.0724 93.5608 46.7543 93.5608 46.0387C93.5608 45.4026 93.0835 45.005 92.0492 45.005H89.9807V47.0724ZM93.7995 49.4578C93.7995 49.0603 93.6404 48.8217 93.4017 48.6627C93.1631 48.5037 92.7653 48.4241 92.2083 48.4241H89.9011V50.571H92.1288C93.2426 50.4915 93.7995 50.094 93.7995 49.4578Z" fill="white"/>
<path d="M104.461 44.0507C105.097 44.3688 105.574 44.9254 105.972 45.5615C106.37 46.1976 106.529 46.9133 106.529 47.7879C106.529 48.6626 106.37 49.3782 105.972 50.0144C105.574 50.6505 105.097 51.1276 104.461 51.5251C103.824 51.8432 103.108 52.0817 102.312 52.0817C101.199 52.0817 100.323 51.6842 99.687 50.9685V54.9443H97.7776V43.5737H99.6074V44.6869C99.9257 44.2893 100.323 43.9712 100.801 43.8122C101.278 43.6532 101.756 43.4941 102.392 43.4941C103.108 43.4941 103.824 43.6532 104.461 44.0507ZM103.824 49.6168C104.301 49.1397 104.54 48.5036 104.54 47.7084C104.54 46.9133 104.301 46.2772 103.824 45.8001C103.347 45.323 102.79 45.0844 102.074 45.0844C101.596 45.0844 101.199 45.164 100.801 45.4025C100.403 45.641 100.164 45.8796 99.9257 46.2772C99.687 46.6747 99.6074 47.1518 99.6074 47.6289C99.6074 48.106 99.687 48.5831 99.9257 48.9807C100.164 49.3782 100.403 49.6963 100.801 49.8553C101.199 50.0939 101.596 50.1734 102.074 50.1734C102.79 50.3324 103.347 50.0939 103.824 49.6168Z" fill="white"/>
<path d="M109.871 51.4456C109.234 51.048 108.677 50.571 108.279 49.9348C107.882 49.2987 107.722 48.5831 107.722 47.7084C107.722 46.9133 107.882 46.1976 108.279 45.5615C108.677 44.9254 109.154 44.4483 109.871 44.0507C110.507 43.6532 111.303 43.4941 112.098 43.4941C112.973 43.4941 113.689 43.6532 114.405 44.0507C115.042 44.4483 115.599 44.9254 115.997 45.5615C116.394 46.1976 116.553 46.9133 116.553 47.7084C116.553 48.5036 116.394 49.2192 115.997 49.9348C115.599 50.571 115.121 51.048 114.405 51.4456C113.769 51.8432 112.973 52.0022 112.098 52.0022C111.223 52.0022 110.507 51.7637 109.871 51.4456ZM113.848 49.6168C114.326 49.1397 114.564 48.5036 114.564 47.7084C114.564 46.9133 114.326 46.2772 113.848 45.8001C113.371 45.323 112.814 45.0844 112.098 45.0844C111.382 45.0844 110.825 45.323 110.348 45.8001C109.87 46.2772 109.632 46.9133 109.632 47.7084C109.632 48.5036 109.87 49.1397 110.348 49.6168C110.825 50.0939 111.382 50.3324 112.098 50.3324C112.814 50.3324 113.371 50.0939 113.848 49.6168Z" fill="white"/>
<path d="M126.339 43.5737V51.8433H124.43V45.2435H120.372V51.8433H118.463V43.5737H126.339Z" fill="white"/>
<path d="M137 43.5736V51.8431H135.17V50.8094C134.852 51.207 134.454 51.5251 133.977 51.6841C133.499 51.8431 133.022 52.0022 132.386 52.0022C131.59 52.0022 130.874 51.8431 130.237 51.4455C129.601 51.1275 129.124 50.5709 128.726 49.9348C128.408 49.2986 128.169 48.583 128.169 47.7084C128.169 46.8337 128.328 46.1181 128.726 45.4819C129.044 44.8458 129.601 44.3687 130.237 43.9712C130.874 43.6531 131.59 43.4146 132.386 43.4146C132.942 43.4146 133.42 43.4941 133.897 43.7326C134.375 43.8916 134.772 44.2097 135.091 44.5278V43.4941H137V43.5736ZM134.454 49.6167C134.931 49.1396 135.17 48.5035 135.17 47.7084C135.17 46.9132 134.931 46.2771 134.454 45.8C133.977 45.3229 133.42 45.0844 132.704 45.0844C131.988 45.0844 131.431 45.3229 130.954 45.8C130.476 46.2771 130.237 46.9132 130.237 47.7084C130.237 48.5035 130.476 49.1396 130.954 49.6167C131.431 50.0938 131.988 50.3323 132.704 50.3323C133.34 50.3323 133.977 50.0938 134.454 49.6167Z" fill="white"/>
<path d="M45.6667 41.7453C41.7683 47.0728 35.4832 50.2534 28.8798 50.2534C18.8554 50.2534 10.5017 43.1766 8.51278 33.7938L7.87631 28.4663H6.28513C6.28513 28.4663 0.477352 34.2709 0.397793 34.2709L0.318235 34.3504C0.238676 34.4299 0.159117 34.589 0.0795587 34.748V34.8275C0.0795587 34.9865 0 35.1456 0 35.3046C0 35.5431 0 35.7022 0 35.9407V36.0202C0.0795587 36.4973 0.159117 36.8154 0.238676 37.2129C0.318235 37.531 0.477352 37.9286 0.556911 38.2466C0.556911 38.4057 0.636469 38.4852 0.716028 38.6442C0.954704 39.2803 1.19338 39.996 1.43206 40.6321C1.59117 41.0297 1.75029 41.4272 1.90941 41.7453C1.98897 41.9838 2.14808 42.2224 2.22764 42.4609C3.02323 43.9717 3.89837 45.403 4.85308 46.7547C8.19454 51.3666 12.8089 54.9447 18.2189 57.0121C18.2985 57.0121 18.2985 57.0916 18.378 57.0916C18.8554 57.2507 19.4123 57.4892 19.8897 57.6483C20.0488 57.7278 20.1283 57.7278 20.2875 57.7278C21.0035 57.9663 21.7195 58.1253 22.4355 58.2844C22.8333 58.3639 23.2311 58.4434 23.6289 58.5229C23.9472 58.6024 24.1858 58.6024 24.5041 58.6819C24.9814 58.7615 25.4588 58.841 25.8566 58.841C26.0952 58.841 26.3339 58.9205 26.5726 58.9205C27.2886 59 28.0046 59 28.7207 59C38.1086 59 47.0192 54.4677 52.5883 46.9137L45.6667 41.7453Z" fill="white"/>
<path d="M58.2369 22.9798C58.2369 22.9003 58.2369 22.8208 58.2369 22.8208C58.1574 22.5027 58.1574 22.1846 57.9982 21.8666C57.9982 21.7871 57.9187 21.7075 57.9187 21.628C57.8391 21.3895 57.7596 21.1509 57.68 20.8329C57.68 20.7534 57.6005 20.5943 57.6005 20.5148C57.3618 19.8787 57.1231 19.1631 56.8844 18.527C56.7253 18.1294 56.5662 17.7318 56.4071 17.4137C56.3275 17.1752 56.1684 16.9367 56.0888 16.6981C53.7021 11.9272 50.2015 8.031 45.9053 5.08895C45.7462 5.00943 45.6667 4.92992 45.5075 4.8504C45.1097 4.53234 44.6324 4.2938 44.155 4.05526C43.8368 3.89623 43.5186 3.7372 43.2003 3.49865C42.8025 3.33962 42.4843 3.10108 42.0865 2.94205C41.3705 2.62399 40.6545 2.22642 39.8589 1.98787C39.7793 1.98787 39.7793 1.90836 39.6998 1.90836C39.2224 1.74933 38.745 1.51078 38.1881 1.35175C38.029 1.27224 37.9495 1.27224 37.7903 1.27224C37.0743 1.03369 36.3583 0.874663 35.6423 0.715633C35.2445 0.636119 34.8467 0.556604 34.4489 0.477089C34.1306 0.397574 33.892 0.397574 33.5737 0.318059C33.0964 0.238544 32.619 0.15903 32.2212 0.15903C31.9826 0.15903 31.7439 0.0795148 31.5052 0.0795148C30.8687 0 30.1527 0 29.4367 0C20.0488 0 11.1382 4.53234 5.56909 12.0863L12.6498 17.2547C16.5482 11.9272 22.8333 8.74663 29.4367 8.74663C39.4611 8.74663 47.8147 15.8235 49.8037 25.2062L50.1219 28.5458H54.0999C54.0999 28.5458 57.68 24.8086 57.7596 24.7291L57.8391 24.6496C57.9187 24.5701 57.9982 24.4111 58.0778 24.252V24.1725C58.1574 24.0135 58.1574 23.934 58.1574 23.7749C58.2369 23.4569 58.2369 23.2978 58.2369 22.9798C58.2369 23.0593 58.2369 23.0593 58.2369 22.9798Z" fill="white"/>
<path d="M0 35.1457V35.2252C0 35.0662 0.0795586 34.9072 0.0795586 34.8276C0.0795586 34.9867 0 35.0662 0 35.1457Z" fill="white"/>
<path d="M58.237 23.8544V23.7749C58.237 23.9339 58.1575 24.093 58.1575 24.1725C58.1575 24.0134 58.237 23.9339 58.237 23.8544Z" fill="white"/>
<path d="M0.318359 34.4301L0.397918 34.3506C0.397918 34.3506 0.397918 34.4301 0.318359 34.4301Z" fill="white"/>
<path d="M0.636475 34.1117C0.636475 34.1117 0.716033 34.0322 0.795592 34.0322C0.716033 34.0322 0.636475 34.1117 0.636475 34.1117Z" fill="white"/>
<path d="M0.556885 34.0322C0.716002 33.8732 0.795561 33.6346 0.954678 33.4756C0.795561 33.6346 0.716002 33.8732 0.556885 34.0322Z" fill="white"/>
<path d="M9.70605 25.206C10.0243 25.206 10.4221 25.1265 10.979 25.1265C10.4221 25.206 10.0243 25.206 9.70605 25.206Z" fill="white"/>
<path d="M57.6005 24.8882C57.6005 24.8882 57.521 24.9677 57.4414 24.9677C57.521 24.8882 57.6005 24.8882 57.6005 24.8882Z" fill="white"/>
<path d="M57.9187 24.5703L57.8391 24.6498L57.9187 24.5703Z" fill="white"/>
<path d="M57.2026 25.0474C57.123 25.0474 57.123 25.0474 57.0435 25.1269C57.123 25.1269 57.123 25.1269 57.2026 25.0474Z" fill="white"/>
<path d="M4.93256 46.7547C3.97786 45.3234 3.02316 43.8921 2.30713 42.3813C5.56903 49.0606 11.2973 54.3881 18.2984 57.0121C12.8884 54.9447 8.27403 51.3665 4.93256 46.7547Z" fill="white"/>
<path d="M8.43317 33.7937H1.75024H8.43317C8.43317 33.7937 46.5418 33.7937 47.3374 33.7937C48.2921 33.7937 48.9285 33.7142 49.4854 33.5552C49.0081 33.7142 48.2921 33.7937 47.3374 33.7937C46.5418 33.7937 8.43317 33.7937 8.43317 33.7937Z" fill="white"/>
<path d="M50.122 33.2373C49.8834 33.3963 49.6447 33.5554 49.406 33.6349C49.7242 33.4758 49.9629 33.3963 50.122 33.2373Z" fill="white"/>
<path d="M24.5836 58.682C24.2654 58.6025 24.0267 58.6025 23.7085 58.5229C23.9472 58.6025 24.2654 58.6025 24.5836 58.682Z" fill="white"/>
<path d="M26.6521 58.9203C26.4134 58.9203 26.1747 58.8408 25.936 58.8408C26.1747 58.8408 26.4134 58.9203 26.6521 58.9203Z" fill="white"/>
<path d="M1.03418 33.9531C1.11374 33.9531 1.11374 33.9531 1.1933 33.8735C1.11374 33.8735 1.11374 33.8735 1.03418 33.9531Z" fill="white"/>
<path d="M57.9186 24.57C57.8391 24.6495 57.8391 24.8086 57.7595 24.8881C57.9186 24.6495 57.9982 24.411 58.1573 24.252C58.0778 24.3315 57.9982 24.4905 57.9186 24.57Z" fill="white"/>
<path d="M57.68 24.9678C57.5209 25.1268 57.4413 25.3653 57.2822 25.5244C57.4413 25.3653 57.5209 25.1268 57.68 24.9678Z" fill="white"/>
<path d="M50.4403 32.9189C50.3607 32.9985 50.2016 33.078 50.1221 33.1575C50.2812 33.1575 50.3607 32.9985 50.4403 32.9189Z" fill="white"/>
<path d="M1.90948 41.6659C1.75036 41.2684 1.59125 40.9503 1.43213 40.5527C1.59125 40.9503 1.75036 41.2684 1.90948 41.6659Z" fill="white"/>
<path d="M0.716033 38.5646C0.716033 38.4851 0.636475 38.3261 0.636475 38.2466C0.636475 38.3261 0.636475 38.4056 0.716033 38.5646Z" fill="white"/>
<path d="M19.9691 57.6484C19.4918 57.4894 18.9349 57.3303 18.4575 57.0918C18.9349 57.2508 19.4918 57.4894 19.9691 57.6484Z" fill="white"/>
<path d="M22.515 58.2841C21.799 58.1251 21.083 57.9661 20.3669 57.7275C21.083 57.9661 21.799 58.1251 22.515 58.2841Z" fill="white"/>
<path d="M0.15918 34.8274C0.238738 34.6684 0.318297 34.5889 0.397856 34.4299C0.477414 34.3504 0.477414 34.1913 0.556973 34.1118C0.318297 34.3504 0.238738 34.5889 0.15918 34.8274Z" fill="white"/>
<path d="M0 35.9409C0 36.3385 0.159117 36.7361 0.238676 37.2132C0.159117 36.8156 0.0795587 36.418 0 35.9409Z" fill="white"/>
<path opacity="0.32" d="M58.1574 24.0928C58.1574 24.1723 58.0779 24.1723 58.1574 24.0928C58.0779 24.1723 58.1574 24.1723 58.1574 24.0928Z" fill="white"/>
<path d="M58.0778 24.1724C57.9983 24.3314 57.9187 24.4109 57.9187 24.5699C57.9983 24.4904 58.0778 24.3314 58.0778 24.1724Z" fill="white"/>
<path opacity="0.32" d="M58.0778 24.1724C57.9983 24.3314 57.9187 24.4109 57.9187 24.5699C57.9983 24.4904 58.0778 24.3314 58.0778 24.1724Z" fill="white"/>
<path opacity="0.32" d="M18.4577 57.0917C18.3781 57.0917 18.3781 57.0122 18.2986 57.0122C18.3781 57.0917 18.4577 57.0917 18.4577 57.0917Z" fill="white"/>
<path opacity="0.32" d="M23.7085 58.5227C23.3107 58.4432 22.9129 58.3637 22.5151 58.2842C22.9129 58.3637 23.3107 58.4432 23.7085 58.5227Z" fill="white"/>
<path opacity="0.32" d="M20.367 57.728C20.2079 57.6484 20.1284 57.6484 19.9692 57.6484C20.1284 57.6484 20.2875 57.728 20.367 57.728Z" fill="white"/>
<path opacity="0.32" d="M0.318328 37.4514C0.397887 37.69 0.477445 37.9285 0.557004 38.2466C0.477445 37.9285 0.318328 37.531 0.23877 37.2129C0.318328 37.2924 0.318328 37.3719 0.318328 37.4514Z" fill="white"/>
<path opacity="0.32" d="M2.30725 42.3816C2.14813 42.1431 2.06857 41.9046 1.98901 41.666C2.06857 41.9046 2.14813 42.1431 2.30725 42.3816Z" fill="white"/>
<path opacity="0.32" d="M25.9362 58.8412C25.4589 58.7616 24.9815 58.7616 24.5837 58.6821C24.9815 58.7616 25.4589 58.7616 25.9362 58.8412Z" fill="white"/>
<path opacity="0.32" d="M28.8002 58.9999C28.0842 58.9999 27.3681 58.9999 26.6521 58.9204C27.3681 58.9204 28.0842 58.9999 28.8002 58.9999Z" fill="white"/>
<path opacity="0.32" d="M1.43209 40.5523C1.19342 39.9162 0.95474 39.2801 0.716064 38.5645C0.95474 39.2006 1.19342 39.9162 1.43209 40.5523Z" fill="white"/>
<path opacity="0.32" d="M28.8001 50.2535C18.7757 50.2535 10.4221 43.1767 8.43311 33.7939C10.5016 43.1767 18.8553 50.2535 28.8001 50.2535Z" fill="white"/>
<path d="M0.318266 34.4297C0.238707 34.5092 0.159149 34.6682 0.0795898 34.8273C0.159149 34.6682 0.238707 34.5092 0.318266 34.4297Z" fill="white"/>
<path opacity="0.32" d="M0.318266 34.4297C0.238707 34.5092 0.159149 34.6682 0.0795898 34.8273C0.159149 34.6682 0.238707 34.5092 0.318266 34.4297Z" fill="white"/>
<path d="M57.7595 24.8882C57.7595 24.8882 57.7595 24.9677 57.6799 24.9677C57.6799 24.9677 57.6799 24.8882 57.7595 24.8882Z" fill="white"/>
<path d="M50.838 32.6012C50.7585 32.7603 50.5993 32.8398 50.5198 32.9193C50.5993 32.8398 50.6789 32.6808 50.838 32.6012L57.3618 25.5244L50.838 32.6012Z" fill="white"/>
<path d="M8.11499 25.7627C8.43322 25.5242 8.75146 25.3652 9.22881 25.2856C8.75146 25.3652 8.43322 25.5242 8.11499 25.7627Z" fill="white"/>
<path d="M0.477295 34.1117C0.477295 34.1117 0.477295 34.0322 0.556854 34.0322C0.556854 34.0322 0.556854 34.1117 0.477295 34.1117Z" fill="white"/>
<path d="M7.39905 26.3988C7.63773 26.1603 7.87641 25.9217 8.03552 25.7627C7.87641 25.9217 7.63773 26.1603 7.39905 26.3988L0.875244 33.4756L7.39905 26.3988Z" fill="white"/>
<path d="M57.9188 24.5703L57.8392 24.6498C57.7597 24.7293 57.6801 24.8089 57.6006 24.8884C57.6006 24.8884 57.521 24.9679 57.4414 24.9679C57.3619 25.0474 57.2823 25.0474 57.1232 25.1269C57.0436 25.1269 57.0436 25.1269 56.9641 25.2064C56.805 25.2859 56.6459 25.2859 56.4072 25.2859H49.7243C49.7243 25.2859 38.9838 25.2859 28.8003 25.2859C19.8102 25.2859 11.2179 25.2859 10.8996 25.2859C10.4223 25.2859 10.0245 25.2859 9.62669 25.3655C9.46757 25.3655 9.30846 25.3655 9.14934 25.445C8.67199 25.5245 8.35375 25.6835 8.03552 25.9221C7.79684 26.0811 7.63772 26.3196 7.39905 26.5582L0.875239 33.635C0.79568 33.794 0.636563 33.9531 0.477445 34.1916C0.477445 34.1916 0.477445 34.2711 0.397887 34.2711C0.318328 34.3506 0.318328 34.5097 0.23877 34.5892L0.318328 34.5097C0.397887 34.4302 0.477445 34.3506 0.557004 34.2711C0.557004 34.2711 0.636563 34.1916 0.716121 34.1916C0.79568 34.1121 0.875239 34.1121 1.03436 34.0326C1.11391 34.0326 1.11391 34.0326 1.19347 33.9531C1.35259 33.8735 1.51171 33.8735 1.75038 33.8735H8.43331C8.43331 33.8735 46.5419 33.8735 47.3375 33.8735C48.2922 33.8735 48.9287 33.794 49.4856 33.635C49.7243 33.5555 49.9629 33.3965 50.2016 33.2374C50.2812 33.1579 50.4403 33.0784 50.5198 32.9989C50.5994 32.9194 50.7585 32.7603 50.8381 32.6808L57.3619 25.604C57.4414 25.445 57.6006 25.2859 57.7597 25.0474C57.7597 25.0474 57.7597 24.9679 57.8392 24.9679C57.8392 24.8089 57.8392 24.6498 57.9188 24.5703Z" fill="white"/>
<path d="M57.5209 24.9678C57.4413 25.0473 57.3618 25.0473 57.2026 25.1268C57.2822 25.0473 57.3618 24.9678 57.5209 24.9678Z" fill="white"/>
<path d="M57.8393 24.6494C57.7597 24.7289 57.6801 24.8084 57.6006 24.888C57.6801 24.8084 57.7597 24.7289 57.8393 24.6494Z" fill="white"/>
<path opacity="0.32" d="M57.8393 24.6494C57.7597 24.7289 57.6801 24.8084 57.6006 24.888C57.6801 24.8084 57.7597 24.7289 57.8393 24.6494Z" fill="white"/>
<path d="M57.8393 24.6494C57.7597 24.7289 57.6801 24.8084 57.6006 24.888C57.6801 24.8084 57.7597 24.7289 57.8393 24.6494Z" fill="white"/>
<path d="M57.0435 25.1265C56.8844 25.206 56.7252 25.206 56.4866 25.206C56.7252 25.206 56.8844 25.206 57.0435 25.1265Z" fill="white"/>
<path d="M57.9187 24.5699C57.9983 24.4109 58.0778 24.3314 58.0778 24.1724C58.0778 24.3314 57.9983 24.4904 57.9187 24.5699Z" fill="white"/>
<path opacity="0.32" d="M57.9187 24.5699C57.9983 24.4109 58.0778 24.3314 58.0778 24.1724C58.0778 24.3314 57.9983 24.4904 57.9187 24.5699Z" fill="white"/>
<path d="M57.9187 24.5699C57.9983 24.4109 58.0778 24.3314 58.0778 24.1724C58.0778 24.3314 57.9983 24.4904 57.9187 24.5699Z" fill="white"/>
<path d="M0.397705 34.3504C0.477264 34.2708 0.556822 34.1913 0.636381 34.1118C0.556822 34.1913 0.477264 34.2708 0.397705 34.3504Z" fill="white"/>
<path d="M1.19336 33.8735C1.35248 33.7939 1.51159 33.7939 1.75027 33.7939C1.51159 33.7939 1.35248 33.7939 1.19336 33.8735Z" fill="white"/>
<path d="M0.15918 34.8273C0.238738 34.6682 0.318297 34.5887 0.397856 34.4297C0.238738 34.5092 0.15918 34.6682 0.15918 34.8273Z" fill="white"/>
<path opacity="0.32" d="M0.15918 34.8273C0.238738 34.6682 0.318297 34.5887 0.397856 34.4297C0.238738 34.5092 0.15918 34.6682 0.15918 34.8273Z" fill="white"/>
<path d="M0.15918 34.8273C0.238738 34.6682 0.318297 34.5887 0.397856 34.4297C0.238738 34.5092 0.15918 34.6682 0.15918 34.8273Z" fill="white"/>
</svg>
