<?xml version="1.0" encoding="utf-8"?>
<!-- Generator: Adobe Illustrator 23.1.0, SVG Export Plug-In . SVG Version: 6.00 Build 0)  -->
<svg version="1.1" id="Layer_1" xmlns="http://www.w3.org/2000/svg" xmlns:xlink="http://www.w3.org/1999/xlink" x="0px" y="0px"
	 viewBox="0 0 158.5 72.5" enable-background="new 0 0 158.5 72.5" xml:space="preserve">
<g>
	<g>
		<path fill="#fff" d="M21.3,1.7c0,0-4-1.7-10.6-1.7h0C4,0,0,1.7,0,1.7s-0.4,7.7,1.2,12c2.7,7.7,9.5,9.8,9.5,9.8h0h0
			c0,0,6.8-2.1,9.5-9.8C21.6,9.4,21.3,1.7,21.3,1.7z"/>
	</g>
	<polygon fill="#000" points="17.7,8.4 17.7,12.6 12.8,12.6 12.8,17.6 8.5,17.6 8.5,12.6 3.6,12.6 3.6,8.4 8.5,8.4 8.5,3.4 
		12.8,3.4 12.8,8.4 	"/>
</g>
<g fill="#fff">
	<path d="M29.9,6.6c0.3,0.2,0.7,0.3,1.2,0.3c0.6,0,1.2-0.3,1.2-1.1c0-1-2.4-1.2-2.4-2.5c0-0.8,0.7-1.4,1.7-1.4c0.3,0,0.7,0,1,0.2
		l-0.1,0.5c-0.2-0.1-0.6-0.2-1-0.2c-0.5,0-1.1,0.2-1.1,0.9c0,1.1,2.4,1.1,2.4,2.6c0,1.1-0.9,1.5-1.7,1.5c-0.5,0-0.9-0.1-1.2-0.2
		L29.9,6.6z"/>
	<path d="M36.8,3.9c-0.3-0.1-0.6-0.2-0.8-0.2c-0.9,0-1.4,0.7-1.4,1.6c0,0.9,0.5,1.6,1.4,1.6c0.3,0,0.6-0.1,0.9-0.2l0,0.4
		c-0.3,0.1-0.6,0.1-1,0.1c-1.2,0-1.8-0.9-1.8-2c0-1.2,0.8-2,1.9-2c0.5,0,0.8,0.1,0.9,0.2L36.8,3.9z"/>
	<path d="M38.3,1.6h0.5v2.4h0c0.2-0.4,0.6-0.7,1.2-0.7c1,0,1.3,0.7,1.3,1.6v2.3h-0.5V5c0-0.7-0.1-1.2-0.9-1.2
		c-0.8,0-1.1,0.8-1.1,1.5v2h-0.5V1.6z"/>
	<path d="M47,7.3h-0.6l-1-3.3h0l-1,3.3h-0.6l-1.2-3.8H43l1,3.3h0l1.1-3.3h0.6l1,3.3h0l1.1-3.3h0.5L47,7.3z"/>
	<path d="M52,7.1c-0.3,0.1-0.8,0.2-1.1,0.2c-1.3,0-1.7-0.9-1.7-2c0-1.2,0.6-2,1.6-2c1.1,0,1.5,0.9,1.5,1.9v0.2h-2.6
		c0,0.8,0.4,1.5,1.3,1.5c0.3,0,0.8-0.1,1.1-0.3V7.1z M51.8,5.1c0-0.7-0.3-1.3-1-1.3c-0.7,0-1.1,0.7-1.1,1.3H51.8z"/>
	<path d="M54.2,2.4h-0.5V1.8h0.5V2.4z M53.8,3.4h0.5v3.8h-0.5V3.4z"/>
	<path d="M55.7,6.9l2.3-3h-2.2V3.4h2.8v0.4l-2.3,3h2.3v0.4h-2.9V6.9z"/>
	<path d="M62.5,7.1c-0.3,0.1-0.8,0.2-1.1,0.2c-1.3,0-1.7-0.9-1.7-2c0-1.2,0.6-2,1.6-2c1.1,0,1.5,0.9,1.5,1.9v0.2h-2.6
		c0,0.8,0.4,1.5,1.3,1.5c0.3,0,0.8-0.1,1.1-0.3V7.1z M62.3,5.1c0-0.7-0.3-1.3-1-1.3c-0.7,0-1.1,0.7-1.1,1.3H62.3z"/>
	<path d="M64.3,4.3c0-0.4,0-0.6,0-0.9h0.5v0.7h0c0.2-0.4,0.5-0.8,1-0.8c0.1,0,0.2,0,0.3,0v0.5c-0.1,0-0.2,0-0.3,0
		c-0.8,0-1,0.8-1,1.5v1.9h-0.5V4.3z"/>
	<path d="M67.8,2.4h-0.5V1.8h0.5V2.4z M67.4,3.4h0.5v3.8h-0.5V3.4z"/>
	<path d="M69.3,6.7c0.3,0.1,0.6,0.2,1,0.2c0.5,0,0.8-0.2,0.8-0.7c0-0.9-1.8-0.8-1.8-1.9c0-0.8,0.6-1,1.2-1c0.2,0,0.6,0,0.9,0.2
		l0,0.4c-0.2-0.1-0.6-0.2-0.8-0.2c-0.5,0-0.8,0.2-0.8,0.6c0,0.7,1.9,0.6,1.9,1.9c0,0.8-0.8,1.1-1.3,1.1c-0.4,0-0.7,0-1.1-0.2
		L69.3,6.7z"/>
	<path d="M75.6,3.9c-0.3-0.1-0.6-0.2-0.8-0.2c-0.9,0-1.4,0.7-1.4,1.6c0,0.9,0.5,1.6,1.4,1.6c0.3,0,0.6-0.1,0.9-0.2l0,0.4
		c-0.3,0.1-0.6,0.1-1,0.1c-1.2,0-1.8-0.9-1.8-2c0-1.2,0.8-2,1.9-2c0.5,0,0.8,0.1,0.9,0.2L75.6,3.9z"/>
	<path d="M77,1.6h0.5v2.4h0c0.2-0.4,0.6-0.7,1.2-0.7C79.7,3.3,80,4,80,5v2.3h-0.5V5c0-0.7-0.1-1.2-0.9-1.2c-0.8,0-1.1,0.8-1.1,1.5v2
		H77V1.6z"/>
	<path d="M84.3,7.1c-0.3,0.1-0.8,0.2-1.1,0.2c-1.3,0-1.7-0.9-1.7-2c0-1.2,0.6-2,1.6-2c1.1,0,1.5,0.9,1.5,1.9v0.2H82
		c0,0.8,0.4,1.5,1.3,1.5c0.3,0,0.8-0.1,1.1-0.3V7.1z M84.1,5.1c0-0.7-0.3-1.3-1-1.3c-0.7,0-1.1,0.7-1.1,1.3H84.1z"/>
	<path d="M88.8,2h2.6v0.5h-2v1.9h1.9v0.5h-1.9v2h2.1v0.5h-2.7V2z"/>
	<path d="M93.6,2.4h-0.5V1.8h0.5V2.4z M93.1,3.4h0.5v3.8h-0.5V3.4z"/>
	<path d="M98.4,7.3h-0.5V6.7h0c-0.3,0.5-0.6,0.7-1.2,0.7c-1.1,0-1.6-0.9-1.6-2c0-1.2,0.5-2,1.6-2c0.8,0,1.1,0.5,1.2,0.7h0V1.6h0.5
		V7.3z M96.8,6.9c0.8,0,1.1-0.9,1.1-1.6c0-0.7-0.3-1.6-1.1-1.6c-0.9,0-1.1,0.9-1.1,1.6C95.7,6.1,95.9,6.9,96.8,6.9z"/>
	<path d="M103.2,6.9c0,1.1-0.5,1.9-1.8,1.9c-0.5,0-1-0.1-1.2-0.2l0-0.5c0.3,0.2,0.7,0.3,1.1,0.3c1.2,0,1.3-0.9,1.3-2h0
		c-0.3,0.6-0.7,0.8-1.2,0.8c-1.2,0-1.6-1.1-1.6-1.9c0-1.2,0.5-2,1.6-2c0.5,0,0.8,0.1,1.2,0.5h0V3.4h0.5V6.9z M101.5,6.9
		c0.9,0,1.2-0.8,1.2-1.5c0-0.9-0.3-1.6-1.1-1.6c-0.9,0-1.1,0.9-1.1,1.6C100.4,6.1,100.7,6.9,101.5,6.9z"/>
	<path d="M107.4,7.1c-0.3,0.1-0.8,0.2-1.1,0.2c-1.3,0-1.7-0.9-1.7-2c0-1.2,0.6-2,1.6-2c1.1,0,1.5,0.9,1.5,1.9v0.2h-2.6
		c0,0.8,0.4,1.5,1.3,1.5c0.3,0,0.8-0.1,1.1-0.3V7.1z M107.2,5.1c0-0.7-0.3-1.3-1-1.3c-0.7,0-1.1,0.7-1.1,1.3H107.2z"/>
	<path d="M109.2,4.3c0-0.3,0-0.6,0-0.9h0.5v0.7h0c0.2-0.3,0.4-0.8,1.2-0.8c0.9,0,1.3,0.6,1.3,1.5v2.4h-0.5V4.9
		c0-0.7-0.3-1.2-0.9-1.2c-0.9,0-1.1,0.8-1.1,1.4v2.1h-0.5V4.3z"/>
	<path d="M115.5,3.3c1.2,0,1.8,1,1.8,2c0,1-0.5,2-1.8,2c-1.2,0-1.8-1-1.8-2C113.7,4.3,114.2,3.3,115.5,3.3z M115.5,6.9
		c0.8,0,1.3-0.7,1.3-1.6c0-0.9-0.4-1.6-1.3-1.6c-0.8,0-1.3,0.7-1.3,1.6C114.2,6.2,114.6,6.9,115.5,6.9z"/>
	<path d="M118.4,6.7c0.3,0.1,0.6,0.2,1,0.2c0.5,0,0.8-0.2,0.8-0.7c0-0.9-1.8-0.8-1.8-1.9c0-0.8,0.6-1,1.2-1c0.2,0,0.6,0,0.9,0.2
		l0,0.4c-0.2-0.1-0.6-0.2-0.8-0.2c-0.5,0-0.8,0.2-0.8,0.6c0,0.7,1.9,0.6,1.9,1.9c0,0.8-0.8,1.1-1.3,1.1c-0.4,0-0.7,0-1.1-0.2
		L118.4,6.7z"/>
	<path d="M121.9,6.7c0.3,0.1,0.6,0.2,1,0.2c0.5,0,0.8-0.2,0.8-0.7c0-0.9-1.8-0.8-1.8-1.9c0-0.8,0.6-1,1.2-1c0.2,0,0.6,0,0.9,0.2
		l0,0.4c-0.2-0.1-0.6-0.2-0.8-0.2c-0.5,0-0.8,0.2-0.8,0.6c0,0.7,1.9,0.6,1.9,1.9c0,0.8-0.8,1.1-1.3,1.1c-0.4,0-0.7,0-1.1-0.2
		L121.9,6.7z"/>
	<path d="M128.3,7.1c-0.3,0.1-0.8,0.2-1.1,0.2c-1.3,0-1.7-0.9-1.7-2c0-1.2,0.6-2,1.6-2c1.1,0,1.5,0.9,1.5,1.9v0.2H126
		c0,0.8,0.4,1.5,1.3,1.5c0.3,0,0.8-0.1,1.1-0.3V7.1z M128.1,5.1c0-0.7-0.3-1.3-1-1.3c-0.7,0-1.1,0.7-1.1,1.3H128.1z"/>
	<path d="M130.1,4.3c0-0.3,0-0.6,0-0.9h0.5v0.7h0c0.2-0.3,0.4-0.8,1.2-0.8c0.9,0,1.3,0.6,1.3,1.5v2.4h-0.5V4.9
		c0-0.7-0.3-1.2-0.9-1.2c-0.9,0-1.1,0.8-1.1,1.4v2.1h-0.5V4.3z"/>
	<path d="M134.5,6.7c0.3,0.1,0.6,0.2,1,0.2c0.5,0,0.8-0.2,0.8-0.7c0-0.9-1.8-0.8-1.8-1.9c0-0.8,0.6-1,1.2-1c0.2,0,0.6,0,0.9,0.2
		l0,0.4c-0.2-0.1-0.6-0.2-0.8-0.2c-0.5,0-0.8,0.2-0.8,0.6c0,0.7,1.9,0.6,1.9,1.9c0,0.8-0.8,1.1-1.3,1.1c-0.4,0-0.7,0-1.1-0.2
		L134.5,6.7z"/>
	<path d="M140.8,3.9c-0.3-0.1-0.6-0.2-0.8-0.2c-0.9,0-1.4,0.7-1.4,1.6c0,0.9,0.5,1.6,1.4,1.6c0.3,0,0.6-0.1,0.9-0.2l0,0.4
		c-0.3,0.1-0.6,0.1-1,0.1c-1.2,0-1.8-0.9-1.8-2c0-1.2,0.8-2,1.9-2c0.5,0,0.8,0.1,0.9,0.2L140.8,3.9z"/>
	<path d="M142.2,1.6h0.5v2.4h0c0.2-0.4,0.6-0.7,1.2-0.7c1,0,1.3,0.7,1.3,1.6v2.3h-0.5V5c0-0.7-0.1-1.2-0.9-1.2
		c-0.8,0-1.1,0.8-1.1,1.5v2h-0.5V1.6z"/>
	<path d="M149.2,6.6L149.2,6.6c-0.2,0.5-0.8,0.7-1.2,0.7c-1.1,0-1.3-0.7-1.3-1.1c0-1.3,1.4-1.3,2.4-1.3h0.1V4.7c0-0.7-0.2-1-0.9-1
		c-0.4,0-0.8,0.1-1.1,0.3V3.6c0.3-0.1,0.8-0.3,1.1-0.3c0.9,0,1.3,0.4,1.3,1.4v1.7c0,0.3,0,0.5,0,0.8h-0.5V6.6z M149.1,5.3H149
		c-0.8,0-1.8,0.1-1.8,0.9c0,0.5,0.4,0.7,0.8,0.7c1.1,0,1.1-1,1.1-1.4V5.3z"/>
	<path d="M151.7,3.8h-0.8V3.4h0.8V3.2c0-0.8,0-1.6,1-1.6c0.1,0,0.4,0,0.4,0.1l0,0.4c-0.1-0.1-0.2-0.1-0.4-0.1
		c-0.6,0-0.6,0.7-0.6,1.2v0.3h0.9v0.4h-0.9v3.4h-0.5V3.8z"/>
	<path d="M156.1,3.8h-0.9v2.5c0,0.3,0.1,0.6,0.5,0.6c0.2,0,0.3,0,0.4-0.1l0,0.4c-0.1,0-0.3,0.1-0.6,0.1c-0.8,0-0.9-0.6-0.9-1.3V3.8
		H154V3.4h0.8V2.5l0.5-0.2v1.1h0.9V3.8z"/>
	<path d="M33.7,13c-0.3-0.2-0.8-0.2-1.2-0.2c-1.4,0-2.1,1-2.1,2.3c0,1.3,0.7,2.3,2.1,2.3c0.3,0,0.9,0,1.2-0.2l0,0.5
		c-0.3,0.2-0.9,0.2-1.2,0.2c-1.7,0-2.6-1.1-2.6-2.7c0-1.6,1-2.7,2.6-2.7c0.3,0,0.9,0.1,1.2,0.2L33.7,13z"/>
	<path d="M37.1,13.7c1.2,0,1.8,1,1.8,2c0,1-0.5,2-1.8,2c-1.2,0-1.8-1-1.8-2C35.3,14.7,35.9,13.7,37.1,13.7z M37.1,17.3
		c0.8,0,1.3-0.7,1.3-1.6c0-0.9-0.4-1.6-1.3-1.6c-0.8,0-1.3,0.7-1.3,1.6C35.8,16.6,36.3,17.3,37.1,17.3z"/>
	<path d="M40.4,14.7c0-0.3,0-0.6,0-0.9h0.5v0.7h0c0.2-0.3,0.4-0.8,1.2-0.8c0.9,0,1.3,0.6,1.3,1.5v2.4h-0.5v-2.3
		c0-0.7-0.3-1.2-0.9-1.2c-0.9,0-1.1,0.8-1.1,1.4v2.1h-0.5V14.7z"/>
	<path d="M45.4,14.2h-0.8v-0.4h0.8v-0.3c0-0.8,0-1.6,1-1.6c0.2,0,0.4,0,0.4,0.1l0,0.4c-0.1-0.1-0.2-0.1-0.4-0.1
		c-0.6,0-0.6,0.7-0.6,1.2v0.3h0.9v0.4h-0.9v3.4h-0.5V14.2z"/>
	<path d="M50.8,17.5c-0.3,0.1-0.8,0.2-1.1,0.2c-1.3,0-1.7-0.9-1.7-2c0-1.2,0.6-2,1.6-2c1.1,0,1.5,0.9,1.5,1.9v0.2h-2.6
		c0,0.8,0.4,1.5,1.3,1.5c0.3,0,0.8-0.1,1.1-0.3V17.5z M50.5,15.4c0-0.7-0.3-1.3-1-1.3c-0.7,0-1.1,0.7-1.1,1.3H50.5z M49.8,12.3h0.6
		l-0.9,1.1h-0.3L49.8,12.3z"/>
	<path d="M55.6,17.6h-0.5V17h0c-0.3,0.5-0.6,0.7-1.2,0.7c-1.1,0-1.6-0.9-1.6-2c0-1.2,0.5-2,1.6-2c0.8,0,1.1,0.5,1.2,0.7h0V12h0.5
		V17.6z M54,17.3c0.8,0,1.1-0.9,1.1-1.6c0-0.7-0.3-1.6-1.1-1.6c-0.9,0-1.1,0.9-1.1,1.6C52.8,16.4,53.1,17.3,54,17.3z"/>
	<path d="M59.9,17.5c-0.3,0.1-0.8,0.2-1.1,0.2c-1.3,0-1.7-0.9-1.7-2c0-1.2,0.6-2,1.6-2c1.1,0,1.5,0.9,1.5,1.9v0.2h-2.6
		c0,0.8,0.4,1.5,1.3,1.5c0.3,0,0.8-0.1,1.1-0.3V17.5z M59.6,15.4c0-0.7-0.3-1.3-1-1.3c-0.7,0-1.1,0.7-1.1,1.3H59.6z M58.9,12.3h0.6
		l-0.9,1.1h-0.3L58.9,12.3z"/>
	<path d="M61.6,14.6c0-0.4,0-0.6,0-0.9h0.5v0.7h0c0.2-0.4,0.5-0.8,1-0.8c0.1,0,0.2,0,0.3,0v0.5c-0.1,0-0.2,0-0.3,0
		c-0.8,0-1,0.8-1,1.5v1.9h-0.5V14.6z"/>
	<path d="M66.9,17L66.9,17c-0.2,0.5-0.8,0.7-1.2,0.7c-1.1,0-1.3-0.7-1.3-1.1c0-1.3,1.4-1.3,2.4-1.3h0.1v-0.2c0-0.7-0.2-1-0.9-1
		c-0.4,0-0.8,0.1-1.1,0.3V14c0.3-0.1,0.8-0.3,1.1-0.3c0.9,0,1.3,0.4,1.3,1.4v1.7c0,0.3,0,0.5,0,0.8h-0.5V17z M66.9,15.7h-0.1
		c-0.8,0-1.8,0.1-1.8,0.9c0,0.5,0.4,0.7,0.8,0.7c1.1,0,1.1-1,1.1-1.4V15.7z"/>
	<path d="M70.7,14.2h-0.9v2.5c0,0.3,0.1,0.6,0.5,0.6c0.2,0,0.3,0,0.4-0.1l0,0.4c-0.1,0-0.3,0.1-0.6,0.1c-0.8,0-0.9-0.6-0.9-1.3v-2.2
		h-0.8v-0.4h0.8v-0.9l0.5-0.2v1.1h0.9V14.2z"/>
	<path d="M72.6,12.8h-0.5v-0.6h0.5V12.8z M72.1,13.8h0.5v3.8h-0.5V13.8z"/>
	<path d="M75.9,13.7c1.2,0,1.8,1,1.8,2c0,1-0.5,2-1.8,2c-1.2,0-1.8-1-1.8-2C74.1,14.7,74.6,13.7,75.9,13.7z M75.9,17.3
		c0.8,0,1.3-0.7,1.3-1.6c0-0.9-0.4-1.6-1.3-1.6c-0.8,0-1.3,0.7-1.3,1.6C74.6,16.6,75,17.3,75.9,17.3z"/>
	<path d="M79.1,14.7c0-0.3,0-0.6,0-0.9h0.5v0.7h0c0.2-0.3,0.4-0.8,1.2-0.8c0.9,0,1.3,0.6,1.3,1.5v2.4h-0.5v-2.3
		c0-0.7-0.3-1.2-0.9-1.2c-0.9,0-1.1,0.8-1.1,1.4v2.1h-0.5V14.7z"/>
	<path d="M86.3,17.1c0.3,0.1,0.6,0.2,1,0.2c0.5,0,0.8-0.2,0.8-0.7c0-0.9-1.8-0.8-1.8-1.9c0-0.8,0.6-1,1.2-1c0.2,0,0.6,0,0.9,0.2
		l0,0.4c-0.2-0.1-0.6-0.2-0.8-0.2c-0.5,0-0.8,0.1-0.8,0.6c0,0.7,1.9,0.6,1.9,1.9c0,0.8-0.8,1.1-1.3,1.1c-0.4,0-0.7,0-1.1-0.2
		L86.3,17.1z"/>
	<path d="M93,16.7c0,0.3,0,0.6,0,0.9h-0.5v-0.7h0c-0.2,0.3-0.4,0.8-1.2,0.8c-0.9,0-1.3-0.6-1.3-1.5v-2.4h0.5v2.3
		c0,0.7,0.3,1.2,0.9,1.2c0.9,0,1.1-0.8,1.1-1.4v-2.1H93V16.7z"/>
	<path d="M95.3,12.8h-0.5v-0.6h0.5V12.8z M94.8,13.8h0.5v3.8h-0.5V13.8z"/>
	<path d="M96.8,17.1c0.3,0.1,0.6,0.2,1,0.2c0.5,0,0.8-0.2,0.8-0.7c0-0.9-1.8-0.8-1.8-1.9c0-0.8,0.6-1,1.2-1c0.2,0,0.6,0,0.9,0.2
		l0,0.4c-0.2-0.1-0.6-0.2-0.8-0.2c-0.5,0-0.8,0.1-0.8,0.6c0,0.7,1.9,0.6,1.9,1.9c0,0.8-0.8,1.1-1.3,1.1c-0.4,0-0.7,0-1.1-0.2
		L96.8,17.1z"/>
	<path d="M100.3,17.1c0.3,0.1,0.6,0.2,1,0.2c0.5,0,0.8-0.2,0.8-0.7c0-0.9-1.8-0.8-1.8-1.9c0-0.8,0.6-1,1.2-1c0.2,0,0.6,0,0.9,0.2
		l0,0.4c-0.2-0.1-0.6-0.2-0.8-0.2c-0.5,0-0.8,0.1-0.8,0.6c0,0.7,1.9,0.6,1.9,1.9c0,0.8-0.8,1.1-1.3,1.1c-0.4,0-0.7,0-1.1-0.2
		L100.3,17.1z"/>
	<path d="M106.6,17.5c-0.3,0.1-0.8,0.2-1.1,0.2c-1.3,0-1.7-0.9-1.7-2c0-1.2,0.6-2,1.6-2c1.1,0,1.5,0.9,1.5,1.9v0.2h-2.6
		c0,0.8,0.4,1.5,1.3,1.5c0.3,0,0.8-0.1,1.1-0.3V17.5z M106.4,15.4c0-0.7-0.3-1.3-1-1.3c-0.7,0-1.1,0.7-1.1,1.3H106.4z"/>
	<path d="M33.7,23.3c-0.3-0.2-0.8-0.2-1.2-0.2c-1.4,0-2.1,1-2.1,2.3c0,1.3,0.7,2.3,2.1,2.3c0.3,0,0.9,0,1.2-0.2l0,0.5
		C33.4,28,32.8,28,32.5,28c-1.7,0-2.6-1.1-2.6-2.7c0-1.6,1-2.7,2.6-2.7c0.3,0,0.9,0.1,1.2,0.2L33.7,23.3z"/>
	<path d="M37.1,24c1.2,0,1.8,1,1.8,2c0,1-0.5,2-1.8,2c-1.2,0-1.8-1-1.8-2C35.3,25,35.9,24,37.1,24z M37.1,27.6
		c0.8,0,1.3-0.7,1.3-1.6c0-0.9-0.4-1.6-1.3-1.6c-0.8,0-1.3,0.7-1.3,1.6C35.8,26.9,36.3,27.6,37.1,27.6z"/>
	<path d="M40.4,25c0-0.3,0-0.6,0-0.9h0.5v0.7h0C41,24.5,41.2,24,42,24c0.9,0,1.3,0.6,1.3,1.5V28h-0.5v-2.3c0-0.7-0.3-1.2-0.9-1.2
		c-0.9,0-1.1,0.8-1.1,1.4V28h-0.5V25z"/>
	<path d="M45.4,24.5h-0.8v-0.4h0.8v-0.3c0-0.8,0-1.6,1-1.6c0.2,0,0.4,0,0.4,0.1l0,0.4c-0.1-0.1-0.2-0.1-0.4-0.1
		c-0.6,0-0.6,0.7-0.6,1.2v0.3h0.9v0.4h-0.9V28h-0.5V24.5z"/>
	<path d="M50.8,27.8C50.4,28,50,28,49.7,28c-1.3,0-1.7-0.9-1.7-2c0-1.2,0.6-2,1.6-2c1.1,0,1.5,0.9,1.5,1.9v0.2h-2.6
		c0,0.8,0.4,1.5,1.3,1.5c0.3,0,0.8-0.1,1.1-0.3V27.8z M50.5,25.8c0-0.7-0.3-1.3-1-1.3c-0.7,0-1.1,0.7-1.1,1.3H50.5z"/>
	<path d="M55.6,28h-0.5v-0.6h0c-0.3,0.5-0.6,0.7-1.2,0.7c-1.1,0-1.6-0.9-1.6-2c0-1.2,0.5-2,1.6-2c0.8,0,1.1,0.5,1.2,0.7h0v-2.4h0.5
		V28z M54,27.6c0.8,0,1.1-0.9,1.1-1.6c0-0.7-0.3-1.6-1.1-1.6c-0.9,0-1.1,0.9-1.1,1.6C52.8,26.8,53.1,27.6,54,27.6z"/>
	<path d="M59.9,27.8C59.5,28,59.1,28,58.7,28c-1.3,0-1.7-0.9-1.7-2c0-1.2,0.6-2,1.6-2c1.1,0,1.5,0.9,1.5,1.9v0.2h-2.6
		c0,0.8,0.4,1.5,1.3,1.5c0.3,0,0.8-0.1,1.1-0.3V27.8z M59.6,25.8c0-0.7-0.3-1.3-1-1.3c-0.7,0-1.1,0.7-1.1,1.3H59.6z"/>
	<path d="M61.6,25c0-0.4,0-0.6,0-0.9h0.5v0.7h0c0.2-0.4,0.5-0.8,1-0.8c0.1,0,0.2,0,0.3,0v0.5c-0.1,0-0.2,0-0.3,0c-0.8,0-1,0.8-1,1.5
		V28h-0.5V25z"/>
	<path d="M66.9,27.3L66.9,27.3c-0.2,0.5-0.8,0.7-1.2,0.7c-1.1,0-1.3-0.7-1.3-1.1c0-1.3,1.4-1.3,2.4-1.3h0.1v-0.2c0-0.7-0.2-1-0.9-1
		c-0.4,0-0.8,0.1-1.1,0.3v-0.5c0.3-0.1,0.8-0.3,1.1-0.3c0.9,0,1.3,0.4,1.3,1.4v1.7c0,0.3,0,0.5,0,0.8h-0.5V27.3z M66.9,26h-0.1
		c-0.8,0-1.8,0.1-1.8,0.9c0,0.5,0.4,0.7,0.8,0.7c1.1,0,1.1-1,1.1-1.4V26z"/>
	<path d="M68.7,27.6l2.3-3h-2.2v-0.4h2.8v0.4l-2.3,3h2.3V28h-2.9V27.6z"/>
	<path d="M73.4,23.1H73v-0.6h0.5V23.1z M73,24.1h0.5V28H73V24.1z"/>
	<path d="M76.7,24c1.2,0,1.8,1,1.8,2c0,1-0.5,2-1.8,2c-1.2,0-1.8-1-1.8-2C74.9,25,75.5,24,76.7,24z M76.7,27.6
		c0.8,0,1.3-0.7,1.3-1.6c0-0.9-0.4-1.6-1.3-1.6c-0.8,0-1.3,0.7-1.3,1.6C75.4,26.9,75.9,27.6,76.7,27.6z"/>
	<path d="M80,25c0-0.3,0-0.6,0-0.9h0.5v0.7h0c0.2-0.3,0.4-0.8,1.2-0.8c0.9,0,1.3,0.6,1.3,1.5V28h-0.5v-2.3c0-0.7-0.3-1.2-0.9-1.2
		c-0.9,0-1.1,0.8-1.1,1.4V28H80V25z"/>
	<path d="M87.3,27.8C87,28,86.5,28,86.2,28c-1.3,0-1.7-0.9-1.7-2c0-1.2,0.6-2,1.6-2c1.1,0,1.5,0.9,1.5,1.9v0.2h-2.6
		c0,0.8,0.4,1.5,1.3,1.5c0.3,0,0.8-0.1,1.1-0.3V27.8z M87,25.8c0-0.7-0.3-1.3-1-1.3c-0.7,0-1.1,0.7-1.1,1.3H87z"/>
	<path d="M91.6,27.3c0.3,0.2,0.7,0.3,1.2,0.3c0.6,0,1.2-0.3,1.2-1.1c0-1-2.4-1.2-2.4-2.5c0-0.8,0.7-1.4,1.7-1.4c0.3,0,0.7,0,1,0.2
		l-0.1,0.5c-0.2-0.1-0.6-0.2-1-0.2c-0.5,0-1.1,0.2-1.1,0.9c0,1.1,2.4,1.1,2.4,2.6c0,1.1-0.9,1.5-1.7,1.5c-0.5,0-0.9-0.1-1.2-0.2
		L91.6,27.3z"/>
	<path d="M97.4,28h-0.6l-1.3-3.8H96l1.1,3.3h0l1.1-3.3h0.5L97.4,28z"/>
	<path d="M100.4,23.1H100v-0.6h0.5V23.1z M100,24.1h0.5V28H100V24.1z"/>
	<path d="M101.9,27.6l2.3-3H102v-0.4h2.8v0.4l-2.3,3h2.3V28h-2.9V27.6z"/>
	<path d="M105.8,27.6l2.3-3h-2.2v-0.4h2.8v0.4l-2.3,3h2.3V28h-2.9V27.6z"/>
	<path d="M112.6,27.8c-0.3,0.1-0.8,0.2-1.1,0.2c-1.3,0-1.7-0.9-1.7-2c0-1.2,0.6-2,1.6-2c1.1,0,1.5,0.9,1.5,1.9v0.2h-2.6
		c0,0.8,0.4,1.5,1.3,1.5c0.3,0,0.8-0.1,1.1-0.3V27.8z M112.4,25.8c0-0.7-0.3-1.3-1-1.3c-0.7,0-1.1,0.7-1.1,1.3H112.4z"/>
	<path d="M114.4,25c0-0.4,0-0.6,0-0.9h0.5v0.7h0c0.2-0.4,0.5-0.8,1-0.8c0.1,0,0.2,0,0.3,0v0.5c-0.1,0-0.2,0-0.3,0
		c-0.8,0-1,0.8-1,1.5V28h-0.5V25z"/>
	<path d="M119.7,27.3L119.7,27.3c-0.2,0.5-0.8,0.7-1.2,0.7c-1.1,0-1.3-0.7-1.3-1.1c0-1.3,1.4-1.3,2.4-1.3h0.1v-0.2
		c0-0.7-0.2-1-0.9-1c-0.4,0-0.8,0.1-1.1,0.3v-0.5c0.3-0.1,0.8-0.3,1.1-0.3c0.9,0,1.3,0.4,1.3,1.4v1.7c0,0.3,0,0.5,0,0.8h-0.5V27.3z
		 M119.6,26h-0.1c-0.8,0-1.8,0.1-1.8,0.9c0,0.5,0.4,0.7,0.8,0.7c1.1,0,1.1-1,1.1-1.4V26z"/>
	<path d="M33.7,33.7c-0.3-0.2-0.8-0.2-1.2-0.2c-1.4,0-2.1,1-2.1,2.3c0,1.3,0.7,2.3,2.1,2.3c0.3,0,0.9,0,1.2-0.2l0,0.5
		c-0.3,0.2-0.9,0.2-1.2,0.2c-1.7,0-2.6-1.1-2.6-2.7c0-1.6,1-2.7,2.6-2.7c0.3,0,0.9,0.1,1.2,0.2L33.7,33.7z"/>
	<path d="M37.1,34.4c1.2,0,1.8,1,1.8,2c0,1-0.5,2-1.8,2c-1.2,0-1.8-1-1.8-2C35.3,35.4,35.9,34.4,37.1,34.4z M37.1,38
		c0.8,0,1.3-0.7,1.3-1.6c0-0.9-0.4-1.6-1.3-1.6c-0.8,0-1.3,0.7-1.3,1.6C35.8,37.3,36.3,38,37.1,38z"/>
	<path d="M40.4,35.4c0-0.3,0-0.6,0-0.9h0.5v0.7h0c0.2-0.3,0.4-0.8,1.2-0.8c0.9,0,1.3,0.6,1.3,1.5v2.4h-0.5V36c0-0.7-0.3-1.2-0.9-1.2
		c-0.9,0-1.1,0.8-1.1,1.4v2.1h-0.5V35.4z"/>
	<path d="M45.4,34.9h-0.8v-0.4h0.8v-0.3c0-0.8,0-1.6,1-1.6c0.2,0,0.4,0,0.4,0.1l0,0.4C46.8,33,46.6,33,46.5,33
		c-0.6,0-0.6,0.7-0.6,1.2v0.3h0.9v0.4h-0.9v3.4h-0.5V34.9z"/>
	<path d="M50.8,38.2c-0.3,0.1-0.8,0.2-1.1,0.2c-1.3,0-1.7-0.9-1.7-2c0-1.2,0.6-2,1.6-2c1.1,0,1.5,0.9,1.5,1.9v0.2h-2.6
		c0,0.8,0.4,1.5,1.3,1.5c0.3,0,0.8-0.1,1.1-0.3V38.2z M50.5,36.1c0-0.7-0.3-1.3-1-1.3c-0.7,0-1.1,0.7-1.1,1.3H50.5z"/>
	<path d="M55.6,38.3h-0.5v-0.6h0c-0.3,0.5-0.6,0.7-1.2,0.7c-1.1,0-1.6-0.9-1.6-2c0-1.2,0.5-2,1.6-2c0.8,0,1.1,0.5,1.2,0.7h0v-2.4
		h0.5V38.3z M54,38c0.8,0,1.1-0.9,1.1-1.6c0-0.7-0.3-1.6-1.1-1.6c-0.9,0-1.1,0.9-1.1,1.6C52.8,37.1,53.1,38,54,38z"/>
	<path d="M59.9,38.2c-0.3,0.1-0.8,0.2-1.1,0.2c-1.3,0-1.7-0.9-1.7-2c0-1.2,0.6-2,1.6-2c1.1,0,1.5,0.9,1.5,1.9v0.2h-2.6
		c0,0.8,0.4,1.5,1.3,1.5c0.3,0,0.8-0.1,1.1-0.3V38.2z M59.6,36.1c0-0.7-0.3-1.3-1-1.3c-0.7,0-1.1,0.7-1.1,1.3H59.6z"/>
	<path d="M61.6,35.3c0-0.4,0-0.6,0-0.9h0.5v0.7h0c0.2-0.4,0.5-0.8,1-0.8c0.1,0,0.2,0,0.3,0v0.5c-0.1,0-0.2,0-0.3,0
		c-0.8,0-1,0.8-1,1.5v1.9h-0.5V35.3z"/>
	<path d="M66.9,37.7L66.9,37.7c-0.2,0.5-0.8,0.7-1.2,0.7c-1.1,0-1.3-0.7-1.3-1.1c0-1.3,1.4-1.3,2.4-1.3h0.1v-0.2c0-0.7-0.2-1-0.9-1
		c-0.4,0-0.8,0.1-1.1,0.3v-0.5c0.3-0.1,0.8-0.3,1.1-0.3c0.9,0,1.3,0.4,1.3,1.4v1.7c0,0.3,0,0.5,0,0.8h-0.5V37.7z M66.9,36.4h-0.1
		c-0.8,0-1.8,0.1-1.8,0.9c0,0.5,0.4,0.7,0.8,0.7c1.1,0,1.1-1,1.1-1.4V36.4z"/>
	<path d="M68.7,37.9l2.3-3h-2.2v-0.4h2.8v0.4l-2.3,3h2.3v0.4h-2.9V37.9z"/>
	<path d="M73.4,33.5H73v-0.6h0.5V33.5z M73,34.5h0.5v3.8H73V34.5z"/>
	<path d="M78.2,37.4c0,0.3,0,0.6,0,0.9h-0.5v-0.7h0c-0.2,0.3-0.4,0.8-1.2,0.8c-0.9,0-1.3-0.6-1.3-1.5v-2.4h0.5v2.3
		c0,0.7,0.3,1.2,0.9,1.2c0.9,0,1.1-0.8,1.1-1.4v-2.1h0.5V37.4z"/>
	<path d="M80,35.4c0-0.3,0-0.6,0-0.9h0.5v0.7h0c0.2-0.3,0.4-0.8,1.2-0.8c0.9,0,1.3,0.6,1.3,1.5v2.4h-0.5V36c0-0.7-0.3-1.2-0.9-1.2
		c-0.9,0-1.1,0.8-1.1,1.4v2.1H80V35.4z"/>
	<path d="M87.1,37.8c0.3,0.1,0.6,0.2,1,0.2c0.5,0,0.8-0.2,0.8-0.7c0-0.9-1.8-0.8-1.8-1.9c0-0.8,0.6-1,1.2-1c0.2,0,0.6,0,0.9,0.2
		l0,0.4c-0.2-0.1-0.6-0.2-0.8-0.2c-0.5,0-0.8,0.2-0.8,0.6c0,0.7,1.9,0.6,1.9,1.9c0,0.8-0.8,1.1-1.3,1.1c-0.4,0-0.7,0-1.1-0.2
		L87.1,37.8z"/>
	<path d="M92.2,38.3h-0.6l-1.3-3.8h0.5l1.1,3.3h0l1.1-3.3h0.5L92.2,38.3z"/>
	<path d="M95.3,33.5h-0.5v-0.6h0.5V33.5z M94.8,34.5h0.5v3.8h-0.5V34.5z"/>
	<path d="M96.7,37.9l2.3-3h-2.2v-0.4h2.8v0.4l-2.3,3h2.3v0.4h-2.9V37.9z"/>
	<path d="M101,35.3c0-0.4,0-0.6,0-0.9h0.5v0.7h0c0.2-0.4,0.5-0.8,1-0.8c0.1,0,0.2,0,0.3,0v0.5c-0.1,0-0.2,0-0.3,0
		c-0.8,0-1,0.8-1,1.5v1.9H101V35.3z"/>
	<path d="M106.2,37.7L106.2,37.7c-0.2,0.5-0.8,0.7-1.2,0.7c-1.1,0-1.3-0.7-1.3-1.1c0-1.3,1.4-1.3,2.4-1.3h0.1v-0.2
		c0-0.7-0.2-1-0.9-1c-0.4,0-0.8,0.1-1.1,0.3v-0.5c0.3-0.1,0.8-0.3,1.1-0.3c0.9,0,1.3,0.4,1.3,1.4v1.7c0,0.3,0,0.5,0,0.8h-0.5V37.7z
		 M106.2,36.4h-0.1c-0.8,0-1.8,0.1-1.8,0.9c0,0.5,0.4,0.7,0.8,0.7c1.1,0,1.1-1,1.1-1.4V36.4z"/>
</g>
<g>
	<path d="M6,63.6c0,0.3,0,0.6-0.1,0.8c-0.1,0.2-0.2,0.4-0.3,0.6c-0.1,0.2-0.3,0.3-0.5,0.4c-0.2,0.1-0.4,0.1-0.6,0.2v0
		c0.2,0,0.5,0.1,0.7,0.2c0.2,0.1,0.4,0.2,0.5,0.4C5.8,66.4,6,66.6,6,66.8c0.1,0.2,0.1,0.5,0.1,0.8c0,0.5-0.1,0.9-0.3,1.2
		c-0.2,0.3-0.4,0.6-0.8,0.8c-0.3,0.2-0.7,0.3-1,0.4c-0.4,0.1-0.8,0.1-1.1,0.1c-0.5,0-0.9,0-1.2-0.1c-0.3-0.1-0.7-0.1-1-0.2l0.2-1.5
		c0.3,0.2,0.6,0.3,0.9,0.4c0.3,0.1,0.7,0.1,1,0.1c0.5,0,0.9-0.1,1.2-0.3c0.3-0.2,0.5-0.5,0.5-1c0-0.5-0.2-0.8-0.5-0.9
		c-0.3-0.2-0.8-0.2-1.4-0.2H2.1V65h0.5c0.6,0,1-0.1,1.3-0.3c0.3-0.2,0.5-0.5,0.5-0.8c0-0.2,0-0.4-0.1-0.5c-0.1-0.1-0.2-0.3-0.3-0.3
		c-0.1-0.1-0.3-0.1-0.4-0.2c-0.2,0-0.3-0.1-0.5-0.1c-0.2,0-0.3,0-0.5,0c-0.2,0-0.4,0-0.5,0.1c-0.2,0-0.3,0.1-0.5,0.1
		c-0.1,0-0.3,0.1-0.4,0.1l-0.1-1.4c0.3-0.1,0.6-0.1,1-0.2c0.4-0.1,0.7-0.1,1-0.1c0.4,0,0.8,0,1.1,0.1c0.4,0.1,0.7,0.2,0.9,0.3
		c0.3,0.2,0.5,0.4,0.6,0.7C6,62.8,6,63.2,6,63.6z"/>
	<path d="M12,70l0-0.9c-0.2,0.4-0.5,0.6-0.8,0.8c-0.4,0.2-0.7,0.2-1.1,0.2c-0.6,0-1.2-0.2-1.5-0.5c-0.4-0.3-0.6-0.8-0.6-1.4
		c0-1.3,1-2,3.1-2c0.1,0,0.3,0,0.4,0c0.1,0,0.3,0,0.5,0v0c0-0.9-0.5-1.3-1.4-1.3c-0.3,0-0.7,0.1-1,0.2c-0.3,0.1-0.6,0.3-0.9,0.5
		l0-1.4c0.3-0.2,0.6-0.3,1-0.3c0.4-0.1,0.8-0.1,1.1-0.1c0.2,0,0.5,0,0.7,0.1c0.2,0,0.5,0.1,0.7,0.2c0.2,0.1,0.4,0.2,0.6,0.4
		c0.2,0.2,0.3,0.4,0.4,0.6c0,0.1,0.1,0.2,0.1,0.3c0,0.1,0,0.2,0.1,0.4c0,0.1,0,0.3,0,0.5c0,0.2,0,0.4,0,0.7v0.9c0,0.2,0,0.5,0,0.6
		c0,0.2,0,0.4,0,0.6c0,0.2,0,0.3,0,0.5c0,0.2,0,0.3,0,0.5H12z M11.9,67.2c-0.1,0-0.2,0-0.3,0c-0.1,0-0.1,0-0.2,0c-1.3,0-2,0.3-2,1
		c0,0.2,0.1,0.4,0.3,0.6C9.9,69,10.2,69,10.5,69c0.3,0,0.5-0.1,0.8-0.2c0.2-0.2,0.4-0.4,0.5-0.6c0.1-0.1,0.1-0.3,0.1-0.4
		C11.9,67.6,11.9,67.4,11.9,67.2z"/>
	<path d="M23.8,70v-5h-2.5v5h-1.6v-6.2h5.7V70H23.8z"/>
	<path d="M27.9,62.7v-1.5h1.6v1.5H27.9z M27.9,63.8h1.6V70h-1.6V63.8z"/>
	<path d="M36.7,71.9V70h-3.9v1.9h-1.6v-3.1h0.7c0.1-0.1,0.2-0.2,0.3-0.4c0.1-0.2,0.2-0.4,0.2-0.7c0.1-0.3,0.1-0.6,0.2-0.9
		c0-0.3,0.1-0.6,0.1-0.9v-2.1h4.8v5h0.8v3.1H36.7z M35.8,65.1h-1.6v0.9c0,0.3,0,0.6-0.1,0.9c0,0.3-0.1,0.6-0.1,0.9
		c-0.1,0.3-0.1,0.5-0.2,0.7c-0.1,0.2-0.1,0.3-0.2,0.4h2.2V65.1z"/>
	<path d="M42.6,65.1v5H41v-5h-1.8v-1.2h5.2v1.2H42.6z"/>
	<path d="M47.6,72.5H46v-6.9c0-0.3,0-0.6,0-0.9c0-0.3,0-0.6,0-0.9h1.5l0,1c0.2-0.4,0.5-0.6,0.8-0.8c0.3-0.2,0.7-0.3,1.1-0.3
		c0.4,0,0.7,0.1,1.1,0.2c0.3,0.1,0.6,0.3,0.8,0.6c0.2,0.3,0.4,0.6,0.5,1c0.1,0.4,0.2,0.8,0.2,1.3c0,1-0.2,1.8-0.7,2.4
		c-0.5,0.6-1.1,0.9-1.9,0.9c-0.8,0-1.4-0.3-1.8-0.9V72.5z M47.6,67c0,0.6,0.1,1,0.4,1.4c0.3,0.3,0.6,0.5,1,0.5c0.4,0,0.8-0.2,1-0.5
		c0.2-0.4,0.4-0.8,0.4-1.4c0-0.6-0.1-1-0.3-1.3c-0.2-0.3-0.5-0.5-0.9-0.5c-0.5,0-0.8,0.2-1.1,0.5C47.8,65.9,47.6,66.4,47.6,67z"/>
	<path d="M58.3,70v-4.1h0L55.8,70H54v-6.2h1.6v4.1h0l2.4-4.1h1.8V70H58.3z"/>
	<path d="M68.2,70v-4.8h0L66.8,70H65l-1.3-4.8h0V70h-1.5v-6.2h2.4l1.3,4.9h0l1.4-4.9h2.3V70H68.2z"/>
	<path d="M77.5,63.8l-2.3,2.9l2.6,3.2h-2.1l-2.1-3v3H72v-6.2h1.6v2.8l2-2.8H77.5z"/>
	<path d="M83.6,70v-4.1h0L81.1,70h-1.8v-6.2H81v4.1h0l2.4-4.1h1.8V70H83.6z"/>
	<path d="M91.8,61.6h1.7v7h2.9v-7H98v7h2.9v-7h1.7V70H91.8V61.6z"/>
	<path d="M110.5,68.2c0,0.6-0.2,1.1-0.6,1.3c-0.4,0.3-1,0.4-1.7,0.4h-3.1v-6.2h3.2c0.4,0,0.7,0,1,0.1c0.3,0.1,0.5,0.2,0.6,0.3
		c0.2,0.1,0.3,0.3,0.3,0.5c0.1,0.2,0.1,0.4,0.1,0.6c0,0.2,0,0.4-0.1,0.6c-0.1,0.2-0.2,0.3-0.3,0.4c-0.1,0.1-0.2,0.2-0.4,0.3
		c-0.1,0.1-0.3,0.1-0.4,0.1v0c0.1,0,0.2,0,0.4,0.1c0.2,0.1,0.3,0.1,0.4,0.3c0.1,0.1,0.3,0.3,0.4,0.4C110.4,67.8,110.5,68,110.5,68.2
		z M108.7,65.6c0-0.1,0-0.2-0.1-0.3c-0.1-0.1-0.1-0.1-0.2-0.2c-0.1,0-0.2-0.1-0.3-0.1c-0.1,0-0.2,0-0.3,0h-1.2v1.4h1.2
		c0.2,0,0.4,0,0.6-0.1C108.6,66.1,108.7,65.9,108.7,65.6z M108.8,68.1c0-0.2,0-0.3-0.1-0.4c-0.1-0.1-0.1-0.2-0.2-0.2
		c-0.1-0.1-0.2-0.1-0.3-0.1c-0.1,0-0.2,0-0.3,0h-1.3v1.5h1.2c0.3,0,0.5-0.1,0.7-0.2C108.7,68.6,108.8,68.4,108.8,68.1z"/>
	<path d="M113.7,67.4c0,0.3,0.1,0.5,0.2,0.7c0.1,0.2,0.2,0.3,0.4,0.5s0.4,0.2,0.6,0.3c0.2,0.1,0.4,0.1,0.7,0.1c0.3,0,0.7,0,1-0.1
		c0.3-0.1,0.7-0.2,1-0.5v1.3c-0.1,0.1-0.2,0.1-0.4,0.2c-0.2,0.1-0.3,0.1-0.5,0.2c-0.2,0-0.4,0.1-0.6,0.1c-0.2,0-0.4,0-0.6,0
		c-1,0-1.8-0.3-2.4-0.9c-0.6-0.6-0.8-1.4-0.8-2.4c0-0.5,0.1-1,0.2-1.4c0.1-0.4,0.3-0.7,0.6-1c0.3-0.3,0.6-0.5,1-0.7
		c0.4-0.2,0.8-0.2,1.3-0.2c0.5,0,1,0.1,1.3,0.3c0.3,0.2,0.6,0.4,0.8,0.8c0.2,0.3,0.4,0.7,0.5,1.1c0.1,0.4,0.1,0.8,0.1,1.3
		c0,0.1,0,0.1,0,0.2s0,0.1,0,0.2H113.7z M116.4,66.3c0-0.5-0.2-0.9-0.4-1.1c-0.2-0.3-0.5-0.4-1-0.4c-0.4,0-0.7,0.1-0.9,0.4
		c-0.2,0.3-0.4,0.6-0.4,1.1H116.4z"/>
	<path d="M124.1,70v-4.1h0l-2.4,4.1h-1.8v-6.2h1.6v4.1h0l2.4-4.1h1.8V70H124.1z M123.9,62.6c-0.3,0.2-0.7,0.3-1.1,0.3
		c-0.2,0-0.4,0-0.6-0.1c-0.2-0.1-0.4-0.1-0.5-0.2c-0.2-0.1-0.3-0.2-0.5-0.4c-0.1-0.1-0.3-0.3-0.4-0.5l0.6-0.6
		c0.2,0.2,0.4,0.4,0.6,0.5c0.2,0.1,0.5,0.2,0.8,0.2c0.3,0,0.6-0.1,0.8-0.2c0.2-0.1,0.4-0.3,0.6-0.5l0.6,0.6
		C124.5,62.1,124.2,62.4,123.9,62.6z"/>
	<path d="M133,71.9V70h-4.9v-6.2h1.6v5h2.4v-5h1.6v5h0.8v3.1H133z"/>
	<path d="M139.9,70l0-0.9c-0.2,0.4-0.5,0.6-0.8,0.8c-0.4,0.2-0.7,0.2-1.1,0.2c-0.6,0-1.2-0.2-1.5-0.5c-0.4-0.3-0.6-0.8-0.6-1.4
		c0-1.3,1-2,3.1-2c0.1,0,0.3,0,0.4,0c0.1,0,0.3,0,0.5,0v0c0-0.9-0.5-1.3-1.4-1.3c-0.3,0-0.7,0.1-1,0.2c-0.3,0.1-0.6,0.3-0.9,0.5
		l0-1.4c0.3-0.2,0.6-0.3,1-0.3c0.4-0.1,0.8-0.1,1.1-0.1c0.2,0,0.5,0,0.7,0.1c0.2,0,0.5,0.1,0.7,0.2c0.2,0.1,0.4,0.2,0.6,0.4
		c0.2,0.2,0.3,0.4,0.4,0.6c0,0.1,0.1,0.2,0.1,0.3c0,0.1,0,0.2,0.1,0.4c0,0.1,0,0.3,0,0.5c0,0.2,0,0.4,0,0.7v0.9c0,0.2,0,0.5,0,0.6
		c0,0.2,0,0.4,0,0.6c0,0.2,0,0.3,0,0.5c0,0.2,0,0.3,0,0.5H139.9z M139.9,67.2c-0.1,0-0.2,0-0.3,0c-0.1,0-0.1,0-0.2,0
		c-1.3,0-2,0.3-2,1c0,0.2,0.1,0.4,0.3,0.6c0.2,0.1,0.4,0.2,0.7,0.2c0.3,0,0.5-0.1,0.8-0.2c0.2-0.2,0.4-0.4,0.5-0.6
		c0.1-0.1,0.1-0.3,0.1-0.4C139.9,67.6,139.9,67.4,139.9,67.2z"/>
	<path d="M145.3,72.5h-1.6v-6.9c0-0.3,0-0.6,0-0.9c0-0.3,0-0.6,0-0.9h1.5l0,1c0.2-0.4,0.5-0.6,0.8-0.8c0.3-0.2,0.7-0.3,1.1-0.3
		c0.4,0,0.7,0.1,1.1,0.2c0.3,0.1,0.6,0.3,0.8,0.6c0.2,0.3,0.4,0.6,0.5,1c0.1,0.4,0.2,0.8,0.2,1.3c0,1-0.2,1.8-0.7,2.4
		c-0.5,0.6-1.1,0.9-1.9,0.9c-0.8,0-1.4-0.3-1.8-0.9V72.5z M145.3,67c0,0.6,0.1,1,0.4,1.4c0.3,0.3,0.6,0.5,1,0.5c0.4,0,0.8-0.2,1-0.5
		c0.2-0.4,0.4-0.8,0.4-1.4c0-0.6-0.1-1-0.3-1.3c-0.2-0.3-0.5-0.5-0.9-0.5c-0.5,0-0.8,0.2-1.1,0.5C145.4,65.9,145.3,66.4,145.3,67z"
		/>
	<path d="M151.7,62.7v-1.5h1.6v1.5H151.7z M151.7,63.8h1.6V70h-1.6V63.8z"/>
	<path d="M156.1,62.8h-1.4v-1.4h1.4V62.8z M155.8,63.8h1.6V70h-1.6V63.8z M158.5,62.8h-1.4v-1.4h1.4V62.8z"/>
</g>
</svg>
