<svg width="36" height="36" viewBox="0 0 36 36" fill="none" xmlns="http://www.w3.org/2000/svg">
<path d="M17.9967 36C25.8821 36 30.2687 36 33.1344 33.1344C36 30.2687 36 25.8887 36 17.9967C36 10.1048 36 5.72475 33.1344 2.85911C30.2687 0 25.8887 0 17.9967 0C10.1048 0 5.72475 0 2.86564 2.86564C0 5.72475 0 10.1113 0 17.9967C0 25.8821 0 30.2687 2.86564 33.1344C5.72475 36 10.1113 36 17.9967 36Z" fill="white"/>
<path fill-rule="evenodd" clip-rule="evenodd" d="M26.9933 6.23828C26.3362 6.23828 25.6914 6.50365 25.2278 6.96961C24.7605 7.43359 24.4932 8.0794 24.4932 8.73885C24.4932 9.39574 24.7616 10.0407 25.2278 10.5067C25.6905 10.9706 26.3362 11.2383 26.9933 11.2383C27.6524 11.2383 28.2949 10.9706 28.7608 10.5067C29.227 10.0407 29.4932 9.39461 29.4932 8.73885C29.4932 8.0794 29.227 7.43359 28.7608 6.96961C28.2969 6.50365 27.6524 6.23828 26.9933 6.23828Z" fill="black"/>
<circle cx="18" cy="18" r="7" stroke="black" stroke-width="2"/>
</svg>
