<svg width="36" height="36" viewBox="0 0 36 36" fill="none" xmlns="http://www.w3.org/2000/svg">
<path d="M17.9967 36C25.8821 36 30.2687 36 33.1344 33.1344C36 30.2687 36 25.8887 36 17.9967C36 10.1048 36 5.72475 33.1344 2.85911C30.2687 0 25.8887 0 17.9967 0C10.1048 0 5.72475 0 2.86564 2.86564C0 5.72475 0 10.1113 0 17.9967C0 25.8821 0 30.2687 2.86564 33.1344C5.72475 36 10.1113 36 17.9967 36Z" fill="white"/>
<path d="M15.9053 28V19.502H13V16.125H15.9053V13.4643C15.9053 10.5734 17.7083 9 20.3409 9C21.6023 9 22.6856 9.09277 23 9.13359V12.1543H21.1742C19.7424 12.1543 19.4659 12.8223 19.4659 13.7982V16.125H22.697L22.2538 19.502H19.4659V28" fill="black"/>
</svg>
