<svg width="45" height="44" viewBox="0 0 45 44" fill="none"
  xmlns="http://www.w3.org/2000/svg">
  <path d="M31.9955 0H13.2707C6.3706 0 0.756836 5.61376 0.756836 12.5138V31.2386C0.756836 38.1387 6.3706 43.7524 13.2707 43.7524H31.9955C38.8955 43.7524 44.5093 38.1387 44.5093 31.2294V12.5138C44.5185 5.61376 38.9047 0 31.9955 0ZM22.6331 33.3059C16.3302 33.3059 11.2034 28.1791 11.2034 21.8762C11.2034 15.5734 16.3302 10.4466 22.6331 10.4466C28.9359 10.4466 34.0627 15.5734 34.0627 21.8762C34.0627 28.1791 28.9359 33.3059 22.6331 33.3059ZM32.7397 12.2841C32.5375 12.1555 32.363 11.9809 32.2343 11.7788C30.6448 9.22458 33.3277 6.53255 35.8819 8.13123C36.084 8.25986 36.2586 8.43443 36.3872 8.63656C37.9767 11.1908 35.2847 13.8828 32.7397 12.2841Z" fill="#1E1E1E"/>
  <path d="M22.6337 14.1033C18.3429 14.1033 14.8516 17.5946 14.8516 21.8854C14.8516 26.1761 18.3429 29.6675 22.6337 29.6675C26.9244 29.6675 30.4157 26.1761 30.4157 21.8854C30.4157 17.5946 26.9336 14.1033 22.6337 14.1033Z" fill="#1E1E1E"/>
</svg>