<?xml version="1.0" encoding="UTF-8" standalone="no"?>
<svg
   xmlns:dc="http://purl.org/dc/elements/1.1/"
   xmlns:cc="http://creativecommons.org/ns#"
   xmlns:rdf="http://www.w3.org/1999/02/22-rdf-syntax-ns#"
   xmlns:svg="http://www.w3.org/2000/svg"
   xmlns="http://www.w3.org/2000/svg"
   xmlns:sodipodi="http://sodipodi.sourceforge.net/DTD/sodipodi-0.dtd"
   xmlns:inkscape="http://www.inkscape.org/namespaces/inkscape"
   inkscape:version="1.0 (4035a4f, 2020-05-01)"
   sodipodi:docname="undraw_navigator_a479.svg"
   id="svg987"
   version="1.1"
   viewBox="0 0 886.35125 491.63114"
   height="491.63114"
   width="886.35125"
   data-name="Layer 1">
  <metadata
     id="metadata993">
    <rdf:RDF>
      <cc:Work
         rdf:about="">
        <dc:format>image/svg+xml</dc:format>
        <dc:type
           rdf:resource="http://purl.org/dc/dcmitype/StillImage" />
      </cc:Work>
    </rdf:RDF>
  </metadata>
  <defs
     id="defs991" />
  <sodipodi:namedview
     inkscape:current-layer="svg987"
     inkscape:window-maximized="1"
     inkscape:window-y="23"
     inkscape:window-x="0"
     inkscape:cy="506.56013"
     inkscape:cx="269.22478"
     inkscape:zoom="0.50967418"
     showgrid="false"
     id="namedview989"
     inkscape:window-height="855"
     inkscape:window-width="1440"
     inkscape:pageshadow="2"
     inkscape:pageopacity="0"
     guidetolerance="10"
     gridtolerance="10"
     objecttolerance="10"
     borderopacity="1"
     bordercolor="#666666"
     pagecolor="#ffffff" />
  <title
     id="title833">navigator</title>
  <circle
     id="circle835"
     fill="#ff6584"
     r="50.76267"
     cy="103.24635"
     cx="232.39589" />
  <path
     id="path837"
     fill="#3f3d56"
     transform="translate(-156.82437 -204.18443)"
     d="M548.40633,463.86269H299.37989a5.07941,5.07941,0,0,1-.93059-.07373L416.22735,259.78044a8.24649,8.24649,0,0,1,14.35487,0L509.62607,396.686l3.78685,6.55094Z" />
  <polygon
     id="polygon839"
     opacity="0.2"
     points="391.582 259.678 306.558 259.678 348.296 199.052 351.3 194.685 352.802 192.502 356.589 199.052 391.582 259.678" />
  <path
     id="path841"
     fill="#3f3d56"
     transform="translate(-156.82437 -204.18443)"
     d="M687.06247,463.86269H471.67506l41.73786-60.62578,3.0036-4.36731,54.38818-79.007c3.56567-5.17807,12.14357-5.50052,16.33577-.97665a9.82994,9.82994,0,0,1,.7832.97665Z" />
  <circle
     id="circle843"
     fill="#6c63ff"
     r="15.29649"
     cy="210.81982"
     cx="593.46332" />
  <polygon
     id="polygon845"
     fill="#3f3d56"
     points="594.938 256.894 591.805 256.894 593.233 208.516 594.938 256.894" />
  <polygon
     id="polygon847"
     fill="#3f3d56"
     points="593.509 217.685 596.873 213.031 593.463 218.837 593.095 218.192 593.509 217.685" />
  <polygon
     id="polygon849"
     fill="#3f3d56"
     points="593.141 222.384 589.777 217.731 593.187 223.536 593.555 222.891 593.141 222.384" />
  <circle
     id="circle851"
     fill="#6c63ff"
     r="15.29649"
     cy="210.81982"
     cx="733.78005" />
  <polygon
     id="polygon853"
     fill="#3f3d56"
     points="735.254 256.894 732.121 256.894 733.55 208.516 735.254 256.894" />
  <polygon
     id="polygon855"
     fill="#3f3d56"
     points="733.826 217.685 737.19 213.031 733.78 218.837 733.411 218.192 733.826 217.685" />
  <polygon
     id="polygon857"
     fill="#3f3d56"
     points="733.458 222.384 730.094 217.731 733.504 223.536 733.872 222.891 733.458 222.384" />
  <circle
     id="circle859"
     fill="#6c63ff"
     r="22.59164"
     cy="188.84646"
     cx="637.77455" />
  <polygon
     id="polygon861"
     fill="#3f3d56"
     points="639.952 256.894 635.325 256.894 637.434 185.444 639.952 256.894" />
  <polygon
     id="polygon863"
     fill="#3f3d56"
     points="637.843 198.985 642.81 192.113 637.775 200.687 637.23 199.734 637.843 198.985" />
  <polygon
     id="polygon865"
     fill="#3f3d56"
     points="637.298 205.926 632.331 199.054 637.366 207.627 637.911 206.675 637.298 205.926" />
  <circle
     id="circle867"
     fill="#6c63ff"
     r="22.59164"
     cy="188.84646"
     cx="692.86823" />
  <polygon
     id="polygon869"
     fill="#3f3d56"
     points="695.046 256.894 690.419 256.894 692.528 185.444 695.046 256.894" />
  <polygon
     id="polygon871"
     fill="#3f3d56"
     points="692.936 198.985 697.904 192.113 692.868 200.687 692.324 199.734 692.936 198.985" />
  <polygon
     id="polygon873"
     fill="#3f3d56"
     points="692.392 205.926 687.424 199.054 692.46 207.627 693.004 206.675 692.392 205.926" />
  <circle
     id="circle875"
     fill="#6c63ff"
     r="22.59164"
     cy="188.84646"
     cx="549.96899" />
  <polygon
     id="polygon877"
     fill="#3f3d56"
     points="552.146 256.894 547.519 256.894 549.629 185.444 552.146 256.894" />
  <polygon
     id="polygon879"
     fill="#3f3d56"
     points="550.037 198.985 555.004 192.113 549.969 200.687 549.425 199.734 550.037 198.985" />
  <polygon
     id="polygon881"
     fill="#3f3d56"
     points="549.493 205.926 544.525 199.054 549.561 207.627 550.105 206.675 549.493 205.926" />
  <path
     style="fill:#808080;fill-opacity:1"
     id="path883"
     fill="#e6e6e6"
     transform="translate(-156.82437 -204.18443)"
     d="M974.074,695.81557H236.80819a70.734,70.734,0,1,1,0-141.468H972.44164a27.20538,27.20538,0,0,0,0-54.41076H212.32335v-43.5286H972.44164a70.734,70.734,0,1,1,0,141.468H236.80819a27.20538,27.20538,0,1,0,0,54.41076H974.074Z" />
  <rect
     id="rect885"
     fill="#fff"
     height="2.17643"
     width="33.73467"
     y="272.8999"
     x="82.70435" />
  <rect
     id="rect887"
     fill="#fff"
     height="2.17643"
     width="33.73467"
     y="272.8999"
     x="178.46729" />
  <rect
     id="rect889"
     fill="#fff"
     height="2.17643"
     width="33.73467"
     y="272.8999"
     x="274.23022" />
  <rect
     id="rect891"
     fill="#fff"
     height="2.17643"
     width="33.73467"
     y="272.8999"
     x="369.99316" />
  <rect
     id="rect893"
     fill="#fff"
     height="2.17643"
     width="33.73467"
     y="272.8999"
     x="465.75609" />
  <rect
     id="rect895"
     fill="#fff"
     height="2.17643"
     width="33.73467"
     y="272.8999"
     x="561.51903" />
  <rect
     id="rect897"
     fill="#fff"
     height="2.17643"
     width="33.73467"
     y="272.8999"
     x="657.28196" />
  <rect
     id="rect899"
     fill="#fff"
     height="2.17643"
     width="33.73467"
     y="272.8999"
     x="753.04489" />
  <rect
     id="rect901"
     fill="#fff"
     height="2.17643"
     width="33.73467"
     y="370.83926"
     x="82.70435" />
  <rect
     id="rect903"
     fill="#fff"
     height="2.17643"
     width="33.73467"
     y="370.83926"
     x="178.46729" />
  <rect
     id="rect905"
     fill="#fff"
     height="2.17643"
     width="33.73467"
     y="370.83926"
     x="274.23022" />
  <rect
     id="rect907"
     fill="#fff"
     height="2.17643"
     width="33.73467"
     y="370.83926"
     x="369.99316" />
  <rect
     id="rect909"
     fill="#fff"
     height="2.17643"
     width="33.73467"
     y="370.83926"
     x="465.75609" />
  <rect
     id="rect911"
     fill="#fff"
     height="2.17643"
     width="33.73467"
     y="370.83926"
     x="561.51903" />
  <rect
     id="rect913"
     fill="#fff"
     height="2.17643"
     width="33.73467"
     y="370.83926"
     x="657.28196" />
  <rect
     id="rect915"
     fill="#fff"
     height="2.17643"
     width="33.73467"
     y="370.83926"
     x="753.04489" />
  <rect
     id="rect917"
     fill="#fff"
     height="2.17643"
     width="33.73467"
     y="468.77863"
     x="82.70435" />
  <rect
     id="rect919"
     fill="#fff"
     height="2.17643"
     width="33.73467"
     y="468.77863"
     x="178.46729" />
  <rect
     id="rect921"
     fill="#fff"
     height="2.17643"
     width="33.73467"
     y="468.77863"
     x="274.23022" />
  <rect
     id="rect923"
     fill="#fff"
     height="2.17643"
     width="33.73467"
     y="468.77863"
     x="369.99316" />
  <rect
     id="rect925"
     fill="#fff"
     height="2.17643"
     width="33.73467"
     y="468.77863"
     x="465.75609" />
  <rect
     id="rect927"
     fill="#fff"
     height="2.17643"
     width="33.73467"
     y="468.77863"
     x="561.51903" />
  <rect
     id="rect929"
     fill="#fff"
     height="2.17643"
     width="33.73467"
     y="468.77863"
     x="657.28196" />
  <rect
     id="rect931"
     fill="#fff"
     height="2.17643"
     width="33.73467"
     y="468.77863"
     x="753.04489" />
  <path
     id="path933"
     fill="none"
     transform="translate(-156.82437 -204.18443)"
     d="M732.01016,298.87947a28.99191,28.99191,0,0,0-6.04507-5.70351h12.62379A21.11412,21.11412,0,0,0,732.01016,298.87947Z" />
  <path
     id="path935"
     fill="none"
     transform="translate(-156.82437 -204.18443)"
     d="M690.74325,293.176h2.17616c-.46752.32845-.93648.65539-1.38307,1.01036C691.28145,293.84181,691.00932,293.51136,690.74325,293.176Z" />
  <path
     style="fill:#808080;fill-opacity:1"
     id="path937"
     fill="#e6e6e6"
     transform="translate(-156.82437 -204.18443)"
     d="M748.69208,290.55856a20.83292,20.83292,0,0,1,10.12924,2.6174H738.58888A20.74188,20.74188,0,0,1,748.69208,290.55856Z" />
  <path
     style="fill:#808080;fill-opacity:1"
     id="path939"
     fill="#e6e6e6"
     transform="translate(-156.82437 -204.18443)"
     d="M709.43111,287.94117a28.623,28.623,0,0,1,16.534,5.23479H692.91941A28.61637,28.61637,0,0,1,709.43111,287.94117Z" />
  <path
     style="fill:#808080;fill-opacity:1"
     id="path941"
     fill="#e6e6e6"
     transform="translate(-156.82437 -204.18443)"
     d="M487.03606,254.80744a53.65615,53.65615,0,0,1,105.27431-11.3126c.65-.02332,1.29951-.04944,1.95522-.04944a53.66909,53.66909,0,0,1,51.48218,38.53833A37.92036,37.92036,0,0,1,690.74325,293.176h-167.372a36.29323,36.29323,0,0,1-36.37313-37.57718Q487.01422,255.2037,487.03606,254.80744Z" />
  <path
     id="path943"
     fill="none"
     transform="translate(-156.82437 -204.18443)"
     d="M777.58705,338.05522a28.99214,28.99214,0,0,1,6.04507-5.70351H771.00833A21.11388,21.11388,0,0,1,777.58705,338.05522Z" />
  <path
     id="path945"
     fill="none"
     transform="translate(-156.82437 -204.18443)"
     d="M818.854,332.35171h-2.17616c.46752.32845.93647.65539,1.38306,1.01036C818.31576,333.01756,818.5879,332.68711,818.854,332.35171Z" />
  <path
     style="fill:#808080;fill-opacity:1"
     id="path947"
     fill="#e6e6e6"
     transform="translate(-156.82437 -204.18443)"
     d="M760.90514,329.73431a20.83286,20.83286,0,0,0-10.12924,2.6174h20.23243A20.74171,20.74171,0,0,0,760.90514,329.73431Z" />
  <path
     style="fill:#808080;fill-opacity:1"
     id="path949"
     fill="#e6e6e6"
     transform="translate(-156.82437 -204.18443)"
     d="M800.16611,327.11691a28.62293,28.62293,0,0,0-16.534,5.2348h33.04569A28.61635,28.61635,0,0,0,800.16611,327.11691Z" />
  <path
     style="fill:#808080;fill-opacity:1"
     id="path951"
     fill="#e6e6e6"
     transform="translate(-156.82437 -204.18443)"
     d="M1022.56115,293.98318a53.65615,53.65615,0,0,0-105.27431-11.31259c-.65-.02333-1.29951-.04945-1.95522-.04945a53.66909,53.66909,0,0,0-51.48218,38.53833A37.92038,37.92038,0,0,0,818.854,332.35171H986.226a36.29324,36.29324,0,0,0,36.37314-37.57719Q1022.583,294.37945,1022.56115,293.98318Z" />
  <rect
     id="rect953"
     fill="#3f3d56"
     transform="translate(1684.22678 1124.02413) rotate(-179.96937)"
     height="3.08772"
     width="19.45264"
     y="662.3144"
     x="910.97675" />
  <path
     id="path955"
     fill="#6c63ff"
     transform="translate(-156.82437 -204.18443)"
     d="M770.33154,663.006l4.01354.92846,152.53335.08154,1.37161-3.19572a32.257,32.257,0,0,0,2.37148-17.44193c-.65694-4.4136-2.30315-8.79914-6.04213-10.70394L917.8105,587.59l-84.38886-.151L800.7719,613.77308s-15.40137-.27686-23.7685,10.13972a24.44959,24.44959,0,0,0-5.1143,13.46591l-.33022,5.41878Z" />
  <circle
     id="circle957"
     fill="#3f3d56"
     r="18.83509"
     cy="458.0675"
     cx="647.00933" />
  <circle
     id="circle959"
     fill="#ccc"
     r="9.91321"
     cy="458.0675"
     cx="647.00933" />
  <circle
     id="circle961"
     fill="#3f3d56"
     r="18.83509"
     cy="458.11718"
     cx="739.94969" />
  <circle
     id="circle963"
     fill="#ccc"
     r="9.91321"
     cy="458.11718"
     cx="739.94969" />
  <polygon
     id="polygon965"
     fill="#fff"
     points="656.92 406.511 702.483 406.53 708.045 406.53 717.435 406.537 717.435 405.852 717.442 397.594 717.449 388.322 711.201 388.322 705.639 388.316 695.787 388.309 690.225 388.309 678.851 388.302 656.92 406.511" />
  <polygon
     id="polygon967"
     fill="#fff"
     points="724.849 406.544 748.929 406.557 748.935 401.832 748.935 393.574 748.942 388.342 745.416 388.342 739.854 388.335 724.856 388.329 724.849 406.544" />
  <rect
     id="rect969"
     fill="#3f3d56"
     transform="translate(1588.2574 1050.7682) rotate(-179.96937)"
     height="5.86667"
     width="3.08772"
     y="624.30978"
     x="871.16473" />
  <rect
     id="rect971"
     fill="#3f3d56"
     transform="translate(1284.26173 -409.51982) rotate(90.03063)"
     height="5.86667"
     width="3.08772"
     y="614.55698"
     x="821.61203" />
  <path
     id="path973"
     fill="#3f3d56"
     transform="translate(1483.91874 1017.9547) rotate(-179.96937)"
     d="M817.13838,604.397h.33966a6.45333,6.45333,0,0,1,6.45333,6.45333v0a6.45333,6.45333,0,0,1-6.45333,6.45333h-.33966a0,0,0,0,1,0,0V604.397A0,0,0,0,1,817.13838,604.397Z" />
  <path
     id="path975"
     fill="#3f3d56"
     transform="translate(-156.82437 -204.18443)"
     d="M771.55888,642.79749a9.97473,9.97473,0,0,0,5.44452-18.88469,24.44959,24.44959,0,0,0-5.1143,13.46591Z" />
  <polygon
     id="polygon977"
     fill="#f2f2f2"
     points="705.639 388.316 717.435 405.852 717.442 397.594 711.201 388.322 705.639 388.316" />
  <polygon
     id="polygon979"
     fill="#f2f2f2"
     points="739.854 388.335 748.935 401.832 748.935 393.574 745.416 388.342 739.854 388.335" />
  <polygon
     id="polygon981"
     fill="#f2f2f2"
     points="690.225 388.309 702.483 406.53 708.045 406.53 695.787 388.309 690.225 388.309" />
  <circle
     id="circle983"
     fill="#3f3d56"
     r="50.0579"
     cy="260.92953"
     cx="50.0579" />
  <path
     id="path985"
     fill="#6c63ff"
     transform="translate(-156.82437 -204.18443)"
     d="M207.09056,480.18425l-25.05073-25.05073a4.35315,4.35315,0,0,1,6.15628-6.15628L206.674,467.45511l58.96394-67.23927a4.35271,4.35271,0,0,1,6.54523,5.7397Z" />
</svg>
